<mxfile host="app.diagrams.net" agent="Mozilla/5.0 (Macintosh; Intel Mac OS X 10_15_7) AppleWebKit/537.36 (KHTML, like Gecko) Chrome/130.0.0.0 Safari/537.36" version="25.0.3">
  <diagram name="第 1 页" id="DB9qKEcHysMweFTd_1Fy">
    <mxGraphModel dx="3187" dy="1029" grid="0" gridSize="10" guides="1" tooltips="1" connect="1" arrows="1" fold="1" page="1" pageScale="1" pageWidth="1250" pageHeight="500" math="0" shadow="1">
      <root>
        <mxCell id="0" />
        <mxCell id="1" parent="0" />
        <mxCell id="trXp6Y1SY67JESG5djMZ-2" value="" style="whiteSpace=wrap;html=1;rounded=1;dashed=1;shadow=1;" vertex="1" parent="1">
          <mxGeometry x="15" y="535" width="261" height="450" as="geometry" />
        </mxCell>
        <mxCell id="trXp6Y1SY67JESG5djMZ-3" value="" style="group" vertex="1" connectable="0" parent="1">
          <mxGeometry x="40.5" y="512" width="210" height="40" as="geometry" />
        </mxCell>
        <mxCell id="trXp6Y1SY67JESG5djMZ-4" value="&lt;p style=&quot;margin: 0px; font-variant-numeric: normal; font-variant-east-asian: normal; font-variant-alternates: normal; font-size-adjust: none; font-kerning: auto; font-optical-sizing: auto; font-feature-settings: normal; font-variation-settings: normal; font-variant-position: normal; font-stretch: normal; line-height: normal; text-align: start; font-size: 20px;&quot; class=&quot;p1&quot;&gt;&lt;br&gt;&lt;/p&gt;" style="whiteSpace=wrap;html=1;fontFamily=Times New Roman;fontSize=20;shadow=0;strokeColor=none;" vertex="1" parent="trXp6Y1SY67JESG5djMZ-3">
          <mxGeometry width="210" height="40" as="geometry" />
        </mxCell>
        <mxCell id="trXp6Y1SY67JESG5djMZ-5" value="&lt;p style=&quot;margin: 0px; font-variant-numeric: normal; font-variant-east-asian: normal; font-variant-alternates: normal; font-size-adjust: none; font-kerning: auto; font-optical-sizing: auto; font-feature-settings: normal; font-variation-settings: normal; font-variant-position: normal; font-stretch: normal; line-height: normal; text-align: start; font-size: 20px;&quot; class=&quot;p1&quot;&gt;&lt;font style=&quot;font-size: 20px;&quot; face=&quot;Comic Sans MS&quot; color=&quot;#0e0e0e&quot;&gt;Strategy Refinement&lt;/font&gt;&lt;/p&gt;" style="whiteSpace=wrap;html=1;fontFamily=Times New Roman;fillColor=#FFB366;strokeColor=none;fontSize=20;shadow=1;sketch=1;curveFitting=1;jiggle=2;" vertex="1" parent="trXp6Y1SY67JESG5djMZ-3">
          <mxGeometry width="210" height="40" as="geometry" />
        </mxCell>
        <mxCell id="trXp6Y1SY67JESG5djMZ-6" value="" style="edgeStyle=orthogonalEdgeStyle;rounded=0;orthogonalLoop=1;jettySize=auto;html=1;dashed=1;dashPattern=12 12;strokeColor=#FFB366;" edge="1" parent="1" source="trXp6Y1SY67JESG5djMZ-7" target="trXp6Y1SY67JESG5djMZ-8">
          <mxGeometry relative="1" as="geometry" />
        </mxCell>
        <mxCell id="trXp6Y1SY67JESG5djMZ-7" value="&lt;p style=&quot;margin-top: 0pt; margin-bottom: 0pt; margin-left: 0in; direction: ltr; unicode-bidi: embed; word-break: normal;&quot;&gt;&lt;font&gt;&lt;br&gt;&lt;/font&gt;&lt;/p&gt;&lt;p style=&quot;margin-top: 0pt; margin-bottom: 0pt; margin-left: 0in; direction: ltr; unicode-bidi: embed; word-break: normal;&quot;&gt;&lt;font&gt;Original&lt;/font&gt;&lt;/p&gt;&lt;p style=&quot;margin-top: 0pt; margin-bottom: 0pt; margin-left: 0in; direction: ltr; unicode-bidi: embed; word-break: normal;&quot;&gt;&lt;font&gt;Strategy&lt;/font&gt;&lt;/p&gt;&lt;p style=&quot;margin-top: 0pt; margin-bottom: 0pt; margin-left: 0in; direction: ltr; unicode-bidi: embed; word-break: normal;&quot;&gt;&lt;font&gt;Annotation&lt;/font&gt;&lt;/p&gt;&lt;p style=&quot;margin-top: 0pt; margin-bottom: 0pt; margin-left: 0in; direction: ltr; unicode-bidi: embed; word-break: normal;&quot;&gt;&lt;font&gt;(&lt;i&gt;&lt;font color=&quot;#ffb366&quot; style=&quot;font-size: 18px;&quot;&gt;Question&lt;/font&gt;&lt;/i&gt;)&lt;/font&gt;&lt;/p&gt;" style="rounded=0;whiteSpace=wrap;html=1;fillColor=none;strokeColor=#d79b00;shadow=0;glass=0;fontFamily=Comic Sans MS;fontSize=19;" vertex="1" parent="1">
          <mxGeometry x="72.6" y="568" width="145.81" height="128" as="geometry" />
        </mxCell>
        <mxCell id="trXp6Y1SY67JESG5djMZ-8" value="&lt;p style=&quot;margin-top: 0pt; margin-bottom: 0pt; margin-left: 0in; direction: ltr; unicode-bidi: embed; word-break: normal;&quot;&gt;&lt;br&gt;&lt;/p&gt;&lt;p style=&quot;margin-top: 0pt; margin-bottom: 0pt; margin-left: 0in; direction: ltr; unicode-bidi: embed; word-break: normal;&quot;&gt;Fine-grained&amp;nbsp;&lt;/p&gt;&lt;p style=&quot;margin-top: 0pt; margin-bottom: 0pt; margin-left: 0in; direction: ltr; unicode-bidi: embed; word-break: normal;&quot;&gt;Strategy&lt;/p&gt;&lt;p style=&quot;margin-top: 0pt; margin-bottom: 0pt; margin-left: 0in; direction: ltr; unicode-bidi: embed; word-break: normal;&quot;&gt;(&lt;font style=&quot;&quot; color=&quot;#ffb366&quot;&gt;&lt;span style=&quot;font-size: 18px;&quot;&gt;&lt;i&gt;Open Questions and Probes About Feelings&lt;/i&gt;&lt;/span&gt;&lt;/font&gt;)&lt;/p&gt;" style="rounded=0;whiteSpace=wrap;html=1;fillColor=none;strokeColor=#d79b00;shadow=0;glass=0;fontFamily=Comic Sans MS;fontSize=19;" vertex="1" parent="1">
          <mxGeometry x="72.6" y="810" width="145.81" height="156" as="geometry" />
        </mxCell>
        <mxCell id="trXp6Y1SY67JESG5djMZ-9" value="" style="shape=image;verticalLabelPosition=bottom;labelBackgroundColor=default;verticalAlign=top;aspect=fixed;imageAspect=0;image=data:image/svg+xml,PHN2ZyB4bWxuczp4bGluaz0iaHR0cDovL3d3dy53My5vcmcvMTk5OS94bGluayIgeG1sbnM9Imh0dHA6Ly93d3cudzMub3JnLzIwMDAvc3ZnIiBoZWlnaHQ9IjIwMCIgd2lkdGg9IjIxMy4yODEyNSIgdmVyc2lvbj0iMS4xIiB2aWV3Qm94PSIwIDAgMTA5MiAxMDI0IiBjbGFzcz0iaWNvbiI+PHBhdGggZmlsbD0iIzM4MzgzOCIgZD0iTTczNS4yMzIgMTgzLjI5NmM5Ny4yOCAwIDE4Ni4zNjggMzMuNzkyIDI1OC4wNDggODkuMDg4VjE2NC44NjRjMC0zOC45MTItMzcuODg4LTY4LjYwOC04My45NjgtNjguNjA4SDgzLjk2OGMtNDcuMTA0IDAtODMuOTY4IDI5LjY5Ni04My45NjggNjguNjA4djM1My4yOGgzMjQuNjA4QzM2My41MiAzMjcuNjggNTMyLjQ4IDE4My4yOTYgNzM1LjIzMiAxODMuMjk2ek0zOTEuMTY4IDgzOC42NTZINzYuOGMtMjAuNDggMC0zNy44ODggMTQuMzM2LTM3Ljg4OCAzMC43MnMxNy40MDggMzAuNzIgMzcuODg4IDMwLjcySDQ0My4zOTJjLTE5LjQ1Ni0xOC40MzItMzYuODY0LTM4LjkxMi01Mi4yMjQtNjEuNDR6TTMxNy40NCA1ODAuNjA4aC0zMTcuNDR2MzQuODE2YzAgMzguOTEyIDM3Ljg4OCA2OS42MzIgODMuOTY4IDY5LjYzMmgyNDAuNjRjLTUuMTItMjYuNjI0LTguMTkyLTU1LjI5Ni04LjE5Mi04My45NjggMS4wMjQtNi4xNDQgMS4wMjQtMTMuMzEyIDEuMDI0LTIwLjQ4eiIvPjxwYXRoIGZpbGw9IiMzODM4MzgiIGQ9Ik03NDYuNDk2IDQzMi4xMjhjLTEzMC4wNDggMC0yMzQuNDk2IDEwNS40NzItMjM0LjQ5NiAyMzQuNDk2IDAgODguMDY0IDQ4LjEyOCAxNjQuODY0IDExOS44MDggMjA0Ljh2MTEuMjY0YzAgMjQuNTc2IDE5LjQ1NiA0NC4wMzIgNDQuMDMyIDQ0LjAzMmgxNDAuMjg4YzI0LjU3NiAwIDQ0LjAzMi0xOS40NTYgNDQuMDMyLTQ0LjAzMnYtMTAuMjRjNzEuNjgtMzkuOTM2IDEyMC44MzItMTE2LjczNiAxMjAuODMyLTIwNC44IDAtMTMwLjA0OC0xMDUuNDcyLTIzNS41Mi0yMzQuNDk2LTIzNS41MnogbTEyMS44NTYgMTUwLjUyOGMtNC4wOTYgMy4wNzItOC4xOTIgNC4wOTYtMTMuMzEyIDQuMDk2LTYuMTQ0IDAtMTIuMjg4LTMuMDcyLTE2LjM4NC03LjE2OC0yMC40OC0yMi41MjgtNDcuMTA0LTM2Ljg2NC03Ny44MjQtMzkuOTM2LTExLjI2NC0yLjA0OC0xOS40NTYtMTEuMjY0LTE5LjQ1Ni0yMi41MjggMC0xMi4yODggMTAuMjQtMjIuNTI4IDIyLjUyOC0yMi41MjhoMy4wNzJjNDAuOTYgNS4xMiA3OC44NDggMjQuNTc2IDEwNi40OTYgNTUuMjk2IDQuMDk2IDUuMTIgNi4xNDQgMTEuMjY0IDYuMTQ0IDE3LjQwOC0yLjA0OCA2LjE0NC02LjE0NCAxMi4yODgtMTEuMjY0IDE1LjM2eiBtNTMuMjQ4IDMzLjc5MmMzLjA3MiA3LjE2OCA1LjEyIDE0LjMzNiA3LjE2OCAyMS41MDQgMy4wNzIgMTIuMjg4LTQuMDk2IDI0LjU3Ni0xNi4zODQgMjcuNjQ4LTIuMDQ4IDEuMDI0LTQuMDk2IDEuMDI0LTYuMTQ0IDEuMDI0LTEwLjI0IDAtMTkuNDU2LTcuMTY4LTIyLjUyOC0xNy40MDgtMS4wMjQtNS4xMi0zLjA3Mi0xMS4yNjQtNS4xMi0xNS4zNi00LjA5Ni0xMC4yNCAwLTIxLjUwNCA4LjE5Mi0yNi42MjQgNC4wOTYtMy4wNzIgOC4xOTItNC4wOTYgMTMuMzEyLTQuMDk2IDkuMjE2LTEuMDI0IDE3LjQwOCA1LjEyIDIxLjUwNCAxMy4zMTJ6TTc1MC41OTIgMzg3LjA3MmgtOS4yMTZjLTE4LjQzMiAwLTMzLjc5Mi0xNS4zNi0zMy43OTItMzMuNzkydi00My4wMDhjMC0xOC40MzIgMTUuMzYtMzMuNzkyIDMzLjc5Mi0zMy43OTJoOS4yMTZjMTguNDMyIDAgMzMuNzkyIDE1LjM2IDMzLjc5MiAzMy43OTJ2NDMuMDA4YzEuMDI0IDE4LjQzMi0xNC4zMzYgMzMuNzkyLTMzLjc5MiAzMy43OTJ6TTg4OS44NTYgNDI3LjAwOGwtOC4xOTItNS4xMmMtMTYuMzg0LTkuMjE2LTIxLjUwNC0zMC43Mi0xMi4yODgtNDcuMTA0bDIxLjUwNC0zNi44NjRjOS4yMTYtMTYuMzg0IDMwLjcyLTIxLjUwNCA0Ny4xMDQtMTIuMjg4bDguMTkyIDUuMTJjMTYuMzg0IDkuMjE2IDIxLjUwNCAzMC43MiAxMi4yODggNDcuMTA0bC0yMS41MDQgMzYuODY0Yy05LjIxNiAxNi4zODQtMzAuNzIgMjEuNTA0LTQ3LjEwNCAxMi4yODh6TTk5MC4yMDggNTMxLjQ1Nkw5ODYuMTEyIDUyMi4yNGMtOS4yMTYtMTYuMzg0LTQuMDk2LTM2Ljg2NCAxMi4yODgtNDcuMTA0bDM2Ljg2NC0yMS41MDRjMTYuMzg0LTkuMjE2IDM2Ljg2NC00LjA5NiA0Ny4xMDQgMTIuMjg4bDUuMTIgOC4xOTJjOS4yMTYgMTYuMzg0IDQuMDk2IDM2Ljg2NC0xMi4yODggNDcuMTA0TDEwMzcuMzEyIDU0My43NDRjLTE2LjM4NCA5LjIxNi0zNi44NjQgMy4wNzItNDcuMTA0LTEyLjI4OHpNNjEwLjMwNCA0MjEuODg4bC04LjE5MiA1LjEyYy0xNi4zODQgOS4yMTYtMzYuODY0IDQuMDk2LTQ3LjEwNC0xMi4yODhsLTIxLjUwNC0zNi44NjRjLTkuMjE2LTE2LjM4NC00LjA5Ni0zNi44NjQgMTIuMjg4LTQ3LjEwNGw4LjE5Mi01LjEyYzE2LjM4NC05LjIxNiAzNi44NjQtNC4wOTYgNDcuMTA0IDEyLjI4OGwyMS41MDQgMzYuODY0YzkuMjE2IDE2LjM4NCA0LjA5NiAzNy44ODgtMTIuMjg4IDQ3LjEwNHpNNTA1Ljg1NiA1MjIuMjRsLTUuMTIgOC4xOTJjLTkuMjE2IDE2LjM4NC0zMC43MiAyMS41MDQtNDcuMTA0IDEyLjI4OGwtMzUuODQtMjAuNDhjLTE2LjM4NC05LjIxNi0yMS41MDQtMzAuNzItMTIuMjg4LTQ3LjEwNGw1LjEyLTguMTkyYzkuMjE2LTE2LjM4NCAzMC43Mi0yMS41MDQgNDcuMTA0LTEyLjI4OGwzNi44NjQgMjEuNTA0YzE1LjM2IDkuMjE2IDIxLjUwNCAyOS42OTYgMTEuMjY0IDQ2LjA4eiIvPjwvc3ZnPg==;" vertex="1" parent="1">
          <mxGeometry x="130.06" y="572" width="30.89" height="29" as="geometry" />
        </mxCell>
        <mxCell id="trXp6Y1SY67JESG5djMZ-10" value="" style="shape=image;verticalLabelPosition=bottom;labelBackgroundColor=default;verticalAlign=top;aspect=fixed;imageAspect=0;image=data:image/svg+xml,PHN2ZyB4bWxuczp4bGluaz0iaHR0cDovL3d3dy53My5vcmcvMTk5OS94bGluayIgeG1sbnM9Imh0dHA6Ly93d3cudzMub3JnLzIwMDAvc3ZnIiBoZWlnaHQ9IjIwMCIgd2lkdGg9IjIyMC44OTg0Mzc1IiB2ZXJzaW9uPSIxLjEiIHZpZXdCb3g9IjAgMCAxMTMxIDEwMjQiIGNsYXNzPSJpY29uIj48cGF0aCBmaWxsPSIjMzgzODM4IiBkPSJNNzkxLjYzMzAyOSA1NDguOTY5MzM3Yy0xMjMuNTY4NzQ0IDAtMjIzLjg0MTc0MSAxMDAuMjcyOTk3LTIyMy44NDE3NDEgMjIzLjg0MTc0MSAwIDg0LjA2NzI2IDQ1LjU3ODYzNSAxNTYuOTkzMDc2IDExNC40NTMwMTcgMTk0LjQ2ODg0M3YxMC4xMjg1ODVjMCAyMy4yOTU3NDcgMTkuMjQ0MzEzIDQyLjU0MDA1OSA0Mi41NDAwNTkgNDIuNTQwMDZoMTMzLjY5NzMyOWMyMy4yOTU3NDcgMCA0Mi41NDAwNTktMTkuMjQ0MzEzIDQyLjU0MDA2LTQyLjU0MDA2di0xMC4xMjg1ODVjNjguODc0MzgyLTM4LjQ4ODYyNSAxMTQuNDUzMDE3LTExMS40MTQ0NDEgMTE0LjQ1MzAxNy0xOTUuNDgxNzAxIDAtMTIzLjU2ODc0NC0xMDAuMjcyOTk3LTIyMi44Mjg4ODItMjIzLjg0MTc0MS0yMjIuODI4ODgzeiBtMTE2LjQ3ODczNCAxNDIuODEzMDU3Yy00LjA1MTQzNCAzLjAzODU3Ni04LjEwMjg2OCA0LjA1MTQzNC0xMi4xNTQzMDMgNC4wNTE0MzQtNi4wNzcxNTEgMC0xMi4xNTQzMDMtMy4wMzg1NzYtMTYuMjA1NzM3LTcuMDkwMDEtMTkuMjQ0MzEzLTIxLjI3MDAzLTQ1LjU3ODYzNS0zNC40MzcxOTEtNzMuOTM4Njc1LTM4LjQ4ODYyNS0xMS4xNDE0NDQtMi4wMjU3MTctMTkuMjQ0MzEzLTExLjE0MTQ0NC0xOS4yNDQzMTItMjEuMjcwMDMgMC0xMi4xNTQzMDMgMTAuMTI4NTg2LTIxLjI3MDAzIDIxLjI3MDAzLTIxLjI3MDAyOWgzLjAzODU3NWMzOC40ODg2MjUgNS4wNjQyOTMgNzQuOTUxNTMzIDIzLjI5NTc0NyAxMDEuMjg1ODU2IDUxLjY1NTc4NiA0LjA1MTQzNCA1LjA2NDI5MyA2LjA3NzE1MSAxMS4xNDE0NDQgNS4wNjQyOTMgMTcuMjE4NTk1IDAgNi4wNzcxNTEtNC4wNTE0MzQgMTIuMTU0MzAzLTkuMTE1NzI3IDE1LjE5Mjg3OXogbTUwLjY0MjkyNyAzMi40MTE0NzNjMy4wMzg1NzYgNy4wOTAwMSA1LjA2NDI5MyAxMy4xNjcxNjEgNy4wOTAwMSAyMC4yNTcxNzIgMy4wMzg1NzYgMTEuMTQxNDQ0LTQuMDUxNDM0IDIzLjI5NTc0Ny0xNS4xOTI4NzggMjYuMzM0MzIyLTIuMDI1NzE3IDAtNC4wNTE0MzQgMS4wMTI4NTktNi4wNzcxNTEgMS4wMTI4NTktMTAuMTI4NTg2IDAtMTguMjMxNDU0LTcuMDkwMDEtMjEuMjcwMDMtMTYuMjA1NzM3LTEuMDEyODU5LTUuMDY0MjkzLTMuMDM4NTc2LTEwLjEyODU4Ni01LjA2NDI5My0xNS4xOTI4NzktNC4wNTE0MzQtOS4xMTU3MjcgMC0yMC4yNTcxNzEgOC4xMDI4NjktMjUuMzIxNDY0IDQuMDUxNDM0LTMuMDM4NTc2IDguMTAyODY4LTQuMDUxNDM0IDEyLjE1NDMwMi00LjA1MTQzNCA5LjExNTcyNy0xLjAxMjg1OSAxNy4yMTg1OTUgNS4wNjQyOTMgMjAuMjU3MTcxIDEzLjE2NzE2MXpNNzk1LjY4NDQ2MyA1MDUuNDE2NDE5aC03LjA5MDAxYy0xOC4yMzE0NTQgMC0zMy40MjQzMzItMTUuMTkyODc4LTMzLjQyNDMzMi0zMy40MjQzMzJ2LTM4LjQ4ODYyNWMwLTE4LjIzMTQ1NCAxNS4xOTI4NzgtMzMuNDI0MzMyIDMzLjQyNDMzMi0zMy40MjQzMzJoNy4wOTAwMWMxOC4yMzE0NTQgMCAzMy40MjQzMzIgMTUuMTkyODc4IDMzLjQyNDMzMiAzMy40MjQzMzJ2MzguNDg4NjI1YzAgMTguMjMxNDU0LTE1LjE5Mjg3OCAzMy40MjQzMzItMzMuNDI0MzMyIDMzLjQyNDMzMnpNOTI4LjM2ODkzNCA1NDIuODkyMTg2bC02LjA3NzE1Mi0zLjAzODU3NmMtMTYuMjA1NzM3LTkuMTE1NzI3LTIxLjI3MDAzLTMwLjM4NTc1Ny0xMi4xNTQzMDItNDYuNTkxNDkzbDE5LjI0NDMxMi0zMi40MTE0NzRjOS4xMTU3MjctMTYuMjA1NzM3IDMwLjM4NTc1Ny0yMS4yNzAwMyA0Ni41OTE0OTQtMTIuMTU0MzAzbDYuMDc3MTUxIDMuMDM4NTc2YzE2LjIwNTczNyA5LjExNTcyNyAyMS4yNzAwMyAzMC4zODU3NTcgMTIuMTU0MzAzIDQ2LjU5MTQ5M2wtMTkuMjQ0MzEzIDMyLjQxMTQ3NGMtMTAuMTI4NTg2IDE2LjIwNTczNy0zMS4zOTg2MTUgMjEuMjcwMDMtNDYuNTkxNDkzIDEyLjE1NDMwM3pNMTAyNC41OTA0OTcgNjQxLjEzOTQ2NmwtMy4wMzg1NzYtNi4wNzcxNTFjLTkuMTE1NzI3LTE2LjIwNTczNy00LjA1MTQzNC0zNi40NjI5MDggMTIuMTU0MzAzLTQ2LjU5MTQ5NGwzMi40MTE0NzMtMTkuMjQ0MzEzYzE2LjIwNTczNy05LjExNTcyNyAzNi40NjI5MDgtNC4wNTE0MzQgNDYuNTkxNDk0IDEyLjE1NDMwM2wzLjAzODU3NiA2LjA3NzE1MWM5LjExNTcyNyAxNi4yMDU3MzcgNC4wNTE0MzQgMzYuNDYyOTA4LTEyLjE1NDMwMyA0Ni41OTE0OTRsLTMyLjQxMTQ3NCAxOS4yNDQzMTNjLTE3LjIxODU5NSAxMC4xMjg1ODYtMzcuNDc1NzY3IDQuMDUxNDM0LTQ2LjU5MTQ5My0xMi4xNTQzMDN6TTY2MS45ODcxMzQgNTM5Ljg1MzYxbC02LjA3NzE1MiAzLjAzODU3NmMtMTYuMjA1NzM3IDkuMTE1NzI3LTM2LjQ2MjkwOCA0LjA1MTQzNC00Ni41OTE0OTMtMTIuMTU0MzAzTDU5MS4wODcwMzUgNDk3LjMxMzU1MWMtMTAuMTI4NTg2LTE2LjIwNTczNy00LjA1MTQzNC0zNi40NjI5MDggMTIuMTU0MzAyLTQ1LjU3ODYzNWw2LjA3NzE1Mi0zLjAzODU3NmMxNi4yMDU3MzctOS4xMTU3MjcgMzYuNDYyOTA4LTQuMDUxNDM0IDQ2LjU5MTQ5MyAxMi4xNTQzMDNsMTkuMjQ0MzEzIDMyLjQxMTQ3NGM4LjEwMjg2OCAxNi4yMDU3MzcgMy4wMzg1NzYgMzYuNDYyOTA4LTEzLjE2NzE2MSA0Ni41OTE0OTN6Ii8+PHBhdGggZmlsbD0iIzM4MzgzOCIgZD0iTTQ4OS44MDExNzkgODEzLjMyNTQySDM1OC4xMjk1NjdjLTEyLjE1NDMwMyAwLTIzLjI5NTc0Ny01LjA2NDI5My0zMi40MTE0NzQtMTMuMTY3MTYxLTguMTAyODY4LTguMTAyODY4LTEzLjE2NzE2MS0yMC4yNTcxNzEtMTMuMTY3MTYxLTMyLjQxMTQ3NCAwLTEyLjE1NDMwMyA1LjA2NDI5My0yMy4yOTU3NDcgMTMuMTY3MTYxLTMyLjQxMTQ3MyA4LjEwMjg2OC04LjEwMjg2OCAyMC4yNTcxNzEtMTMuMTY3MTYxIDMyLjQxMTQ3NC0xMy4xNjcxNjJoMTEwLjQwMTU4Mkw0MzkuMTU4MjUxIDcwNC45NDk1NTVjLTI5LjM3Mjg5OC0xNi4yMDU3MzctNDcuNjA0MzUyLTQ0LjU2NTc3Ni01NC42OTQzNjItNzMuOTM4Njc1SDM1OC4xMjk1NjdjLTEyLjE1NDMwMyAwLTIzLjI5NTc0Ny01LjA2NDI5My0zMi40MTE0NzQtMTMuMTY3MTYxLTguMTAyODY4LTguMTAyODY4LTEzLjE2NzE2MS0yMC4yNTcxNzEtMTMuMTY3MTYxLTMyLjQxMTQ3NCAwLTEyLjE1NDMwMyA1LjA2NDI5My0yMy4yOTU3NDcgMTMuMTY3MTYxLTMyLjQxMTQ3MyA4LjEwMjg2OC04LjEwMjg2OCAyMC4yNTcxNzEtMTMuMTY3MTYxIDMyLjQxMTQ3NC0xMy4xNjcxNjJoNDQuNTY1Nzc2YzIxLjI3MDAzLTMzLjQyNDMzMiA1Ny43MzI5MzgtNTQuNjk0MzYyIDk3LjIzNDQyMi01NC42OTQzNjJoNC4wNTE0MzRjMC0xMS4xNDE0NDQgMS4wMTI4NTktMjMuMjk1NzQ3IDQuMDUxNDM0LTM0LjQzNzE5MSAwLTEuMDEyODU5IDEuMDEyODU5LTIuMDI1NzE3IDEuMDEyODU5LTIuMDI1NzE3SDM1OS4xNDI0MjVjLTEyLjE1NDMwMyAwLTIzLjI5NTc0Ny01LjA2NDI5My0zMi40MTE0NzMtMTMuMTY3MTYxLTguMTAyODY4LTguMTAyODY4LTEzLjE2NzE2MS0yMC4yNTcxNzEtMTMuMTY3MTYyLTMyLjQxMTQ3NCAwLTEyLjE1NDMwMyA1LjA2NDI5My0yMy4yOTU3NDcgMTMuMTY3MTYyLTMyLjQxMTQ3NCA4LjEwMjg2OC04LjEwMjg2OCAyMC4yNTcxNzEtMTMuMTY3MTYxIDMyLjQxMTQ3My0xMy4xNjcxNjFoMzQ0LjM3MTkwOWMyMS4yNzAwMy0yMy4yOTU3NDcgNTEuNjU1Nzg2LTM4LjQ4ODYyNSA4Ni4wOTI5NzgtMzguNDg4NjI1aDcuMDkwMDA5YzQ0LjU2NTc3NiAwIDgyLjA0MTU0MyAyNS4zMjE0NjQgMTAxLjI4NTg1NiA2MS43ODQzNzIgMTQuMTgwMDItOS4xMTU3MjcgMjkuMzcyODk4LTE1LjE5Mjg3OCA0Ni41OTE0OTQtMTcuMjE4NTk1VjIwMy41ODQ1N2MwLTI0LjMwODYwNS0xMC4xMjg1ODYtNDcuNjA0MzUyLTI3LjM0NzE4MS02NC44MjI5NDgtMTcuMjE4NTk1LTE3LjIxODU5NS00MC41MTQzNDItMjYuMzM0MzIyLTY0LjgyMjk0OC0yNi4zMzQzMjJoLTkxLjE1NzI3djIyLjI4Mjg4OGMwIDE4LjIzMTQ1NC03LjA5MDAxIDM1LjQ1MDA0OS0yMC4yNTcxNzEgNDguNjE3MjExLTEzLjE2NzE2MSAxMy4xNjcxNjEtMzAuMzg1NzU3IDIwLjI1NzE3MS00OC42MTcyMTEgMjAuMjU3MTcxSDI1Mi43OTIyNzdjLTM3LjQ3NTc2NyAwLTY4Ljg3NDM4Mi0zMC4zODU3NTctNjguODc0MzgyLTY3Ljg2MTUyNHYtMjIuMjgyODg4aC05MS4xNTcyN2MtMjQuMzA4NjA1IDAtNDcuNjA0MzUyIDkuMTE1NzI3LTY0LjgyMjk0NyAyNi4zMzQzMjMtMTcuMjE4NTk1IDE3LjIxODU5NS0yNy4zNDcxODEgNDAuNTE0MzQyLTI3LjM0NzE4MSA2NC44MjI5NDd2NzI4LjI0NTMwMmMwIDI0LjMwODYwNSAxMC4xMjg1ODYgNDcuNjA0MzUyIDI2LjMzNDMyMiA2NC44MjI5NDggMTcuMjE4NTk1IDE3LjIxODU5NSA0MC41MTQzNDIgMjYuMzM0MzIyIDY0LjgyMjk0OCAyNi4zMzQzMjJoNTE3LjU3MDcyMmwtMy4wMzg1NzYtOS4xMTU3MjdDNTQzLjQ4MjY4MiA5NjUuMjU0MjA0IDUwMC45NDI2MjMgODkyLjMyODM4OCA0ODkuODAxMTc5IDgxMy4zMjU0MnogbS0yMzUuOTk2MDQzLTE0LjE4MDAxOWMtOC4xMDI4NjggOC4xMDI4NjgtMjAuMjU3MTcxIDEzLjE2NzE2MS0zMi40MTE0NzQgMTMuMTY3MTYxLTEyLjE1NDMwMyAwLTIzLjI5NTc0Ny01LjA2NDI5My0zMi40MTE0NzQtMTMuMTY3MTYxLTguMTAyODY4LTguMTAyODY4LTEzLjE2NzE2MS0yMC4yNTcxNzEtMTMuMTY3MTYxLTMyLjQxMTQ3NCAwLTEyLjE1NDMwMyA1LjA2NDI5My0yMy4yOTU3NDcgMTMuMTY3MTYxLTMyLjQxMTQ3NCA4LjEwMjg2OC04LjEwMjg2OCAyMC4yNTcxNzEtMTMuMTY3MTYxIDMyLjQxMTQ3NC0xMy4xNjcxNjEgMTIuMTU0MzAzIDAgMjMuMjk1NzQ3IDUuMDY0MjkzIDMyLjQxMTQ3NCAxMy4xNjcxNjEgOC4xMDI4NjggOC4xMDI4NjggMTMuMTY3MTYxIDIwLjI1NzE3MSAxMy4xNjcxNjEgMzIuNDExNDc0IDAgMTMuMTY3MTYxLTQuMDUxNDM0IDI0LjMwODYwNS0xMy4xNjcxNjEgMzIuNDExNDc0eiBtLTIwLjI1NzE3Mi0xNzAuMTYwMjM4Yy0yMC4yNTcxNzEgNS4wNjQyOTMtNDEuNTI3MjAxLTMuMDM4NTc2LTUxLjY1NTc4Ni0yMS4yNzAwMjktOC4xMDI4NjgtMTQuMTgwMDItOC4xMDI4NjgtMzEuMzk4NjE1IDAtNDUuNTc4NjM1czIzLjI5NTc0Ny0yMy4yOTU3NDcgMzkuNTAxNDg0LTIzLjI5NTc0N2MxMi4xNTQzMDMgMCAyMy4yOTU3NDcgNS4wNjQyOTMgMzIuNDExNDc0IDEzLjE2NzE2MSA4LjEwMjg2OCA4LjEwMjg2OCAxMy4xNjcxNjEgMjAuMjU3MTcxIDEzLjE2NzE2MSAzMi40MTE0NzQgMCAyMS4yNzAwMy0xNC4xODAwMiAzOS41MDE0ODQtMzMuNDI0MzMzIDQ0LjU2NTc3NnogbTAtMTgyLjMxNDU0Yy0yMC4yNTcxNzEgNS4wNjQyOTMtNDEuNTI3MjAxLTMuMDM4NTc2LTUxLjY1NTc4Ni0yMS4yNzAwMy04LjEwMjg2OC0xNC4xODAwMi04LjEwMjg2OC0zMS4zOTg2MTUgMC00NS41Nzg2MzVzMjMuMjk1NzQ3LTIyLjI4Mjg4OCAzOS41MDE0ODQtMjIuMjgyODg4YzI1LjMyMTQ2NCAwIDQ1LjU3ODYzNSAyMC4yNTcxNzEgNDUuNTc4NjM1IDQ1LjU3ODYzNSAwIDIwLjI1NzE3MS0xMy4xNjcxNjEgMzguNDg4NjI1LTMzLjQyNDMzMyA0My41NTI5MTh6Ii8+PHBhdGggZmlsbD0iIzM4MzgzOCIgZD0iTTI2Mi45MjA4NjMgMTc1LjIyNDUzaDQxOC4zMTA1ODNjMjkuMzcyODk4IDAgNTIuNjY4NjQ1LTIzLjI5NTc0NyA1Mi42Njg2NDUtNTIuNjY4NjQ1cy0yMy4yOTU3NDctNTIuNjY4NjQ1LTUyLjY2ODY0NS01Mi42Njg2NDVINTU3LjY2MjcwMmMtOC4xMDI4NjgtNDAuNTE0MzQyLTQzLjU1MjkxOC02OS44ODcyNC04NS4wODAxMTgtNjkuODg3MjQtNDEuNTI3MjAxIDAtNzYuOTc3MjUgMjkuMzcyODk4LTg1LjA4MDExOSA2OS44ODcyNEgyNjIuOTIwODYzYy0yOS4zNzI4OTggMC01Mi42Njg2NDUgMjMuMjk1NzQ3LTUyLjY2ODY0NSA1Mi42Njg2NDVzMjQuMzA4NjA1IDUyLjY2ODY0NSA1Mi42Njg2NDUgNTIuNjY4NjQ1ek03MDIuNTAxNDc2IDYwOS43NDA4NTFsLTYuMDc3MTUyIDMuMDM4NTc1Yy0xNS4xOTI4NzggOC4xMDI4NjgtMzEuMzk4NjE1IDEzLjE2NzE2MS00OC42MTcyMSAxNS4xOTI4Nzl2My4wMzg1NzVoODAuMDE1ODI2YzEyLjE1NDMwMyAwIDIzLjI5NTc0Ny01LjA2NDI5MyAzMi40MTE0NzMtMTMuMTY3MTYxIDguMTAyODY4LTguMTAyODY4IDEzLjE2NzE2MS0yMC4yNTcxNzEgMTMuMTY3MTYyLTMyLjQxMTQ3NC0xMi4xNTQzMDMtMi4wMjU3MTctMjMuMjk1NzQ3LTUuMDY0MjkzLTM0LjQzNzE5MS0xMC4xMjg1ODUtOS4xMTU3MjcgMTMuMTY3MTYxLTIxLjI3MDAzIDI1LjMyMTQ2NC0zNi40NjI5MDggMzQuNDM3MTkxek05NDMuNTYxODEyIDY2MS4zOTY2Mzd2LTMyLjQxMTQ3NEg5MzUuNDU4OTQ0YzEuMDEyODU5IDEwLjEyODU4NiA0LjA1MTQzNCAyMS4yNzAwMyA4LjEwMjg2OCAzMi40MTE0NzR6TTU2Mi43MjY5OTUgNjM2LjA3NTE3M2wtMy4wMzg1NzYgNi4wNzcxNTFjLTkuMTE1NzI3IDE2LjIwNTczNy0zMC4zODU3NTcgMjEuMjcwMDMtNDYuNTkxNDkzIDEyLjE1NDMwM2wtMzIuNDExNDc0LTE5LjI0NDMxMmMtMTYuMjA1NzM3LTkuMTE1NzI3LTIxLjI3MDAzLTMwLjM4NTc1Ny0xMi4xNTQzMDMtNDYuNTkxNDk0bDMuMDM4NTc2LTYuMDc3MTUxYzkuMTE1NzI3LTE2LjIwNTczNyAzMC4zODU3NTctMjEuMjcwMDMgNDYuNTkxNDk0LTEyLjE1NDMwM2wzMi40MTE0NzMgMTkuMjQ0MzEzYzE2LjIwNTczNyA5LjExNTcyNyAyMS4yNzAwMyAzMC4zODU3NTcgMTIuMTU0MzAzIDQ2LjU5MTQ5M3oiLz48L3N2Zz4=;" vertex="1" parent="1">
          <mxGeometry x="130.06" y="815" width="32.04" height="29" as="geometry" />
        </mxCell>
        <mxCell id="trXp6Y1SY67JESG5djMZ-11" value="" style="shape=flexArrow;endArrow=classic;html=1;rounded=0;endWidth=32;endSize=6.33;width=29;" edge="1" parent="1">
          <mxGeometry width="50" height="50" relative="1" as="geometry">
            <mxPoint x="293.75" y="733" as="sourcePoint" />
            <mxPoint x="337.75" y="733" as="targetPoint" />
          </mxGeometry>
        </mxCell>
        <mxCell id="trXp6Y1SY67JESG5djMZ-12" value="" style="whiteSpace=wrap;html=1;rounded=1;dashed=1;" vertex="1" parent="1">
          <mxGeometry x="351.75" y="535" width="302" height="450" as="geometry" />
        </mxCell>
        <mxCell id="trXp6Y1SY67JESG5djMZ-13" value="" style="group" vertex="1" connectable="0" parent="1">
          <mxGeometry x="397.75" y="512" width="210" height="40" as="geometry" />
        </mxCell>
        <mxCell id="trXp6Y1SY67JESG5djMZ-14" value="&lt;p style=&quot;margin: 0px; font-variant-numeric: normal; font-variant-east-asian: normal; font-variant-alternates: normal; font-size-adjust: none; font-kerning: auto; font-optical-sizing: auto; font-feature-settings: normal; font-variation-settings: normal; font-variant-position: normal; font-stretch: normal; line-height: normal; text-align: start; font-size: 20px;&quot; class=&quot;p1&quot;&gt;&lt;br&gt;&lt;/p&gt;" style="whiteSpace=wrap;html=1;fontFamily=Times New Roman;fontSize=20;shadow=0;strokeColor=none;" vertex="1" parent="trXp6Y1SY67JESG5djMZ-13">
          <mxGeometry width="210" height="40" as="geometry" />
        </mxCell>
        <mxCell id="trXp6Y1SY67JESG5djMZ-15" value="&lt;p style=&quot;margin: 0px; font-variant-numeric: normal; font-variant-east-asian: normal; font-variant-alternates: normal; font-size-adjust: none; font-kerning: auto; font-optical-sizing: auto; font-feature-settings: normal; font-variation-settings: normal; font-variant-position: normal; font-stretch: normal; line-height: normal; text-align: start;&quot; class=&quot;p1&quot;&gt;&lt;font style=&quot;font-size: 20px;&quot; face=&quot;Comic Sans MS&quot; color=&quot;#0e0e0e&quot;&gt;Intention E&lt;/font&gt;&lt;span style=&quot;background-color: initial; text-align: center;&quot;&gt;&lt;font face=&quot;Comic Sans MS&quot; color=&quot;#0e0e0e&quot;&gt;stimation&lt;/font&gt;&lt;/span&gt;&lt;/p&gt;" style="whiteSpace=wrap;html=1;fontFamily=Times New Roman;fillColor=#4697c8;strokeColor=none;fontSize=20;shadow=1;sketch=1;curveFitting=1;jiggle=2;" vertex="1" parent="trXp6Y1SY67JESG5djMZ-13">
          <mxGeometry width="210" height="40" as="geometry" />
        </mxCell>
        <mxCell id="trXp6Y1SY67JESG5djMZ-16" value="" style="shape=flexArrow;endArrow=classic;html=1;rounded=0;endWidth=32;endSize=6.33;width=29;" edge="1" parent="1">
          <mxGeometry width="50" height="50" relative="1" as="geometry">
            <mxPoint x="670.5" y="733" as="sourcePoint" />
            <mxPoint x="714.5" y="733" as="targetPoint" />
          </mxGeometry>
        </mxCell>
        <mxCell id="trXp6Y1SY67JESG5djMZ-17" value="" style="group" vertex="1" connectable="0" parent="1">
          <mxGeometry x="127.58000000000001" y="732" width="37" height="41" as="geometry" />
        </mxCell>
        <mxCell id="trXp6Y1SY67JESG5djMZ-18" value="" style="whiteSpace=wrap;html=1;aspect=fixed;strokeColor=none;" vertex="1" parent="trXp6Y1SY67JESG5djMZ-17">
          <mxGeometry x="2.2199999999999998" y="2.46" width="32.56" height="32.56" as="geometry" />
        </mxCell>
        <mxCell id="trXp6Y1SY67JESG5djMZ-19" value="" style="shape=image;verticalLabelPosition=bottom;labelBackgroundColor=default;verticalAlign=top;aspect=fixed;imageAspect=0;image=data:image/svg+xml,PHN2ZyB4bWxuczp4bGluaz0iaHR0cDovL3d3dy53My5vcmcvMTk5OS94bGluayIgeG1sbnM9Imh0dHA6Ly93d3cudzMub3JnLzIwMDAvc3ZnIiBoZWlnaHQ9IjIwMCIgd2lkdGg9IjIwMCIgdmVyc2lvbj0iMS4xIiB2aWV3Qm94PSIwIDAgMTAyNCAxMDI0IiBjbGFzcz0iaWNvbiI+PHBhdGggZD0iTTQzMi42OTQ0NDU2NiA3NC4wNTkxNDM5MmMtMjAuMDQ1MjMyMTggMy4yNzY2MjQ0MS00NS40ODcyNTgxMiAxMS4zNzE4MTQwNi02NS43MjUyMzMxNSAyMS4yMDE2ODcyOC01MC4zMDU4MjMzNCAyNC40NzgzMTE3My04OC44NTQzNDUwMSA2Ni4zMDM0NTk3NC0xMDkuNDc3ODA1NzQgMTE5LjMwNzY3OTAzbC00LjA0NzU5Mzg0IDEwLjIxNTM1ODkxLTE2LjM4MzEyMjA5IDQuODE4NTY1MjRDMTIwLjY0NDE1MDU4IDI2My4xMzk2NDk5MyA1Mi42MDYwMDcyIDM4Ni42ODc2NjU2MiA4Ni4xNDMyMjI3MyA1MDMuODc1MTc1MzFjNi4zNjA1MDYwMiAyMi41NTA4ODUyNSAyMS4zOTQ0MzAxNSA1Mi42MTg3MzM1NyAzNS42NTczODI5NyA3MS43MDAyNTM0N2wxMi4xNDI3ODUzNiAxNS45OTc2MzY0NC00LjQzMzA3OTUyIDE3LjM0NjgzNjI1Yy01LjU4OTUzNjU1IDIxLjk3MjY1ODY3LTcuNTE2OTYxMTMgNTUuODk1MzU3OTktNC40MzMwODE0NiA3OC42Mzg5ODYwOCAxMi4xNDI3ODU0IDkwLjIwMzU0Mjk5IDc3LjQ4MjUzMDk3IDE2NC40MDk0NTE0MSAxNjQuOTg3Njc5OTcgMTg3LjM0NTgyMjM5IDIzLjcwNzM0MjMgNi4zNjA1MDYwMiA2MS40ODQ4OTQ1NSA4LjQ4MDY3NTMyIDg1LjU3NzcyMDU3IDUuMDExMzA4MDRsMTUuODA0ODkzNi0yLjMxMjkxMjEgMTQuMDcwMjExODggMTMuMjk5MjQwNWMxNy43MzIzMjAwNCAxNi43Njg2MDc3OSAzMi43NjYyNDQyIDI3LjE3NjcwOTU0IDU1LjcwMjYxNTE0IDM3Ljk3MDI5NTA4IDgxLjE0NDY0MTA3IDM4LjkzNDAwNzM2IDE3OC40Nzk2NjEzOCAyNC40NzgzMTE3MyAyNDUuNTU0MDkyNDktMzYuNDI4MzU0MzEgMjIuNTUwODg1MjUtMjAuNjIzNDYwNjkgNDQuOTA5MDI5NTgtNTMuMDA0MjE5MjIgNTUuMzE3MTI5NDktODAuMzczNjY5N2w1LjU4OTUzNjU3LTE0LjI2Mjk1NDY5IDE1LjYxMjE1MjY2LTQuNDMzMDc5NTZjMjAuMjM3OTc1MDItNS41ODk1MzY1NSA1NC41NDYxNjAwMi0yMi4zNTgxNDI0MiA3MS41MDc1MDg3Mi0zNS4yNzE4OTkxNiA1MC4xMTMwODA0OS0zNy45NzAyOTUwOCA4MS4xNDQ2NDEwNy05My42NzI5MTAyNCA4Ny44OTA2MzI3Ni0xNTguMDQ4OTQzNTQgNS43ODIyNzkzOC01NS4zMTcxMzEzNy0xMi45MTM3NTQ4My0xMTYuMDMxMDU0NTctNDkuNTM0ODUyMDMtMTYwLjc0NzM0MTMybC02LjM2MDUwNTk2LTcuNzA5NzAzOTggMy44NTQ4NTI5MS0xMy40OTE5ODMzNGMxMi41MjgyNjkxNy00NS4yOTQ1MTUzIDguMjg3OTMyNDctOTguNjg0MjE4MjktMTEuNTY0NTU2ODctMTQzLjc4NTk5MDczQzg0My42MjE2OTk5MyAxOTMuNTU5NTY1NzQgNzY0LjU5NzIyODE4IDE0MS41MTkwNTg3OCA2NzcuMDkyMDgxMTMgMTQxLjUxOTA1ODc4Yy0xMi41MjgyNjkxNyAwLTI4LjMzMzE2NDY2IDAuOTYzNzEyMjktMzQuODg2NDEzNSAxLjkyNzQyNjQ4bC0xMi4zMzU1MjgyNSAyLjEyMDE2OTMtMTQuMDcwMjA5OTctMTMuMjk5MjQwNTJDNTg2LjMxMDMwOTYxIDEwNC4xMjY5OTIyIDU1MS4yMzExNTMyOCA4NS42MjM3MDA4MSA1MTAuMTc2OTc2NiA3Ni43NTc1Mzk4NCA0OTMuNjAxMTExNyA3My4wOTU0Mjk3MiA0NDguODg0ODI0OTEgNzEuNTUzNDg4OTUgNDMyLjY5NDQ0NTY2IDc0LjA1OTE0MzkyeiBtNzMuMjQyMTkyMzUgNjAuNzEzOTIzMThjMjMuMTI5MTEzOCA2LjM2MDUwNjAyIDY1LjcyNTIzMTI1IDI5LjY4MjM2MjYzIDYxLjQ4NDg5NDU2IDMzLjcyOTk1ODQtMC45NjM3MTIyOSAwLjk2MzcxMjI5LTQxLjI0NjkxOTUyIDI0LjI4NTU2ODg5LTg5LjQzMjU3MzUzIDUyLjA0MDUwNTA0LTQ4LjE4NTY1NDAzIDI3Ljk0NzY3OS05MC43ODE3NzE0OSA1My41ODI0NDc3NS05NC40NDM4ODE1OSA1Ny4wNTE4MTUwMWwtNi43NDU5OTE2OSA2LjU1MzI0ODg3LTAuNTc4MjI2NTkgMTI5LjEzNzU1MjI0Yy0wLjE5Mjc0Mjg1IDcxLjEyMjAyNDk2LTAuNzcwOTcxMzQgMTI5LjEzNzU1MjI1LTEuMTU2NDU3MDUgMTI5LjEzNzU1MjI0LTAuNTc4MjI4NSAwLTE3LjM0NjgzNjI5LTkuNjM3MTMwNDEtMzcuNzc3NTUyMjMtMjEuMzk0NDMwMTRsLTM2LjgxMzg0LTIxLjM5NDQzMDE3IDAuNTc4MjI4NTMtMTE3Ljk1ODQ4MTAzYzAuNzcwOTcxMzQtMTE2LjIyMzc5NzQxIDAuNzcwOTcxMzQtMTE3Ljk1ODQ4MTA1IDUuMDExMzA4MDQtMTMyLjIyMTQzMzg0IDkuODI5ODczMjUtMzEuODAyNTMxOSAzMC42NDYwNzQ5MS02My40MTIzMjEwMSA1NC45MzE2NDU3MS04Mi44NzkzMjQ2OSAxNi43Njg2MDc3OS0xMy42ODQ3MjYxOCA0Ny4yMjE5Mzk4My0yOC4zMzMxNjQ2NiA2OC4yMzA4ODYyMi0zMi45NTg5ODcwMiAyMC40MzA3MTc4Ni00LjQzMzA3OTUzIDU4LjAxNTUyNzI1LTMuODU0ODUyOTMgNzYuNzExNTU5NjIgMS4xNTY0NTUwOXogbTIxMi4wMTY4NzY5NiA2OS4xOTQ1OTg1YzE4LjExNzgwNTcxIDQuODE4NTY1MTkgNDguNzYzODgyNTUgMjEuMDA4OTQ0NDkgNjMuNzk3ODA2NjUgMzMuNzI5OTU4NCAyNC40NzgzMTE3MyAyMC40MzA3MTc4NiA0NC4zMzA4MDEwOSA1MS44NDc3NjQxNSA1My4wMDQyMTkyMiA4NC4yMjg1MjI2NSAzLjI3NjYyNDQxIDExLjU2NDU1NjkgNC4yNDAzMzY3MSAyMS4yMDE2ODczMyA0LjQzMzA3OTU3IDQwLjY2ODY5MSAwLjE5Mjc0Mjg1IDEzLjg3NzQ2OTAyLTAuMzg1NDg1NjcgMjUuODI3NTA5Ny0wLjk2MzcxNDE5IDI2LjQwNTczODE5LTAuNzcwOTcxMzQgMC43NzA5NzEzNC00Mi43ODg4NjAyOS0yMi43NDM2MjgwOS05My40ODAxNjc0LTUyLjA0MDUwNTA3LTg0LjAzNTc3OTgtNDguNTcxMTM5NzItOTMuMDk0NjgzNjItNTMuMzg5NzA0OS0xMDEuMTg5ODczMjYtNTMuNTgyNDQ3Ny04LjA5NTE4OTY0IDAtMTcuMzQ2ODM2MjkgNC44MTg1NjUxOS0xMTMuNzE4MTQyNDEgNjAuNTIxMTgyMjItNTcuNjMwMDQxNiAzMy4zNDQ0NzI2OS0xMDYuNzc5NDA3OTEgNjEuNjc3NjM3NC0xMDkuMjg1MDYyOTIgNjMuMjE5NTc4MmwtNC4yNDAzMzg1OSAyLjg5MTEzODczIDAuMzg1NDg1NjYtNDMuOTQ1MzE3MzEgMC41NzgyMjg1My00My43NTI1NzI2MSA4NC44MDY3NTExNi00OS4xNDkzNjYzYzEwNy4xNjQ4OTM1OC02Mi4wNjMxMjExMyAxMTYuMDMxMDU0NTctNjYuNDk2MjAyNTggMTQxLjg1ODU2NDI1LTcxLjg5Mjk5NjMgMTMuMTA2NDk3NjctMi42OTgzOTU4OSA2MC41MjExODAzNy0wLjk2MzcxMjI5IDc0LjAxMzE2MzczIDIuNjk4Mzk1OXpNMjQ3Ljg1NDI3NjMyIDUxMi43NDEzMzYyN2MyLjUwNTY1MzA2IDMuNDY5MzY3MjcgNDMuNzUyNTc0NTEgMjguMzMzMTY0NjYgMTExLjc5MDcxNzg5IDY3LjY1MjY1NzcgNTkuMTcxOTgyNCAzNC4zMDgxODUwMSAxMDcuOTM1ODY0OTQgNjMuMDI2ODM1MzQgMTA4LjEyODYwNTg2IDYzLjc5NzgwNDggMC41NzgyMjg1IDEuMTU2NDU1MTMtNjYuODgxNjg4MjYgNDEuMDU0MTc2NjctNzEuNzAwMjUxNTYgNDIuNDAzMzc2NTQtMi4xMjAxNjkzIDAuNTc4MjI4NS0xNzUuNzgxMjY1NDctOTkuMDY5NzAzOTgtMTkwLjYyMjQ0Njc5LTEwOS4yODUwNjI5QzE1NC4xODEzNjYxIDU0MS44NDU0NzAzOCAxMjcuMDA0NjU2NTcgNDc2LjY5ODQ2NTc2IDEzNy42MDU1MDExNyA0MTUuMjEzNTczMTNjOS4yNTE2NDQ3NS01My4wMDQyMTkyMiA0My45NDUzMTU0LTk4LjY4NDIxODI5IDkyLjMyMzcxMjI3LTEyMS42MjA1OTExN2wxMS45NTAwNDI1OS01LjU4OTUzNDYzIDAuOTYzNzEyMjYgMTA5LjY3MDU0NjY1YzAuOTYzNzEyMjkgMTA3LjM1NzYzNjQyIDAuOTYzNzEyMjkgMTA5Ljg2MzI5MTM5IDUuMDExMzA4MDMgMTE1LjA2NzM0MjI5eiBtNDY3LjU5MzU4NTU4LTEyNi4yNDY0MTM0OWMxMDkuMDkyMzIwMDUgNjMuMDI2ODM1MzQgMTA1LjQzMDIwOTk0IDYwLjcxMzkyMzIxIDEyMy45MzM1MDEzMyA3OS42MDI3MDAyNyA3Ny42NzUyNzM3OSA3OS42MDI3MDAyNiA1NS4xMjQzODg1MyAyMTAuODYwNDIxODMtNDQuNzE2Mjg2NzYgMjYxLjE2NjI0MzIzLTYuNTUzMjQ4ODYgMy4yNzY2MjQ0MS0xMi45MTM3NTQ4MyA1Ljk3NTAyMDM1LTEzLjg3NzQ2OTAxIDUuOTc1MDIwMzQtMS4zNDkxOTc5NiAwLTIuMTIwMTY5My0zNy41ODQ4MDk0MS0yLjUwNTY1MzA5LTEwOC43MDY4MzQzNy0wLjU3ODIyODUtMTA2Ljc3OTQwNzkxLTAuNTc4MjI4NS0xMDguODk5NTc3MjItNC42MjU4MjQyNy0xMTQuMjk2MzcwOTYtMi41MDU2NTMwNi0zLjQ2OTM2NzI3LTQyLjIxMDYzMTc5LTI3LjU2MjE5MzMtMTEyLjE3NjIwMTYzLTY4LjAzODE0MzM4LTU5LjU1NzQ2ODA1LTM0LjMwODE4NTAxLTEwOC4xMjg2MDc3OC02My4yMTk1NzgxNy0xMDcuNzQzMTIyMTEtNjQuMTgzMjkwNDUgMC41NzgyMjg1LTIuMTIwMTY5MyA2OS4wMDE4NTU2Ny00MS42MzI0MDUxNyA3Mi4wODU3MzkxNy00MS44MjUxNDgwMiAxLjM0OTE5Nzk2IDAgNDEuNjMyNDA1MTcgMjIuNzQzNjI4MDkgODkuNjI1MzE2MzcgNTAuMzA1ODIzMzR6IG0tMTU3LjQ3MDcxNjk0IDQyLjQwMzM3NDY0bDQ3LjIyMTkzOTgzIDI3LjM2OTQ1MjM2djExMC4yNDg3NzUxN2wtNDUuODcyNzQxODkgMjYuNDA1NzM4MjFjLTI1LjA1NjU0MDIzIDE0LjQ1NTY5NTY1LTQ2LjY0MzcxMzIzIDI2LjU5ODQ4MTAzLTQ3LjYwNzQyNTUgMjYuOTgzOTY2NzItMS4xNTY0NTUxMyAwLjM4NTQ4NTY3LTIzLjEyOTExMzgtMTEuNTY0NTU2OS00OC43NjM4ODI1My0yNi40MDU3MzgyM2wtNDYuNjQzNzEzMjMtMjYuOTgzOTY2N3YtMTEwLjI0ODc3NTE3bDQ2LjgzNjQ1NjA3LTI3LjE3NjcwOTU2YzI1LjYzNDc2ODc3LTE1LjAzMzkyNDE1IDQ2LjgzNjQ1NjA1LTI3LjE3NjcwOTU0IDQ3LjAyOTE5ODg5LTI3LjM2OTQ1MDQ2IDAuMzg1NDg1NjcgMCAyMS43Nzk5MTU4MyAxMi4zMzU1MjgyNSA0Ny44MDAxNjgzNiAyNy4xNzY3MDc2NnogbTEyNS42NjgxODUwMSA3Mi44NTY3MDg1NWwzNi4yMzU2MTE0NCAyMC44MTYyMDM1NyAwLjU3ODIyODUyIDEwOC43MDY4MzQzNmMwLjE5Mjc0Mjg1IDY5Ljc3MjgyNzAxLTAuMTkyNzQyODUgMTEzLjUyNTM5OTU4LTEuNTQxOTQwNzggMTIyLjAwNjA3NDk0LTIuODkxMTM4NzMgMTguNTAzMjkxMzgtMTAuMjE1MzU4OTQgMzkuODk3NzIxNTUtMTkuODUyNDg5MzUgNTcuMDUxODE1MDEtMTAuNzkzNTg1NTUgMTkuMDgxNTE4MDMtMzkuNzA0OTc4NzIgNDguNTcxMTM5NzItNTguMjA4MjcwMTUgNTkuMTcxOTgyMzUtNDIuOTgxNjAzMTQgMjQuNjcxMDU0NTYtODkuNDMyNTczNTUgMzAuMDY3ODQ4My0xMzMuOTU2MTE3NDYgMTUuNjEyMTUyNjYtMTUuNDE5NDA5ODEtNS4wMTEzMDgwMy0zNC42OTM2NzA2OC0xNC40NTU2OTU2NS00Ni4wNjU0ODQ3LTIyLjc0MzYzLTYuOTM4NzM0NTItNS4yMDQwNTA4OC03LjkwMjQ0Njc5LTYuNTUzMjQ4ODYtNS43ODIyNzk0LTguNjczNDE2MjQgMS41NDE5NDA4LTEuMzQ5MTk3OTYgNDIuMjEwNjMxNzktMjUuMjQ5MjgzMDYgOTAuMzk2Mjg1ODItNTMuMDA0MjE5MjJzODkuMjM5ODMwNzEtNTEuODQ3NzY0MTUgOTEuMzU5OTk5OTgtNTMuNTgyNDQ3NzVjOC44NjYxNjA5Ni03LjkwMjQ0Njc5IDguODY2MTYwOTYtOC40ODA2NzUzMiA4Ljg2NjE2MDk1LTE0MS4wODc1OTQ4MiAwLTY4LjgwOTExMjgyIDAuMzg1NDg1NjctMTI1LjI4MjY5OTMzIDAuNzcwOTY5NDktMTI1LjI4MjY5OTMgMC41NzgyMjg1IDAgMTcuMTU0MDkzNDUgOS40NDQzODc1NyAzNy4xOTkzMjU2NCAyMS4wMDg5NDQ0NHpNNjA1LjE5OTA4NDc5IDY1Ni43MjAwNjk4MnY0My4xNzQzNDU5OEw1MzcuMzUzNjg0MjcgNzM5LjAyMTE2NjAzYy0zNy4zOTIwNjY1NiAyMS41ODcxNzMtODAuNTY2NDEyNTggNDYuNDUwOTcwMzktOTUuOTg1ODIyMzkgNTUuMzE3MTMxMzUtMTcuMzQ2ODM2MjkgMTAuMDIyNjE2MTEtMzQuODg2NDEzNSAxOC41MDMyOTEzOC00Ni4yNTgyMjc1NSAyMi4xNjUzOTk2LTE3LjM0NjgzNjI5IDUuNzgyMjc5MzgtMTkuODUyNDg5MzggNi4xNjc3NjMxOC00OC4xODU2NTQwMyA2LjE2Nzc2MzE5LTM1LjI3MTg5OTE4IDAuMTkyNzQyODUtNDUuMjk0NTE1My0yLjEyMDE2OTMtNzQuMjA1OTA2NTUtMTYuMTkwMzc5MjgtNDguMzc4Mzk2ODYtMjMuNzA3MzQyMy04MC45NTE4OTgyMi02OC4yMzA4ODYyMy04OS42MjUzMTYzNy0xMjIuMTk4ODE3NzUtMi4zMTI5MTIxNC0xMy44Nzc0NjkwMi0xLjkyNzQyNjQ2LTQ3Ljk5MjkxMTE5IDAuMzg1NDg1NjgtNTAuNDk4NTY0MjYgMC43NzA5NzEzNC0wLjU3ODIyODUgNDAuMDkwNDY0MzkgMjEuMzk0NDMwMTUgODcuNjk3ODg5OSA0OC45NTY2MjM0NyAxMDMuODg4MjY5MTYgNTkuOTQyOTUzNzQgOTYuNzU2NzkzNzIgNTYuMjgwODQzNjYgMTA3LjE2NDg5MzU4IDU2LjI4MDg0MzY4IDkuMjUxNjQ0NzUgMC0xLjE1NjQ1NTEzIDUuNTg5NTM2NTUgMTUzLjQyMzEyMzA2LTgzLjY1MDI5NDE1IDM5LjcwNDk3ODcyLTIyLjkzNjM3MDk1IDcyLjQ3MTIyMjkxLTQxLjYzMjQwNTE3IDcyLjg1NjcwODYtNDEuNjMyNDA1MTcgMC4zODU0ODU2NyAwIDAuNTc4MjI4NSAxOS40NjcwMDM2OSAwLjU3ODIyNjU5IDQyLjk4MTYwMzEyeiIvPjwvc3ZnPg==;imageBackground=none;fontFamily=Times New Roman;" vertex="1" parent="trXp6Y1SY67JESG5djMZ-17">
          <mxGeometry width="37" height="37" as="geometry" />
        </mxCell>
        <mxCell id="trXp6Y1SY67JESG5djMZ-20" value="" style="group" vertex="1" connectable="0" parent="1">
          <mxGeometry x="366.74529411764706" y="574" width="108" height="68.00117647058823" as="geometry" />
        </mxCell>
        <mxCell id="trXp6Y1SY67JESG5djMZ-21" value="" style="shape=image;verticalLabelPosition=bottom;labelBackgroundColor=default;verticalAlign=top;aspect=fixed;imageAspect=0;image=data:image/svg+xml,PHN2ZyB4bWxuczp4bGluaz0iaHR0cDovL3d3dy53My5vcmcvMTk5OS94bGluayIgeG1sbnM9Imh0dHA6Ly93d3cudzMub3JnLzIwMDAvc3ZnIiBoZWlnaHQ9IjIwMCIgd2lkdGg9IjIyMC44OTg0Mzc1IiB2ZXJzaW9uPSIxLjEiIHZpZXdCb3g9IjAgMCAxMTMxIDEwMjQiIGNsYXNzPSJpY29uIj48cGF0aCBmaWxsPSIjMzgzODM4IiBkPSJNNzkxLjYzMzAyOSA1NDguOTY5MzM3Yy0xMjMuNTY4NzQ0IDAtMjIzLjg0MTc0MSAxMDAuMjcyOTk3LTIyMy44NDE3NDEgMjIzLjg0MTc0MSAwIDg0LjA2NzI2IDQ1LjU3ODYzNSAxNTYuOTkzMDc2IDExNC40NTMwMTcgMTk0LjQ2ODg0M3YxMC4xMjg1ODVjMCAyMy4yOTU3NDcgMTkuMjQ0MzEzIDQyLjU0MDA1OSA0Mi41NDAwNTkgNDIuNTQwMDZoMTMzLjY5NzMyOWMyMy4yOTU3NDcgMCA0Mi41NDAwNTktMTkuMjQ0MzEzIDQyLjU0MDA2LTQyLjU0MDA2di0xMC4xMjg1ODVjNjguODc0MzgyLTM4LjQ4ODYyNSAxMTQuNDUzMDE3LTExMS40MTQ0NDEgMTE0LjQ1MzAxNy0xOTUuNDgxNzAxIDAtMTIzLjU2ODc0NC0xMDAuMjcyOTk3LTIyMi44Mjg4ODItMjIzLjg0MTc0MS0yMjIuODI4ODgzeiBtMTE2LjQ3ODczNCAxNDIuODEzMDU3Yy00LjA1MTQzNCAzLjAzODU3Ni04LjEwMjg2OCA0LjA1MTQzNC0xMi4xNTQzMDMgNC4wNTE0MzQtNi4wNzcxNTEgMC0xMi4xNTQzMDMtMy4wMzg1NzYtMTYuMjA1NzM3LTcuMDkwMDEtMTkuMjQ0MzEzLTIxLjI3MDAzLTQ1LjU3ODYzNS0zNC40MzcxOTEtNzMuOTM4Njc1LTM4LjQ4ODYyNS0xMS4xNDE0NDQtMi4wMjU3MTctMTkuMjQ0MzEzLTExLjE0MTQ0NC0xOS4yNDQzMTItMjEuMjcwMDMgMC0xMi4xNTQzMDMgMTAuMTI4NTg2LTIxLjI3MDAzIDIxLjI3MDAzLTIxLjI3MDAyOWgzLjAzODU3NWMzOC40ODg2MjUgNS4wNjQyOTMgNzQuOTUxNTMzIDIzLjI5NTc0NyAxMDEuMjg1ODU2IDUxLjY1NTc4NiA0LjA1MTQzNCA1LjA2NDI5MyA2LjA3NzE1MSAxMS4xNDE0NDQgNS4wNjQyOTMgMTcuMjE4NTk1IDAgNi4wNzcxNTEtNC4wNTE0MzQgMTIuMTU0MzAzLTkuMTE1NzI3IDE1LjE5Mjg3OXogbTUwLjY0MjkyNyAzMi40MTE0NzNjMy4wMzg1NzYgNy4wOTAwMSA1LjA2NDI5MyAxMy4xNjcxNjEgNy4wOTAwMSAyMC4yNTcxNzIgMy4wMzg1NzYgMTEuMTQxNDQ0LTQuMDUxNDM0IDIzLjI5NTc0Ny0xNS4xOTI4NzggMjYuMzM0MzIyLTIuMDI1NzE3IDAtNC4wNTE0MzQgMS4wMTI4NTktNi4wNzcxNTEgMS4wMTI4NTktMTAuMTI4NTg2IDAtMTguMjMxNDU0LTcuMDkwMDEtMjEuMjcwMDMtMTYuMjA1NzM3LTEuMDEyODU5LTUuMDY0MjkzLTMuMDM4NTc2LTEwLjEyODU4Ni01LjA2NDI5My0xNS4xOTI4NzktNC4wNTE0MzQtOS4xMTU3MjcgMC0yMC4yNTcxNzEgOC4xMDI4NjktMjUuMzIxNDY0IDQuMDUxNDM0LTMuMDM4NTc2IDguMTAyODY4LTQuMDUxNDM0IDEyLjE1NDMwMi00LjA1MTQzNCA5LjExNTcyNy0xLjAxMjg1OSAxNy4yMTg1OTUgNS4wNjQyOTMgMjAuMjU3MTcxIDEzLjE2NzE2MXpNNzk1LjY4NDQ2MyA1MDUuNDE2NDE5aC03LjA5MDAxYy0xOC4yMzE0NTQgMC0zMy40MjQzMzItMTUuMTkyODc4LTMzLjQyNDMzMi0zMy40MjQzMzJ2LTM4LjQ4ODYyNWMwLTE4LjIzMTQ1NCAxNS4xOTI4NzgtMzMuNDI0MzMyIDMzLjQyNDMzMi0zMy40MjQzMzJoNy4wOTAwMWMxOC4yMzE0NTQgMCAzMy40MjQzMzIgMTUuMTkyODc4IDMzLjQyNDMzMiAzMy40MjQzMzJ2MzguNDg4NjI1YzAgMTguMjMxNDU0LTE1LjE5Mjg3OCAzMy40MjQzMzItMzMuNDI0MzMyIDMzLjQyNDMzMnpNOTI4LjM2ODkzNCA1NDIuODkyMTg2bC02LjA3NzE1Mi0zLjAzODU3NmMtMTYuMjA1NzM3LTkuMTE1NzI3LTIxLjI3MDAzLTMwLjM4NTc1Ny0xMi4xNTQzMDItNDYuNTkxNDkzbDE5LjI0NDMxMi0zMi40MTE0NzRjOS4xMTU3MjctMTYuMjA1NzM3IDMwLjM4NTc1Ny0yMS4yNzAwMyA0Ni41OTE0OTQtMTIuMTU0MzAzbDYuMDc3MTUxIDMuMDM4NTc2YzE2LjIwNTczNyA5LjExNTcyNyAyMS4yNzAwMyAzMC4zODU3NTcgMTIuMTU0MzAzIDQ2LjU5MTQ5M2wtMTkuMjQ0MzEzIDMyLjQxMTQ3NGMtMTAuMTI4NTg2IDE2LjIwNTczNy0zMS4zOTg2MTUgMjEuMjcwMDMtNDYuNTkxNDkzIDEyLjE1NDMwM3pNMTAyNC41OTA0OTcgNjQxLjEzOTQ2NmwtMy4wMzg1NzYtNi4wNzcxNTFjLTkuMTE1NzI3LTE2LjIwNTczNy00LjA1MTQzNC0zNi40NjI5MDggMTIuMTU0MzAzLTQ2LjU5MTQ5NGwzMi40MTE0NzMtMTkuMjQ0MzEzYzE2LjIwNTczNy05LjExNTcyNyAzNi40NjI5MDgtNC4wNTE0MzQgNDYuNTkxNDk0IDEyLjE1NDMwM2wzLjAzODU3NiA2LjA3NzE1MWM5LjExNTcyNyAxNi4yMDU3MzcgNC4wNTE0MzQgMzYuNDYyOTA4LTEyLjE1NDMwMyA0Ni41OTE0OTRsLTMyLjQxMTQ3NCAxOS4yNDQzMTNjLTE3LjIxODU5NSAxMC4xMjg1ODYtMzcuNDc1NzY3IDQuMDUxNDM0LTQ2LjU5MTQ5My0xMi4xNTQzMDN6TTY2MS45ODcxMzQgNTM5Ljg1MzYxbC02LjA3NzE1MiAzLjAzODU3NmMtMTYuMjA1NzM3IDkuMTE1NzI3LTM2LjQ2MjkwOCA0LjA1MTQzNC00Ni41OTE0OTMtMTIuMTU0MzAzTDU5MS4wODcwMzUgNDk3LjMxMzU1MWMtMTAuMTI4NTg2LTE2LjIwNTczNy00LjA1MTQzNC0zNi40NjI5MDggMTIuMTU0MzAyLTQ1LjU3ODYzNWw2LjA3NzE1Mi0zLjAzODU3NmMxNi4yMDU3MzctOS4xMTU3MjcgMzYuNDYyOTA4LTQuMDUxNDM0IDQ2LjU5MTQ5MyAxMi4xNTQzMDNsMTkuMjQ0MzEzIDMyLjQxMTQ3NGM4LjEwMjg2OCAxNi4yMDU3MzcgMy4wMzg1NzYgMzYuNDYyOTA4LTEzLjE2NzE2MSA0Ni41OTE0OTN6Ii8+PHBhdGggZmlsbD0iIzM4MzgzOCIgZD0iTTQ4OS44MDExNzkgODEzLjMyNTQySDM1OC4xMjk1NjdjLTEyLjE1NDMwMyAwLTIzLjI5NTc0Ny01LjA2NDI5My0zMi40MTE0NzQtMTMuMTY3MTYxLTguMTAyODY4LTguMTAyODY4LTEzLjE2NzE2MS0yMC4yNTcxNzEtMTMuMTY3MTYxLTMyLjQxMTQ3NCAwLTEyLjE1NDMwMyA1LjA2NDI5My0yMy4yOTU3NDcgMTMuMTY3MTYxLTMyLjQxMTQ3MyA4LjEwMjg2OC04LjEwMjg2OCAyMC4yNTcxNzEtMTMuMTY3MTYxIDMyLjQxMTQ3NC0xMy4xNjcxNjJoMTEwLjQwMTU4Mkw0MzkuMTU4MjUxIDcwNC45NDk1NTVjLTI5LjM3Mjg5OC0xNi4yMDU3MzctNDcuNjA0MzUyLTQ0LjU2NTc3Ni01NC42OTQzNjItNzMuOTM4Njc1SDM1OC4xMjk1NjdjLTEyLjE1NDMwMyAwLTIzLjI5NTc0Ny01LjA2NDI5My0zMi40MTE0NzQtMTMuMTY3MTYxLTguMTAyODY4LTguMTAyODY4LTEzLjE2NzE2MS0yMC4yNTcxNzEtMTMuMTY3MTYxLTMyLjQxMTQ3NCAwLTEyLjE1NDMwMyA1LjA2NDI5My0yMy4yOTU3NDcgMTMuMTY3MTYxLTMyLjQxMTQ3MyA4LjEwMjg2OC04LjEwMjg2OCAyMC4yNTcxNzEtMTMuMTY3MTYxIDMyLjQxMTQ3NC0xMy4xNjcxNjJoNDQuNTY1Nzc2YzIxLjI3MDAzLTMzLjQyNDMzMiA1Ny43MzI5MzgtNTQuNjk0MzYyIDk3LjIzNDQyMi01NC42OTQzNjJoNC4wNTE0MzRjMC0xMS4xNDE0NDQgMS4wMTI4NTktMjMuMjk1NzQ3IDQuMDUxNDM0LTM0LjQzNzE5MSAwLTEuMDEyODU5IDEuMDEyODU5LTIuMDI1NzE3IDEuMDEyODU5LTIuMDI1NzE3SDM1OS4xNDI0MjVjLTEyLjE1NDMwMyAwLTIzLjI5NTc0Ny01LjA2NDI5My0zMi40MTE0NzMtMTMuMTY3MTYxLTguMTAyODY4LTguMTAyODY4LTEzLjE2NzE2MS0yMC4yNTcxNzEtMTMuMTY3MTYyLTMyLjQxMTQ3NCAwLTEyLjE1NDMwMyA1LjA2NDI5My0yMy4yOTU3NDcgMTMuMTY3MTYyLTMyLjQxMTQ3NCA4LjEwMjg2OC04LjEwMjg2OCAyMC4yNTcxNzEtMTMuMTY3MTYxIDMyLjQxMTQ3My0xMy4xNjcxNjFoMzQ0LjM3MTkwOWMyMS4yNzAwMy0yMy4yOTU3NDcgNTEuNjU1Nzg2LTM4LjQ4ODYyNSA4Ni4wOTI5NzgtMzguNDg4NjI1aDcuMDkwMDA5YzQ0LjU2NTc3NiAwIDgyLjA0MTU0MyAyNS4zMjE0NjQgMTAxLjI4NTg1NiA2MS43ODQzNzIgMTQuMTgwMDItOS4xMTU3MjcgMjkuMzcyODk4LTE1LjE5Mjg3OCA0Ni41OTE0OTQtMTcuMjE4NTk1VjIwMy41ODQ1N2MwLTI0LjMwODYwNS0xMC4xMjg1ODYtNDcuNjA0MzUyLTI3LjM0NzE4MS02NC44MjI5NDgtMTcuMjE4NTk1LTE3LjIxODU5NS00MC41MTQzNDItMjYuMzM0MzIyLTY0LjgyMjk0OC0yNi4zMzQzMjJoLTkxLjE1NzI3djIyLjI4Mjg4OGMwIDE4LjIzMTQ1NC03LjA5MDAxIDM1LjQ1MDA0OS0yMC4yNTcxNzEgNDguNjE3MjExLTEzLjE2NzE2MSAxMy4xNjcxNjEtMzAuMzg1NzU3IDIwLjI1NzE3MS00OC42MTcyMTEgMjAuMjU3MTcxSDI1Mi43OTIyNzdjLTM3LjQ3NTc2NyAwLTY4Ljg3NDM4Mi0zMC4zODU3NTctNjguODc0MzgyLTY3Ljg2MTUyNHYtMjIuMjgyODg4aC05MS4xNTcyN2MtMjQuMzA4NjA1IDAtNDcuNjA0MzUyIDkuMTE1NzI3LTY0LjgyMjk0NyAyNi4zMzQzMjMtMTcuMjE4NTk1IDE3LjIxODU5NS0yNy4zNDcxODEgNDAuNTE0MzQyLTI3LjM0NzE4MSA2NC44MjI5NDd2NzI4LjI0NTMwMmMwIDI0LjMwODYwNSAxMC4xMjg1ODYgNDcuNjA0MzUyIDI2LjMzNDMyMiA2NC44MjI5NDggMTcuMjE4NTk1IDE3LjIxODU5NSA0MC41MTQzNDIgMjYuMzM0MzIyIDY0LjgyMjk0OCAyNi4zMzQzMjJoNTE3LjU3MDcyMmwtMy4wMzg1NzYtOS4xMTU3MjdDNTQzLjQ4MjY4MiA5NjUuMjU0MjA0IDUwMC45NDI2MjMgODkyLjMyODM4OCA0ODkuODAxMTc5IDgxMy4zMjU0MnogbS0yMzUuOTk2MDQzLTE0LjE4MDAxOWMtOC4xMDI4NjggOC4xMDI4NjgtMjAuMjU3MTcxIDEzLjE2NzE2MS0zMi40MTE0NzQgMTMuMTY3MTYxLTEyLjE1NDMwMyAwLTIzLjI5NTc0Ny01LjA2NDI5My0zMi40MTE0NzQtMTMuMTY3MTYxLTguMTAyODY4LTguMTAyODY4LTEzLjE2NzE2MS0yMC4yNTcxNzEtMTMuMTY3MTYxLTMyLjQxMTQ3NCAwLTEyLjE1NDMwMyA1LjA2NDI5My0yMy4yOTU3NDcgMTMuMTY3MTYxLTMyLjQxMTQ3NCA4LjEwMjg2OC04LjEwMjg2OCAyMC4yNTcxNzEtMTMuMTY3MTYxIDMyLjQxMTQ3NC0xMy4xNjcxNjEgMTIuMTU0MzAzIDAgMjMuMjk1NzQ3IDUuMDY0MjkzIDMyLjQxMTQ3NCAxMy4xNjcxNjEgOC4xMDI4NjggOC4xMDI4NjggMTMuMTY3MTYxIDIwLjI1NzE3MSAxMy4xNjcxNjEgMzIuNDExNDc0IDAgMTMuMTY3MTYxLTQuMDUxNDM0IDI0LjMwODYwNS0xMy4xNjcxNjEgMzIuNDExNDc0eiBtLTIwLjI1NzE3Mi0xNzAuMTYwMjM4Yy0yMC4yNTcxNzEgNS4wNjQyOTMtNDEuNTI3MjAxLTMuMDM4NTc2LTUxLjY1NTc4Ni0yMS4yNzAwMjktOC4xMDI4NjgtMTQuMTgwMDItOC4xMDI4NjgtMzEuMzk4NjE1IDAtNDUuNTc4NjM1czIzLjI5NTc0Ny0yMy4yOTU3NDcgMzkuNTAxNDg0LTIzLjI5NTc0N2MxMi4xNTQzMDMgMCAyMy4yOTU3NDcgNS4wNjQyOTMgMzIuNDExNDc0IDEzLjE2NzE2MSA4LjEwMjg2OCA4LjEwMjg2OCAxMy4xNjcxNjEgMjAuMjU3MTcxIDEzLjE2NzE2MSAzMi40MTE0NzQgMCAyMS4yNzAwMy0xNC4xODAwMiAzOS41MDE0ODQtMzMuNDI0MzMzIDQ0LjU2NTc3NnogbTAtMTgyLjMxNDU0Yy0yMC4yNTcxNzEgNS4wNjQyOTMtNDEuNTI3MjAxLTMuMDM4NTc2LTUxLjY1NTc4Ni0yMS4yNzAwMy04LjEwMjg2OC0xNC4xODAwMi04LjEwMjg2OC0zMS4zOTg2MTUgMC00NS41Nzg2MzVzMjMuMjk1NzQ3LTIyLjI4Mjg4OCAzOS41MDE0ODQtMjIuMjgyODg4YzI1LjMyMTQ2NCAwIDQ1LjU3ODYzNSAyMC4yNTcxNzEgNDUuNTc4NjM1IDQ1LjU3ODYzNSAwIDIwLjI1NzE3MS0xMy4xNjcxNjEgMzguNDg4NjI1LTMzLjQyNDMzMyA0My41NTI5MTh6Ii8+PHBhdGggZmlsbD0iIzM4MzgzOCIgZD0iTTI2Mi45MjA4NjMgMTc1LjIyNDUzaDQxOC4zMTA1ODNjMjkuMzcyODk4IDAgNTIuNjY4NjQ1LTIzLjI5NTc0NyA1Mi42Njg2NDUtNTIuNjY4NjQ1cy0yMy4yOTU3NDctNTIuNjY4NjQ1LTUyLjY2ODY0NS01Mi42Njg2NDVINTU3LjY2MjcwMmMtOC4xMDI4NjgtNDAuNTE0MzQyLTQzLjU1MjkxOC02OS44ODcyNC04NS4wODAxMTgtNjkuODg3MjQtNDEuNTI3MjAxIDAtNzYuOTc3MjUgMjkuMzcyODk4LTg1LjA4MDExOSA2OS44ODcyNEgyNjIuOTIwODYzYy0yOS4zNzI4OTggMC01Mi42Njg2NDUgMjMuMjk1NzQ3LTUyLjY2ODY0NSA1Mi42Njg2NDVzMjQuMzA4NjA1IDUyLjY2ODY0NSA1Mi42Njg2NDUgNTIuNjY4NjQ1ek03MDIuNTAxNDc2IDYwOS43NDA4NTFsLTYuMDc3MTUyIDMuMDM4NTc1Yy0xNS4xOTI4NzggOC4xMDI4NjgtMzEuMzk4NjE1IDEzLjE2NzE2MS00OC42MTcyMSAxNS4xOTI4Nzl2My4wMzg1NzVoODAuMDE1ODI2YzEyLjE1NDMwMyAwIDIzLjI5NTc0Ny01LjA2NDI5MyAzMi40MTE0NzMtMTMuMTY3MTYxIDguMTAyODY4LTguMTAyODY4IDEzLjE2NzE2MS0yMC4yNTcxNzEgMTMuMTY3MTYyLTMyLjQxMTQ3NC0xMi4xNTQzMDMtMi4wMjU3MTctMjMuMjk1NzQ3LTUuMDY0MjkzLTM0LjQzNzE5MS0xMC4xMjg1ODUtOS4xMTU3MjcgMTMuMTY3MTYxLTIxLjI3MDAzIDI1LjMyMTQ2NC0zNi40NjI5MDggMzQuNDM3MTkxek05NDMuNTYxODEyIDY2MS4zOTY2Mzd2LTMyLjQxMTQ3NEg5MzUuNDU4OTQ0YzEuMDEyODU5IDEwLjEyODU4NiA0LjA1MTQzNCAyMS4yNzAwMyA4LjEwMjg2OCAzMi40MTE0NzR6TTU2Mi43MjY5OTUgNjM2LjA3NTE3M2wtMy4wMzg1NzYgNi4wNzcxNTFjLTkuMTE1NzI3IDE2LjIwNTczNy0zMC4zODU3NTcgMjEuMjcwMDMtNDYuNTkxNDkzIDEyLjE1NDMwM2wtMzIuNDExNDc0LTE5LjI0NDMxMmMtMTYuMjA1NzM3LTkuMTE1NzI3LTIxLjI3MDAzLTMwLjM4NTc1Ny0xMi4xNTQzMDMtNDYuNTkxNDk0bDMuMDM4NTc2LTYuMDc3MTUxYzkuMTE1NzI3LTE2LjIwNTczNyAzMC4zODU3NTctMjEuMjcwMDMgNDYuNTkxNDk0LTEyLjE1NDMwM2wzMi40MTE0NzMgMTkuMjQ0MzEzYzE2LjIwNTczNyA5LjExNTcyNyAyMS4yNzAwMyAzMC4zODU3NTcgMTIuMTU0MzAzIDQ2LjU5MTQ5M3oiLz48L3N2Zz4=;" vertex="1" parent="trXp6Y1SY67JESG5djMZ-20">
          <mxGeometry x="38.484705882352955" width="32.04" height="29" as="geometry" />
        </mxCell>
        <mxCell id="trXp6Y1SY67JESG5djMZ-22" value="&lt;span style=&quot;color: rgb(0, 0, 0); font-family: &amp;quot;Comic Sans MS&amp;quot;; font-size: 19px; font-style: normal; font-variant-ligatures: normal; font-variant-caps: normal; font-weight: 400; letter-spacing: normal; orphans: 2; text-indent: 0px; text-transform: none; widows: 2; word-spacing: 0px; -webkit-text-stroke-width: 0px; white-space: normal; background-color: rgb(251, 251, 251); text-decoration-thickness: initial; text-decoration-style: initial; text-decoration-color: initial; float: none; display: inline !important;&quot;&gt;Strategy&lt;/span&gt;" style="text;whiteSpace=wrap;html=1;align=center;" vertex="1" parent="trXp6Y1SY67JESG5djMZ-20">
          <mxGeometry y="31.001176470588234" width="108" height="45" as="geometry" />
        </mxCell>
        <mxCell id="trXp6Y1SY67JESG5djMZ-23" value="&lt;div data-page-id=&quot;TPp5dsTy3oIuvRxV3PSckvq5nie&quot; data-lark-html-role=&quot;root&quot; data-docx-has-block-data=&quot;false&quot; style=&quot;&quot;&gt;&lt;div class=&quot;old-record-id-DbKWdirzUojL5sxZZ4scj1dan6f&quot; style=&quot;&quot;&gt;&lt;font style=&quot;font-size: 18px;&quot;&gt;&lt;i style=&quot;&quot;&gt;&lt;span style=&quot;background-color: initial; text-align: left;&quot;&gt;Clarify&lt;/span&gt;&lt;br&gt;&lt;span style=&quot;background-color: initial; text-align: left;&quot;&gt;Focus&lt;/span&gt;&lt;br&gt;&lt;span style=&quot;background-color: initial; text-align: left;&quot;&gt;Feelings&lt;/span&gt;&lt;br&gt;&lt;span style=&quot;background-color: initial; text-align: left;&quot;&gt;Cathart&lt;/span&gt;&lt;br&gt;&lt;span style=&quot;background-color: initial; text-align: left;&quot;&gt;Get information&lt;/span&gt;&lt;/i&gt;&lt;/font&gt;&lt;br&gt;&lt;/div&gt;&lt;/div&gt;&lt;span data-lark-record-data=&quot;{&amp;quot;rootId&amp;quot;:&amp;quot;TPp5dsTy3oIuvRxV3PSckvq5nie&amp;quot;,&amp;quot;text&amp;quot;:{&amp;quot;initialAttributedTexts&amp;quot;:{&amp;quot;text&amp;quot;:{&amp;quot;0&amp;quot;:&amp;quot;focus&amp;quot;},&amp;quot;attribs&amp;quot;:{&amp;quot;0&amp;quot;:&amp;quot;*0+5&amp;quot;}},&amp;quot;apool&amp;quot;:{&amp;quot;numToAttrib&amp;quot;:{&amp;quot;0&amp;quot;:[&amp;quot;author&amp;quot;,&amp;quot;7026925821046603804&amp;quot;]},&amp;quot;nextNum&amp;quot;:1}},&amp;quot;type&amp;quot;:&amp;quot;text&amp;quot;,&amp;quot;referenceRecordMap&amp;quot;:{},&amp;quot;extra&amp;quot;:{&amp;quot;channel&amp;quot;:&amp;quot;saas&amp;quot;,&amp;quot;pasteRandomId&amp;quot;:&amp;quot;540851a4-24d9-45e4-bb3d-768221515643&amp;quot;,&amp;quot;mention_page_title&amp;quot;:{},&amp;quot;external_mention_url&amp;quot;:{}},&amp;quot;isKeepQuoteContainer&amp;quot;:false,&amp;quot;isFromCode&amp;quot;:false,&amp;quot;selection&amp;quot;:[{&amp;quot;id&amp;quot;:813,&amp;quot;type&amp;quot;:&amp;quot;text&amp;quot;,&amp;quot;selection&amp;quot;:{&amp;quot;start&amp;quot;:3,&amp;quot;end&amp;quot;:8},&amp;quot;recordId&amp;quot;:&amp;quot;DbKWdirzUojL5sxZZ4scj1dan6f&amp;quot;}],&amp;quot;payloadMap&amp;quot;:{},&amp;quot;isCut&amp;quot;:false}&quot; data-lark-record-format=&quot;docx/text&quot; class=&quot;lark-record-clipboard&quot;&gt;&lt;/span&gt;" style="rounded=0;whiteSpace=wrap;html=1;fillColor=none;strokeColor=#6C8EBF;shadow=0;glass=0;sketch=1;curveFitting=1;jiggle=2;fontFamily=Comic Sans MS;fontColor=default;" vertex="1" parent="1">
          <mxGeometry x="493.75" y="662" width="142.5" height="115" as="geometry" />
        </mxCell>
        <mxCell id="trXp6Y1SY67JESG5djMZ-24" value="" style="shape=image;verticalLabelPosition=bottom;labelBackgroundColor=default;verticalAlign=top;aspect=fixed;imageAspect=0;image=data:image/svg+xml,PHN2ZyB4bWxuczp4bGluaz0iaHR0cDovL3d3dy53My5vcmcvMTk5OS94bGluayIgeG1sbnM9Imh0dHA6Ly93d3cudzMub3JnLzIwMDAvc3ZnIiBoZWlnaHQ9IjIwMCIgd2lkdGg9IjIwMCIgdmVyc2lvbj0iMS4xIiB2aWV3Qm94PSIwIDAgMTAyNCAxMDI0IiBjbGFzcz0iaWNvbiI+PHBhdGggZmlsbD0iI0U5RUFFQiIgZD0iTTEyMCA0OTZjMCAxMzcuMiA3My4yIDI2NCAxOTIgMzMyLjYgMTE4LjggNjguNiAyNjUuMiA2OC42IDM4NCAwQzgxNC44IDc2MCA4ODggNjMzLjIgODg4IDQ5NmMwLTEzNy4yLTczLjItMjY0LTE5Mi0zMzIuNi0xMTguOC02OC42LTI2NS4yLTY4LjYtMzg0IDBDMTkzLjIgMjMyLjEgMTIwIDM1OC44IDEyMCA0OTZ6IG0wIDAiLz48cGF0aCBmaWxsPSIjMkE1MDgyIiBkPSJNNDg4IDBoMzJ2MjI0aC0zMlYwek0yMzguOCA2MS45bDI3LjctMTYgMTE2LjMgMjAxLjUtMjcuNyAxNkwyMzguOCA2MS45ek01OS45IDI1NS4ybDE2LTI3LjcgMjAxLjUgMTE2LjMtMTYgMjcuN0w1OS45IDI1NS4yek04IDQ4MC4xaDIyNHYzMkg4di0zMnogbTU1LjMgMjU1LjhsMjAxLjUtMTE2LjMgMTYgMjcuN0w3OS4zIDc2My42bC0xNi0yNy43eiBtNjc5LjMtOTQuN2wxNi0yNy43IDIwMS41IDExNi4zLTE2IDI3LjctMjAxLjUtMTE2LjN6TTc5MiA0ODAuMWgyMjR2MzJINzkydi0zMnogbS01Mi45LTE0Mi40bDIwMS41LTExNi4zIDE2IDI3LjdMNzU1IDM2NS40bC0xNS45LTI3Ljd6TTYzMSAyNDMuOUw3NDcuMyA0Mi40bDI3LjcgMTYtMTE2LjMgMjAxLjUtMjcuNy0xNnogbTAgMCIvPjxwYXRoIGZpbGw9IiNCQ0MwQzQiIGQ9Ik00MDguNSAxODkuNmwzMC45LTguMyAxMS4xIDQxLjYtMzAuOSA4LjMtMTEuMS00MS42ek0yNzAuNyAyODFsMjIuNi0yMi42IDMwLjQgMzAuNC0yMi42IDIyLjYtMzAuNC0zMC40eiBtLTczLjggMTQ3LjdsOC4zLTMwLjkgNDEuNiAxMS4xLTguMyAzMC45LTQxLjYtMTEuMXogbTEuOCAxMzQuMmw0MS42LTExLjEgOC4zIDMwLjktNDEuNiAxMS4xLTguMy0zMC45eiBtNzYuOSAxNDYuMmwzMC40LTMwLjQgMjIuNiAyMi42LTMwLjQgMzAuNC0yMi42LTIyLjZ6IG00MjAuNi0xMi44bDIyLjYtMjIuNiAzMC40IDMwLjQtMjIuNiAyMi42LTMwLjQtMzAuNHogbTgwLjItMTIyLjhsOC4zLTMxIDQxLjggMTEuMi04LjMgMzEtNDEuOC0xMS4yeiBtLTUuMS0xNzEuMmw0MS42LTExLjEgOC4zIDMwLjktNDEuNiAxMS4xLTguMy0zMC45eiBtLTgwLjEtMTE4LjZsMzAuNC0zMC40IDIyLjYgMjIuNi0zMC40IDMwLjQtMjIuNi0yMi42ek01NjIuNSAyMjFsMTEuMS00MS42IDMwLjkgOC4zLTExLjEgNDEuNi0zMC45LTguM3ogbTAgMCIvPjxwYXRoIGZpbGw9IiNBM0Q0RkYiIGQ9Ik01MjMuMSAyNzIuM2MtOTUuNi00LjYtMTg0LjIgNTAtMjIzLjEgMTM3LjUtMzguOCA4Ny41LTE5LjkgMTg5LjggNDcuNyAyNTcuNyAyOCAyNy40IDQzLjkgNjQuOCA0NC4yIDEwMy45VjgwMEg2MzJ2LTI4LjdjLTAuMi0zOC4yIDE1LjEtNzQuOSA0Mi4zLTEwMS44IDQ0LjYtNDMuNCA2OS44LTEwMi45IDY5LjktMTY1LjEtMC44LTEyMy43LTk3LjYtMjI1LjQtMjIxLjEtMjMyLjF6IG0wIDAiLz48cGF0aCBmaWxsPSIjMkE1MDgyIiBkPSJNNjQ4IDgwMGgtMzJ2LTI4LjdjMC00Mi41IDE2LjktODMuMyA0Ny4yLTExMy4yIDQxLjUtNDAuMyA2NC45LTk1LjggNjQuOS0xNTMuNy0wLjktMTE1LTkwLjktMjA5LjYtMjA1LjctMjE2LjEtODktNC4zLTE3MS41IDQ2LjUtMjA3LjcgMTI4LTM2LjMgODEuNC0xOC42IDE3Ni43IDQ0LjMgMjM5LjggMzEuMSAzMC4zIDQ4LjcgNzEuOCA0OS4xIDExNS4yVjgwMGgtMzIuNHYtMjguN2MtMC40LTM0LjktMTQuNy02OC4zLTM5LjctOTIuNy03Mi4yLTcyLjYtOTIuNC0xODItNTAuOC0yNzUuNSA0MS42LTkzLjUgMTM2LjQtMTUxLjkgMjM4LjYtMTQ2LjkgMTMxLjggNy42IDIzNS4xIDExNi4xIDIzNi4yIDI0OC4xIDAgNjYuNS0yNi45IDEzMC4yLTc0LjcgMTc2LjUtMjQgMjMuOS0zNy41IDU2LjQtMzcuNCA5MC4zbDAuMSAyOC45eiBtMCAwIi8+PHBhdGggZmlsbD0iIzJBNTA4MiIgZD0iTTM3MiA0MzguNGwtMjkuNS0xMi44YzIzLTUyLjYgNzAuMS05MC42IDEyNi4zLTEwMmw2LjMgMzEuM2MtNDUuOCA5LjQtODQuMyA0MC41LTEwMy4xIDgzLjV6TTM2MCA0OTZoLTMyYzAtMTEuOCAxLjEtMjMuNiAzLjUtMzUuMmwzMS4zIDYuNGMtMS45IDkuNS0yLjggMTkuMi0yLjggMjguOHogbTE4Mi42IDUyOGgtNjEuM2wtMzItMzJINDI0di0zMmgzOC42bDMyIDMyaDM0LjdsMzItMzJINjAwdjMyaC0yNS40bC0zMiAzMnpNMzc2IDgzMmgyNzJ2MzJIMzc2di0zMnogbTAgNjRoMjcydjMySDM3NnYtMzJ6IG0xOTItMTkyaC0zMnYtOTUuOGgtNDhWNzA0aC0zMnYtOTUuOGgtMTQuN2MtMTIuMyAwLjItMjQuMy00LjUtMzMuMS0xMy4ycy0xMy43LTIwLjUtMTMuNy0zMi45YzAuMi0yNS44IDIxLjMtNDYuNiA0Ny4xLTQ2LjQgMjUuOCAwLjIgNDYuNiAyMS4yIDQ2LjQgNDcuMXYxMy41aDQ4di0xMy44YzAtMjUuOCAyMC45LTQ2LjcgNDYuNy00Ni43IDE2LjktMC43IDMyLjggOCA0MS41IDIyLjUgOC43IDE0LjUgOC43IDMyLjcgMCA0Ny4ycy0yNC42IDIzLjItNDEuNSAyMi41SDU2OHY5NnogbTAtMTI4aDE0LjdjNS4zIDAuNCAxMC4zLTIuMiAxMy4xLTYuNyAyLjgtNC41IDIuOC0xMC4yIDAtMTQuN3MtNy44LTcuMS0xMy4xLTYuN2MtOC4xIDAtMTQuNyA2LjYtMTQuNyAxNC43VjU3NnogbS0xMjYuNy0yOC41Yy04LjEgMC0xNC43IDYuNi0xNC43IDE0LjcgMC4xIDMuOCAxLjcgNy41IDQuNCAxMC4xczYuNSA0LjEgMTAuMyA0SDQ1NnYtMTMuOGMwLjEtNC0xLjQtNy44LTQuMi0xMC42LTIuOC0yLjgtNi42LTQuNC0xMC41LTQuNHogbTAgMCIvPjwvc3ZnPg==;" vertex="1" parent="1">
          <mxGeometry x="539.75" y="560" width="50.5" height="50.5" as="geometry" />
        </mxCell>
        <mxCell id="trXp6Y1SY67JESG5djMZ-25" value="&lt;span style=&quot;forced-color-adjust: none; font-style: normal; font-variant-ligatures: normal; font-variant-caps: normal; letter-spacing: normal; orphans: 2; text-indent: 0px; text-transform: none; widows: 2; word-spacing: 0px; -webkit-text-stroke-width: 0px; white-space: normal; background-color: rgb(251, 251, 251); text-decoration-thickness: initial; text-decoration-style: initial; text-decoration-color: initial;&quot;&gt;&lt;font style=&quot;forced-color-adjust: none; font-size: 19px;&quot;&gt;&lt;font style=&quot;forced-color-adjust: none;&quot;&gt;Intention Category&lt;/font&gt;&lt;/font&gt;&lt;/span&gt;&lt;div&gt;&lt;span style=&quot;forced-color-adjust: none; font-style: normal; font-variant-ligatures: normal; font-variant-caps: normal; letter-spacing: normal; orphans: 2; text-indent: 0px; text-transform: none; widows: 2; word-spacing: 0px; -webkit-text-stroke-width: 0px; white-space: normal; background-color: rgb(251, 251, 251); text-decoration-thickness: initial; text-decoration-style: initial; text-decoration-color: initial;&quot;&gt;&lt;font style=&quot;forced-color-adjust: none; font-size: 19px;&quot;&gt;&lt;span style=&quot;forced-color-adjust: none; background-color: initial;&quot;&gt;Proposals&lt;/span&gt;&lt;/font&gt;&lt;/span&gt;&lt;/div&gt;" style="text;whiteSpace=wrap;html=1;fontColor=default;fontFamily=Comic Sans MS;align=center;" vertex="1" parent="1">
          <mxGeometry x="474.75" y="606.5" width="180.5" height="48" as="geometry" />
        </mxCell>
        <mxCell id="trXp6Y1SY67JESG5djMZ-26" value="" style="endArrow=classic;html=1;rounded=0;entryX=0;entryY=0.5;entryDx=0;entryDy=0;strokeColor=#6C8EBF;" edge="1" parent="1" target="trXp6Y1SY67JESG5djMZ-23">
          <mxGeometry width="50" height="50" relative="1" as="geometry">
            <mxPoint x="420.75" y="637" as="sourcePoint" />
            <mxPoint x="554.75" y="741.21" as="targetPoint" />
            <Array as="points">
              <mxPoint x="420.75" y="720" />
            </Array>
          </mxGeometry>
        </mxCell>
        <mxCell id="trXp6Y1SY67JESG5djMZ-27" value="&lt;div&gt;&lt;span style=&quot;forced-color-adjust: none; font-style: normal; font-variant-ligatures: normal; font-variant-caps: normal; letter-spacing: normal; orphans: 2; text-indent: 0px; text-transform: none; widows: 2; word-spacing: 0px; -webkit-text-stroke-width: 0px; white-space: normal; background-color: rgb(251, 251, 251); text-decoration-thickness: initial; text-decoration-style: initial; text-decoration-color: initial;&quot;&gt;Definitions&lt;/span&gt;&lt;/div&gt;" style="text;whiteSpace=wrap;html=1;fontFamily=Comic Sans MS;fontStyle=0;fontSize=19;fontColor=default;align=center;" vertex="1" parent="1">
          <mxGeometry x="450.25" y="780" width="105" height="48" as="geometry" />
        </mxCell>
        <mxCell id="trXp6Y1SY67JESG5djMZ-28" value="&lt;div&gt;&lt;i style=&quot;background-color: initial;&quot;&gt;&lt;span style=&quot;background-color: initial;&quot;&gt;&lt;b&gt;&lt;u&gt;Clarify&lt;/u&gt;&lt;/b&gt;:&amp;nbsp;&lt;/span&gt;&lt;font&gt;To request or provide&amp;nbsp;&lt;/font&gt;&lt;/i&gt;&lt;/div&gt;&lt;div&gt;&lt;i&gt;&lt;font&gt;&lt;font&gt;further clarification when the ...&lt;/font&gt;&lt;br&gt;&lt;div&gt;&lt;i style=&quot;background-color: initial;&quot;&gt;&lt;span style=&quot;background-color: initial;&quot;&gt;&lt;b&gt;&lt;u&gt;Focus&lt;/u&gt;&lt;/b&gt;:&amp;nbsp;&lt;/span&gt;&lt;span style=&quot;background-color: initial;&quot;&gt;&lt;font&gt;To help a seeker refocus, change the subject, channel...&lt;/font&gt;&lt;/span&gt;&lt;/i&gt;&lt;/div&gt;&lt;div&gt;&lt;i style=&quot;background-color: initial;&quot;&gt;&lt;span style=&quot;background-color: initial;&quot;&gt;&lt;font&gt;&lt;b&gt;&lt;u&gt;Feelings&lt;/u&gt;&lt;/b&gt;:&amp;nbsp;&lt;/font&gt;&lt;/span&gt;&lt;/i&gt;&lt;span style=&quot;background-color: initial;&quot;&gt;&lt;font&gt;To help the seeker recognize, deepen, and accept...&lt;/font&gt;&lt;/span&gt;&lt;/div&gt;&lt;span style=&quot;background-color: initial;&quot;&gt;&lt;b&gt;&lt;u&gt;Cathart&lt;/u&gt;&lt;/b&gt;:&amp;nbsp;&lt;/span&gt;&lt;font&gt;...&lt;/font&gt;&lt;br&gt;&lt;span style=&quot;background-color: initial;&quot;&gt;&lt;b&gt;&lt;u&gt;Get information&lt;/u&gt;&lt;/b&gt;: ...&lt;/span&gt;&lt;/font&gt;&lt;/i&gt;&lt;/div&gt;" style="whiteSpace=wrap;html=1;shape=mxgraph.basic.document;fillColor=none;strokeColor=#6c8ebf;align=left;fontFamily=Comic Sans MS;fontSize=15;fontColor=default;" vertex="1" parent="1">
          <mxGeometry x="382.25" y="809" width="241.5" height="158" as="geometry" />
        </mxCell>
        <mxCell id="trXp6Y1SY67JESG5djMZ-29" value="" style="endArrow=none;html=1;rounded=0;entryX=0;entryY=1;entryDx=0;entryDy=0;exitX=0.005;exitY=-0.008;exitDx=0;exitDy=0;exitPerimeter=0;strokeColor=#6C8EBF;dashed=1;" edge="1" parent="1" source="trXp6Y1SY67JESG5djMZ-28" target="trXp6Y1SY67JESG5djMZ-23">
          <mxGeometry width="50" height="50" relative="1" as="geometry">
            <mxPoint x="728.75" y="745" as="sourcePoint" />
            <mxPoint x="493.75000000000045" y="795.0000000000002" as="targetPoint" />
          </mxGeometry>
        </mxCell>
        <mxCell id="trXp6Y1SY67JESG5djMZ-30" value="" style="endArrow=none;html=1;rounded=0;entryX=1;entryY=1;entryDx=0;entryDy=0;exitX=0.993;exitY=0.171;exitDx=0;exitDy=0;exitPerimeter=0;strokeColor=#6C8EBF;dashed=1;" edge="1" parent="1" source="trXp6Y1SY67JESG5djMZ-28" target="trXp6Y1SY67JESG5djMZ-23">
          <mxGeometry width="50" height="50" relative="1" as="geometry">
            <mxPoint x="393.75" y="818" as="sourcePoint" />
            <mxPoint x="636.2499999999995" y="795.0000000000002" as="targetPoint" />
          </mxGeometry>
        </mxCell>
        <mxCell id="trXp6Y1SY67JESG5djMZ-31" value="" style="whiteSpace=wrap;html=1;rounded=1;dashed=1;" vertex="1" parent="1">
          <mxGeometry x="737.75" y="535" width="498" height="450" as="geometry" />
        </mxCell>
        <mxCell id="trXp6Y1SY67JESG5djMZ-32" value="" style="shape=image;verticalLabelPosition=bottom;labelBackgroundColor=default;verticalAlign=top;aspect=fixed;imageAspect=0;image=data:image/png,iVBORw0KGgoAAAANSUhEUgAAA7IAAAHMCAYAAADoN5RsAAAAAXNSR0IArs4c6QAAAIRlWElmTU0AKgAAAAgABQESAAMAAAABAAEAAAEaAAUAAAABAAAASgEbAAUAAAABAAAAUgEoAAMAAAABAAIAAIdpAAQAAAABAAAAWgAAAAAAAACQAAAAAQAAAJAAAAABAAOgAQADAAAAAQABAACgAgAEAAAAAQAAA7KgAwAEAAAAAQAAAcwAAAAAC6FlLQAAAAlwSFlzAAAWJQAAFiUBSVIk8AAAQABJREFUeAHsnQdgHMX1/+dOzbbc5N673GTcsLFNN70klNBD6EkghBZ+hJD2A1L5h24gvwRC6BCKCd2AAdNt3A3u3XJvkixLlqxy93/flfc0u9q72zvtSXen74B8u7OzszOfndvbN+/Ne0oxkQAJkAAJkAAJkAAJkAAJkAAJkAAJkAAJkAAJkAAJkAAJkAAJkAAJkAAJkAAJkAAJkAAJkAAJkAAJkAAJkAAJkAAJkAAJkAAJkAAJkAAJkAAJkAAJkAAJkAAJkAAJkAAJkAAJkAAJkAAJkAAJkAAJkAAJkAAJkAAJkAAJkAAJkAAJkAAJkAAJkAAJkAAJkAAJkAAJkAAJkAAJkAAJkAAJkAAJkAAJkAAJkAAJkAAJkAAJkAAJkAAJkAAJkAAJkAAJkAAJkAAJkAAJkAAJkAAJkAAJkAAJkAAJkAAJkAAJkAAJkAAJkAAJkAAJkAAJkAAJkAAJkAAJkAAJkAAJkAAJkAAJkAAJkAAJkAAJkAAJkAAJkAAJkAAJkAAJkAAJkAAJkAAJkAAJkAAJkAAJkAAJkAAJkAAJkAAJkAAJkAAJkAAJkAAJkAAJkAAJkAAJkAAJkAAJkAAJkAAJkAAJkAAJkAAJkAAJkAAJkAAJkAAJkAAJkAAJkAAJkAAJkAAJkAAJkAAJkAAJkAAJkAAJkAAJkAAJkAAJkAAJkAAJkAAJkAAJkAAJkAAJkAAJkAAJkAAJkAAJkAAJkAAJkAAJkAAJkAAJkAAJkAAJkAAJkAAJkAAJkAAJkAAJkAAJkAAJkAAJkAAJkAAJkAAJkAAJkAAJkAAJkAAJkAAJkAAJkAAJkAAJkAAJkAAJkAAJkAAJkAAJkAAJkAAJkAAJkAAJkAAJkAAJkAAJkAAJkAAJkAAJkAAJkAAJkAAJkAAJkAAJkAAJkAAJkAAJkAAJkAAJkAAJkAAJkAAJkAAJkAAJkAAJkAAJkAAJkAAJkAAJkAAJkAAJkAAJkAAJkAAJkAAJkAAJkAAJkAAJkAAJkAAJkAAJkAAJkAAJkAAJkAAJkAAJkAAJkAAJkAAJkAAJkAAJkAAJkAAJkAAJkAAJkAAJkAAJkAAJkAAJkAAJkAAJkAAJkAAJkAAJkAAJkAAJkAAJkAAJkAAJkAAJkAAJkAAJkAAJkAAJkAAJkAAJkAAJkAAJkAAJNBMBXzNdl5clARIgARJIAwI3vzJ1mPJn/dLn8x0TDAa3qkDwoYcvnPlWpK4l8zlod1O1LxIjHiMBEiABEiABEohMwB/5MI+SAAmQAAmQQAQCGdn/EiH2GikxVD6n+jJ802946eReEc5QKpnPQcObqn0RIfEgCZAACZAACZBAJAIUZCPR4TESIAESIIGwBG567eR8Mes52lrAl5mR6b/Mmle/l8znoJVN1b56ItwiARIgARIgARKIhwAF2Xio8RwSIAESIAFVWVFZplSwxo4i6Avss+eZ+8l8DtrYVO0zefCTBEiABEiABEggPgIUZOPjxrNIgARIoMUTePyyL7YHgz7LethgUJXWBKqfDwcnmc9Bm5uqfeH4MJ8ESIAESIAESMAdgQx3xViKBEiABEiABBoSKDi1x4zs7KwtcqSNmBlPD9TU/OSxi2btbFiyPieZz0Erm6p99US4RQIkQAIkQAIkQAIkQAIkQAIkQAIkQAIkQAIkQAIkQAIkQAIkQAIkQAIkQAIkQAIkQAIkQAIkQAIkQAIkQAIkQAIkQAIkQAIkQAIkQAIkQAIkQAIkQAIkQAIkQAIkQAIkQAIkQAIkQAIkQAIkQAIkQAIkQAIkQAIkQAIkQAIkQAIkQAIkQAIkQAIkQAIkQAIkQAIkQAIkQAIkQAIkQAIkQAIkQAIkQAIkQAIkQAIkQAIkQAIkQAIkQAIkQAIkQAIkQAIkQAIkQAIkQAIkQAIkQAIkQAIkQAIkQAIkQAIkQAIkQAIkQAIkQAIkQAIkQAIkQAIkQAIkQAIkQAIkQAIkQAIkQAIkQAIkQAIkQAIkQAIkQAIkQAIkQAIkQAIkQAIkQAIkQAIkQAIkQAIkQAIkQAIkQAIkQAIkQAIkQAIkQAIkQAIkQAIkQAIkQAIkQAIkQAIkQAIkQAIkQAIkQAIkQAIkQAIkQAIkQAIkQAIkQAIkQAIkQAIkQAIkQAIkQAIkQAIkQAIkQAIkQAIkQAIkQAIkQAIkQAIkQAIkQAIkQAIkQAIkQAIkQAIkQAIkQAIkQAIkQAIkQAIkQAIkQAIkQAIkQAIkQAIkQAIkQAIkQAIkQAIkQAIkQAIkQAIkQAIkQAIkQAIkQAIkQAIkQAIkQAIkQAIkQAIkQAIkQAIkQAIkQAIkQAIkQAIkQAIkQAIkQAIkQAIkQAIkQAIkQAIkQAIkQAIkQAIkQAIkQAIkQAIkQAIkQAIkQAIkQAIkQAIkQAIkQAIkQAIkQAIkQAIkQAIkQAIkQAIkQAIk4CEBn4d1saokJHDLq6cdbzQrI3hnqHlBVZcXyuAGCZAACZAACZAACZBAUhPwqU+N9gV9nxmfAfXpQxe8X5dnZPAfEmhZBCjIpuH9NoRXU3Cl0JqGd5hdIgESIAESIAESIAGTgO9uRaHWhMHPFkSAgmwa3eyQAKsJr33z8o0eThl4eqinffKGhLa5QQIkQAIkQAIkQAIkkPwEthSvNRq5uWSN8Tl7/Qxro6GxFW3tQ+e9f5f1APdIID0JUJBNg/tqF2B14ZVCaxrcYHaBBEiABEiABEiABBwIQLiFYGsVakVDK4kCrQMwZqUVAQqyKX47b5l+2l1K1a9/nTLodKVrX1O8e2w+CZAACZAACZAACZCACwKzN8xoINBSmHUBjkVSlgAF2ZS9dUrd8vqps9QhM2IKsCl8I9l0EiABEiABEiABEvCIgFWg9d1NYdYjsKwm6QhQkE26WxK9QXZT4gvH36RoQhydG0uQAAmQAAmQAAmQQEsgAJPjVxZOq+sq1s7WikBLD8ct4da3qD5SkE2x220Isf7gLDQba2EvGH9jivWAzSUBEiABEiABEiABEmgKAq8ufERtLq5zDqUCvqkUZpuCOq/RVAT8TXUhXscjAofC6sCUmEKsR0xZDQmQAAmQAAmQAAmkIQG8K+Kd0UhmaMY07Ce71DIJZLTMbqdmr+scO6kroYk9deSlqdmJFGx16cE9alv5WrWlbJU6WHtAtcpsqzL9WQnrSXn1PrWs6Ct1QD47teqZsOuw4uQlsL+qSC3b+6WqDlSpDjldPWno1rLVanXJfJWb2UHGcG6j6kzmMZoIdo2CxZNJgARIoJkJ4L1xS8laVVpRNGDyxUOOn/PyumeauUm8PAl4QoCmxZ5gTHwlunfiW088tOYh8ZdNmSsEg0FVXrPPdXtzMtqoLH92xPJL936hPt3yH7W5bKWlnF/51RE9zlQn971Ctc3OsxxrzM7G0mVqzo631Hd7PlM1wWrVKzdf3Tz2H42pkuemGIF1JYvU7B1vy0TGlyoQrFXD8yarq0b+Oe5eVNceVEv2zJJx9XZoHJ876GY1uedZcdWZzGPUa3ZxAeJJJEACJJDEBB74+KZDraMDqCS+TWxaDAQyYyjLos1EQBdi4diJqSEBaJr+vfyOhgfC5Ezodqq6IP92x6MQIN5c/4jx8o8C0GAhmYJyQAWMY8uKvlY3jH5UdczpZhyP559AMKDm7njHEF52HFgfTxU8J8UJ1AZq5P6/aYyp3RWbPenNvoO71efbXlULdn6gKmrLGlVnMo/RRLBrFCyeTAIkQAJJTADvkHUOoIJ3is+VT7leNolvFpvmigAFWVeYkqMQ1jjQO7HzvRjcYYz6acF9onVapRbv+URtL1/XoGCrjFw1tc8PVc/cwap7mwENjpsZb2/4e0iIndr7EnVq/2uMQ/9d/7D6RjRbZtpftVd9sfU19f1B15tZMX8GRZB9Z+M/VYYvQ/nkv6D8x9SyCFQHDqoZG5/wtNMb9y9TX26brrL9rRpdbzKP0USwazQwVkACJEACSUoA75B4l5y9foZSdetlP03SprJZJOCKANfIusLUfIWojXXH3i+CINaTDmg/So3vepL6bu/n6kBNqeXkH4+6V43reqLq0rp32DWCm8S897/rHjLOa5fdWV024m6V4c9UPp9PDcs7Qu0+UKh2VmwK1dtZ6hrV+ZjQfqSNLbJGsahyu0WD6/f51eQe31cn97tC5WZ1UKuK54aqwPUn9/heaD8ZNpz6kAztSuU2ZIqJO8YAJkwwkbGh9NtQd7q07mOM2VCGy42urfuqY3qdr07pf5VaUTxHYdLFTCPEXLlPu2HmbtTPZB6jiWAXFQgLkAAJkEAKE8B6WcSZlTRg8gX5n815de3GFO4Om97CCdBrcbIPAF/wODQx5HEu2dubBO3LzmitBrUfbWkJ8ga2P8yS57QzW9aomlrRnm0GWdbR4oX+oqF3qMEdxhqnQsM7uYf7tYavrL5HfVD4VIPLtslqbwjKQztObHAs2TLC9SHZ2plq7cEkBiZL8jse7knToeFvLU7JkIZ5MK6SeYx6zc6TG8BKSIAESCCJCYTeKenFOInvEpvmhgAFWTeUmqmMETM2qI7H5acMPOQ6vZnakmqXhWdhPbXJaKfvOm7XytrYlUVzQsfaZ3cKbZsb0AD9dNT96pfjn1G/mfAf0QAXmIcifkLTqmtynQqbgofTsWTIc9OHZGhnKrehdYZ13HrRFy/HlZd1edE3vY5EsNPr5zYJkAAJpAsBvFNCMysz98cb75rp0jH2o8URoCCbzLfcf0iINeN/JXNbk6xtmT5reJzsjOhrBUur9lgc40BoDZdg8pmT2SbcYUs+PMe+52INZIYveZesu+2DpePciZkATOS9Tn4Px1Uyj9FEsPP6XrA+EiABEkg6AtTKJt0tYYPcE6Ag655VM5QM3omL9u0os2ZMjSQQPdJUWVWx5RpevbS/svZvyo1HYpguJ2ty24dkbX+qtCsRwpiX48rLury+J4lg53UbWR8JkAAJJAsBWvoly51gOxpDIHnfnBvTqzQ4Vzf1oKfiprmhFTXWMCVeaLJmFj6jvt3zqasO+CQ+rZuE8ECNSTgfcXfdplj64LZOlnMmAM/VjU24v/oYcTuu3FzXbV369d3U61SmJlAd0zj1gp3ZDoQciuU7Yp7HT28JxDoGnK4e6/POXofTWHbKs59n3/eiL/Y6W/I+7gG+p3rCd5bfW51I5G28W9K8ODIjHk1+Aslry5j87BLbQpoVJ5bvodq/2/N5aO3q9rK1lmuu3bdQfbT5uVCeXwTNo3udp1yZKR/co6ave1CtFI+xetpZvsFSZ1uJUTu5Z3SHUZv2L1eLd3+s1pYsVLsqCsXDcUfDMdCp/a4Wb8099Es02Ian5M+2vqy2lq1RxQd3qrLqYiMsS992w1W/diMNT8/D8yY1OK/U4z7gpeOLra+q6mBVg2shI8uXrY7pfb5x7HMpVxOsdixXX/YCZWoIdx7YKJ6qv2hQvnNOTzWu20kN8vGygzW/c3e+Z2jLy6v3SV0ZCt5+waVv2+HijfpoZTcvL6suCYVmslc6sN0oNbjjuFA2QkAh1rBTOrLH2QoOlLxKK4u+UevF2/Gm0qVqi4SgQqxj9GVw+7GqbXaeV5eJWE9jxigqrqqtELbvGO3HWN1TucUYpz1yB6leuUMkdNYlFo/fERsT4SDuPb7b38i11pQsMDyG43t9UK7/9fY31MJdH8q1tyosT+jTdpjhJO74PhfL9751hFqdD+FlO9pY7pDdRU3sbvWBgO/swt0fNagUbTq2N8a91QQ9XcazF2Mg3uedDhvPhUW7PpJnwwbD+31eTncJ2TZQ9ZZxuK9qt1qwa6b63cRXIn63vOiL3iZzuyWPKYzzdfsWGc/gZUVfyW/XYepa8VmB36q3N/6f/N5+Y4SxG935OMNje3vx/M9EAiSQ3gQoyKb3/WXvohD4avvrEu7kO8dSEETs8WgP63KsISA4nqBl/v27m0Vo3KHl1G2W1+xTMwufDuW3yWwfUZDFD/dHm59VH4tAbXpTxsnlIlBBsN2wb4n6+ehHVYecrqE69Y33Nz1pCLGmBgFaK1wToYnW7Vts/KH8SX0vN17o9XO96oNZZ61o2D4o/LeqDdaYWZbPLH+OmiJCPQTeT7a8IILFActxfadtVp6UPTs0qbB5/0r1UeGzwsg6Qw+B1C7I4kX32ZV3Nri3qH+TxF/FHxLOvXz43ap9ThdjH/8cqC5V83a8p0qqdoXyzI2J3c+wCLKF0iYI7pW15WaR0OeQDuPUgKxRof14N2oDNep1mTCZv+v9UBUQuGpEKINwj79Ep8aOUbQPguuLq/5kCK96e6sClapQJnHwt0gEu+8PvL6B0KeXj7SNyYr5uz4wYkHvrdwWKop7ur+qSP1r2e2G4GIeqBIhdH3pEuNvadGXxljA2vhYUlVtpfpQPJWHG/Ooa1jHIxr0CQIU4gBX1Oy3XA7fEYRqapWZG8pPl/HsxRhozPMOQGsCVeqp5b81JjpMwBBi98vkX3HxTsvEZE2Y5xjO86Iv5vXtny1xTNV/d99Re2WSyUzV8v3C5Oz/fXuTTDDsMbPVvF0zVFZGjjp70I2hPG44E4B58ebiNYwp64yHuSlAwDqtmwINbilNnHzxYKyPHXDkwDNU+9YNvee2FA7x9hOztrqACg3mkSL42BM0bt1a9xOty2jVSjzGQgtkph4yA39E9zONYzg+SMLuDJdYshl+qyMps7z+CWEC2s4+bYeGBCMcRztO6HupGtJxvPE3stORRhkcg7AJAc5M7cRr8vYD69Tn2141sxp8QtirlD/UY0+fbnlJzdz8TEgAPq73xUZc3FP6XSl9GSMvZXNVtQgKSHhh79yql+qZOzhUTTx9CJ3ssIF4vOAJbWHh/hWWEqO7HK9uGP2Y8fKBe3J870tU/3YFasnuT0LtxwlZ/lbq1rH/UqcP+IkR39espFfbIaLNvUCtKJotGucSI3tqnx+q8wbfKlrV+vsFgfefS28NTTJM6HaaUeacwTerUZ2ONrQt0MYhwfnXYrl+f4lN3PHQRAFCvUBrDGECEwH7q4uMsvind9t8y33AvYcWEaxRjy5kQwPXMadb6FxzA4LLV9v/a+5KzOPwcWRhCv/Mit+rpUV1mmhoYH9ScK+8vN1gtA8THxAA7SnWOLL6+V6PUdQNzdfTK36nymtKjDF4cf6vRWD9mRrY4bA6AeLQhFCtaOiXi4a7e5sBxp/eLmxHYgdLhmlLfqZWl8xtIBxC6/qhTLBE8iqOiaNv93xmcNXHk70N9n2M5SmifYeAtLlspeUwtKq3H/6cOrLXOZZ87OBeHtf7IkP7VHKwbtIE353rDnvAohlO9vHcoGNhMrwYA4193qFpM8Qp36I9HxutPLnvFeqSob9RJ/a7TB3bq04Lrsd4RpxmfULB7JoXfTHrcvpsaWOqWr47f5h7nuN3t638ni6SCV1duDWZYbL2qF4/MHf5GYZAaWWRWrb9GyVz3BvnvLzumTDFmE0CSUvA3aK8pG0+G0YCjSMwtusJ6tT+Vxt/0PDpaWjexNAxlIEA6Na88AjRzp0gghReRvWEl3Dkm3+TepypH7Zsbytfa5hQQft4zqCbjJA/t4x9XI3Im2IpB00Vfuz1hFn7WSLImqlDdld1ar+rFH74kRALF23Q00Ixl9OTF33Q68M2hHNo1YbnTbYcyhYBVRcQEFN1aN4EdVr/H1vKtRMz2a5t+lryzJ0caCJF64s0tCPOvcbiWRpMXlz9J0MbjTKTRBi9IP+Xqk+7YQpxVyEMXzHij2pc13pTZAiqTyy9zTBdwzlmQj+OiHDvzHL4BGuv4sPq9b6w8g8hzVGnVj2NiQD0AQnt+54Ig0f1PFc/xfPtxoxRNAaaljfWTzM0lt1b91cY38M7TTJMNjE5c9WIP4tZcb6l3W+tf1SEUet6dksBhx1MVp3Y90fqBzKx0V5MefX0hUwUwVwfZruI5Xxkz3OMSSi9DLZhkv/Zlv/Ys6Puw4T8LJlcsI95CLLtIpg+4jsAbTFS51a91bmDb7GYuqfLePZiDHjxvIMp8BeiBUeCyepJ/S4PWWNAu3dyvyvU8TIxFSl50ZdI9ZvHWtKYypLJoDMHXCuTCr9t8B3C8weOFBEjfmyXE0QWq3+lTYW47Ob95CcJkED8BOq/9fHXwTMTQeBQ/Fg6ekoE3NSpE+att4570jCjhXYOGtOLht6h2mXVa+mh7dlTsdnSKcxQ6yatPWWdITSiesI6Ij0VV+3UdxO6DW2pnrC2CXF87emoXueq1pn1MYBhRrll/yp7MWN/h5jRmhr1M+TFx55gdojzkTAhAUHXniBcwBwtJ6M+tFJ14KCYRD9lL6q6tHJvZur1Wq1VxfPUmn0LQm3CWmkn7dCZA66z9CV0gocb8Y5RNAFczXF6oYxr+0QR1qNfOuz3ltZicmHujnctedF2YB4OQRYTR9Ck2RPMR28c83/qmoJ7jPv/89GPNJhEwTmwjth3cLf9dFf754rWHxYFZsL3drXcx3Bph6ynN7XEMLk314Ob5dNlPHsxBrx43m2TpSSm1QRMz2Eyb0/Q0mJNc7jkRV/C1e2U31LGFH4HMOl8um1iE0xgOXX1yL+qS4b9Vv1qwvPGMplzBt2szhCrHaboBELvmIfeOaOfwRIkkFwEKMgm1/1ga0ggRABaVJiKwpxVT60z2xpmyXoe1gnpqYOYreoOYTqJ0yN7ghMg3dMrYsU2VRrQvkBMuvuHLgdt12oxdbYnmNFhpl1P3+x0FmLm75xhFINgBcFdT5U15eqbne+EsoZ0GC9rhesF5NAB2QDfKT2sDrgWyNrK7eXr9WIWDbLlgMOOfi8cDseUhRfsGZueCJ3Ts80gNabL1NC+voHJi0Rog81rNGaM7qnYEhJIMSkAU2yn1KV17wZa1O2ihYk3tRMLBz1hzfi1ox5UPXIH6tmGWThM3vWESY0lez7Vs1xvw5QcJul6+mLba/quZRvOqJDwHTi826mWY+kynr0aA1487/QJiv1Vex2duuH7FO675lVfLDc6yk5LG1OwNLGnHwz+RWgCDBNS0Jxj4sc+KWY/j/skQALpQcCqokmPPrEXJJAWBLCeNiezXjOod8q+vtJuWgwhDQ6c4DAGa18n9fiefrqxjXWqWO8LzRBSJIc0RgGP/5nY/TT17sZ/hmpdIN5iR3SaEto3N+xC4OI9nxhmszAlNhOcHpleXu0eYFEGIZDMfmIfpmiRErzYgp3pORnrTbE+0y4gR6ojUceWi7dO3QkZPCXDDDVcQl+XOnh0Dlc+lvzGjFGs7zQ1YNCk/2XexWEvjfXKetp1YJO+G9O2fY07Ji3yWnV3rOOkvpep72RtrO5ozVxD7XhClMxjRRsMz8hY74uENZdYy28fjzCVXbi7ztQfgpN90iVdxrNXY8CL553dauKN9Q8bHrRhuaELUIfLc6tEPBdjwktPXvVFr9PNdksaU/bY7lh20F8mRZlIgARaLgEKsi333rPnKUwA3kv1BE2RPcGUEn96whqueaK5xJ9phqsfb8ptrEWFcxU4f0JaLo6aDoizI/2l/WDNAQl18YGlWVjLBidQ+hpVmCbDIQ9MN+0aXJy8Qo7ryVwrrOfp23hx7W1z1NUUHoD1NoTbtjvKctK26+dmyNrP5kjRxqhdILSX19tsN+OGBq4pEta0j+x0lIRR+jJ0ObsZf+iAiw2YOE8Q7apuHfDJ5hcMk2b99CV7ZoVMru1aXJRLl/Hs5Rho7PMOYZ6gxcPzxUzwBg4N/GSZCDy294ViGdBZTFkHNDB3R3kv+2Je381nSxpTdvN6+DZgIgESaNkEKMi27PvP3qcoATim0ZMZXkfP07f3VmwT508vGiFMTC0jXtKbUziDsDi802RD04m2QksFAVV3ugUzYnMNpd4fxHnUBVmEW0Aa3eU4Ry22PRSSXcur121uw0zNDMWDPDgESoZkrps024J2JmOKNkZhimkmmD//uOBv5m5SfcIbtVWQ3dqo9h3X5yIjfrGpjV5dMk80f6stptVzdrxtXAPxc/u1G9HgeukynhM1BuJ53kHDekrfK9U7Eo9UT/DsDhPw2dvfNCxbYOniFAM6UX3R2xJuu6WMKd2ZUzgWzCcBEmhZBLhGtmXdb/Y2TQhEMiXVuwjtwhvrpqn7Fl5hxNaDEAvvqdfJmkA4kYJpaHOmid1Ot1we5sVmgrnwl4fWEJ4iHpf1NU8IZWKa1yIG6KqiOo2rk1kx6jNDmJh145xoyW6+7eacaHV6cdxuVqubvXpRv1d1RBujeixX0wmXV9f2sh77REFjTfBh6j/GtvYWWlkzbRWhdkvZKmPXSRuLA+kynr0eA4193iG01vlDbhMv5g3n+PHsRGisvy28XG0srYs1bd4zfHrdF73uaNscU9EI8TgJkEC6EqAgm653lv1q8QR2H9isHl58nZq9403DfBcv5D8ddb+6auSfJUbn6KTgMwyhVjTnOxBQdx2o03zCvBJB7ltLfF+sWR1rc2g0d8d7Rh+wNhbmyfDqbF9raHbS/mKKeqMluyAbzRw5Wn1eHded0qBOu6Mvr66T6Hp0R2PoAyYukjF1tGm8Mc4am+xeu6HxhddtpDmHnDzBc/a4ricaefZ/0mU8ezkGvHreYTLslrFPNAhzZt4DxCv+9/I7GsTC9rIv5rVi+eSYioUWy5IACaQLAQqy6XIn2Q8S0AiUyXrRJ+Vly1wHm5fTQ10vIUUQ0zSZEtY4jdfitqJt5prYz7a+bDR1snighGOniRKbV09whgNPy/N3vm9kH9HNelwv29UmfNhNM/Wy5rbPZ3082gUas1w8n43RomJNnJ5KbB6r9WNO2w2DijiVSnxeZ/FGbCaYxs8Tc3E3CWuEF+36yE1RT8qYJsBmZd1aO8cxNo+7+YSHZLtjs1milcWa8MW7PzaqwBpy3QpBrzddxrNXY8Dr5123Nv3UlSP/JN6sHxCT72E6emP7YO0B9ezKOy0herzqS4OLuczgmHIJisVIgATSioD1TS2tusbOkEDLJYAXfV1YO6rnuYajkkhEGiNcRao32rEJ4gVUT9CwriiaIxqqDWLil6XQdiSsFewhoWbMhLWz72z8h6xd3aT88t/4biebhxp86qF+cBDxO3WnLg1OkAy7KXHfBi+0Vk/B0dYp69eIpax+Hra7te5nyVpbstDyQm056LDTmGs7VBd3VlebQDhz87NR7wku9tb6R9X7hU/GfV37iaazMXu+uW/XeHe18TfLxfp5Qp9LLafAqdDMzc+oKlmTiRTOrBjH0mU8ezUGvHjeYY3rv5f92nA4B8ZIgzqMUTeMfkxdPPQ3hmVIXW7dvwjRo4eB8qov+jVi3eaYipUYy5MACaQ6AQqyqX4H2X6XBNzooWxlJF6n1ykomqemSGv3LbRcJj9vgmXfaScYrPMe7HRMz/O6D3A6hdivZkKoladX/NbYhbZWD31xhE0rO2fHW0a54RK2Ry9n1mV+9m1XXz/yICx8u/dz87Djp12QHdv1BEu5bJvnaHt5S2HbTmOESbsghZdp3RmR7VINdhtz7QaVNSLD/uKPWMIzNv4rolD+rYTCgfn50I4TG3Fl66m1gWprhm2vuHKHJadX7mDLfrw7mJjRLSSg+TXjyvZvVxAx1FO6jGevxoAXzztMWKwqmauW7/3Kckux1hsm3jePe1zZlxsgfJKZvOqLWV88nxxT8VDjOSRAAqlMgIJsKt89tj0sgYNaCAUUqonysupUplLMxxqb9HVTqKu8utRSJbQAZgxYu2bIbtKon2gXse1CqLnO1DynrKrY3Ax9wmEMQtaYSY+zWnJwt5mtYulD6KQYN8I5aTqm9wWWmsZ1O0nZveGiwBGyri1Sgpmm3WnPvENrbJ3Oq5UJB4T0MRMEC/vaSKxh1BPMuIMOkx+ILwkBTE+VNeX6bmg7oKwTHfb7ioJDJG6sPc0sfDY0juzH7PtOXqDtZcLtezlGh3QYJ7E421ku9fWON8Rk838NE1vLAdlZt2+xennNPUZ2Qeej7IdFDIzOrsFJkrFfBOhwKSCTO4hbbKYB7UYJ//HmbqM/7Ro0s0LEto2UUmU8R+oDjnk1Brx83i06ZNptbzueH2cNvMGSrX/fveqL5QJx7KTzmLJbDdl/5+PAxVNIgARSnAAF2RS/gWy+M4EDNVaBEQ46oqXymn2WIgck5mpjU05mrqWK3RWblRmmYc72t9S94k142d66GJV2U1en2LBmZXatmv0HvYNtHeW7G/+pKmrKzNONOLIPLvpxaB8b0FKWirncF1tfU39bcFnoWCx9CJ0U48YYceRkjyM6Im+K6t6mv6UmxJgd1fkYS147ie04LO8IS559J9OfpU7qd4Ule+P+perjzc9b8swd3JN9VXXCPEI+nD3I+gKLch1bdTdMn81z4HnXvs4TYYL+ufR/xFzROh5xbadkHwMHA/UxLc3yw/MmiUbSqmHfIVrZJ5beJhMT1jELB0Ifb7H2cWOp87XN+iN92tvXmDGKECan9LuyweWWF32t7l90tZq+9gE1d8e7Rqia51bepR4Xjphsgfbe3n9UYm+bE7sGF5OMZUVfqeLKnU6HJIborND3FRM6Zw36uWO5eDMhFOvWCKinTWZ7dViXYyNWmSrjOWIn0FePxoCXzztodxFn2ynZJ7N0zbhXfXG6bix56TymzNBxJg9MHmLSkYkESKDlEshsuV1nz9OVAIS6NSULLN2rqC1Tq0vmO74AoyAEQ9PJinni2n2L5OW4UhyutDKzYv6EM6P22V1EQKzzkgst6wMiQCJmIbShCH8zstORRr1wYqOnEnm5PiACOIQ3e9JN2nDMDNdhluuVm682lH5n7qpt5WvUQ4t/IutMRypoCPX1s6FCsnH/wquMuK09tbWosfRBryuW7VYi8ENAXSTrY810XO8LzU3LJ8yLdS3ZhG6nKjdxYWGmvGDnB2p96ZJQfR8WPmVoavX1tRD03lj3cKgM2tG77dDQvrkBLjANRRxQM01f94D6VJxUtRfhGoyh9YaH2Q7ZXUOCMcoiJuWGfd+qIilz45i/K4TPQNq0f7nxaf6zs3yDgvYWfPQEzdADi68xxq2Zj5i305ZcJ96dT1DdZAJge/l69Y3EIzXXXJrl8KI+bcnPVOnBPeoHQ34RGn/m8UifXo5RXAfrQL8RL71YD60nTCLMlRjC+NNTpj9bXZR/h+P9dstOrw/bEIBfXfs3iWN7r9RbP7eLSYAZG58IFZ8gWn+ncRAqEOcGvM1CC20mjGf0M1pKhfEcrQ847sUY8PJ5hza9sX6a8Yy2T5rpvxEwJe4vz1M9edEXvb54t9N1TG3YV//sBhv8bq+V3/poE5nxcuR5JEACyU8gI/mb2DJbOPmiIXeh51MGRTaZRBkmZZgiQpOzvGi2+u+6h1RJ1a4GWJbu/UIcAxUamkm8KCKcCjSkyH9/05NiurjIcg5mf1eK0yGk0uq9xmduVgfjM5Z/KkUTqgueEGYhXEDTd/HQXxvCDtZ6Qjuoa7hgxrnqkHkrYlfClHWhxFnFOjpTi2u2Y6e8dEObWibxUXvKGr5ebYcYQkCt9MFMMClFuUoR6ltl5KofDvudKpL1f6aQjXLoM5wJ/XTUfRaPqdH60DN3kHmZuD8RZmfB7ro4stBSndr/ase64IEZAq+pZb9wyO2i2Wko7NtPhhfiUZ2PNu6z3mesL52/6321pniBISDPLHxamdq8E/v8SJ024Bp7VaH9Ae0LjPi8emxRtAuehMEbZtCXDb9LYZ3dFokPaiaMAWhpMYkB77UbZdIBffpo83PyclZjFpP7URUalxgv5jpgjMMebQbI+JgrGgnrPYa2F1rGQhGK0S6Y7+pm46gcjmoQqmh016nG9yB0wTAbcL7l9RjF/cDfcAnBVFi63Ai1FObyRjY09hfm/8pwwKOXA4NY2O08sEl9t9dq6o1JB/M7hQkBbL++7kG5R/uMS8Fi4JzBN4uAmaVf2pNtCESLd38S0tpfKII6tHvRUjKPZ3gZd5u8GAN45mHSw/5diOV5hzXa8ISOBAHpW3G+he8sJjrw/H53w/+FJtDw/Pxxwd8afHe86ItbbpHKpduYaiUTv19vf0PN2vKS5TcSDJbKmub91UXG77oXv0ORuKbrsdkb6iwQ5ryy7u507SP7lb4EKMgm6b2lIBvbjYEWDQ6CoG2ym3GaNeHlBCaYEHjxgj9SBIgPNv1bhIdnRTO23Sxm+cTLDdZKwsQQ62xxTqxpkGjtoJmDhkyputWtHbO7iWbpVwpr/d5cN01ekD5u8AON6yCsBK5fLYJva9HKvbT6Lw20V2Z7torWdY1onY/rc7GhxR3YfowhBEFwNRPMI2Gyi1iycAwCgR7CMoRmHBvSYby6fMQfQgKTeV60PpjlGvMJAXWBCOpo7/cHXi9mxQMcq4NQWBU4aNzrQdLHY3qf71jOKRP9PVw0Xnjh3Fa+1hDcUQ5C597KrRKuaKvcoYChuT5n8E0KoX8iJQiJHUXbinuE8/SECYGrC/6fCF6j5fickCCLtXbH97nEmMQ4vNspRmghTL5AmNaFWLMuCN0rimcbEwtDNadd0Loe1vlYtV40uxin9gQT1R8Nv1P1zh1qtA/HkYf1lxfJBMpRvc5t8CJur8PcT8QYhUYbCdYJ4IBJnEKxFjC/I8bBQ/9gLEBjqjtHMo/Hys4uyGLcYUxh8gH3ERp2TAbgGQHh+exBN6rTB/wkIUIs+oBr497jZTy/w+Hq6N7nmV2L+pms4zlqw20FGjsGMMnX2OcdlgZAkMXkU91TOmiEL1sh311Y85hLDTD59COZnOrWpq+tF3W7je2LY6UxZqbbmPrP6r/KM3CO428knplwALetbK3EG/9BjKRYHAQoyHIcpDIBa/yIVO5JmrX9lumnGr+lt544Lc161nK7gzWqMOut06YNVBn+xFv2QxO3Q8xToXnGWlKEkMnJtDopwrpKONKBmVyHnK4Rb1Ci+wBN2OayVbJ28iqLmae9UfAQ/PnWV0SbeaQhKNqPu9kHG5ig76mA8Bo0XpIgZGJWHxqeWBLWWEJYheMumKIPbj9WddVedFcXzzcmGTAhADM43YQ1luuEK7u3YpuYJS8z1shiXMGEHH2AsLi9fJ1o8meq7hK7tG4tcnSz1XDXSXQ+TPkxwYDvicyrqNzMDoY5LzRMXjGD460XVv0h1BVo3Y+WyRCY5+8SbS0cPEEw6iPm5D3aJP57urVsjWESjgZBe283Zw01NMpGuoznxoyBxjzvcO560bwOEMduWKqA5wIseODTICsjx7Bs6C1LNmLR+jWmL1Fud8TDHFMR8fCgjcADH99k5Dx03geUCWxsuJv8BDhok/QeUZBN0hvDZpEACaQ0ASdB9pT+VzVbn6avvV/MYt8z1tLfMeFFY/Kh2RrDC6cFAY6ptLiNTdYJCrJNhpoXSgCBes8WCaicVZIACZAACZAACTgTgGUBtOVIcGJmmls7l2YuCUQnwDEVnRFLkAAJpA+BxNs2pg8r9oQESIAESCDNCNhjUzZl9+AVGQ7WsC5zUvczm/LSvFaaEuCYStMby24lDYE1e5f0yVHZIwM+f77yBTv5gqqt8gcDvoDaH/Sr3bXB4KqD5b5lI/qMqPMSmjQtT8+GUJBNz/vKXpEACZAACTgQqBWnbXrSPU7r+V5uI8TQ59teFa/ixcb6ZaxH3yprgZeLd2mkI3ueo9rbYj97eX3WlX4EOKbS756yR8lJ4JVXXsmYeOJhJ2X4fReK85oTxJnaALS0zqRVVmgaizTlH8nAZqb8Iz4Mg4XFK5cFVHBmba3/pcFdhs3DOUzeE6Ag6z1T1kgCJEACJJCkBBCbWU8Hqkv1Xc+34SDtrQ2PhUIgwSuyHnsYDq0Q95OJBNwS4JhyS4rlSCB+Ait3r2zXOktdL74gbxLh1Qj2bsis7qqUQBC+URJkbpT4X/zFpuJVyySw173rF+94YerUqfUx9tzVxVIRCHCNbAQ4PEQCJEACJJA+BLB+cN6uupiJZq8QcxeevROVoAEOBJzfWxCP9BoJ0eQmbmyi2sd6U48Ax1Tq3TO2OHUI3HXXXf7CopXXtclSG0UavccUYhvTA4myViBh/54eNK7Xyo1Fy89oTF0810qAGlkrD+6RAAmQAAmkGYGVRd8YWlHECrYnxJ1+aPFPFEL8IG7wUT3PtRdp1H7b7Dw1pusJatHujyz19GwzSJ2f/0sJL5RvyecOCUQjwDEVjRCPk0B8BDaWrBwoWtSX5OxJ8dUQ+SzR6A72+TPe3VSy8uWq2pKf5neenFiToMjNSYujFGTT4jayEyRAAiRAAuEItBNhcmSnKeEOh/IRNzYR6YL829VYEWaXF81W2f5WRszmgs5HGfFKE3E91pn+BDim0v8es4dNS2BT0YrvqaDveVno2iHRVxZN70XZGXkT1xWtOGdwpxHfJfp66Vw/Bdl0vrvsGwmQAAmQgGg9hxp/zYUCYXWG500y/pqrDbxuehHgmEqv+8neNC+BjcUrrxYT4selFRlN1RLRzg7K9Pk/Lyxadla/TgVfNNV10+06XCObbneU/SEBEiABEiABEiABEiABEohKoLB4xZV+n+9JKdhkQqzZKFk721H5Mt7fsHf5ZDOPn7ERoCAbGy+WJgESIAESIAESIAESIAESSHECG/auPE28Cz/RrN3w+dpkZPjfXbdrOR0mxHEjaFocBzSeQgIkQAIkQAIkQAIkQAIkkJoE1u79rm9GhnpBor/GJAsFg2qfmAV/HPAFZgeD/rUSVqdEzJL9vlrVJehXw2T7GKWCx8k62Gz3ZHydsrIyXt2wYdbkgQOnVro/jyVjunnERQIkQAIkQAIkQAIkQAIkQAKpTCDbn/WcCLGd3PZBBNjlKhj8a2Df9teiCZvLNi/rlNvWf5UItbeJQNvD1TV8aoy/Y8+/StlfuCrPQgYBmhZzIJAACZAACZAACZAACZAACbQIApuKl18uJsXHuelsUKnKYDD4i29mLhndv9Pw56MJsaizoG9B0YC8EfdXVKuhIgA/4uY6KCOC740bipeNdVue5ZSiRpajgARIgARIgARIgARIgARIIO0JiPluK6X897jpqAiw24Oq9swBeQWL3JS3lxnedfh+ybtpY/GKT8X6+AUxSZZrR0wZfpVxn5Q4KWIpHgwRoEY2hIIbJEACJEACJEACJEACJEAC6UrA16EXQu30jNa/oAruUL6qo+MVYvX6RTv7uux/T7S7B/V8p21p24n0YuxExjmPgqwzF+aSAAmQAAmQAAmQAAmQAAmkEQG/P3hztO6IEFtVU+M7q3/H0eujlXV7vH/HYR/7goHr3JTPyMiI2kY39bSEMhRkW8JdZh9JgARIgARIgARIgARIoAUT2LBn2SRZiTo0KoJA8K7BXYbNi1ouxgL98kY8LebKr0U9LajOXrN3Tvuo5VhAUZDlICCBZiRQXXtQbSj9Tm0pW92MreCl4yVQXr1PLdr9sVpXEtfymQaXbc7xUFFTphbv/kStLpnfoF2JzGjOPieyX6le9/6qIrVw10xVuH+FZ13ZKs+5+bs+UPsO7m50ndvL1xl1FVfubHRdrKDlEvByTLZciqnT8wx/xvnRWiuC5oay7YH7o5WL93h1oPpWaHwjnu9TrTN9Hc6MWIYHDQJ09sSBQALNROBAdam6d+EV6kBNqdGCKT3OVucMvqmZWpO8l5UfFVVes891A3My2qgsfwzh21zXXF9wY+kyNWfHW+q7PZ+pmmC16pWbr24e+4/6AnFsNdd4wCTK7O1vqiV7ZqnqwEHVtXVfddv4p+PoQeynNFefY29pyzkDkzKzd7ytlhV9qQLBWjU8b7K6auSf4waAiQqMrTlS5+aylUY95w66WU3ueVbMdVYHqozv3Gz57hXuX26cf+aAa9WxvS+MuS6e0HIJeDkmWy7F1Ox50KdOEIdLEVMw6LuvoKAgsqAZsYbIB4d0PmxzYfHK55VPXR2ppN/nO0GOvxSpDI/RazHHAAk0GwG83JlCLBoxb9cMhZeyrIycZmtTMl4YGsJ/L7/DddMmdDtVXZB/u+vybgsGggE1d8c7xkv+jgOeLZsJXb6pxwM0YxBgt5StCrWhqTeaus9N3b9UuV5toEbG9ZuGsLm7YrMnzYbW9fNtr6oFOz9QFbVljaoTdX2x7TVDA1tRAyegTCQQOwEvx2TsV+cZzU1g/rb5bcSRUsTQNtCUBn0VLya6rSIsP+WLIshKLJ6jEt2OdKifpsXpcBfZh5Qk0Coj19LubH8r5fdlWPK4o9TgDmPUTwvuU6f3/4nqmTvYEQlY4vjVI+9RJ/e7yrFMYzODIsi+s/GfquTgTplIjTanG/vVmno8fLjpKbXrwCbpSfP9DDR1n2O/Ky3jDGjiZ2x8QhVX7vCswxv3L1NfbpuuaoM1ja5zk2hfIcjWiEaWiQTiJeDlmIy3DTyv+Qh0bt0aa2Mj/uD5gurrgXnjShLdyqemvfS1GJtFuU5wyKxZs2g5G+VmRLyhUc7lYRIggUYQOKzLsap/uwKjhix/jjqp7+Uqw980zyyYk24sXdqI1jfdqZliJjy44zh1fJ+L1fWHPay6tO7T4OJXiukjjg/Lm6g65nRtcDzWDCc+uDe/mfCSumvSm+qsQTfEWmXU8k09Hn4x7l/q7slvqQsToL2O2tlDBeLps9O9cXs9lnMm0CozV/1m4svqT1NmqBP7XuZcKMbcUZ2PMb4rf5zyrurdNrpvlUjVj+p8tLpz0hvSvvfUwPaHRSrKYyQQloCXYzLsRXggaQmIomBItMaJcDk3Whkvjt91110BmUWO6JBCJsyzBo3r3M+L66VzHU3z1pzOBNk3EoiTAAS060dPU3srtqk2We1lZX/bOGuK/bRXVt+jcrPz1LWjEubPIPZGuTgjO6O1GtR+tNpTsSVUGnlev9yG44P7hDS048TQ9b3aaOrxYI63/I6He9WFmOuJp8/h7k3MF+cJFgK5WR2MfYyHjzc/ZzkWz06GWJeYY2yYfF/gVCfeBEuVNpntjNOH5h1hOMiLty6e13IJeDkmWy7FVO55ME88FkfpQND7dUPhr+jiWlnSZqZIBKiRjUSHx0igCQh0bt0r9MLXBJdTq4rnqp0Vm5riUgm5RiubwN8mo+4F16uLueFjvqB7dU29nqYeD3aeeluaatttn93cm6Zqc7pep3WG9xNqXn5f2iSgfel6L9mv8AS8HJPhr8IjyUTAF/RHfbgFVNC9Z8nGdi4Q/VqBoIra5sY2I9XPpyCb6neQ7SeBGAjAW+N7shYulVOmL8vS/OyMVpb9xuy45ZPhSx9jllRZl+323jTm/vNcWUCWgHX6fg+/L/4mWn7BsZDeBLwck+lNKn16J46cAtF6I88/6wtGtBMac9ynol4rIxiI2ubGNCEdzqUgmw53kX0gAZcEXln7N5UIj7suL5+gYtFMhdxf1i0fvy99Hp3+yL4v3MNLcEm39ybBzUj76hMjyHr3fUmV8Zr2AyXFO5hOz/AUvxVN1nwJvRPVfbq8TTTeyYb7HkW9VsBFm91fLj1Levfrkp582KskIoCYhogpGmvCeQid4pRwLBlSpDZGal9NoNo1k5mFz6hv93waqboWfSwWPm49/cY7vtyOh0jl3F5bwhEkxX2P1JdY7k1SdCaFG+GFR+66e1n/bHX7fXGDzediEinc895N/XqZWJ6v+nmxboNXPL9tsV5HL+8VI73OZN5O5JhM5n6zbRqBQGC7tue4KVrbEY4HEpLpGxmtWglTH7XN0epI9+PpYx+X7neqBfavqHK7+mzry+IkZI0qlpAnZdXFCiFq+rYbrvq1G6kGtB+lhudNciSDlwLEH/1G4n6uKPra8Hr744K/GWXhdGTWlv+Iw5BvjTp75eZLPUeoid1PV51a9bTU9+2ez9SuikJLnn1nSo+zFBylLN37hWg7N9oPq7ZZHdXkHt9vkI8f1pXF3xixG1cXz1MjOx2lLh9xd4NyekZVbYWUf8eI/Qkueyq3GEx65A5SvXKHqKl9LhGvvd30U1TpwT1q+roH5VpzLPk7yzeojzSnLm0zO6jK2gOqRp6c4VKH7C4GJ/047tPC3R/pWcY2TICP7X1BQkwVG1ysERmx8Jnc86yoV0KokMW7P1ZrSxYaYydX7j8c6Jza72oZXz3Cnu92PHg1tsM2xOHAd3s+j7iuekC7UWqIeJaONUXrs9f3Bi/vX2x9VVUHncO4ZPmy1TG9zze68bmUi/RdqCuL8V03H7xTvvvfyTPAnjrn9FTjup1kzzYEF6z5nbvzPcNKorx6n/Fd6dq6r/GM69t2uIK3XjjE0lNZdYnxzNDzzO2Bch/g4dtM28vXqWXy/HNKR/Y423Ay53QsnryVRd+o9fJM3STe0BGbOCD/oS+D249VbcWxXKITYoR+tvUVtbzoKwmRtUucQ7VX/dsXyLgcr/CMdqNpjuf5Gk+/GvPbFs/1cE6t/N4gbvS6fYsUxiragLHVKaeHwu/HUT3PNXi5rR/PoXjGb7j6va4P12nuMRmur8xvHgI1NcHV2dbHaYOGyLzucQ0yE5Cxrmh+B7nW6EhVy1esdGC3Au9iokW6WAofoyCbwjcvnZv+/qYnDSEWL7pI0BLgxeRATan8EC82/pCPkDUn97sCm0bCS978nTNEgH1XFR2sn8jC+jr8UH60+VnDI6fMupmnqG3la4y/eXLez0c/qvJadQ8dmycvmRCIwyWslRzacYIhyC7YNdN4ibKXzcvpbhFk8XI+d9cMNVfauK9qd6h4daAytO20AcH1xVV/MoRX/XiVnFcowhP+FolA+f2B11uEzb9/d7NMBDR8FpbX7FMzC58OVQW+B0WQjRT3cVjHOoE/dJJs7DiwwYgXWVGzX89WCCkEAR6hPZI5xcInkiAbbnyVy5iEYLth3xJjfHWwhQdyOx68Htux3JOlRV8afXA6B7Fgfb19MQmybvvs1b0x210rFgwfFP477BjHmJ0ikxUQeD/Z8oLxfTDPtX+2FWeSU3qercw12pv3r1QfFT4rTxar9QcEUrsgCyHi2ZV3Kgia9rRJ4q/iDwnnXj78btU+p0uo2IHqUjVvx3uqpGpXKM/cmNj9DIsgWyhtguBeWVtuFgl9DukwTg3IGhXaj3ejNlCjXpeJsvm73g9VAU/iNTLpBoEJf4lOa0oWqBdW/kFV1NZbDuL5tlyEeONv79fqh8N+Zzynw7Ul3udruPrC5cf72xauPjf5GJuvrb0/tKyke5sBMhF8mPH7A8d/+FuyZ5ZCvh7bGZM0k2USYGzXEyyXacz4tVR0aMfr+pJhTDr1k3nNS+D5v7+6/qqbL94vVkgRPET68tcXrRw9qNPwbxPZ2ixf7rlSf0bkawQT2obI106doxRkU+detZiWfrrlJdGYvhjq73G9LzY0e9BsQoh9YdUfFYQDJAimnVv1UuO7nawwm/6XeRc5vqTi5fLlNfcYgl6oYtvG/uoi9X7hk+qSob8JHbmm4P/Jy+Z6hTYt3vNJKN/c+O3EV0IvR1eM+IP6z+q/hq4BTdz5Q/7HEqqltGqv+uv8SwxthVmHm89Fuz5Sr6691+gb+nvWwBtUH4nNWFi2Qn2xbbpaL1yQIIi+tvY+lZPRRo3uUjexeELfS0XzXKIqa8qMyQHzemjf0b3OM3dVrmhkD5PYj2D61fb/hvKxAW3GL8c/00BjjWMjOx2p7jziv+qfS38RCotxRPcz1dkSa9WuTUL5ZEux8Anf9qB6Y/3DYTVlOG9f1R41U9hiTJjJ7XhIxNg22+DmE9+JmkCVYXWA8phYOrb3RYamS5/4cVOX2z6jLm/uTX2rsjJy1K8lFvCnW/9jTL7UH1HyfTleXZR/h4zZOv8bd096S0FAemr5ry3f1yyxCrl5zD9U1zZ99dPVhO6nqcPkO/f3b280JndwcGqfH6qpvS+xlINQ8W+pE5NySBO6ncS0YaEAAEAASURBVGZw7Nl2iIKVBARtWGogbS5bqaYt+Zm6TCw1+osVClK3Nv3Urye+pPZXFUnbfqO2ykRcuDSpx5kKf3huPrnsV47PxnDnusmvkGfK8yvvVmv3LTSKQwP7w6G/U72kL2gfLGq+2Paam6riLoO+zdj0L5l8qDdltleG9j265OfqlnFPyLOxtf2waszztUFlETLi/W2LUGXUQ7srNqvHl/6PwoQn0tE9z1NnDrxOnul+4zv9ypq/GUIsjjlNOsDSRxdkGzt+cR09eV1fMoxJvX/cTh4CiN169S0XfyUtOi1SqzL86no5fl2kMo0+5vP/LFodQZ/v82hleFzeTwmBBJKJQFVtpQixL4Wa1CG7q5hkXmWY5yJzcIex6gR5OdTTQtGEIkELcNbAn6uL83+toDnUE8w9oa3EbPOJfS9TPzvsYXXb+KeNl1e93JLds9TBmgN6luopZlcXy4s8BDZ7gumxmQ6IRhLmpEjQbv5s1EPGOeaLMfLbZ3dWZwy8VoTl30o81DHIippgcvjG+mnGS2j31v3VLWMfV8M7TTLM9dCmq0b8WcyK8y31vLX+UYUfdKQjREsDZseJ4KEnzL4j3/zDCy/ipJ4lAujwvMl6UUOQbSdtD5ewzhKaIqTOrXqrcwffkhJCLNobCx+Ud0rbytcaQiy0dOcMuskQ+nGfRuRNsRTHGKwWgdBMbsdDosa22Y5on7BwgOk8Uicxlb1Ovj9nDPiJxXohWh3mcbd9Rnkv7o15XfOzXXYnw2rBPsaxbEH/rmJMD82boE7r/2PzVOOznZjJ2oVYswCEJKyrRIKlxmn9r1E5mW3MwzLZVqleXP2nkBA7SSwWLsj/perTbphCjEsIgFeM+KMa17XeFBkTbE8svc1YIhCqSDbQjyPkO+sm4bmZiHjB0IKaQiyWZdww+jGjD2gT2ve9gT8zTFbdtDHeMhD6IcRi2QMmBfCc69+uoEF1sNCBYG1PjX2+2usLt9+Y37ZwdUbLx1h8cdWfQ0IsrIPOGPBTQ4jFuZhoPE8m1lofitFr1tezzSCZAPm+OrLHOapAzNvN5OX4RZ1e14c6k2FMoh1MyUkgGAi+Eb1lvis3lXw7KHq5+EpsKlqBtWbWl1SHqmprlIu2OpzYwrIoyLawG57s3d1budViBgchMsMWbmF0Z+sShuKqnaFuwfQTZnwn9v1RKM/cgICFF61T+l1prK+F9gACKjSRZoLm1knDgZdaaGvwEq+nD8QEGpoHpDfXP6Lw0gnHJpcO+9+wL7vH9DrfmOE+tveFelVhtz8ofCrE5MKhdxgCu14Ypo2XDvu9nmW0A6bL8aZzB98spsGtQqdDG4d1vOHSDtEkmbFpYZpprhsMVz4d82EGeuu4Jw1z0y6t+8gEyGB1kdyvdlmdQt0Fxz2iIdGT2/GQqLGtt8VpG+sOX1/3gHGot0yY/HzMo/L9aSgoOJ0bLs9tn8Od70U+tKV6gkCEdYT2dFSvcy0v+jCD3LJ/lb2YsY818li3jnTGgGuNT/0fmJXifCRMTkDQtSdYP5w96EbDqsI8Vh04KJrap8zd0GeXVn1C29E2MIHgZVolz4M1+xaEqsQacKdlBGcOuM7Sl9AJHm4c3u1U9cvDnzMmBSCoXT96miFE2x1XYd0zLAL01FTP18b+tultdru9UdYrY+mMmWAxYP89xeTL0T1/YBYxPrH84QcyGXn24BuNyWPzoNfj1+v6kmlMmsz4mVwEysoDr8rSsrrZxjBNE/eHOfL/P+Sw554Q1+yd0175fNPCXFrLDq4Z3GVY+JcurWRL36Qg29JHQJL1v4M4KtKdctgFRzQXjkP0FxSsf7Un+zpE1HPjmL83EC6hBRkmjp70hBl6p4SXNAgm+rWxJuutDY/J+sFPQmsITxdNlRvHN/Y2Ol1zT8UWYy0tjuGlFebETqlL696i7a1fR4cy2w+sdyrqKg8Oo+wOqiKZCMKpFhJm+PFS2dISLAd+UnBvyMzc7H/rzLaGsxlzH59wXOaU3IwHnGcv58XYdmoP1vy+u+EfEnf4n8ZhWBBcO+qBkHWE0zmx5tn7Euv5jSkPYbybWDiYCc7kVovzJXvCmB7b5QRL9jc7nSeJsD4fCZMamITTU2VNufpmZ933BPlDOowXyw3npVoYN3BQpKcFuz4wljnoeboGWc932tafq07HY8nD2Jix6YnQKdDgjekyNbSvb0BwSoQ22LwGnjcX5t8uE29WLy6YLDm9/0/MYsYn/BBgvbqZmvL56tVvm9l2N58b9y+1FOuY3c2yb+7Y788WcYhoT16PX6/rS6YxaWfH/eQhUNC3oMgnP23RWiQS7Mmbilf9b7RysRwX02Z/jr/jM6IYGRDtvEBQPRetDI/XEeAaWY6EpCKAFzs4cPpS1n1iLeikHt9r0L7C/StkVjnLWN+Dg07OiexrM6GNwMuhU7J7+cU603AJnpJhuoY1dmZCSBszrA3MFY/tdYF5KOKn/cXLqTDWD5nOY6Dp+cu8i52KGXmlsgZTT7sObNJ3Y94+Vl4Ev97+hvCtm7yEl+cNpd+pgeIkRE8wD1u4e6aRhZfZcC/n+jnpto31xroJqd4/+/jSTYv1cm7GA8onamzrbYFm8rU194buK0zYfyhaf7dt1OuKtO11fZGu5XRsoqxrffeQoI7jC3Z9qEZ0mtKgqF0IxHp5mM3q6y3hYMb03g0P6PaEZwQ08mayf4/MfPMT69fxHDQ9J8NBHRwX2QVks3xTfsIzsO6oCp6SYbUSLqGvpml6uDLx5vdoMyDsqUf2PEd9sX26WM3Ua2H3VGwNlW/K56tXv22hxrvYsP8GOP1WohqYHOsJkzqYIMaacjN5PX69ri+ZxqTJjJ/JSaC61veXrEx1TrTWySPtrk3FK4r65414JFrZaMchxF5988WPy4My6nXhrbi8rPaxaHXyeB0BCrIcCUlHAGbBdtNgaEnhVRh/pulepIbbXzwjlbWvD0LYiEjpZDFNRtgBu8YTWrmL8n8V8YVOrxcej6OlPWJqrSd4VQ2X7GaG0AA0JsFT6gTRduhapE82v6CuKbjHUi28XZpeUe1aXEvBFrpjv2cwE3VKbsYDzkvk2Eb9mJh4dsXvQw6H4N32suF3xXRd1OMmue2zm7riKYO1qDM2PhFy5rS8aLasX91vmYzBmnloQ/UE51tLxApDX6MK02Q4oYNJvl2Di3NXHHLgZNYD53WREtaY9hYLDNODMco6OeOJVEeijmEyUU9OljP68QwJxdUcCYIYNNsfambZMPE1U1M/X734bTPb7uYT5ut6QlgipwTfCHoyrI5sExNej1+v60uVMalz5nbzEIDJ7qbilW/L5Nv3o7VA4lZP21i8YsCedeV3TJgwIaJJcri6ZL1tngrmPCvmfA01M84nPQDNsfMh5toJRH+Ttp/BfRJoQgJ7K7YZHozhJMfUTMBJUbQXOt38N1pzYxEMUBfM+S4a+mv1yJLrQ9pK5ENTYn8hQH64JA/IcIdC+TB9MxPMv8xYuGZeoj+P63OREefS1AqvLpknMSJXW0yc5+x422gGvFv2azci0U1KufoRT1dP4byruhkPqCeRYxv1IySUHhaqXLzrQtvoz8jAYU+T2z57elGtMgiLwztNNjSdyIb1AQRUhNUxE8yIzYkaMw+fiP+qC7LzJKQWEryFO2nn7SGw3Dx3oCnTBdloMa2NBjTBP+Z6ePNSdo2emZ8Mn3aN7d7KbaFmNefzNd7ftlDjXWx0Eb8QekIMdadUesjPg3mspzzL7dYSXo9fr+tLpTFpcuZnMxII1N4RzMg8RexIwmsHDjVPfH7c2m1wuxMLi5bd2K9TwRcxtNq3oWj5RSrov1/mhXq5Oi+oNlcFih90VZaFDALR36QJigSagQA0Hm+sm6buW3iFwgsihFiY7V436kHDoQ5MOSOlWF72I9UT7hiEVj0kAcpBIwPTPy+T/tJlOonxsv5odcG8e0yX4y3FoJU1E16MtpStMnapjTWpWD8jmVxaS7rbS/TYtrcCJqTTDzl7sh9Lh/2J3axmwDAvNhME+C8PhY85Rbyn6xouhMYxzWvh8G1V0TfGaU5mxThg14aZTuLMazl92s3S3ZzjVI/XeXaTVT0ut9fXamx9eTk9LFXopv3N8Xxt7G+bpTNRdrDUA84HzYQ1sxtLl5m7oc91+xaFtrEx3OY3Anlej1+v60ulMQmeTM1LoH/nguXBYOC3rlvhU2OUP/PzwuJVn8na2ctWbFkR1nveuqJl/UTje4uUW5rhz3hJ3gHcCbFKBYM+dVV+58l1ISBcN65lF6x/wrVsDux9EhHYfWCzenjxdWr2jjcNkz/M9v901P3qqpF/VgM7jE6KlpYc3K1WiBmiPSHoPGK2epV0oQVOgvBi3dTJ7t11WdGXEidzo9GMOYecPCFu7biuJzZ103i9BBCAN2+EMdETLCK+3Pa6npU228MQykrCJpkJAuquA4XGLszmEf+3dUZbI+byWJtDo7k73jPKYW0sliTAW3W4ta92M2rUGy3ZBdlo5sjR6vPq+D55/ukpnAMzvUxzbdtN+3WneE39fG3q3zbEeD6l/1UW9O9s+HsoNBsOlFUVq483Px8qgxBv9mc+Dno9fr2uL5XGZAg2N5qVwNMPv/ygOAn7JKZGSAh10a4+m9vWv7uwZOUqEVbfEaH1+cKSVS9uKln1oQi6hVn+zE0ivD4o5UbGUncgGHiwf8dh9d7oYjm5BZelINuCb34ydh1C4JPL7witg8Vs+vWjH7GEAGjudsMRzour/mjEgoTZqD7jjTVyr629z7MmdhZvxGaCSeo8MWd0k7BeaNGuj9wUjVqmR+7ABg5wZolWFmsHTQ+gWGuoa6uiVsoCSU3gHAm/hFA7enp3w/+pDfu+1bPSYhuey8drcVvRKXNNrBl3FKGP4NhpYvczLH2GkzM4xZm/830j/4hu1uN64a4i5OrJblqpHzO37abXHW1Oecxy8Xw2RouK9fN6KgnjiVsvo28H9Z0Eb9ud4Omho5ry+dpcv22IE37+kNtClDFRg2UxMwufMf4eWnKteFLfYRzHsp3Lht8tz/JWofLmhtfj1+v6UmlMmkz52bwExAFTQPmqzhfnSg3NFKI3TaySfUNFWD1ThNZLpfglknGyvBD2jX5qwxIiUL85d+Z3tzc8wpxoBCjIRiPE401KAMKX+aOKCx/V81wJKxPWgsNoW2NeyOLpHGLHYt0a1rhde9iDRrw9vR5oarF+zosE7ZieZm5+VpzxVOhZjttvrX9UvV/4pOOxeDJP6IPndH1asudTNXPzM6pKwlkg0ay4nk06bGF9HF5o22TWO4GBxvH5VX9QpQejaxJTjcEE8V6sJ2hYVxTNEcuDDaKJyjKeQziONeA9JNSMmbB29p2N/1C7KjaJAadfje92snmowace6gcHEZc52nfZbkrct+0wW73y6qSlcOuvtSKhzVjKhk46tNGtdT9L1tqShWIT5148bcy1LRd2sVMia771NEDzut6Uz9fm/G2zh9eBw6uP5LcEf9DIIsY6vHDfPPbxBiHqTHZej1/v60udMWky5WfzE+jfcXRxZW3FqfIAqzPDaYYmyaPzi0DJ9osvvPDC2ma4fMpfkoJsyt/C9OrA2n0LLR3Kz5tg2XfakXUOTtkJycPLramlOWPAT40XWzh8GZ43yXK9t9c/pvT1V5aDMezYX7QQFmHGxn9FfGn8ds9nCrPuQztOjHiloGh43Sa8wA/uMDZUHM6fzLiy/dsVNHNIEPcv0KEOuNiIhY+L6lKuCMwSLxn6W4tzKYy/Z1feaQkj0xwd8/reQBOF2K9mghbv6RV1y6egrYVTKDMdYdPKztnxlnFouITt0cuZ5c3Pvu3q60ceJoG+3fu5edjx0y7I2tflZ9u8mNvLO1Z6KLMxwmRXmyALD+5YcuA2Nebabq9hlrNbEQxsN8o8pBL5fA1d5NBGc/22YS3q37+90WgFQkv95cgP1W8m/Eddf9g08Tfxb/WnKe+p2w9/ViHuLqwTwiWvx6/X9aXSmAzHmPnNQ2BYl7FbK2orjxSB0rpYvCmaE1Sv767Yf9rAgVPrtAJNcc00uwYF2TS7oaneHXNtmtkPzBbbE36YYcJrJj02I9auItlflEyvu+Y51k+rIBROMC6q3KFeXnOPcerITkcZP/xmPecN+R+JU9vO3DVeUl9e/VfxghpeWLRfR9ZHhM43NxD6RK8X+V/veEOEif81THvNcubnun2LQ20s6HyUmW186uvBkFFebfUnAA+euiMUy8myY9fKmscR3iJc2lG+wVh/hbBJCKHkRTpo00jXBKq9qNYisKHCSHzsIZoijS/r6II3h4b3Gdez5zuNB5TzemzbNWn6/lCZSEK4KT1hkuT1dQ/pWXFvu+1zY8eumwaGc9J0TO8LLKeP63aSsnuiRoEjHGLH6ifC/N7u3XfeoTW2ejlzG88OOJAzEyaMsAZXT1ibrieEJtPvn3kM8VIxwaWnyppyfTe0HVDWZ5b9HqHgEIkba08zC5+N+PzQyzt5gdaPe7WN3wMzxjXqhGm4boLq5fM1Wpu9+m2Ldh378edX3m2s80b+Rfl3GMJqh5yuqn/7AtW9TX/DC7/9HKd9r8ev1/Wlyph0Ysu85icAYbbkYOUxEq77v03UGpGbA/f0yxt2/oReEw400TXT8jIUZNPytqZupzrY1l69u/GfFscUEIgeXPRjSweh2SiVgPdfbH1N/W3BZcYxxILUU1WY2J0oY3egdLC24TMF6+AgPFZIvXAWcoG25gh1wPz5+wOvx2Yobdq/XH246d+hffuG/Tqmma5eDuF8TrEJEjgO78j3L7paTV/7gJq7413DlPm5lXepx5f+j6Etg3ZpaEerNjsnM1evWu2u2KzM8BNztr+l7hUP0cv2hteqDOk43qK1QmUwPT2sy7GWes0d3LsHF//YiOGIdcMPLf5pyEmUWSaezwMSDkZPuCdepFj42E1Cw8WGRbvsgqddEDfb7mY8oKzXYzvadTGBAU2OnrCG9NMtL+lZcW1Hu7ZZaSz3xjwn1k94eLU7BhqRN8V42dfraiMTVqM6H6NniSa2sxrm4OlVL4SwXSf1u0LPUvAiqzva0Q/iu2iGQcI6/LMH3aAfNrY7itZcj9EKz+b2dfRY5vBPeS7Yvze4tlOyj+2DgYZLGWCBYn++7BCt7BNLb2swYQXHcB9vqXcmhGtuLHW+tlN7ouXt0cLp2MsifmxtsMbIhjn0WQN/bini5fPVUrHDjle/bQ5Vh83aVrbWsM4xCzy74n/VV9v+q7A0BEtgYBIOL8Zby9YYvwcHZHLTaSIE53s9fr2uL5nGpMmbn6lFYEyPMeUiWP4gGAjKi2Rwb+JaH1ytAjXH9e844tdyDftcd+Ium6Y1Z6Zpv9itFCXQSxzMbCj9LtT6beVrRAD6iZjwjlTQKujrZ0OFZOP+hVcZsR57Hlq/tlmcHelpb8VWQyBundlWzza215UutuQVynX0BEH3xdV/CoXaOKnv5Y7xYg/vdor6fOurIqytD53+6db/yJq6gQpaHHvaZAuDgPABFTVlooG1thHrT78R78BYr6cnvOTOlRiX+NNTpqxvxMy7PU4lzMYghJvOT6BFfEAmBXA9aLgR0mhkpyP1qhpsw5slBHozTeh2qrzgZJu7oU8IW19vfyO0jw1c93Xx6gznXfEmCIFrShZYTq+oLVOrS+Y3eLG2FHKxEwsfONPSU0nlTkPAhJBjTxtKv7VkmeGKLJmy43Y8eDm20YbCMmtfcJ8wMWSuTRdHFjJx80t1z4JLLWs6Z2z6l4ygoJra+xKFMvEkt32O5d7E0w6c00omeiCgwkOzmY7rfaG5afmEefHiPZ+E8vA9sH/fQge1DZgpL9j5gVpfuiSUC2ELmlp9fS0EvTfWPRwqg3b0bjs0tG9ugAtM/hHf2UwIlfTp1peN+4fnJSxY4CG2Q3bXkGCMsrO3v2k47yqSMjeO+busk6yLEIEJOD3tFKsKaG/BR09nDbxBPbD4GstEDXwHTFtynRrb5QTVTbR928vXy7Pr7dBaevN8mNlOW/IzY731D4b8IupzxzzP6RP1w2PtBfm/FO/THY0isGb477oHQ067oEH/4bDfOTox8ur56tQ2Pc+r3za9zmjbMPnWE8adPvb0Y+Y2tPz5HcYbnov7tLOuyfZ6/HpdX7KMSZNlqn3eMv20ux467/27Uq3dsbR3yY4lue1ysg7P8PlkcPsGy7kd5GesnfyGWezqZUJnifysnRBL3S7L1ooqdoXPn3m9eDoOaT/kerViFoZZ+X0i266TQqv2H6xeAOHaZb0ttlh8bx8tFlfTdfyW6acaszS3njit6S6aBFfCC/R9C69Udk2N2bRWGbnqwvzb1SzRBsHEUU+Ycb9o6K8VzGuhLbJrIPqIo5RJPb5nCJYIMYAXUZRFiA17mizmsoPajzbMevGiqV8LL5TH9rrAEkcWZrNfSXiSr7b/1xCo9fqgTRkuIT7wcoc1bqvEyctOEUo/FK+R1YecJZnloUkd3eU448VONyNEeIsXV/6xgdBhnmd+QqN0gfCxx341j3+46akG2hEcQxsvG36Xspsjm+eZn5itx/2BCSPSL8c/K+aOvc3DoU+s1fvTPKtJpnnwtxPkJdumeTePOX3CO/IqeVHHmmN4hzWvrZdFvyGE4KUekx4wmYsnReMDYQUv4Qt3zWwwvjBhgXHTM3ewcf1vReuxXoRY07Oz3p4jup8p2u1hCk6G1ohWxM14qBRLAS/HNmIzY3IEfcHaVz2hDzAZx3cKIa+wNvx1EQzMSRC97CBhPqrz0fJ9GeN6rXQ834Fo9yba2NXbHG57Xcki9fiy24zD+C7eMOYxx6L4Hty78PLQOvjbxz+nOrd2FyoQQuG/lt1ueabgIgi10731AGNSAJM1pibxxD4/ahBCRW8UtLAPymSfXZNqloEQ96PhdxpmynNE6NMTBNzDOh9rOPrZVr5WYYLms62vOD6XILzjGdqr7ZBQFUv3fqFeWfO3sM9rsyCWRzhZTgzreIQ6Y+C18kweYBaN+rm3YpsIqQ+pNfusE1qYUMM9wwQMJkhKqnYZdcGp0Pn5t6n+8lwIl7x6voarH/mN/W27dtQDqm12XqRLNDiG5/D/Eysl++9Mg4IOGXBedokI//g90pPX49fr+ppjTOp8UnF7S/Fa9crCQ++aPvXpQz/4YGoq9iNcmwt3r+wVyAr+0Bf0nSMvO0fIUpWscGWTKV8cmVaLkD036Au+4a/2vdiv6/BtydS+ZGmLZQYiWRrFdogX2IuG3AUOUwadjo8WkzAbPFBeiBGgvVI0bWbCGjmY+SGWLBwP4aVllawfw1pFHBsiM8iXj/iDenPdI+qbnW/LD/dB89TQJ14kYE5VK2sqW4kWElrWnQc2ho7rG9CaLRXTviwJQwAzXj3tl3oQSmGi5ul0j3iBfGn1nxWEg4YpaJjw4qUC6/CeX3W3sW4rcMjkTS8PQQEvsdAs6xoYaE2h8UW/6jTGxjyHfqoITwPUjwvutThlshSQHQgd0NBAU2JatHTM7iYa3F9FFWJRFzRv83e9r/ZXF8ms/eHq6N7nIbtBQqiStXIPcS17wvpiOBJym6CdguMdCJD2yQmzDpjvQhOOewUBYKTNFNYsF+0zGp83102TCZCPHccXxgTWNOKlsbVor15a/ZcGWnTz+lvF0mCNaJGP63OxMQ6xji/aeIBJoJdjG5piMHUyaYdgu6J4jqFlxuQLnJfBOsIpQeu3qniuYV47qMMYpyIN8uL5DkS7Nw0uEkcGwn0t2PWh8ezBUgF8p5wSvgdYrgB+EOCP6X2+UzHHPDy7DhcNLkLrQHg0nxlYNwpvsniWwFoCEzLnDL5JIfRPpAQhsaNoWzH27Gu1MRFxdcH/k+/9aDk+R20pW21UBQ3w8X0uURfLxB+eK/i+QjjEdzvcOFxRPNsIsYV102aC1hWC8HoJy2SfDEEZLD2AEN07d6jRPjMPkySYdDyq17khLapZZ7TPNlntDO01Jq1gaWMKrHgGIAwQnulgCZPrqdLHS4b9RnVq1SNitV49XyNdpLG/bZEciYW7Lu4rloTYzc3DldfzEQ1grfwWTelxtmUdrdfj1+v6mmNM6txScbt9606qb16+Kq0sUqUVRQMmXzzk+Dkvr3smFfuit3ljyfLxt/7qpkflYfC4vCeeKs/tfvKZMnIP2nqozadIH275xa9uHHPzr69f+9A9j23X+9nSt6mRTdIR0FI1subtgAMnOArCOk6sP4P2KiezjXnY+IQWFBoqzLTDeUVLSVW1lcYLMEytRYZXuZkdDKEXHjj98nLsJsGEGefnZnUwNNQZfnerDLCWCqaDSNDg2tcK6teGJhVeWaFdx0sYYu8i/Xz0o8ZkhF422bbj5ZNs/UjH9iT63mBt6maZyDql31URv0+YmPpctJcjxBwfgmI8Cc85TFztEYEMggMmqiBk9swdZGj2Y6mzWMzbIazCYRvigA5uP9YSSmV18Xxj8gQTAljP6/ZZ4bYN0JTCtBjPZTxPIIhDsw/z5+3l6wzNf3eJSV23FrnhcgS317GXwwTSDpmYgxktNOUwgUYMZFhIuH2u6XV68XzV67NvN+VvG5bFPLPy98ZEE5yFwQs5JgNxjyDsQ4uPMYclG9CY47uFCUFMeJgWAdeOejDs+PZy/IKT1/U115i03/NU2n914SNqc/GhScuAb+pDF7z/aSq1H22FBjaYpR4UQdB5bUiqdcjWXvmteMVXrX5BDW0dGAqytgGSLLstXZBNlvvAdlgJTJc1rnAeg7W2d0x40XhJtZZw3oPTkYeXXGtoz/8w+R3HtWrOZzKXBEiABEggHgKvrblPzds1w9CM/2LsE66XdGAC+ZEl1xuTkD8c+js1puvUeC7Pc1KUwOwNM9Ts9TPqWp9iwuym4uWXK+V/VDSZDR1WpOj9cGq2TNrJetrADf3zRj7rdLwl5blT37QkIuwrCZCAIwFooLCeEgnr5aBpcZs+2fKCURSaIGiLmEiABEiABBJHYPnerw0hFlcY1/VE10Isyndp1ScUYgpadKaWRWDKwNPrl7X5g7PgBCrZCcyfPz+rsHjlk+Kz6Zl0F2JxL9BH9BV9Rt+T/f4ksn0UZBNJl3WTQBoRmLHxCWM9H5zHTBJnRW7TF9teU9+JiTEcy3xv4M/cnsZyJEACJEACcRL47/qHQ2fCmV8s6avtr6vymn2GmXssjrhiuQbLJjcBizCrgncmszC7bNeytl2HtH1HpLurk5tqAlonfUbf4Y05AbWnRJXuFsalRFfYSBIgAS8IINTP59teVWVVxcY6N6xB3ipOaZYXfWVUf2TPc1zN7hdV7lCfbH7e0ArAocePhv2vwjpeJhIgARIggcQRgPWM7mH8y+3TjfXCU3qebQin4a6M9cZfSjz2WVvrYkSfPejGcEWZ3wIIQJhFqjMzNoRZlWzhedaseS8nOyvjLVkP22Lt36Xvp3TMyXlbWJyen39GQ0+naT5WKcim+Q1m90ggFgJw9vHWhscMpxs4D/Ep9RiVcCyFWLLREoTYeyXsAxzYwKvpiX0vcx2aJVrdPE4CJEACJBCeAJzrweEVvKOb6TOJLQznZPD23DN3iOGAD16la8TZEzz6w1v28r1fhbxon9rvanFkNsU8nZ8tlECyC7PZXQc915KFWHNYiqnxVLCQ/bR0cGX20+mTgqwTFeaRQAslgNBEAfF06ZQQw/caCeXRJqu902FLXhsJCXJC3x9JDMLj447paqmQOyRAAiRAAq4JnDP4ZvXU8t9YQpYZIXUkLBpCo4VLCNl0zqCb1OCO48IVYX4LI5Cswmxh8apb5VY4B6yPcI/Eufki5Qt8ICtNJRh1cENNVbA0M7umNsIpCT9UU5WZkZntk5crnyxKDx6ugn4JF6Ri+hKKQH8BmPTLG/ZAwhucRBfwJVFb2BSNAL0WazC42aQE/rP6r2rR7o8s10Rc2/Pzf6n6tB1qyecOCZAACZBAchJACLS5u95TiEGNeM+REuLcwtrm2F4XxBW2KFLdPJYeBLYUr1WvLJxW1xmf+vShH3zQbOa8G4qXjfX7MuaK8ObW0VGtCLDPqUDNff07FyxLhTuyae+yAuXPvE0E2sukva68a8pkVbXE1D5iYF7B4lTooxdtpCDrBcUE1EFBNgFQWaUrArXBWiPe5PKi2Srb38qI01vQ+SiJO+nqOerqGixEAiRAAiTQNAQCwYAq3L9CFVVuE4F2pyo5uMsIhQafBd3a9FPdWvdXHXO6wRNq0zSIV0lZAkkizPo2laz8SoRYd7bvweC3AVV75YC8gvCmCEl8RzYWLxvnVxlPyxfUVcByEWZn9+84/CjpUjCJu+VZ0/jU8gyltxVRkPWWJ2sjARIgARIgARIgARJoPIFXFz6iNhcfWoPdxLFmNxat+KHf76+L6RelKyLUvRwo3n7lwIFTK6MUTerDGzbMauXP6/m0CO8XuWloIBC4dECnES+6KZvqZWLzyZ7qvWX7SYAESIAESIAESIAESIAE4iZwwfgbVd+8/LrzEWv21dOOj7uy2E4UwwH/b9ycIqbEz4pm8pJUF2LRV/QBfUGf3PT9EKMWoayksyc3I4JlSIAESIAESIAESIAESIAEDAIQZmdvmFEXngfC7PTT7k50eJ4Ne1fCCVJBtFsgAt8X6xdvu0bKeW5eC+1oRpsuvQMZKtupHf5aVVV7YM/WBAjQQfRp0NheA4XBMU7XNvPACKwGdh7+vpmXrp/UyKbrnWW/SIAESIAESIAESIAESCBBBODReMqgunizIjPeKcLsXQm6lFFtRobviqj1B4Nl1YGqS6dOneocgiFqBc4F1u1eMXRT8crX/Hm9SlRO9lp/ZvZypz/jmJRBWZzjXFt8uegT+qakj9FqEFaXRyuTDscpyKbDXWQfSIAESIAESIAESIAESKCJCTSVMLtmzXs5ol89O1r3gsHgX4Z0PmxztHKxHN9UtPKozEzffLFrPk/sdXOinYsyKJuZ6Z+Hc6OVj+U4+oY+Rj0nqM4xmEUtmNoFKMim9v1j60mABEiABEiABEiABEig2Qg0hTCb2WXgFHG33TpSJ8WkeF9Fre/RSGViPbZs17K2yq9eE8G0Xazniolve5xr1BHryRHKo4/oa4QiEpJWtTaYRSyU+gcpyKb+PWQPSIAESIAESIAESIAESKDZCCRamPUr/3FRO+dTLw/vOnx/1HIxFMjN9F8p3oJ7xHCKpSjOzc3MjG4SbTkr8o7RR+lr5FJKZGj/sdHKpPpxCrKpfgfZfhIgARIgARIgARIgARJoZgIQZi8cf9OhVsia2ddPneVZk3zBkVHrCgTejlomxgI+vy+iYyU31fn8Qe8FSjd99QWjOsZy0/5kLkNBNpnvDttGAiRAAiRAAiRAAiRAAilCoE/ekHphNqiO90yYDfqiOk4qKw987TUmWe8as0mxvQ1e1GGv01VfXTCz15tq+xRkU+2Osb0kQAIkQAIkQAIkQAIkkKQEIMzeeuK0ulizEGannxpsbKxZEQa7RO5ucG9B34KiyGXiOBr0rYvjLOspXtRhrVHV9TW415Zt2RVmnS0ZabhDQTYNbyq7RAIkUE9gf1WRWrhrpircv6I+M8m2qmsPqg2l36ktZauTrGVsDglEJpCosbtVvgvzd32g9h3cHbkBPEoCJJC0BBBrtm9efl37EGv21dOOj7exQaXaRjnXeyFWLigegv8T5bpRD3tRR5iLROyzMGu0NjnMdZMmOzNpWsKGkAAJkICHBNaVLFKzd7ytlhV9qQLBWjU8b7K6auSfPbyCN1UdqC5V9y68Qh2oKTUqnNLjbHXOYHONkTfXYC0kkAgCXo9dCMVL9sxSc+R7u7lspdHkcwfdrCb3PCsRzW90nauL54uw/b7q23a4mtTjTJWdEdGhaqOvxwpIIBUJQJidvWGGmr1+hngfEmF2+ml3P3Te+3fF0ZeIyjcR2gJx1Bn1lP6dhn8lMWGfF6/FP4pa2KGACLHPow6HQ43OQp9F6xopRWQW6cRUOUZBNlXuFNtJAiQQlUBtoEaE1zeNF+HdFZ6GkYt67XgL4MXdFGJRx7xdM9SZA65VWRlRQ9XFe0meRwKeEPBq7ELr+vm2V9WCnR+oitoyT9qW6EqW7PlUvbjqj8ZlwKGwbIW6dNjvE31Z1k8CKUkATqCQDGFWiROo6aepWIVZEdjgjbi9UZHjP748x2wPMqv2rP9xdpfBNRJO58pYqpMQOU/LudfFck5sZSP3+RCz2KpMsdIUZFPshrG5JEAC4QlUBw6qGRufCF8gCY+0ysi1tCrb30r5fRmWPO6QQDIS8Grsbty/TH25bbrC2E+V9K0IsnpaXTzPsPzgd1enwm0SqCfQeGE2KGa0vt71NVq3RGjrtmbvnPb5nSfXmTdZDzdqLz//jINSwVWFu1c+FsxS58v2IBVU2Y6V+lSV5K/3VavX+ncdPt+xjAeZ6Cv6HLkqMEvvREE2ve8ve0cCLYpAq8xc9ZuJL6s2me3VzM3PqI83P9es/cea15pAlRrQflTYdhzW5VjRIr+lNsnLfJY/R53U93KV4W8Zj2Y3fMKC44FmJ+DV2B3V+Rh116Q3VevMtmrakp8prI9N9rTzwEZLEytry9Weiq2qW5t+lnzukAAJ1BNojDArZrSrRXA7rL62hlvZqv0kyZ3Z8Ig3Of3qBNOECaextPJQXyOeAmYRC6TBwZbxtpQGN4pdIAEScEcgN6uDUTC/4+HNLsi+svoelZudp64ddX/Yxmf6s9X1o6epvRXbVJus9sbLfNjCaXbADZ8063JadcersZshFggQYpGGdZyYEoJs64y69uo3NNOfpe9ymwRIwIFAvMJs0KdWiiAbOfn9Z0qBhAmykS/exEf9/u9Fu6LwSl4vl9Ea7/J42i8CdsmBxUiABP4/e98BGEd19D97py5LlmzLcpMluTfcsMGm2aZ3EhKMTQ+Qj5AQcOgl/1hOozuED8KXECBxKLapIYBtDNjEgHvDTW6SJTdJltW7Trf/mSftand1ZfduT3eS54G8b9+b996839vd29mZN9PNEPD0otmZU9xbvgGK6wtMD9k7foD6Mm+6URcmtIpPF55qt2fdzmtXEWgjHbTEmJQOLCZGtX5E61DBBYwAI6AicKT8AGSkDG/3Zkx7Zj+4ZJVK4CUjt8hrvFSpxeiQ6Yb8/FVdZ4+Cyrm1DM0R5zrXX6sWt/yNP5quXs8a2a6+gsw/I8AIeEQgnHvVyPvqZ11sr65HEENUyPiECNhu0K1D6hqvJT1j0nRo037h2KgEXRmfMAKnOgIktFI6XLEfKH+4fL9XSNABVI4vB1BVzU3fpDhjmySQPO9Nbe05TerZ707MvuR1oG5Q0TZH/UPIMC8Z5CbCzFDc7U67xi9Gt4OdJ8QIMAKhRiCcguzSA89AUV1eqKfYZftnfLrs0oWccYfUNQzFesbq3yF7xvQJOTY8ACMQyQiYFlolWC3mIUtfY8Cc1S9ct7z13M/kJvSbUIthcJaBBNf4InU4pJy9x/YuHjlgZKkvuq5ah3Pr43DIOX75l2EZYeaXrosTsCDbxReQ2WcEIhUBit1qFCY9lYWKf/xqG6quffa7svCfYPRo6rOBppLwQa+MiFvnvsz7GtfuNQsGHw1UYcu6ZTeuEP6HcRjCmUK1Zp7W21OZce6++DHSas9b22F4yTZP3Xj1a6st513uZnCiVtfq+njiH+M/ivE99ZVi0MgaBVvLjHMDRqCLISA0rG2aVmLdq7aVBFeLQqs3KFDLuAifvj4FWfwN7R0XL7+OfRBd603srcOuVy61zk3q7Y91wsofTXeoZ0G2O6wiz4ERiBAENhR/BltLvkBtZL6IjZoamw7pCdkwMHEYVDadgM0lK+HXU5dCD3SA5C3RyyPtn6S+SKtZ21wpXnLT4jMgI2kUZPQYBeN6nwPkaCbQVNNcIWLNemqfnTQOhqZMUquO1x6EXWXfqefazFn9rhEOmqisqrEU3j/4J8gtX6clgeLafPhC4z25B+6jm9b/apWGXqBzy9cLfiiEx5heZ8Mtoxeo9Z4ydmBEfeyr2ATriz6BPTg/mvOdY58Rw5HX2FVHFkN+1fdQ01wOAxKHw6jUM2Bq+mXQK66/J5b8lgWKj9KxHXNW+rJyJMF124kv4VDVTjhSuw+KavOEINs7bgD0SxwCMwfOgQE9hvnt0g7+Q7Vmgd63gVy7BFRu2XrIw2urgDCt2YtKGTfQ/T00eaLPZ4MnkJta6vHe+UT0c7RmP5Q2HBFhfGhtBuBzZ9aguZAS6zlCBeF5sHKruPd2lX2L3sVPE47Z6Fr9z6FXxH1JHy3G954BF2f+BJJj2t8dkw0a2J5exvDEM5cxAl0NgUCEVpqjWW2rWTzytxV9PGRi/3z8uJTtqw3WX1VYvvfZwakjH/RF19XqaE74SLrKH9/4bMsnrPzRdYd6FmS7wyryHBiBMCNAIWbe2P0EHKjconJCQmw1CkHl5cU64c4lu1QaY6as4Tgsyp0PJDwaE4WnoT9KJMzeMmoBJMcGZs5X11wFG4s+g4qmEuMwKKxdrhNkC6tzYc3Rd4HCaxjTsJ6TICt6nCj+y477oLyxyEgCta5KWFn4D7WcQgORIEsvyxtKlsGGok+FkK8QNLsblKzHY7AYkRC/qXgZCrCfQlnjcXUM2rdKL/ZfHF4kvD3j11y17ljtfqC/jdjuF+NfgtS4dLXObMYqPtp+g52zti8r+YrGE7Bk35ModG3v0IwcedHf9tJVMB0/aFwz5JdetYDB8h+qNQv0vg302m1xu+AD/NizqWS5imeMMx5cKIxSOBtjSBuVyEuGBNe39/5eCK9akia8hwqrd4u/rSe+gKuyfy4+wig09HFsU8kK8RHnZMNRpRiaWxrwHi6GV76/F+/JdqvEjXifRjtjxRorxD0Nzx42LVaQ4WNXR0AxEV6bv0xMxaemlShaJPHl1W6h1ROOs2bNchWU7XkaH7b/56leVybBA2iKHPXGnxffn5OT49bVdbET5N/xk/vm/AmF2HtNsS7LTxNWpmi7OBELsl18AZl9RiASEFhR8LoqxF6UcSucgcIgCZkkHK0+uriDYOSJ58MoML6++zGhyaX6KX0vRQHhauiP2i7Saq4ofF1oSKjucE2uiDd5M2ouM5PGUJGlRLEeH5v6DlQ3laEA/jgcRSHNWzqz3xVAfwcrt8Frux6BFi+C+PkZN6L2sgIaXDXw9dElaneJ0SlwzoAftZ+jRraq6SQ8uWmu0ESpFSYywWJE2qs/brze4xxk5GbJ/qeAXvy9permMlhe+BrMHfG4NxKv5Vbw0XYS7Jy1fVnJk7b67dzfQX1LDb47SCK+L2mkKdbvzrJv4IMDC1HUbxX21xb9G2JRILss66cdhgiW/1CuWSD3baDXbj3eF2/mLlCfE6SBvWHEr4U2m+5DumfWHHuvA37eCsjy490Dz4prmbTjV2ffA4N6jIDCmj3Yz/uQh/crpcaWOnjvwHO4Pgkwvs8MaMaPbn8Q90Bzh67p3v7H7l/rhFiFiKxEtMkouHrT+mrbcJ4RiEQESHCNRKHVG1Z524teGzqx/z0ozLZ+RfZGiOWomb0PBcDxt9w3+ydDUscU+CCN2Kq88t2ZTnC8gXOZZYpJWd5JGJmi7QZELMh2g0XkKTAC4USAXrTpxZESmeZdOPgWlR3SYlw0+FbxsrnqyNtquTHThJqQt/f9XhViz+x3FVw7dJ5KRqabt47+HSzd/4wqaJFQ9erOB+HhyYsC1swmxfSCM1BI/fDgC+pY3jJDe04Eik1LZsCeEgnvlEjboxVk0xOy4PxBN3Rocnn2XZAU3UtohTxp/IwN7MCItF9XZ/9CvNRvRXPZvRXtL+cFqMGiP/K+evaAa2FEyhSgmLyfozZZu+d3+4lVcO2QeZY9tFrFh+Zvx5yNOJo5J6FrCcYAJiGW0nXDH4bT+16sNqW57ClbB7vRHFVJdA9ckHETEMZKsoP/UK1ZoPctmddavXYJj7dyf6sKsWSefs/4lyEuKlFARffhldl3A5kqf3v8QwU+r0e6xz7Ke1E8V9LjM+GeCS+ruI/pdRYM6zkZXtkxT1gRKJ18nPeSuH8pvM8VWXeJa5vuAe1WgGO1rR5Ws/E5Rl6Jt5fi1j78wENpBMa31SZaFwrxpVwjRi/GWlrOMwKRjMDSLS/q2VOcMXWiplXPgO8z0jQWlu36OUhRXyOl5JtaCLOzomTH7oKKvX9ubmh4YVi/CSX+2kRC/YGi7X2j4+LmSbJ8H0rkCSZ5QsMq6e5TRRtLmLAga/LKYDJGgBHwjMAxNANWXvZONhwT5qn45VBHTFraLSWfe9R0EOHygteAzC8p0QvipZl3iLz2H3IGQ+abu3E/J2lZKDW7G1FT+wYKGg9pSS3l+8QNMk2v3SNnupEXwnMH/FjUkKbIjCBrF0bK/lwSJrSCLDHTO24g/GT0HyAtIUPleg5qXw9WbBUm0lRIa00a7CE9J6g0ocrYNWer/C0r+LvYG0ztyIxdK8QqfZGWXivItsjNaBKfB5nJYxUS267rUKxZMPet1Wt3L+793l+5WcXlksG3q0KsWoiZK7J+Jkx+lftbW6fN0z2vmPrPHvGoKsQqNDHOOLhx5P+DZ7e0f1SjD19kxj9j0PX4oeaHgrQf7t/XCrJUSGW3j3my9TmUdSea4S+HHtGpeA1cpHSvHsnqpL6u9WMHO3tSYeFMV0XALc3qDPNgO+AZ3GvsmkMVe59E13DmzINQEMS3ksdi4mIfKijfuwLAvQIdUG2RWiC/Wm6pSqgtCasZbl1i36gkyZksOyEbJHkyur+7RJLkSxAr8lxnGjL87PZkVq+R35hu0A0Ig3MP2A0AiNgptH0RU/YqRCyfzNgpj0Al7iNUUjWazK4r+o9yqh6djiiY0GeWeq7NNLhqYX3xJ2oRaVMSopLUc22GtClkbqxNm3GvGwkQgaYoR7TppopnVdMNTBCaeQEOBUbGcXvF9odfTviLTogl9p34AWEkOnrSJtKIhTqFYs5meKZ9lxvQeZCSLsi4WcnqjuSYiPY7K4k+wJAQpKRQ8G/nmgV739I8jfwoc9cead/1soJX1aL+CUO8PgvoOUFWD75Saf0RIZASDX2EInNiT6lP/EB0ztRHV3XcEBKLNMHGdO3QX6mCMe3zJ4uS6binndbXmLRaWKMXYyMtnzMCkYiA+o6J75xdRYhVcNzw+fbf4PPlK+Xc3FGKQrnwCklyvCg5pG8gWjqaFBNV7UwdUB/OP+KBeCGeBG/II+qSLSkbCQvCxBwO3YfKEkjdZ9o8E0aAEbALAaOW8qO8PwsPoqRV1b4onp5+KTpXOgEkjGoTma2S0xklkVmfr0T7Tb9BM04XasAo0T5F0tL2Ry+lXTFFm/C+HAqMjF6faR2Na6Pgadz/509jprQL5hiKOZvhJ69yu7imFFpvghKZzT825R00df9SaG/H9T5XZ24dCv7tXLNg71vCx8y1S1prrfM28o5ttNhQsKYj3f87T67RFunytOdYsQAhD8V/3DhHV689qdI4bKLykroCbbUI06MtIO/cWo26ts5TXhHkyRw/Nsqs5Z+nnriMEWAErCIwe/bslv0n1/0wxpG6GoXTSVbbdyd6/F64tcld8UPCpDvNy8xcWCNrBiWmYQQYAa8IUJgLo7aCvJI+vflm+CT/FeHYiBr3S8gS5n7kFEeb9hj2nPZA50i+EgnHAw1aGKveTn3139l1FPPSXwoFRla0y/EGDTmFSwl1CsWczfBMnoiVFO2I032MUcqVI5mwkokx7Y1NT8hUisUxFPzbuWbB3rc0STPXbmH1Hh0upPn3lZySbwuJUo2XYeqHnG95+yONrfbPGCLHGK+ZrA+sJMXhk3K00pZpGYFIQOAwxoEVieK8dsE0vPe0qqaG2kvwg/amLsi+LSzT3AkDwsKWDrtYJ/7foLrYhLoNu7TJ3iHPJE9y16X+sttMiyfS/RAgLd7FGbfBJxh3UZsojAx5IV17/N/4sn+l8PqaEN1uiqnQGkPWmHlZJ5M/JRQP9VNSX6h01+WOaEbkl+dQYESeeM0mM2titi+zdKGYs5mxSzAMjJKsCjZKOzqGgn871yzY+5bmaOba1X4YoDZ07waTyLRYSWSGrMQ+VsqsHCXwf+/56k8RYBXNrC9armMEGIHQIDC8/+QTu0p2zeoRE7UEf9UuD80okdkr+s3/rKap5fqx/Se3btaPTDZDylVwT/GQssadMwKMQFdB4NyBP4YfD3vQo4aGTIDJE+kz6HjlUFVrHFjtvCoaS7SnIiSOrsDDidHUlcJ3dOcUCoysCEXhwDYUczYzj9L6oyoZORRqdLU6FlMLTWZCwb/daxbMfWsShg7mvErIIrPtjXTkUE5JioM45byzj4oAa9T0djYfPB4jECgCa/NaY8Wikc3qQPuIhHZj+46tyUwZeaXshsdww1FYHTd1Dh6yi+ZKc6a5d86YkTkKC7KRuS4gNt3j5nsKRK1uxo9QXpktRoAQoBib8ya+CqNTp3sEpN5VjXFiHwWjqaHRPLHSsK/NU2dGQdafObKnPrpS2amIUbjmbDST1wpOVq6ZcPFvhUeiDfS+NTuO1qkUtSlvLDbb1COdVpinvlrc4XtnVZw9KZpZjwxzISMQoQho3y27mqMnL5DKmb1GPiW3tEzEjfT/9ULT9YtxbjRHmitOpjWYedefVcAzYEE2YOg6r6ESqLrzRuSRGIHAEOibMBhuG/N7uGvcQvQmOrJDJ+QkaFHufBGiR6lMi9eHvzGaZCp02qPRpDElSHNFbd9W8sFql8yO1ZUxMjtHI1245kzebrVpW+kq7anX/Hr0dKyNgRou/r0y6KMikPvWR3e6KgpRo00VFgVZ41tab836UNzZjcWfabv3mqcPaFtLvvBaH0gFaWRJsA7X8ycQnrkNI6AgoO6PBdzK1o1SZu+xuwanjpzhdrdcib/Ra7vL1GguNCeaG82xu8wr2HmwIBssgqFs3xaMOpRDcN+MQLAI0J6113c9BnWocVUSxRi9Z/zLQDFI4516L8UUokcbBqNvfKbSTBz3YczJppZ6XZnxxGhKnOFBaDa28X6u3ytKL8dmkxVas316ogs/Rp64Cm1ZuOZsjCu8HsNJ+bseKRzRJ4f+D8ijrpLCxb8yvr9jsPetv/6V+r7xg5WsOB6o2KL7kKWr9HBivMfS4ttjHBP5ysOL/K4P0X2c9xIsL3yNsrYl2mf81NlfoFb7Utv65I4Ygc5CoLuYFXvDK6vXmE8zU0ad1SK7Jrll95/wo1ieN9pILSeeiXeaA82F5hSpvIaLL3b2FC7kTYxLph7zPriEzIuF06fp2ZeZaMUkjEDnIkDmfXsrNsDuk9/CFM0LHYXYmJR2AWQlj4P/2zEPtHsG86u+hwGJQwWjGUmjdHFkm9BJ1Pcn/wtT+lIscM/JKMhOTDvfM6GJ0hj0eqpNxr61dca88SXbWE/nsgXB2FN7Kgs3Rt74sqPcGz7hmrNRI0v7ZFcfWQwXZ/7E63Q/O/Q3IUyN7zNDpQkX/yoDfjLB3rd+uler01CQzdV4JqePWLvKvgEKV2QmGe8xoyBb01wOyw79Ha4eco/XsD7fl34Nh2ty4Yx0DM3IiRFgBEC19OuC8WOtLl926tht2Ib+7s8r350Z5XZOkx0wCs+H4C80hUnogZYVYZWHUNtKeyRwr6tUgcc8yQ25LkfLuiGpYwrwnJMPBMK6cD744ioFAcV7MW7IZ0FWAYWPkYgAxdPUCrIKj+Sl9Orse9Ck+DdKkU4jMyntQvjy8L90e+c2Fn3mVZBtQcFQ+2KcmTQW+hjMk2kgN+g1qzJ6RvCUYp36+I8UmxIDi3d4KSZtG70Qa1ODq1Z7KvLaPXxUUNus94hPmjByDqPE4DTyhV9fO/QZCow8MRuPAABAAElEQVSMAoISm7PD4KIAvwtrkpFnTZXfrFl8QjFnv8whwbje58Gygr/rYht/eeRNEWJq5iB9zFJaq6+OvAUUbopiiY5ImaoOEQr+Q7Fmgd63NFHjdeDp2h2GcWPXHHtXxYUyKwsXwcjUM9V7QFdpOKEPCdo0rOckjHecBLTnXknfFX2EMapLYM7wxzrEcz1YuQ2W7KetZABje5+tNBFH49aARj+WILrGeFLvqoFjNfvF/Wz8AGKk5XNGIJIQULWxXTTsTqBYtgmGLBwGCmAEtmPT4ghcFC1LitMnKlO/oGkJOM8IRAgCByq34H61Ng+IBp6MgiZpq5QU5YiGCwffqpyK46HqnSjcvqkrU052nfwGKptOiFMKn3ENamI8JaM5aKPbs7lySlw6eltuj11JnlCN++424D68v+58AM2n9UIp8WlMsVGJuqIT9YdBCRmy7vjH8OyWW4HmoCTaN6xNpJE2plBgpDUFp/Ga3I3GYdVzo0MdI88qoYmMWXxCMWcT7OF+xzSYMWB2B9JlBa/Cv3JzYH3Rp+JDypaSlfDS9p+jUPYPQTu939VAPCspFPyHYs0CvW9pnsbrwNO1OwoF1hEpUxRYxLEItbKv7nwQP/JUGsoPAX000KZDVfp7jEJ4XTz4Ni2JyO8u+w6e33o7vH9gIWzANaJ7ltbrb3jfutxNkNFjVAc+yKO6NtFHLPpQZiaRifQfNs6Gv+16EO/pW+DzgjfMNGMaRiDsCLS/S0oLXvjR8pywM8QMMAJBIMAa2SDA67SmGq1sRspwGJQ6rNOG5oEYASsIfJT3ImpLenQwG9yG2lolkWlgZtIY5VQcJ6NWdnPxCsir2q6Wf174hog5ObnvRWoZvdR+dPDP6vmMgbNhYI8R6rk2U1C9W3sKxbX5QBrUOIOgSbFCh/acCPsqNqr07x9cCKuPLoHkmN4iHiiZRZMXWvJSqgjRREwxcvMrv4eyxiL45YS/QO+4AUjnxHZ9oKrN+zJpOhduvVPgUttcAYnRKTCm11nqWAWGkEQldQVC00M4apPdGB1G5zfadBLDzpCGyTgu0RysIqus9lSo2QvaXmouZwUfu+dsjkMA0rxuKFmGoaBO6prsPLkG6M+YyCrgIg+mx3bzH6o1C/S+NXvtkkXGwm13gFajTHGgX9z+M5jY53zom5AJx2vz8CMB7kc2fMghQfvF7XdDVWMpXDvsV+LemdbvKqT9BIrq8nVLQffmhmISYvXbyKIcMXD98EfBGA85v7L9eUMdEX8HKjajtvgMXb+eTtYcex+aNR9/vjn+AcwadANEO/VbFTy15TJGIFwIkKdiVRsbLiZ4XEbARgScNvbFXYUIgXXvHjg07frhEnY/c9fx9TB9CO+VDRHU3G0ACJAGc8uJlaIlvQh+X7oajtTsE3sGaS/sp/mvwLbSr0Q9mV/eOfYZMIbLIS/E43qfAwcrt6oCIDWgvXRktrm/fLPog7Rfimb1gkE3waVZd4h+tf/sLd8AW098AV+gubJbE07OJTeJ/omWNLlJMb3UZlnJY2EjCi7oUEEtI9NF8rBKpo1RqLG9eVSOMDemuSmJhFTS0pJgOrrXdIh1xouqBhQIae5KIjp6Qadx54x4DPonDoG96NRqd9m3aMb6moHPZuRzmxg3MbonkAaKkl0YEf9kTrqi8HXdizjN/QDiT3ubKU9rtblkBfz36FJch2+VqYhjSX0B1KBQTlpvIbw7rH0TNYOPnXPWMW/ixIma1ZGpU2E/ClFGLbyxea/Y/nD7mD96/AAQyWtGpriB3rdWr126jvslZOE1vwGvrXYtKN1bZNVA11chfnii647MhkmDqk30QSE7+TQYnzZLPDsI11G9zoTCqt34YalUS9ohH4174GcPfwTIAZ2SaIvAd8c/glVH3tHdA1S/E/f6VzeXiY86dJ96S6T11YcSkuG8gdehVj7GWxMuZwTCjsDfv8tp44G1sWFfjBAysGj7s4kTrj9bXv3P1R33KoVw3HB0zYJsOFAPYMx1Sw+snjZn2ExsmnWk4gCM7X9mAL1wE0bAfgQUQZaEvdadlDKQid6e8nWo5dykajBJ2LsJhcG+CRkemaAXwNPRwRO9pB6rPQCK2R+97J5sOIp9HsX+3TAYtbk/GHovTOt/tcd+Pjz4ghB+tUKsQkha0j3la8V+xxGp7eaO9PKcgtpW2ntLY2gTeV29fezT+CI8HuvXCSGd6mnv78xBc4Vgenrfi1UhluqGoIaXtLikZVLCvKXE9EWt0CPqPr039y4QgoQ3PvejZqh/whCdxtkOjJbuexqda/2nwws88V2FAsOesrUYm7MZNdc94O19v4fiukNU1SEdqdmLL/3fwFn9r9HNvQOhhwIz+CjN7Jiz0peVI31smZJ2CV53x4AEd2OijxLnDvgRXtPzUcve01itntvBfyjWjD5EkCAbyH0byLVLWtfTcP9xHlowkIMmY0qIShZYDkwcoe6BpzIy2b4eP/6cPeCHug9gZDlA9x1pRVstBFqfPtp+01F4vnPss8LiQlu+eN+T4vmk1agq9XQ/kmOoYzUH4JwB1yrFHY5kWbATP7QpiRzOBeN0TumHj4xAqBB4d8v/QlVDGXbPQmyoMI6Eft/c8tyYaIfjYFpszI73/vp5uyv9SGAuBDyQlo9TF0IAvRivwjftmaSVZedPXWjhujGrpD3JQ+1jFppXkuleKZqoltQXin2hZGZHQuLAxOFCC2kWBuqTBDnqixyy0AsnCY6kIenf5u3YbF9W6MobioWw2ozjxzjjYGjyREjTCN77yjchX5uEoErmhw4Uun0lMtUlJ1GtGqlscFrUXPrqO1wY+eLJap1VfMI15zp02EVxSE80HEYh34UfYwaLOMlkem4lhYt/TzwSL3bft57G8VR2sv4YkGkx7ZGle4I+TtF9TcLh8dqDQPuP0xOzYUKfWaYcQjW1NIiPXyL8Eb7VJEb1FB+AaBuDv3vUE39my46idUM+bndIRedtZJFhNF022w/TMQKhRoD2xQqTYvJSfO2KWaEej/sPDwI5S3NiRo9IXo/mXxPB7f7h9ZMe/Cg8nHTeqCzIdh7Wtow0791LZ4JDXkWdZaQOh+sm/9KWfrkTRoARYAQYAUaAEWAEGIHuhQBpYjGMY+uk3NIs4US0e02RZ9OGwOLtzz2D1kIPidNTRJD1rU7gSyPiEBAPIHwQ4dcWii8LC7+8F2jzPidGgBFgBBgBRoARYAQYAUaAEKB3Q3pHFEIsvjMCC7Hd+sJYsv35+aoQ261nqp8ca2T1eHSps3nvX5qD++/mE9Nsatyllo6ZZQQYAUaAEWAEGAFGICQIqKbE1HuEmhMv2vTU4JjoqHsAHOMkWcb/4RsMTr0FHI67Zbll4dxJD61+e9tTYyWI7uAUxtUi/bdZaqiMd8ReZQRQdrv33DD5obXvbHl6ADiiLjXWO9zuwkZ3y77o6OgfOGTpYnyPdqJzji0t9fUv3jDtiWKF/p2tz14BkiNdOVeOzZL7kyhwTnbK8pWyBKdJMhQi3+/7MuN9Z+uTWQAxVzgcEgUbFzH63G73Vrmx8TXtmDTG4m3PX4k7/vtSXpv2llcvykyBHnFSjzkOkK7BbVfH0TPeHyrhQGHPqJF/Q0eNt2npkaeX0ePHFipzNzetvnHqY+S0Q6TF2565WALn+bIknY4FtRLI61ua5VdvmPKg6j3PKh9zpjx8sK37Tj2wINupcNs/mFaYpd5ZoLUfY+6REWAEGAFGgBFgBBiBSEdAJ8AKZiPTsdPirc9NRceOn6OQneIJUxRqb58z8f43kO5G3Hy+SEKJUkuHQtytbrl5sxNiNmAfCbo6t/zKnEkP/BwF2SkOZzRtxeuhrUcB76gokySdlz7ss1x2N02eO+mxQ0SPgtxiFA6vp7w2ybK8E8vHacsoj+1fmDPhgV8Zy0kgliTn2xgQoDUEgZ6gsQVaLr9hwkNfKcU47pvY/w14rpPRmlvcY6Mcjo+wn+EKrSy730CyGKS/USnzdGxpcd9ww+QH3/nrppyEnlFJLyP9bUSHPLsRWxoH5XH5MIZQ+NGcSQ+KWIRW+Zgz8cHbqc/OTroLo7MH5/GCR6A1mLW0AK9B/MO4lnnLhCkJPczY5Dh4fLkHRoARYAQYAUaAEWAEIhUBetejfbD0p8aIVUyJf7Q8JxL5lhzSK4oQi4Lh/7pbmgeiUPZb5BWVkZTcQvhEoeotqcV9SWuZ/t8bJj66q8XlzkQBrEFf03o2d/IjmxqhpR8KriW6ekkaiOeJVI6DqRpYFOhSJSn2zeuWXiciusyZ+MAcN8it+001HbQKsXI1ttft68P28xZveU4XH5O0mpLD8XG7ECu/erSWBG/51bYuYx2y88PFW55X44PhuDchJn/SDCmy0U7HB1ohtrXeMQbnv7lVoDW2gL2ELUZieLa+ruUTqkUhdokixCIPm2tqpTRE/AWqQ/4zUKZ998XPfimCYVvlg/oIR2JBNhyo2zwmCbOqQEsPL0z0MFu65UVVqFUEWxZubQafu2MEGAFGgBFgBBgBRqATEKB3OOVPEV7pXY/2wer2wqJn4kh16vT6lj+modhEJq0ioXA2vqyyvgo1evPdcut2ORS2VC1qoxPag7IrjdqOZAqLqsTjhmL19JYJD9XiSXvw97YaNAm+4/qJD6S3yKCL44e8nP3jEdPnqR20wFY1r7QF2FN89FAath+OQuRn2noU0P9BWk8qEwKxJKHzpXZtssvd8uz9Z91fX9vS+ITSTgi5Dvjs5VU56pzR5He3Uq85jkShcxsK0PVKGZoEr5478cE/uRpafqOUqUe3+1EURu+dM+HBh+8455HqJVufvxxxvVKpl0F67s6z7i+ra3I9o5RhfWbawCzVi6wVPpQ+OvtoLYp9Z3PH41lCoFWYBWj1bAwz8WvLfOpA+UK3FpZZ6o+JGQFGgBFgBBgBRoARYAQiGIE2BQa0oBnxdctXRzCngrUEiB2g51Ga0btX0sa3tj4z98SxQ8/0HZj1UxTYGhUaR31tA8R7ssptpUBhq0Fng6s0bDui0NpoqF+LJsCLqPrGifdvWLz9+VwUNke1N5MvxPzzdC47ZOTD0Fp2zbv38v8V/KEJ9CIURC9X20pS3+ToxNPwfP21I6b9GFuOVutAbrpx0sNCi3v75MdPLN6+sBjrxR5cFCAH9OqZdCbSfino3VCPocp1CcfaX19eNT2mZ490hyTfiG0aamtcimZXR+vpBHH6jXYmaG68luh+csbDRag5rsX+xN5d/DBA83lO9BECPkS/Nv7DgqyNYEZKV20PstXIT067UItnkjxD8IhxaMWR/2EEGAFGgBFgBBgBRoAR6BoIKEIrcYuCKx26gvBKfCrJ1VSdH20QTEmQjHI416cNyHy0palp5v5PGw8p9PYf5RPaPnHs9XiuCrJobjxeW2/My+Bsby83YcxWYYnbTuZ2UPv1DhmmGGTgMizH7tuSDFVYLwRZUSLJ7YKsQqM9yu6XfzIrh8yoC/Dvj9oqE3mUYeVxWqHc4XRc+M6255qorSLEtua1wreHnoPjw0OHwRWxIBscfhHfWiPURjyvzCAjwAgwAowAI8AIMAKMQPdF4KZpOVWLty2k/Z7X6mcpxTgkaaEUHTMyJ+exu/V1ITyToUwrcJJ29J/r/9j71jMfP+lv1JbGxjJHvF6QxXkJQRg1waO0GlB0zFyt7Q/Ngpt1gqVDIkHWa8J+c71W+ql4c93TA7XCKpGjwvfvGqtnbQ8xOatyonJm5bi0hUo+GD6UPuw8GhTXdnbNfTECjAAjwAgwAowAI8AIMAKMACPQjkCzq/4e3F/qUTBDgeuuJdueF9rm9hahzMk1xt5jnVEevSkb6VAo1wmnVI/Ca2tbCfro6CXQCYaomtUpE9F0uL+O3nDSKMkd9voaSLyeSnHRBnNudKflln+CzqBGGv9w/+4ob0IsDRAMH14ZDKJCB2IQ/XBTRoARYAQYAUaAEWAEGAFGgBFgBHwicPOUJ46j1vOc2LhYCq3Tvse0rRUKebdgtqMDI5+9BlaJAnUC8qBt3JhbXVegLfCWRwdNYl+ptt6tOJeS0QRYgmlqnYzxajUJR4zWnBIHR7Tnxnx1WW27SbOx0s+50+U6CdF6kQ81q7HoDMqycBwMH37YDKiaNbIBwcaNGAFGgBFgBBgBRoARYAQYAUbACgI5OTkONC3eFxsTMwSdLl2Ju0YfxP2bYq+m0g9qZTPRAdEIOq+N0msyqUx2G10hUWlgCYXYVG1L1FDm+tJIaml7JSbp2lKdQ5Z3tNLIe7W0KKgatLztnpmJTpb04Xy0bQPJu9GFstIuN6/uMArsKGNrkiT9nNZCUwJvrXky9e0tz801lmtpIi2vm0CkMcf8MAKMACPACDACjAAjwAgwAoxA90AAhSQSqLLA4aAQNPL1E+9/3g3u8zBLzpDU5Gpw1dHJXVNy6tXC9ozQhC7e/PRo3Gs6qL1YOC5SBThtuZLHsDMJSl4cJZiqPcfGbYKotrQ975Bb1PZSjKxrS1Ryi7u1fYu0rL2VyPXCfwVvOUtzYjCnMz3GmLXLFXoUajvIZ3HR8V7n5QAX7rfVJxRcBUZLtj13Sf8hcfE49BYtBXY2ftQ1PdRQO8RTVHLMhw6H9Gr/KyGOaK3yoe2/s/IdgOqsgXkcRoARYAQYAUaAEWAEGAFGgBE4xRCQ5BoUpK5Br7m/opnPnfDQetwj+q6CAgphB2+a9ohiakuefpW8IEFd45x3tj57hRQV/TkKaElKOzpiW925to7yOO6FS7YtfIDyb2977hwsOY3yIsnQAm7ZZ0gbWYp641+b/tC/VRiV7lCatraXV86Z8nAe5eec/sA6ZPzfar0kRS3e8tyldD5yWNK5eFAFU6Rbc8OEh75SaB0gGbS3qOmNaQ2Po9Boj0Xu+CrtOeWxj4vf2f78vejQaXlKVNQ01Mf+yUgjORwvLNm+8B/vbH3u8VEjkv+LLM1AXn6HHw/ERwSrfBj774xzFmQ7A2UegxFgBBgBRoARYAQYAUaAEWAECAHhYMkhORaiULlk8dbn52GZEPIEPG5poTi2/7OoPYs5STrH4XB+gjmdNpZo0FT4/Le3L2zviwqNSYLnUIA7jF6Sv9ZVSfLvrp/8IAp03hPuLR0eExV/YNSIpKM4lrq/FwXA4paGhpuxJWbbUrPrAZDlfOUUrX2fQ+H9Z5IDXlDKSGhHmjuV83e2PT8J8zcp58oxIcY5b9GmpwYr59rj/WfdX499vK4tQz5vRkH0z8jOO9dPfHDF3oqqpfix4AMtTVv+VofD8QekPxPNqldVufYK7APhw0PfIS/q8oLshkMrrz1UkXt+YVnuz3YXrf97QUXuU/SH50/sLFq7kOryS3b1CzmSPAAjwAgwAowAI8AIMAKMACPACPhBQKpBca8FhSwKfTMbBdNnaF8sNmqUZfdjcybd/xdtB3vKquYj/adYhrIWtJrRynK9G+BOPF+tpcX++qNXpb/qynQn8g7sZCcWDUJBFC2TZRcKk9gV/HPPh9W/05F6OpFhKbIRg/z2UXjB9oelFvfsG6Y9UaxtgtrZgw2NjVNRsl0mxpCkMRI4XsS248T8ZXl5Y0PjmVqnS6im/Q0Jldp+RF6SHomJikbB1HMqLa++D2v+ifOpxL8SHK8cj2/WVLvuoha07zf3o6rrcO4v4WkjlSn8Ey9Y/o9jddIVd035m8A3UD6o385Mqlq7MwcNciwpr3z3uVX1J57rlZDeE7+9iM3g/vqsb649Eh+d8HFp3Ym9kwec+79I3/7FxF9jrmcEGAFGgBFgBBgBRoARYAQYgaARWLztmYsBnIdQgNv/9ranxsgQk0h7Txsqatf9ZFZOg7cBSCPpjIrpFyW7ovfsr9uYMztH5yTKU7vF25//AgXWC9rr5I+vn/DANW9tfWY4+vHt2+KISnJBy95bJjykak4VWjI9dkqONco5Hd2yPLlZcu+LbnFMczuk6ii3O27PgZp1/nh57ZunkxKSpIkotzRhTNnoalfNFsWEV9t/sHkyeR40KLnHkcaqKm9Oq4hm5MhE0vyCw+3o3SBJ22+deP/RYMcOR/suI8jm56+Kq4mPfyrGGTM7PjrRZ6wlf0DWNdcej3Mm/kGuPPZadvYsrzeMv364nhFgBBgBRoARYAQYAUaAEWAEIhMBb4KsGW69CbJzJz6w1Ux7pgk9Al3CtDi/bM9cR0r/gz3jUu8LVoglSBNQEHY44KWauJgS6jv0MPMIjAAjwAgwAowAI8AIMAKMACPACDACdiGAWvXITXnFO9IbpaZPnA7HlFBw2TO+D3k2exv31N7W0th8y5D003S27aEYk/tkBBgBRoARYAQYAUaAEWAEGIHQIyDJkNTuH5j2hUq9zY7qcGNb3HCrTQ6323R7bTvOhwaBiDUtLijLPbvBXf9xfFQCxV0Keap31ZXVN1bPnzjwPNoEzYkRYAQYAUaAEWAEGAFGgBFgBLogAou2P5sYLUs3o2didJAkxShTQKdGtZIs39TU0rj+5ilPHFfKjce3Nj93epRTehL9QV2krUMHSYvB5Xr2/byN29+d/S46rOIUTgQi0rR4R9E3j4ND+qKzhFhaABorNTH9WTF2OFeEx2YEGAFGgBFgBBgBRoARYAQYgYARcLqkUQ5wPA+y5Gz1EIxektE7Lzp+isPYqu/FRMX93lfnTqd0GwrA52vbtraH66SoqA1XDTl9oK/2XNc5CEScRnbbsW8e7ZXQB91fS2Eye5Zdbrf7B1m9xpCbb06MACPACDACjAAjwAgwAowAI8AIMAIRhkBEaWS3HPnvz3rF9/l/4RNiaXWkKAzQvHQT8hJha8XsMAKMACPACDACjAAjwAgwAowAI8AIIAIRo5EtqPg+taHJtSc+JjHd0srIcp0M0lcYy/i7ysaT0clxfUS8p6qG0nN7xvZurnPVXZUYnTgBbdwTrPSLNvQFGOppUmbK+HIr7cJBO+/dS2eCA2aCJM8Q48uY58QIMAKMACPACDACjAAjwAiEGgEJVoshZOlrcMPqF65b3noe6nG5/1MegQgSZHMXo9369WZXpB5jwTa7Gt+paCz/4pysy5f5apd7Ijcp3infgMLsI5IkZfui1dbVNlWtGt136vnaskjKz3v/0hwhvLLgGknLwrwwAowAI8AIMAKMACNwiiMgLXjhR8tzTnEQePohRiAiBNmNBZ//K71n5k0m59oiy+4/NJXm/3H48MsbTbYRZPv3fxYb0yf7cUlyPIEFBofaXnpqcV8yuPfoz73UhqWYNLC4dT0HtcZCA5uROkzwMS37cnFUzsPCHA/KCDACjAAjwAgwAowAI3DKIHC4/AAcqdgv5rs2z6hbYoH2lLkQwjDRSBBkpYLyvTskCcb6mz+6vK4oqy9eMGnAeS/4o/VVn1++ZyZ6MvsQx0zxRUd1OOauzNSRp1HWH21n1AstLMjzaSwSWEl4ZcG1M5DnMRgBRoARYAQYAUaAEWAE/CGwNn8ZHCnfDyTgtiYWZv1hxvWBIRB2QfZQ+e4fOiTnB/7YR4GySgbXzKzUsVv90ZqpP1S+a5IEUatRmE32R++WW67NSh3zoT+6UNfP++CSVShOz6Rxrpt8LwuwoQac+2cEGAFGgBFgBBgBRoARCAgBEmhVDS3uo33h2hWzAuqIGzECXhBweCnvtOKG5nqhXfQzIFrRwhy7hFgai/oqryv5I2b9alpRe3ufH/5CXq0IsaR9ZSE25HDzAIwAI8AIMAKMACPACDACQSAwPfsy8c4qukBFjHiXDaI/bsoIGBEIqyCbV747MyGmx3gjU8ZzFGJfyuo10mh0bySzfD5x4LlPo0Mn/5pWSTpvw9EvTDuissyInwbCnJg1sX5Q4mpGgBFgBBgBRoARYAQYgUhCgBQw91/wYqsVIQmz5KiUEyNgEwJhFWSjwPkjnIdP82YZ5HKXXI2xZUOTqupOvk5j+Old6peQMdAPTUiqtXtiSRPLiRFgBBgBRoARYAQYAUaAEehKCCgOSdEQcr4IG9mVmGdeIxaBsAqyaNN7vj9kJBleHtprSqU/ukDrz8y69NOaxqpP/bU3w6u/PgKrb3XsNH3IZbwnNjAALbWqba6ErSe+hD1lay2180bc3NII+VU74EjNPm8kISuvd9XAthNfwa6T34RsjGA7thvvYPnh9oxAV0cgVM+co/gM21SyAk7UHe7qEFnmv6qxFPIrv4cdpf+Fwuo90NhSb7kPKw26+nOxCfGh356C6t1Wpm0L7fHag7C55HOoaa6wpT+znYTqvjM7flegU7bGEa8UeaMr8Mw8Rj4CUWFm8Wx/45fUHNvjjybY+iSIz8E+fIb/aXDVzQh2HKvt27SxQoClfQbdKbnczdDQUmt6StFSDMRGJZimt0p4qGoXrCv6GF9UvgaX3AwDEofD6F7TrXajo69rroJnt9wKda4qUT693zXwg6Gh16qT0Lz2+L9he+kqaHY3Qlp8BoztfY6Ot3CfhALvcM+Jx2cEwo2A3c8cejmn58i6ov/A4ZpcMb0fDrkP0hIywj3VThl/58k1sPrIYnXuyqDoNwPO6HcFXJRxK/SISVWKgz52h+ciCeHPbL5Z/X0/M/1KuHbYr4LGxlcHze4m8du9Fn/DC9uE5yuy7oLzBs721cy2OrvvO9sYi8COSJilP/RmPIPecTnObAQuUhdjKWyCbF7xjnR/4W/qm2sOT8k4/+1QYzo4/bSDe09sORIfnTjI21jx0Qk9iOch6acVe6Oxv7xVGzsodbj9XYe5x30VG+Gfe8xbjIdCCHTLbthQ9AmsxZe0oro82xGhF0BFiKXON5YsA/pxjXbG2j4WdUjaEhJgj9TsDUn/wXYaaryD5Y/bMwJdHQG7njmVjSfgv8fehc3FK6C+paarw2KZf4xUAP/O+18hwFPjxKieoo9aV6txmBvcom5X2Xdwz/iXICW2r+UxlAbd7blIFk3aj9Sb8XfpyuyfQYwzXpmybUe6Ttcce0/89tW7qm3r12pHdt13VsftqvRkYny4/EVUy8qdriDqqpgx394RCJtpcZWr/DrvbLXWuGU55NpYhYe4qIRVSt7b0QzP3tpaLdfuH+hu2ljCIitpHPzP2OfgssyfovZzmEd44pyJov72MU8JAdAjURCFMgqynxz6K1Q0FuNGbZ9btQMahfjXphhHHGCoKW2RrfnPC96AkroCnEnYbmuf8wk13j4H50pG4BRAwK5nzqHqXfDNsfehRXadAqh1nOJ/8v+iCrGzBs6F/3fG++LvzH5X6Yirm07CmqPv6cqsnnS352KsQWCNcsSE7HePTJdJkHWhRjacya77Lpxz6MyxFa0shZPUvut2Jg88VvdBIGxvvKnxaYf8wZgQnWjPRkV/A2F9bVOl2x+ZGZ799WG63gEziZb2xnbHlBCdDENTJsHMQXPg7tNegD7xHZXht435g6gfmTo1aC0mmdvuK9+kg9LpiILHp7wDOWf+G64eco+uzo6T0/qcB5lJY0VX0Y5YuDDjFqAxQ5V+NenvsGDaxzB7+MOhGsJ0v+HA2zRzEUboCasIY5HZsQmBUK+1Xc+ccb3PFc/F303/FAb2GGHT7LtGNwW4zYQsWyglxfSGCwbfAhKaj9HfD4bcC+N765VIipbWzOw8rX+of4fM8GUnzYQ+s9RrJkqKhgsybgISZkORxuGWmflnfgS/n/4ZZCefFoohTPVp131narDuRtT2rtvdpsXz6TwEQvdW7WcOlQ0nz0hJSPNJhZqlVjsen1T2VPaISdnuryc3yD380dhWTyYXsm29RXRHZHI0JHk8lNYfUfmkMjt/mJbuewoScS/TiNQp6hiUIYGa0oiUqeJo5z/04/3z8S/CyfpjYpz4qNBePkr/w1NOt3MaAfUVDrwDYjQCGnnDKgJYYxZsRiDUa23XM8eJliPK82QkPhvJ0dOpkmifJUYyENPtnzAEojVCmENywPUjHoXa3ZVwsHIbkCZuWr+rTUPjbf1D+TtkmjmbCGOccXDvhFegGK2DkqJT1d9Ym7rXdUMWTglRSaJsROoZwrGijqCTTuy67zqJ3YgYhs2LI2IZugUTYRNkkxN6+xUcZUmO7iyUaSx/5qXVjWWd/ml6UEr32x/raU3jDEJegrP1x8kTrdWyveUboLi+AIb4cMqhvLRZ7dsMfe/4AWbIbKMxYmlbxyY7CjfeJtmMCDIzWEUEo8xE0Ah05lrb+cwJ5bMxaFBt7qAF98bmlq1Te02O6aXmlQwJLf8z7nnx4TUpupdpJ4Rm1r87YZ2ekKlA1inHBGdoPxSbmYSd952Z8ZiGEWAEAMImyOLvRQ342S5Y21A1ubMWSXJDmr+thWhmtL6z+KG9AzQW7SU4FRKZIGkTfdW1I5HXzc8Oveq3K6cUtlvBL29WCUK5D9cfL6ci3v4w8VZvFitv7bm86yDQldfa0Y2ejf6umKqmUp1zKxJavSVP22G80Zpd/+70O+QNi1CVO0K4bSdUPJ/K/arvtm3vuqcyFjz34BAI2x7Z8oaSjpsiDXNJjO3ZaZ/YaptrzjUM3+HUDM8dGgVQ0Bp2J4CG3aqJPc6Xlh54xpRHYjIZ6y6JQkOEK52KeAeKtVmsAu2f20UOAl15rbvTs9HfFVHTVK4jsUuwNLv+pxLWOqBtOAnn754N7HMXjAAjECACYXvjbXBHv408+9sFevbSpUv96G0DnLmmGY2REJM0UlPkKSu38eypzrayttix86nD7uroyTaw/HS0svCf8H3paj9UrdVmPf1SWIZAErUz09YXja86LU/klCQcKZLw1s6fYhbLsr9HjbZFYHlP60Omip6SFay07WkM4zg0NyvzCxYP4/jEn7d5anmnfDBtjX11lfNA11qZX6CYUTtPbZV+vR2N7cw+G731F+z15q3fUJTXu/ShhuzQRltZf7NYB7KuRrw6Y12M15KRBzvPJRMfoynUUaiT1Tl7Wkuzz9NQz4X7ZwS6AgJhs6c8K+Os+sKK3AMYSMrrJlCKMzv1gtMuRCBXhBJMGoPG8jVGg6vuKPHsiybYulY35K2xY0mI7Y5hd4LFyEz7qsZSeP/gnyC3vH2vE7UrbyiCLw7/S+2CPAnPMBEwnVz8b8PYeAcqtkBJfSEkRqcAOVS6ZPDt0Cuun9qfMUM/ULnl60UYh33lG0WbO8Y+bSQTQsi+ik2wHmPa7sG4hKN6TYdbR/9W0JGTlVVHFqMTi++hprkcQxUNh1Ho1GJq+mU4dv8OfZktoJizFY0lXskHJA6FMb3O8lqvrYgUvBWemlrqEfNPRDzdozX7obThCFDoo36JQ0Sop1mD5gYV91EZh44bij+DrSVfoNY/X8QMTo1Nh/SEbBiIIaUqm06I+IaPTVmM47U6tgsEKxJSD1ZubYtb+S32PRzumfAyUF//OfSKuMZofz95U7048yeQjJ5WtckOPKzOUzt+MG21/ZjJE1a0F5HGpNjQtc2VIvRHWnwGZCSNgoweo4A8nRpNRsvw2bDlxEqPQ9BajsZ7Uknk1XZ/5RblVHec0vcS9doKZK2VzgLFzOwzRxlHOeaWrYc8fMYUVO0U9w3FSSXMhiZPhB4+fAso7bVHO643bX/+8oGuudKv9lmodThI9YX47Nf+ZlDZdHTulBjdGleWzr2lYNbfU5+B/g4pfXXWutB60O/ZOozPvqdsLWQmjxWRCRQ+PB2DXUNPfSplFGv266NLYXfZt+I3LyEqWfA0LGWyWEs7tuJYve8Cvb+VOfGREWAE2hEImyBLLJTVFlf3SvQuCBCNwyH9HA8hFWTbxqDhvKZYR8Iyr5U2VAgh1iGvoq5YiA0O0L/suA/KG4s6dEJlKwv/oZZTkHtfgiz9uH5xeBF8icKv4sWSGtc2VwjBNr9yO/xi/EvQs01IUTqmF5gNJctgQ9GnQphRyo3HGuxnU/EyFGA/hbLG42p1Hb58exv7WO1+oL+N2I7GTo1LV9tZyeyv2Czm4KkNeeI8DwV8s4JsuPHWzoEE17f3/l4Ir9ryJneDeCmlF9OtJ76Aq7J/Lj4GaGms5Clu4Ru7n4ADGoGGhNhq/NhQXl7c4SOK0rcVrEgoopds+sBxsuGo0oU4lmPs41e+vxevr1K1fCNec9HOWLhmyC/VsmDxCHSexEAwbdUJWMiUNRyHRbnz4XjtwQ6tCjAuKv1RImH2llELIDm2j0pHnmm3lKzsgDMRTE2/XCfIFtUdwtih70JDS63aXskM6zlJFWStrLXyHAoUM7PPHIVP5djidsEH+NFvU8lypQjIY7wLPwYV4zzpz0oK9nqzMhbRBrPmylj0DM6v2qGc6o7a60apmNBnpilBNpD1V8bQHr39Fvj7HdL20RnrQmbZdB0Zf8+0fHjK27GGnvqlMvqdeyv3t7p9zxQuaTd+MBZ/J7+DG0b+2tR6ehrD6n0X6P3taWwuYwQYgVYEwirIpiamP4lsvOtrMdBM8qqDpXunDu0zcqMvukDr8kp3nUFj+Gtf0Viqf5P018BqPQuxVhHzSn/OgB8BCS7NLQ3w1ZG3dHSkRVUSaWi8Jxk+yvuz+KrsjYaEiJUo6P542AMqSVXTSXhy01zUZ/g2YaKv43/ceD2aZLrUtkpGxrZL9j8lBC6lzHisbi6D5YWvwdwRjxurTJ1TO/pR3XlyjaAnjd55A68XX6itCsfhxFs7WdKMvnvgWYFp77gBcHX2PTAIY2AW1uyBNcfehzwMl0GpsaUO3jvwHMQ6E2B8nxnaLkznVxS8rgqxF2XcCmegsEOCETl1WX10cYePH0rHVrD6g7g+mpWm6pGumX/s/rVOiFUqSRupJDvwCHSexEMwbZU5mD0ers6F13c/JrTi1GZK30vFtdy/xzAors2HFYWvC8011R2uyYUXt98NN49egHGex1ARxgvtBQ+fvgiqm8rwA8XjcBQ/FnlLZ/a7AuiPwq+8tusRj/cwtbWy1spYgWBm9pmjjKEcyYz2zdwF6nVMGtgbRvwaBiBmhMPXR5fgffOeQu73aMf15ncQDUGwa650NbnvxRjqbbw4PdlwDLaXiu/J4rxXbH+YmHa+Qgq0Z5aeLWZSIOvfsd/Afoe0/XTGujTS79mmOV7vBS0/2rxda6jtU8nT/bms4O8+zevpQ+RL238B8ya9ir8H8UpTU8dA7rtA7m9TzDARI3AKIxBWQdZdfvyTph4ptfHRCYk+1kCKcsJfd+3aNW3s2LFNPugsV2GfMWiu+e+UqDSfmwpRMVeZ3NDU0SbU8oieG8z74JJVtFuYvLixObFnjKyUnjPgWkFOZoVaQXZIz4lwfsaNpro6VnsANZ8HoAfGwbsw42ZhFtzsbsSX8zdgT/latQ/S7pEGTIk1SGadl2ffhfHzeglNWl6V5yhTpPW4OvsXQpjaimbLeyvaBRAyIaM/0oyejXMZkTJFfDH+HLXJ2j2/20+sgmuHzDMd/kFlGjP01VwRYull7foRj0EWmoAFksKJt8IvrfVHeS+KF6n0+ExheksYUyLN8rCek+GVHfOENltp83HeS2JdrYa8oI8QJBhTyko+DS4cfIvSpdCIXjT4VsHHqiPkBkCfrGB1RdZdYt3p+tCaydN1SYniLPeMScMX79X4+Gj9cKLEQ7YDj2DmGUxbPWL+z5rwg9Xb+36vCrFn9rsKrh06T21Igtmto38HS/c/o34cog9Br+58EB6evEinmSWB9gwUUj88+ILa3ltmKD5PaIsBbR/wlKysNbUPFDOzzxwjj6SpUiwKaJvCPeNfhrio1p9iwuHK7LuFEPDt8Q+NTTuc23G9dejUR4Gda04foZS0F7eAaAXZcX3OhUsy2z9+KnRmjlbX31Ofgf4OKX111rqQEEhWLhT6jQRn7e+ZwovxaOcaGvumc+W+7BnTB+/T1t/QQ2g6r1hmKG3IGoo+2lw8+DalyNTR6n0X6P1tihkmYgROYQQc4Zx7dvasBpfs+sofD7h/dRKk1Zn/NOyvw7b6HgOdL6bEp/m2bSZaSV5MvJrs1hKZcO6E7sdJiL1u8r2W2jJxaBEgE8T7J70G0/tfAxRqoT/uG71+xKNCSFVGJq1maf1h5VQczx3wY/EVn8xzfaVp/a+GSX0vhAsybupA1jtuoHixpB/XrORxYr/aHNSikjm0kkh48aU5UuiMR9ov9MHBhaKY9lv+YsJLAQuxxr6DOQ8UbxpzReEbqqnnbFwjRYhV+KFwTjeO/H/KqTiSMEPm31bTMTRdVQRH0uCQ6Z8xkZaWXqCCSWcP+KG4ji7LvLNDN/1wH+7tY56EuSOfgEemvIkfW26BHwy5Dy7P+qmgtQOPYOYZTNsOk/VTsLzgNWFiSmS07pdm3tGhBe2Dow9OpIVXkvgwhdeNMfWJG2Qs8npu3I/sldBERTCYmX3mKGyQwLa/crNyKvb7K0KsWoiZK7J+psNMW6fN23G9afvzl7d7zf2NF876rvJcpN/JSWkXAPkgMJM6Yw1Px+0ZD53+L7hu+EP4bPwf+Pn4F8UHGrJA0qb/4lYB0rBaTVbuu2Dub6t8MT0jcCohEFZBloCubaxcgocWf6AnxSRfdahi7x/80Zmtp77wYXaXCfqW5qaW50zQWSbReiielt3+VdhyR9zAdgRI0/XTsc922DtD2jtyEqFNtF/RUzLunfVEQ2VGOtKQ/nLCXyAtIUPXxIkv4yPR0ZM20Rd3s4kErk/z/w/j6v5VNBmSPAHuGrcQtc4+/ZyZ7T4oumDwJgctikBKQgiZE3tKfeIHoiMkvXB5HB0CWU3kPERJ1fjyQ05NjMmJMQ0n9JllLA7onLRjxnTt0F+pwjrtzSUt8HT8MEKCnF14BDPPYNoa5+rrvMFVC+uLP1FJSPOeEJWknmszdO+Sox5t2ox7kI/X6q+BKEe0lsRn3g5HMcoAdmBmfJYofWuP9BxYVvCqWtQ/YYjXa5Wu4+GIqa9k1/XmawxtXSjWXNt/JOW70nNRwa1nbF8l6/XYGWs4Hvcyzx7+sGotpTBDwudlma0f/JSyZtyKRA4dA01m7js77u9A+eN2jEB3RiCspsUE7BkZF761p3jTzYmxSZf4Axql7scLyvcOOlFfffeUAVPq/NF7qt90bFNCghM+xL4u9lRvLMPf/DeH9R3bastnrAziXCvEkiZWDQ4dRJ/c1D4EyDNxbFS79kbbc4rhh7oZtbKekmJu7KlOW2b0oEpaHm/mrsaxab+nmUTu/N/b/6zqmZXMbW9ADaVZHs2MEQxNMHjTPitFQ0oeiv+4cY5XVqo0zpGIqKSuwCuttwqjFo72Uh+p2Ss0gVqh8/T0S1Fn7kbhuaMg6q1vT+XGWJbkuZo8gXpLduERzDyDaettXp7KydSerCKURObWvhLtW/wGzcJdcuveY3LiRk5f+qNH63AnOzAzcz+T91atQ6yhKZPAV8iu7J7jYWfZN17hset68zqAoaI7rblhah1Ou9JzUWHezDXYGWuY0WOkwlKH41n9fwBrjr+Pe8HbtbCl9Uc70JktMDNnO+5vs/wwHSNwKiEQdkGWwI6T4m+rb6474GevrFgXNDO+pW9C0lmHynbfl9VrzGdWFgvbXN7Y0vC3+OjEgWbaoRBb6W52PWqG1gqNVoglD8UsxFpBL/y0FLZHm8hE0VMyCiCeaKjMilYn3qBt8udUivqnvUiL9vw/dc8QeVa9eVSOpXGpn3Alf3iXGjz6Gum1fBvNRs1oD7TtKU9hfEjzSXuelETeOmmv6rR+VwqPz/TS0i8hS+wbU2gCPToM8RFJM+8r2YVHMPMMpq2vuRnr9hj2p/qzLqAPDQNRY6/dJ2fVM6+RB7vO7cDMzDOnsHqPjmWyAPGVnJJvDbVd15svHrR13WnNtfOymjc+54y/Q529Lgr/Zq7BcK8heXcn64zPNVsLjJ7hlfmYOZqZsx33txlemIYRONUQiAhBNrvv2KIdx9e9goLsgyYXYJjD4fx0+/FvjqXE915QXHGk9Iysiz7w1HbDoZXXxsf3OCs5NnUGmhJPiXe0OrPwRGsskyV4kHgzlgdzzrFig0EvMtpGGV7sPAU0J07NBGgXdIb9Or5maUXoVfqheKb0p6RaVxVQ2A2H07dApNCH++gPb23sR3K+c+fYZ0LKMmnLL864DT7BGK7aROZp5OV17fF/o1fbK8W+1YToZC1JQHkJrO0AsQuPYOYZTFsrIBnDbJm5P8gUWyvIUmzoSEh2YGbmmVNcr7dCIDyCSXZdb2Z56E5rbnbOnugi7bmo8GjmGoyENaQPjdpE/g4CTWbmbMf9HSh/3I4R6M4IWHtDCiESp/Wf9hB2/46VIVLj0wbgS95f+6UMfj/3xJZjhRW5y3YXb/wCj29RnsqormdsrwdIiLXSN/GSlTLy7xbb+CTnWLE+4ekylb7M8AKZhNHxRCB9WGlDZoXvtzl7stIuXLT+8Na+gFBMws5I5w78MYZdelCE4zCOR2ar5On1mS23wKGq1tilRppQntuJRzDzDKatWXwqGkt0pBQ2xl8ymuebaeOvT7vqOwMzozm9NkZ2IPOw83ozM353W3Mzc/ZEE4nPRU98eiqLhDVMjdX7+fS2RcgT/4GWdcb9HShv3I4R6KoIRIwgSwCWNzT8tL4Zgz4GkBKiE9E+Srq0R2zyBXi8gfKtZdY7Ix6IF+st/bTgWLF+AOLqUCBA8SEprqY2Udigb455NGLQknWJvPZDADneIm1zZ6Sp6ZfBvImvwujU6R6Hq3dVY2zTR8FoyumR2MZCu/EIZp7BtDUDidGkj2I7+0tGQdafObK//uyuDzVmWqczxLs3Z3Vm52X39eZv3O645v7mHEh9Z6+LFR4jYQ2NptlGR4BW5mOFNtT3txVemJYR6A4IRJQgO6HfhFp3Y8K5uDe189UYbatJYxMPxIudCyxixWKHHCvWTlS5L7MI/GDofUChdrTp0/xXIL/ye21Rl8z3Rm/ESiIz743F5rbOk4BJMQ+DSX0TBsNtY34vvD8P8uBchJxxLcqd7zFETzDj+mobCjyCmWcwbX3Nk+rSMCyWNhlNFrV1St5oBpgSpGmt0i8dg9VuKn2FErPkWL3n7govXtcVXoxHY7CpUFxvxjG155G25lreIinf2etiZe6RsIZGx3+BxlG3Mm+FNpT3tzIGHxmBUwWBiBJkCfTRg0afBKkRhVn5u85ehNrm6l00tuDBxsE5VqyNYHJXASFAXhVvHrUAQ5O079kkR1Fv7v0tVDX612IFNGgnNSKNszatPLxI54hJW6fNf5z3EiwvfE1bZCp/tGY/vL7rMahDjauShvScIOL+UqzfeGcPpVgcyTNmIGF+dJ1YOLELj2DmGUxbC1OFvvGZOvJ9GB9V64RLV9l2YjQl7ujdVB9j0tseeE99W6E1tu88zAbrhj5QscXShxbjHO263nRM+TgJzZr7GLCLVnX2uliBKRLWsELjN4J4z/Lj8dzK/DzRdtb97WlsLmMEujMCESfIEtiZKePL3RXHL5Dd0B7szuQqNLjqTVLqyWisuJrqKTS2via4M62HYo4VawVL43d/K20908qorTuVU2pcOswd8QS6lmp/Ua9pLhcaQ20IE7sw6iy8jS9sNKdlh/7u8+X8+9Kv4XBNLoxImWp5unXoLGtvxQbYffJbXVvaszYp7QK4b9LfwGi+ml/lW/NtJ1Z24RHMPINpqwPVz0lG0igdRRM63Pr+5H91ZcYToyA7Me18HUmMwSu5kV5HbDgxCnmGanHqba07C7O0eL0gSx9ZdvkIr2Ocg3GOdl1vxnG8nYdizdvHMvzuoImW3cnb+ts9TmevixX+Q7uG5jgxWiNlJ40z1zBAqs66vwNkj5sxAl0WgYgUZAnN7OxZDZm9Rv4PmmrNRu2s6sFFK6g2otBKr+T0R3lKcVHx4kj/eKqncm0f9a7akzQGjUVjUr1dSSvEcqxY36g2akKZEKXL3Rrn0Xcr37VGE8La5ipdg5P17V4KjWFslLikugZtJ8ZXGxm/gnhKxnK3Fzrji6Gvscl4UZuMY1Ad3i9aEt35iNQpcNHg23T1JNB9cPAFXVkgJ+HCm8IJGcMSfVf0EQrov8FnQMc4uwcrt8GS/U+JKY7tfXYgUxVttp740mNb8gJ7dfY9ujrjmljBymiuarxXdAPhid14BDPPYNoa5+XpfFLahWD0uruxyLtpOcVTztWE7MlMGgt9DObJsc4E3VAUm9i4fkRA8VPpg4g2Nbg67kixstbUVzCYGZ8Hnp45wzBurDGtLFwEZp3dNLTo52j39WbkzXgeijVXxjD+7jSYjNOttPd0tLL+dv4Odfa6eJq7t7JQrqG3MbXlFY0n1JjqVD41/XIwmtxr6f3lzdx3Sh/B3N9KH3xkBBiBdgQiVpBVWMxMGfWuw+G+s8FVV4iapBatoBqLQiu9stMf5Y3JWz31QUIuvu9/29xU9yqNYWwb7LlWiOVYsf7RpK+V2kSOcoJNxhfSE/WHQQkVse74x+hV9mbYU7ZWDGM0RzTG5NPyYhQ8vQkWtD9Sm0hb5ClpTVSpvslLXFqqMzoyMo5BNMYy47jnD7oRRvfSOyjaXLICVh+x5DSchtKlcOFNIW4uNgjnxNjusu/g+a23w/sHFsKGok9hA+6d/VduDvxt5wP4oaQJMnqMQo2sVWfm7VM+ULkF9+Muay/Q5IzCkVEDYQUr8oKsTSRYkUDmLdmNRzDzDKatt/lpy6Mc0XDh4Fu1RXCoeid8efhNXZlysuvkN2ooKgprdM0Q/QcHoktBywVt7FTyhG3cd03X0l/xOjI+t2hsY7Ky1tQ2GMz83fvU/6jUMztc90WolX1154NQ21xJJGoqqjskQkqpBZg5VKWfo93Xm3YsT/lQrLkyTq1LP/86Ax4KnZWjlfW383eos9fFCiahXEOFj1If4XQofmyL3OoUsC9aKFyd/QulWUBHM/ed0nEw97fSBx8ZAUagHYGIiCPbzk577nD5npkgOeejNmImKZjiohJsc6RBo7QJvmcnJ6SdXVix99G65trV8VGJX2emjsxp5yKwHMeKtYYbCYL7KzbrGtW31MC+ik0dXrh0RH5OnJITyBOh4tSBNJ1/2nqn0MAU4wtaYnQKDEVtHiWjZ9mKhmKxBzIhKqnDKEYz0SM1ezvQUEGBIfQKhb2od9Wg9lC/h/IwOh3SppP1Rz3SEc3Bqm1aUuQ7V3dOJ4UGx980/yrcp5kc01vQkgnsdcMegqc236jbT7is4O+IkAyzBs7FGLjt5scdBvBSEE68p/W7CtYXfQJFdfk67ih+7oZiEmI/1ZVH4Z7h64c/CmbijuoaGk4+yntRrOe43ufqarZptLVk4peZNEZXbwWr/Mrturb0IeUA3i8jU8/QlWtP7MYj0HkST8G01c7JW34yamU3F6+AvKp2nOhFlTS1k/tepDYjAeyjg39Wz2cMnA0De4xQz5UMrc3QnhPx+bNRKRLhqlYfXYIO04aJ+4vCh5Dn1Z4xaapgTMQUQ5hMFssai+CXE/4CveMGIJ2555A2tm2gmJl95pDFwMJtd4D2oxyN/+L2n8HEPudD34RMOF6bh/fUf/DDmv4DHL2Iv7j9brG3/tphv4Ixvc4Cu683FXgvGbvXnIYhLLT3LZUdqNyKz8gGiHHG0WlAyez6U+d2/w519rpYASgUa6gdn65d8tB93fCHQPFMThYKHx78E9CHW0oUi/eGkb8Oan2pH7P3HdFSCvT+bm3N/zICjIAWAaf2JBLyJMDe/9h9b8iSlIP8ZHUWT9HOmCx8d595x7wbcx554mHphadfWh3I2NpYseSh+JIxNwXSTbdvQ4LVXnTMshs1oh+iWWtFkz4eJAGw8+QaKKkvFEIdvWT0NHjbNANSAwqOWsGTTLdqmivQHN0Bc0Y8BvRCuq7oY6HB0WphiW5vmwmiG7/cOvC/baVfCe0EaXW0iYRimk8NxrDsnzgUX4A347y+hWUFr+HLUetXX6InzRqZtZJpXmJ0ftVyCAAAQABJREFUTxS6DuF+vq9hReHraNbXqHZJX4rpBYqEScqTadq2E1/Bf48uxb1s+n2ZJfUFYj70Jf9o7X40S/wCvkAzQU8vn7Q3thlfymivLPFBHw+MX5IP4rh5uJ+Tyik8QVJMqsqXmUw48CZ86G9UrzOhsGo3ChalPlmlec0e/giQg6ZAEmnotpxYKZrSdfl96Wo4UrNPfBSga428QdO1QinOmQh3jn1GfZEShW3/+MOKLAi+O/4RrEJNufb6oOY7cX9udXOZuDf6Jw7RdivyduARzDyDadthMn4KaK7jep+D1/RW9aMVNaF9n5tKlguBjD5krCz8BzS6W7egXDDoJrg06w6vPZMH040ly1StDRGSlUgx3m90/9IL8M2jcsQ9SmuvJPpYRlpaEu7I6iHW2Wop5G+taQ2Dwaz1Wer/mUNaOkr0/OmXkIXPuA04x3aNP82NtMr0nCms3i3mT2b7xj305MAsG53jjE+bJa5tO643BUMzRzvXnJzwkGXOcnxe0zWkTfTMzi1bJ4qqmk+Ke1z5IKil85f3t/6h+B0ijDp7XQgHulZWH12sQkJewaemX6qeKxk715D6jHXEQ0ldIX5EUneiAVmv0DOUfuvow/in+f+nfgwmh1M3j14AnrzNKzz6O1q574K5v/3x0VXr1+a3WjStW3pwQVedA/MdfgSsq11CxLNWAxuiISx3i5rgBVY1tPPev4QsnTskEmoHpQ4X5YNShoswPB2ITqEC+vL88vcdzfq8QXDugB/Dldl3e6v2Wk5729478Bx+gf0cdY2te1lTYvqiSeEvYUzvs2DRnvl+HZ2cgftnJqITHzJJ9ZVIaPnNGR8IOk8mhtq25HSJ9tf5c7Iyrd/VwoHQKzvu0zbvkCdTSBI6jYHmjYQ0j7noWffN3N/CDhSifaUrs+4GCuBuJYUDb6ej3bCETK+Xo2Z5zbH31fXW8p+OL+83jvwNpKPGKdCkXLskzJCJr3JdGfsjYeaKrJ+hBcBAY5U494fVKzvmoRnnDo9tlcJ+CUPgV5NeVU47HIPBI5h5BtO2wyRMFtBcvzryFsZHfl8Im56aDUbN+KxBc4Wg6aleW7alZCU+O57XCXpUT6aIc1GLMwA/WtFHuHWo+aFEGuAz0TKA4kQqGiBRgf/4W2uiCwazV76/TwigyniejvTMMTq2oq0W/8pdgB/V8jo0IQ/n1494FOO7F6MGqVWTTWVT+l4C0/pfLbTNxkbBXG/Gvsyc27Hmn6Bws+bYu2aGg670O9TZz0UFQLI6yll/jXKKHzzGw89O+5N6bszYsYbaPvPQgmVFwete7wf6rSRrjAsybgKyzAkmWbnvgrm/g+Exktsu/PJewd4LP1oRMbJIJOPFvHlGIOwXTyQKsEaorAi0rXtj23qQ5Bn4ljvT2J/2nAVcLRqhy9OPKzlnadVEZIP2Rz50o566PYcbbzIHPFZ7QKx5DxTwyRkHmZGSma8DNRXBpgLUVvVPyBamyaVoCk6WAyQUpMb1E1ositnrSVPqadzOwCpQPIKZZzBtPeFktow0QqSBoXUhk1DaukCCJa0HWUxYSSTE5ZavE5p10uYOTZ4IaQkZahc0BpkwDkFTZDL19ndt+VvrcGFGju/ItJisNmhbBwn8hBWZxdJ1TXuCydx4Qp9ZaKnh/+U/0OtNBdZixs41tzi0JXJ/62+pswCIO2NdaI5aQZauGTLf9ZfsXkOyvCpC83jyyt0jKgWa5SYRS70fPrfD9fsfrvvbH/bhqmdBNlzId69xwyrIFpTvzUHryfldAVIrwqyn+bSaHLcJtRYE3OnZl3nqjssYAUaAEWAEGAFGgBGIKATIeeGC9T9QeZo5cA5clvVT9ZwzjICCAAuyChJ8DAaBdpu8YHqx2HZN/n9mZqWOnE+OnCw2DRs5Cdz7S7fNb2iuXXBa/7NzrDLywnXLV2Mb+tMlbwLu4XLUJuEfC7I6uPiEEWAEGAFGgBFgBCIUgRZD6DyyUuHECDACjECoEOh0QXbH8W9zesb3ISHW1jlROB30bLyaOq1trkET0h4YL7ZupqewPIEOTH3h33zUJIPVvbPexvQq4HrZa+utHy5nBBgBRoARYAQYAUYgnAgYY/HSdg5OjAAjwAiECoFOFWTtMiXGfTyrK+pPfJ0S12t1Ruro1WbAIS3w4JQRM+tdtTMSohNnmmnjjYa0s3YKs97G4XJGgBFgBBgBRoARYAQiDYF95ZuEd2sSVMkhohKiSOs1nvwSUCgrTowAI8AIhAqBThNkgxViSXgFuWWBWcHVCNi52VetxjL6E4k0w8lxfdA9fWB7dKld7oktM0alTZ6l9MlHRoARYAQYAUaAEWAEujMC5OTstd2PqFPciM7Abho1XzjT24IRApR0yeDblSwfGQFGgBEICQKdIsgGKsSSuXCge1L9oaXZ55oTKH+k2UVhdhULs/7Q5npGgBFgBBgBRoAR6A4IUMxybSqqy4c/b/sZZCaNxli820XVlL6XoifvqVoyzjMCjAAjYDsCIRdkAxESAxVgKZRPrat+Pu2Pdcvy14SWmb2sbTQBCbQszNp+TXKHjAAjwAgwAowAIxChCIxJnS7iJpc3FqscNrsb4EDlVgzPFAs/GHIvTEm/VK3jDCPACDACoUIgpIJsIEJsXXPt6kA0nDSWjOa+KFiiGymZTIZnEmiFFXvnV9aXmvI0HKhAS8IsjW9GaA7VQnK/jAAjwAgwAowAI8AIhBqBaGcs3D/pddhd9h3kVX0PFAO2d9wAGIR7Ygf1GCnitYeaB+6fEWAEGAFCIGSCbCBCrFmB07h0/sYiL8no7Gl12z5ZY/MO5ySQYp+W9s/Snllqw8JsBzi5gBFgBBgBRoARYAS6EQLk3Gli2vnirxtNi6fCCDACXQwBRyj4JQ/BVpwokSOngvJ9szT7Vk2zZXYsiltrulMkJIF0cMpIiTTEZtvRnMm82Sw90zECjAAjwAgwAowAI8AIMAKMACPACFhHICQa2bQeA00LjYGaEitTpZA6St7XEc2NTdEZ+yAzZ3LoRObDxjpP5w0tjauwXPJUx2WMACPACDACjAAjwAgwAowAI8AIMALBI2C7RpbMfM0KfcEKsVanH6i2lIRZs5rZ2Kh4IMHXKm9MzwgwAowAI8AIMAKMACPACDACjAAjYA4BWwVZs2a+xJpdQmy9q3aGuakGR2VFmCVBPlChOTguuTUjwAgwAowAI8AIMAKMACPACDAC3R8BWwVZsybFdgmxnb08JMzSfl4z47aZGJshZRpGgBFgBBgBRoARYAQYAUaAEWAEGAELCNgmyFoxKT5Rc3SBBR4jivRQ+d4FFOfWX2ITY38IcT0jwAgwAowAI8AIMAKMACPACDACgSFgmyBb3VhmysGTLMMCs2FwAptSaFsR7w3NtaYEcafkmBlabrh3RoARYAQYAUaAEWAEGAFGgBFgBE49BGwRZHcc/zYnOa6XX/RIiO0OcVYpTJAZ50+kleW9sn4vCyZgBBgBRoARYAQYAUaAEWAEGAFGwBICtgiyyXF9TA3aHYRYZaK0X9aMiTFITlOaaqVfPjICjAAjwAgwAowAI8AIMAKMACPACPhGIGhB1qynYtLG+mYl9LWHKg7YOogZE2OKX8taWVth584YgYhFoLqpDLaUrIQDFVsilkdmLLwINLc0Qn7VDjhSs88vI8drD8Lmks+hprnCL22kE1iZd6TPhfljBBgBRoARiAwEooJlY3DKiJlm+giVNjYxKn6BDGCKB7v35pKJ8f7SbfPJhNhnatXKrvZJw5WMACPQZRE4WLEV1hb9B3aVfQNuuQVGpU6DYSmTu+x8mPHQIFDXXAXPbrkV6lxVYoDp/a6BHwy9VzdYs7sJdpR+jdfTx1BYvVvUXZF1F5w3cLaOriudmJl3V5oP88oIMAKMACMQGQgELchKEvg1nY0EbWyoeCCtLAqyPjEgrSxpru0WpCPjEmIuGIFTE4EWtwuFjX/DOhRgT9QfPjVB4FlbQmB76SpViKWGG0uWAQmp0c5YqGw8AWuOvQebSlZAvavaUr+RTuxr3pHOO/PHCDACjAAjELkIBGVaTE6ezEwtVNpYGjsjdfRqM0JqqHggrayZvbJZKcPMQMU0jAAj0EUQaHY3wrJDr0J5Q1EX4ZjZDDcCcc5EHQsxjjhwSE5RVoDaVxJkXaiR7W7J17y721x5PowAI8AIMAKdh0BQgqwZJ09mhMxgp0tCqrdxJJBWS7J7VrBj+GofF5Ww2lc91dW66n1qbf2153pGgBGILATiohLh8alL4PfTl8EFGTdHFnPMTVAI0P7VfeWbgurDU+PT+pwHmUljRVW0IxYuzLgFnI5Ww6hxvc+B+Wd+hNfTZ5CdfJqn5hFZZgYrX/OOyEkxU4wAI8AIMAJdAoGgTIvrXbUzEqL1X5iNs65qKDUWheSchNlv8/8Dg1JGoFlW7QwahPbPksY2JANqO5VbFoCfmLGJ0T20LTjPCDAC3QCBxOieYhbDU06HLw//qxvMiKdACCzd9xQkxqTCiNQptgIS5YiBn49/EU7WH4OE6GSIj2r/XSDNbEJUkhhvROoZwiGUrYOHqDMzWPmad4jY4m4ZAUaAEWAETgEEghJkUYid6Q8jMr31R2NX/dnZV3XaWFqeSVgurNirLeqQp32yHQq5gBFgBLoFAvHOdoGkW0zoFJ7E3vINUFxfAENQkA1V6h0/wGfXCV3kerKKlb95+wSFKxkBRoARYAQYAQMCAZsWk/MiQ18dTuuaa1d3KOymBWTC7G9qHIbHH0Jczwh0TQSUfY5dk3vmWkGAQsR8hvuew50cbebG4ebD1/iRgpUvHrmOEWAEGAFGoHsjELAgaybsTnxU4tfdG7722VXUn/A714qGspntLTjHCDAC3QUBFmS7x0ouPfAMFNXlhX0yDgj4p7nTeI8UrDptwjwQI8AIMAKMQMQhEJRpsb/ZOCRpxuGKfav80XWXejQf9jmVlPg0sXfXJxFXMgKMQFgRoDiwEgoSEsYWM5vQIsMsaQc6Gs8oCLdgmbPNm22HBhFU4JbdOHP8zwJWoWDfE4bKOL7qFBo6riz8J3xfulpbZCpP/VPSrqGM3gcp+cLFUzvRSLTzL8gS9g7JP53Sp53HQLEiHnzNW8ujr3XzVaftw1c+nPj54ovrGAFGgBFgBMwjELAgS0KqP8GN94WaXwimZAQYgfAgUNZwHL4+ugSO1uyH8sZiqGkuBwqLkpE0CgYnjYGs5HEwKvVMW5nbUPwZbC35ArV/+SKuaGpsOqQnZMPAxGFQ2XRCxBJ9bMpiSIlN8zguCUq0P5H6IQ1ibXOlEKTS4jME3xk9RgF5wSUnO3YmevnfduJLOFS1E47U7oOi2jwhyPaOGwD9EofAzIFzYECPYX6HtIN/6mNfxSZYX/QJ7Cn7Dkb1mg63jv6tGPsoeh1edWQxOkz6XqzngMThuIZnwNT0y6BXXH8df1WNpfD+wT9Bbvk6XTmFVfpC48CLvAzPGDhb0NDYByu3ihjCu8q+xXUbDvdMeBmor/8cegX7Wi9wGd97Blyc+RNIjukt2pEARnUUe3hf+UYgJ2F3jH1aN66vE4o1+/XRpbAbx6xoLEHnUMmQmTwWhqVMhun9rtYJ02XI/5YTKz12R9fZaMRLSQVVu2B/5RblVHec0vcSvA77irJAsKKGZudt15rqJtB2Qh+H1h7/t1i34rpDQPc93R+9YvuJa/fs/j8UWHpqy2WMACPACDACkYlAwIJsZE6HuWIEGAFGwDwCywteE0IsvWhTIu0iCQd1rip84d0m/qicwqRcNPhWygaVKEboG7ufgAMaoYGE2GoUnsvLizsIU54GoxfwRbnz4XjtwQ7VBdW7gP4okTB7y6gFkBzbpwNdIAUVKEQt2fck5FVt79CcnCPR3/bSVXBG+uXww6HzdEKVtkGw/Nc0V8Cm4mUowH4KZY3H1a7rUJgnQeiLw4uEB2nth9ZjtfuB/jZiu1+MfwlS49LVdn/ZcR9+wOgYC5jKVhb+Q6VLjOoJJNRtKlkhhOeTDUfVOsrQR5BXvr8XP0SUquUbS5ZBtDMWZg2cCxswvwF5pg8VgaT9FZvhrdzfQn1Ljdq81lWJQu13rX8nv4MbRv4aFE/a0SikbSlZCUY+qfFUXCOtIFuEgt2ao+9CQ0ut2reSGdZzkirIWsGKhH4SfM3M2+41VXhXjoerc+G9A8+rZuPpCVn4geo0sRbaa5fKtTFvSeM9DT8QTEw7X+mKj4wAI8AIMAIRhEDAgmyDq25mbFR8BE0l8lkhzCKfS+aQETg1EFh95B3U2r2tTnYGahPPG3gd9IhOEQLsW3t/h5rOClFPwhFpHSf3vUilDySzouB1VYi9KONWIfSRoEmOc1YfXdxBADOOQS/kr+9+TAjaVDel76VCE9cftaDFtfmwovB1ofGjusM1ufDi9rvh5tELMHbpGCoKOJHm8+3c3wkhioR9EuxJu0layp1l38AHBxbixopWc1rSEsdjGJnLs/6nw3jB8t/UUg9//P/sXQdgVdX5/142gZCEDSHsKcgSRVyAe7QuVNC6q7V11/VXa2toa2sdSK1aR511o9aNOAqOCgKyZG/CDiMhJCRkvPf/fic5N+fet5P3kveS79Nwzz3rnvO79yb3d77vfN/8SVTtqfLq20Nuemvtg7Ro95deZTrjQOU++iz/ebp4wL06i47rNpEq3OV8D8rpv1tfs/KROK3H1dY5NPQPqGtXWnk6gfG8tOI+G4nVZdCcz93xIY/OrbPCPmJRZcbmf1lmub46wOLIE0tuoFtHPkepia0oI6Ud3XXEK3SgYh8vntxL25jI+5MxXc4i/OA6zy//P5/4om04WBVX7KW/Lrg46LyjcU/Nee4u20LPLrtd3WM1h64T6azev1Zm2VhYenvtQ2oBBmXQ1DqlG2uvhcg6UZFzQUAQEARiA4F6E9m0pPTZYjoc3k0EZuG1kNqCgCAQDQQqmLTMYiKrJTOlI5OWqyix1lts38wRdGL3S+ijjU/pKkq71RAiiw/2b7e/q/qDNujkHpdbfUNrB40vCJFJrq0KnMCYX1/zZ4vEjunyczqfNZ9aYNJ7xeA/qQ9zTeZA3J5bdgfdNeqVemtmy6pKWBP7oKUJvLD/XXREp1P1ZRUZX7lvrjJ31ZnfsHbvxO6/oLSkujjjkRh/ChO0s3vfwEQtnQnrV7S6aJ6+JGuiV6gfaNSO7XY+DcgarbSTn7NW1dz7umT3LDq/z62UmpSu2h7HdSEwzzaJbB88A7m/UGX6n7N6Xaf6xLVNU+TtpetUld58X/EsLeG9tiDWkAFZRxLCzmQkt1OaXF8abVUxwD8wR4ZkpnRgc+SaecG8W2vfdVNoqGEmf2qPK3WWIrRHMUn9z/ppVp6/BJ57mDvr6znrhYMV2p7Z+7qg847GPdXjrnJX0uurH7BILKwfsMCi9xbDtHhiv9uViXpZ1QHdjLqm96EebLKdyP8NYRN9EUFAEBAEBIHYRKDeRLa0soQDutd9pMTm9GJrVG6PJ6hn49gasYxGEGieCMDc0jSj7Mr7OzWJ1TPG/kaTyBZW7NJF9TpuZ1NgTW72lm9XZrBOZ0DQ0i4s+NynZg9m0DDLheDj//Sev/QaBxwOndPnJmVqeqj6oCqvdB9iTe2LdGH/O73qh5IBTSD2DUNgrmySWN0e2jzs29SCecJctReTAS2RGv/RXc9WXWKvq0lkkdk+LYeuGvwAdUzP1Zelyax9XV+0iGCGC8HYoJ3skzncqhNq4thu56mqXXg/s0lkkYm8qw/7a8296XUNmz9/xtr9bMbrFJWHOiDg9SGyaHsEmzXDZBsmw1q+3f4OfbLxaZ5TjTYc+VhEOJoXOfS+XOR1SOuOQ0hitgupQYBKx3e7QJUGm3e07inIPkzKtRzeYZzXew7t9XFdz6cvtrysq1Em7003F4msAkkIAoKAICAIxBQC9XZ52Dqp1ZSYmkkcDKa4vG7vVBwMV4YoCDRbBDLZeY3pZbZdqt0BECbeJiWbjWjrvBHD/LchAkc9Wg6w2SUc/jgFZHp4hwnObCqvKqUfdn1s5ffLHMV7eTOsczPRKqmNMjc2837kfZ072DFTuAIHWPPYmZKWk3Iv00nbsW/bEWpvsc4E0e7KxE5LNMYPsmEK7uFNw5+ykViUw/vzQHb0ZAq0rw0RmO065fy+v7UIKzR/0LCPZdINLLQ4x6zzgx2HdRhPF7Em3CSxaAOieEbPa23NK9lMGg65TElKSDZPA6bN9yJgxTAKQ523s15D7+mmA8tso8xK6WQ71yfQQpuylZ2FiQgCgoAgIAjEPgL1JrK52YNns18NIbMh3mNgdXjXY/NCrC7VBAFBIIoIgARinyccO0HLOKbLz7yuln9gJWtv6giAr32ZXo0CZDg1Xe9v+DtNX/uw2sNoNjui8+lqL2JbgyzBNBb7+bTAhDWQYC9jkqtu7NDYwSlQuLJh/xKbtq97mwE+u4Bp9D2j32At1m1s1noV3TjsSct0Fw2iMX6nR2bgCxLvS7TXXV2mtdX6PNxjostuzASvyPAeHEycRDRYfV2e22agTnodj+l6LpsP13hF1oV7yrbpZEwcQ513pO9pwcHNtvn7e4ex8GAKLBAaunBl9idpQUAQEAQEgeggYP9rHOY1emYPzPtpx/8oOanVODYzHh9m8xZRnTU6vFmqekoPJv4tYsIySUEgThA4KfdSwo8p0NTBsy1+9pRvNYsanEZ4GmjnsFdWy4KCz9R+yqOZSJ/AXl5Bxrqk96Kf975eV1HHlbV7JHUmHFIFEmgMc5h0mnsofTmyCdQHyuDRVUsyhyTypYnU5SmJacphkD43j9EYfziaQzifMqUhjpfQj95jqfsMNeavkwDr9g05YhEBoXc+Z/NxLb48FeuypjiGOu9I31NTG455I2SRL0lPbmvLVpYYTRwb2TYgOREEBAFBQBDwiUCDiCx6NLWM3278aLzPq7TQzON7/3x2C526TFsQiCsE9pZtV06W4CSpylPjlRahOOpD/vxNHNrCU3OvpI85zqgpMAXFXkfEuIRmWGmKHR/WzvAwoXzwQ8tkEtmCsnzzsiGlCw5usuqFStasBkYiGuM3zb6NS/lMhoKXz4Z+Ml1UP2MmF4dziYZg8cMU7MGOJQl13pG+px14z7QpiC/sS4rZs7MpXdlTcahaZLOdpAUBQUAQEAQaF4EGE1lzuELcTDQkLQgIArGOALSjn256jr3JfmSFCRmUfTSNz5lEvTOH0R/nTbRC8ERiLsfnXKA8+cKDrNPMEQT6fzv+QwuZTF/JDotMR0lOTRJCqgQTpzltKG2cfZomqnCOdajqoM1k2Fnf33k0xh8O6fE3ruaSn53axTaVSsMM3VYQ4yeRvqfYbw4nY9rJGvbMbipebnu3AMn6/YtsyAxy7Km2FcqJICAICAKCQMwgEJ3l4ZiZngxEEBAEBAHfCOw+uIX+vvjXNGfnB4rEQoP5q6GP0lWHPaBIrO9WDc9F/NVbRzxHg7PH+uwMYUBeWHE3YY+uFqdp5v6K4I7jnEQ2mDmyvpZ5dJpm1lfT11TjN+fSnNOI52tKWw7TI0KUndaZTu15lQ2KjzmkFkJKaSmpKOT4za/qU+rcqidN4NBbIoKAICAICAKxj4AQ2di/RzJCQUAQiDACJZVF9DyTRb0PFhqt64f9gxBHszGkU3oPuvKwP9N1Q6dSdx+OfOCM6JVV96sQPRhPx1b28ClOU11fY3aac2Y5HNr4auPM69DKbpq5eM8sZxWf5z+wp2Nol7U01fj19Zv7sdixsGFq8xs6dzO0T0P7aor2iAd9Qb87rEtvKVlF/1hyPX2R/7L6mbbkOtLvE7YTXDZoCu9lT7PqS0IQEAQEAUEgdhEQIhu790ZGJggIAlFCYFHBl9bHKy5xbNfzbHE3fV22oR/0CGXzwvJ76CBrXLUglik8/CLWaatEu8ddhOjZcbAmZE4n1hKZsqZwvs1plFmm005T4kCeb3Ub59EZfxQm2KazKmd9nMNh1sebnqYtB1ZZxU01fmsAzTxRVLHbNsNeXl6tXbZyt6fadh7oJJy6gfppyjJneB04w/pyyyvqBxpZxB/+We/f0C0jnvUK39SU45ZrCwKCgCAgCARGIKJ7ZANfSkrDQsBF7O2Yxm8pXEe52f3CaiqVBQFBIDAC6/YvtFXonz3adu7rxONx+8oOOe9gVTGtLppHK/b+j0ZziB0tLvaOOrLjSbxvbyg9/dOtNs+qG4uXUrfWfSk3Y5AtjmwFO4hauvcbGt3pNN2N19FJZEd0PNGrTrAMp0YW+2Rnb33Ty1zT7OfTTc8qsjuswzgru6nGbw2gHglPGGSvHt1HtMnG/Utt/fXOGGo7T3GYHjufDVtlx0koRDaWscL+7KeW3qRmNbjdWKVxLeE95shPYwds7dO6UThxdh3wyKkgIAjUAwF82yrBt66IINAABEQj2wDwpKkgIAjEJwIFB/NtA4dWxin40K2sLreyzTiuWx3eT91k13AFIr2Ldn9l9WkmsEf37N43mlmWafHIjieTM9bl/J2f2uqaJ9VMwlYZIXt6ZgyhDg7zZLO+v/TQ9ifwR36Krfirra8qMmvL5BM3E/0vt/ybEFIoLbE1Dcg60qoSjfE7CZZ26GNd1Jbw2M98LEo4TbFLK4ttbeDZWotTO3/ICKmk6/g6Op8LYNZQKTq0mx2EfWF1c2TnM6ltqn2PbGpiulWOBEzqPRzc3CnQoi/d87Utu7yq1HaOk3CwQv1Q5x3pe4prv7pqCuk95ZP6303wvp2Z2lHF/e2c3lNILEASEQQaGYGtRWsb+YpyueaKQLMlss9/97eMNxc81Nf588yCBzPj4mZ6XOprYu5G/x+rcTEPGaQgEIMIZDo+9D/Z9IzNAQziyD626BqC5lML0sVs7vvttndYw3OzzlZHp7ntIXddrFhbRT6BNhj9+xIn2YQmEwKN0ck9rrA1gQdW00mNWbh873f88V5jbopQMef0sRNks26gdBZ/8I/rdpFXlRmbn6N/r8pjb8+f0Mbin2hhwRf0hNp3+JKqi7imppYrGuM3TbRx0Qr3IXVtX/9Uu6ts2diD7BQn2dtdtoX2lG1V1ebu+JAeWngZrdw3R53rEE26DxBDLB4EE+d1zecrUNs9AcLpIH6s9oDdqVUPXgy5waurLHZ6lOhKtvL3le/gZ9D+t2Uenz+z7HY2fbcTeDxnTgkHK7QNdd6RvqfbS9YR9sRqeWXlH+h/2/+jYjfjXq4rWqi8GMPsH/cbZvGRWFzQ15OjICAIBEGg9ls3SC0pFgT8ItBsTYtbZySdx678X3bOPNPt+S3nTXPmx9y5m80tEuj+mBuXDEgQaAYIdGvdXxEwPZXtpWtp2uJrqUfGYWpvp3b+osv18dGFVxHMa7um99FZ6rj5wArb+a7SjQRNVlpSa1u+Pnl/w+OEuLJD2x+vs9RxsaGt7dgql3ryeLSMYq3sj7tm0obiJTqLQGKgqR3V6RQrb1PxMnp//d+t83E5F1FOmwHWebiJ8d0n07yCGYQ9u6Ys2/st4ccp0P6e4vAUizqRHv8Ww6sz+t9btk0tRgBXp6wvXmzLyjf27+oCaOrg7Vc7ToKGF4sZWFxAPOHWyVnsDGykqr5xf909QAY0ieuKfqSBQcK2bObQL6YUHNzsd8xmPexN3s+a1wv730na+zQI13/WP0Y/FsxUVZOYqF4y8D6fjoowNzgyW1M03+r23fVTafa2tyiHY6bml6xUprbwLp2Z0tFaBEFlxDeG6fK+QzvppuFPKVPccLBCH6HOO9L3VO8xxxggeHfM96cm1/4vSHr/zFHKc3H3jIH2QjkTBASBiCAwZ0PtYi6+dUUEgQYgkNiAtjHddOikY5Z3aJWyk8nsWbaBemjmO898PteWF4Mnc6ev23T05H7ji8v29eqe3Z8yW7WLwVHKkASB+ESgK+87nbfrE9ZkVVoTAEEFYSmvLlGmsSAF+8p3WsQGFaGJg9brV0MfYcLQilYXzqNFHPcVJrVuT53Wr8pTYcWmhEY0I6Ud97XDMgEF8Vm6ZzbBRBnaXOyF/WTjP2nxnv+q8cA095ohD1mkBZkw5xza/jjVryZbyF++7ztlzrujdIOa0xf5L5HWCJ/U/VI6vdcvUa3eksja4IHZR9Ja1iQ7tXXOTtuldqWrD/uLIunOskiNfwOTqqV7v6aZ+S9QpaGFhVZyHccDxZ5jpHG9xbv/S99se5sx+p9tOAVlmwmeq4E99kgmJtSs6ZZzWBbcCy1uJrOoh3s4ecA9Smv3/Y73adbWN2zXRv1lvPf5QOU+RUy7trYvdKxm51wreAwzOKap/Tmp5Pu5WC2OtE7OpPTkturSqQmtCObv+w7t0ENR5sC49lomzGuKFvDz8jRpgg5nWpcNnuLTA7buAJ6M5/OChNbeIh+hnnYxFnj2QYQvG5Sn8DNN50Hocd8Pa3cMYY9pKj/3kGBYAYNQ572T37to3NOM5GwOr8Uxoo13Uw0+wD/4nVBQlk8L2GqiE5sew5OxiCAgCEQOgTkbZ9DW2j2y0y6YeVXkepaeWiICzZbIzn55tvusSccsS26Vep/txsYJkcWYj76of28+jD9QvpeGdB1jm4acCAKCQP0RgNald9vhihSCuGrhhS8V3xWxZHtkDFb7Q1fzXlMQGpT1Y03N5YP/qIgp2sAk+YddH/v8UAbZXFk4R9WFNgxmizDnBGGo2Z3oUeRkZeFcRUy0KTAIw6VMKDql5+phWUfsVz2CHTyBpG0vXaeINQpBRHaUruf+tnHfbqVZPrfvzXR017Ottg1JQAs4uuNp3P92/sjf7NUViN7x3SbyuO9nzaX/3RuRGP9HHAf0ew7tY5JYPSCYfsNkFJpFmEX/m0MYYXHCl2wtWc3kcg4dn3MBJdfuA+7D9wl7o7EowDs7VbOslE40qf//0ZD2x9J766cpLbSva4MswYx1D2uGxzpwn772IUUifREqPCcgp9Bkd2mNX/nEhDZDadnx3EDTXFRRoPKxAFJ0aFftgkupMhee0P1iunjgvdQurYuq4++fVkkZlMXaVuyddu4nxuLM1UP+Rn0yh3H5XLXAgn6g7R/P/YPEH9HpVIvEoiwYVqgT6rxhah+NewrS3S9rlJcZNcYWTLAPGlr2sV3OsZnJB2sn5YKAIBAYgblMZIvL93El15S5b6+bHbi2lAoCgRFwBS6O/9I3lzxazR+g1l5gD5sWTx55e+ybFtdC/9v3Tp/NTjnGXTjqZvFeHP+Po8wgxhCAA6edbAaM/XEZKe0JIWpSk+yOcUBAoTWDmS+cxDREYILcNb03JbCpJwgPND/Yh5nNJASashw2eXZq8/xdD2MHAUI/iHsJh0MgnGgPjXO05CA7Qcpns17sC4XmGFpExMJty/iFI001/lDGWMaaWTg+AinvwvdLa2xDaRuNOtAK72RyDVPZNklZVMkafzwr9RlbYfkuRVZx76C579t2hC3kDJ4nmDKDqMJUOqHuz6fPqcUaVuYgsTf65VW/V5YTWCi4eMDvlHYZ7zQWf6CRx6IE3h1opzGXnYwxNNJac33d0McUwTf7lbQgIAjUDwFoY7VZ8bSJM5s9B6kfStIqHASa/UMU70T21umnj6cEzyzcVCGz4TzaUlcQEAQEAUGgJSPwztpHlCY8Pakt/XbEc17enP1hg4Wtf7DzMjipumTAfTS84wR/VSVfEBAEQkQAIXemL3y8trZryrSJn+WF2FSqCQJ+EYi4s6dXFjzYIyU5iV1kJgx1eTz8P33HvvcXUkLCbzjW3NSLR9452zmaNxc/dKqLEk/0uFxHcFmpizw/VFd6nrtk9B17nHVx/vrcBzonpKWyK03XGN4O1Z1NgJa73K5PJo283e6G0Vfj2rw35j2aSylU5yHFqLv6/QMv5eXlWXERQrney4un5qSQ5zSjG5VkAH6aPPKO+a8vfHhsQqLrUpcnYRCbdb01ecQdzzrr+jqfduFns2999/QpbOZ2PzwY52bbvaX6aiN5goAgIAgIAoJAS0Zgxd7vFYkFBojT7AxJFAibDmnd1RYA+MHuXGvuHai+lAkCgkBwBITEBsdIaoSPQEQ1sm8ueuRI3rv1OW8ly/I1FCa1V08ecduLuuyZBXnpmUkZT7JzjiuRx4TUzWbAGJOL01t449lEkECUaXlr8aMTuP/XuYraEMR9VnILFVeACeJT767+4ebpF0234iD408i+teihYz2upE+5bY13jdoL8K6oDav2FQ/Mm5CnPLeEej0194QEuGGz2ddx/LxHOW8P4/JXPQccq6rdvX4x6o7NZl6g9K3vnTaLARqPOqKZDYSUlAkCgoAgIAi0dAQemD/JctR2XNeJ9PM+14cMyXfb3yXsxcYe4btH8+eGiCAgCNQbAWhioYjBkb/fZ087f+aEencmDQUBBwLW3lFHfr1OXQmuf2oSy/s6/+GursxhIvdH7qzGawa525gdM4l9S5NYrvJjSamrI9dU+1eZ0OYyp53++Kc3peo2ry2eehS/BRz5vYbEVrvdV/KKaW8uV95a2OHI9ecPGHOtrh/oOGnkXf+rKi82vankV1dXHzN5+G19NYkN53og3NWVbgR9tAUz5Hmc7ySxGJcrMWFwoPE5y9SLz78AkI9VLewzEBEEBAFBQBAQBAQBOwIHKvZZJBYl3+14lz7d9CwVsqOsQIK9yJ9t+pcisah3Tp+bAlWXMkFAEAiCgDYnFhIbBCgprjcCESOyLyz8C3tBUabBajCs6Ry2b39ZMZvQ3u/2eO5HJpNWi8i+tejRM/n8Z3rkHnI9cs0xt+07WFH1kM7j8p4dc3rpvyTsh9LzDybKytMya2xXXTLyjpevGHHbNibNr+k2CewF7ZUlD7fW54GOSWltFGlmlr2y3EPHXDLqzjlG/bCvV2sKvdvoA5NWRJvHaEWVhxbZXVb8va1eCCc1q1iuKaiKzfJCaEMATaoIAoKAICAItCgEEO4KzrBM+Zpj5v5twS/ouWV30MccuuhrDss0f9dnKk7uzM0v0Gur/0R/nT+ZZm17QzU7rcfVKtyQ2YekBQFBIDQENIG1mROLJjY08KRWWAhEbI9sOqV2s1/ZNa59u4z5ry166OLd2zc91Cmn17WsbbW0lbwf9g8uo0F1tVuRyKuOumvnm4sfLWUSq8go2xifydUeeX3J1NP4yBrZWvGQFQvW46J1Vl8uV6fUakWov9FVfR3fWjx1KpPiq3hMi91V7lOucOzHre/1mKSWMYm3CRP5W95bM/flC/qP+TmP9TjeOvzepUfnFdsqhXiCzfG8Z5Zre+7HLwr8gNSO7XOG6qF7Vn/xbhwillJNEBAEBAFBoHkicG7fW+jFFffaYh/zAriKNYx4w/4EoYjO7XMz9c0a6a+K5AsCgoADAaVx5TyYEEP0OX/Lf81Rw/Lg70UVyD+CQIQRiBiRrao4sDG5lW27KfNE16CkhMQfOnbreXd1RcX4tZ8c2lQ7fqZ6nqGsrrSmk5CYcPIbix+pQIYmsTVpUia4iW73MHYYZdXnvjty/ctUHXKdaBVwwpPgQhufRJbdT7mYKD/Ol67R9Lrdt/hyKhWx65Gn8OIRt7+A8U2n6e/zAT8NklpPbyC0eSC06Ey7MycSk+MGgSuNBQFBQBAQBJoFAq2pGyVwzOiDiXvJnVAZcE7siJFaV3XgoMxt6IMfX+S6+BERBASBeiGArXAe19ePnS+eieuFnzQKGYGIEVloGN9cPPU91kaeb7+6KyXB5ZrqSk4ZmJd3z29Q9urcv+WYZBV5TFH/ZYR7RZaWlLxZeUmswR1QR3u5yEVnJVDCWbqS4+jXtJhj4k016zLpnfbMgl+NuW70s7a/cpG6Hl9rtXm9SKYtQqtC9NB4dpE1TvVf6xQqkteSvgQBQUAQEAQEgXhCIIF3IrWubk/p1e3YK2QZVbsq+KeS3PwDSfSkUJInlZLcqfwNkozF93ianoxVEIgdBGp9uIC8kpsdOokGNnbuTTMfScSILHCqrCq7MTk57TBoYp24MXG9jj0AF0wacfsfXGnJDjNkIrfbcxWTYK99owfdhwrhfOnNJVPtbTyejR4i2Nh6yeQRt6/1yvSTweMamZU08Pdc/AdbFZcrMtdz0xpbv1E4qf2FMTsKXUuXgoAgIAgIAoKAICAICAKCgCAgCMQcAhElspeN/t2Ol3/4y3GpaamvMJnF3labMPG8nDP+kFhVtZeS7ZdmEpvKBNQv6eN4rHvZ5riuPxe1mjzcf/26il6prRzXtgv3ZQ7gHg6f85EZ6idi13N57M6fvIYjGYKAICAICAKCgCAgCAgCgoAgIAgIAuEgwBa9kZG8vLwENi1ek5qS0ocJ5s/Yp8IdvH+zwuydtZ89eX/qgFUbDm5hpwtus4yJ5fXow8x77du/Zr++8JGLke8mzyazjG2Lu7y15NGJ9jyitxY+fPLrCx7x0gjreh6351G+9g36XB1BahNcr0z9fmornR+p6+n+5CgICAKCgCAgCAgCgoAgIAgIAoKAIBAZBGzEsSFdMtkEMe3FDpl+x0fPpBG3Peom9wmc3Gf2W1VedTDvojwmuK6FZj7rWocNOqeNDrVDeW/npSS1TflPQoLrua4/ozTWos4166u0hx5kDXB7nY+QPuzZ4bPEZNcknceaYUONy6NhZ08cEuhZ1g7bvCLBHDon3fOgblff6/E+VQem9utb/UtCEBAEBAFBQBAQBAQBQUAQEAQEAUGgXgg4SFe9+qhr5PKUMGs8h70J/xaZFw+/8wcORzNdV2BN6PpLj/6/rThnfexjOl8fXQkJ095aMvWlNxY9cu+gAW2/YbI7jgnnn64bnXfw4pF3fsqxWO2mxy5Xv7TU1Pmoz/tvn+DQNm/zz56iykoVH7ZWw2ojsi5KyFDXr668hrXGRfra6uhy3fTW4kcQ5ofqcz20Y0KchaMhfh1PGXUkKQgIAoKAICAICAKCgCAgCAgCgoAgECICNpIXYhu/1d5c8mg+E7lcVcHDpNLjmcPM7laYFCOPyesNk0fe9hTS8EQ8KLvtW6yvdHg5RmmNcPtZ+6tWn6Y9Cr++cOq4xETPR0wXFRnV9eqObMrspvMmjbz90xcX5WW1SmhzLxPXO+vKkfL85KmiX00+4vYfmDS/zRkXmOV8zT0c9/WONUUlrw3IbHtsqNd7ZkFeemZim2tBxs3+OJ1P1e7LVq4rmVujiXaUyqkgIAgIAoKAICAICAKCgCAgCAgCgkBYCERWI0uuEtZyVjNZ3McE9iK26n2olsQe8njc92gSixHCE/Gq94svZOL4BJ8eQh5rb2t84nMfnP/S9oOuszSJRfklo2772lNZPZ61tBtwDtFtkFdNrnNAYpGf7mozxpvEosR1OHvk/8uLs/JSubXSviJXC4+3Q2JCwjPdU9u2Ded6mQkZ/X2QWHTbgxITZvfvn67IvL6OHAUBQUAQEAQEAUFAEBAEBAFBQBAQBOqHQGQ1sosfOpUjs21C+JvXFz94mIdSWid4qtPLi0rnXjUhr9zfELEfduDA1iNRnuBOaF/uci25YsRt2/zVR/7Li6fmpHk8w6s97sIET4Ln3fVz50+/aDqT6OhIY18vOrOQXgUBQUAQEAQEAUFAEBAEBAFBQBAQBAQBQUAQEAQEAUFAEBAEBAFBQBAQBAQBQUAQEAQEAUFAEBAEBAFBQBAQBAQBQUAQEAQEAUFAEBAEBAFBQBAQBAQBQUAQEAQEAUFAEBAEBAFBQBAQBAQBQUAQEAQEAUFAEBAEBAFBQBAQBAQBQUAQEAQEAUFAEBAEBAFBQBAQBAQBQUAQEAQEAUFAEBAEBAFBQBAQBAQBQUAQEAQEAUFAEBAEBAFBQBAQBAQBQUAQEAQEAUFAEBAEBAFBQBAQBAQBQUAQEAQEAUFAEBAEBIHACLgCF0tpvCBw6/TTx1MCjSeXZ5was4fTIoKAICAICAKCgCAgCAgCzR8BF81Wk/S4viY3zZ524Wc1581/5jLDFoyAENk4v/m3vnt6niKvQlzj/E7K8AUBQUAQEAQEAUFAEIgkAq4p0yZ+lhfJHqUvQSCWEBAiG0t3I4yxKAJLnvt1k9zsfip5dO8z1VGf63I5CgKCgCAgCAgCgoAgIAg0TwS2FK6jrUVr1eTmbJjhmKQQWgcgctpMEBAiG4c38tb3TptFtRpYEFaQVyGucXgjZciCgCAgCAgCgoAgIAhEAYE5G2vIrEVq2fR42vkzJ0ThUtKlINBkCAiRbTLow79wzT5Yzyy0FAIbPn7SQhAQBAQBQUAQEAQEgZaEAAitRWYxcbdrguyfbUlPQPOeqxDZOLm/ThJ74aib42TkMkxBQBAQBAQBQUAQEAQEgaZEwEZohcw25a2Qa0cQgaQI9iVdRROBhBpN7Ng+Z9DY3mdE80rStyAgCAgCgoAgIAgIAoJAM0JAfzsq7WzNN6Uos5rR/W2pU0loqROPp3mrPbE8YCGx8XTXZKyCgCAgCAgCgoAgIAjEDgIgs9qniv62jJ3RyUgEgfARECIbPmaN2kJ5J6517KRX0xp1AHIxQUAQEAQEAUFAEBAEBIFmgQC2pikyy9+WNREwmsW0ZBItFAEhsjF/42tC7EAbKyIICAKCgCAgCAgCgoAgIAg0BAEdqpGMMI4N6U/aCgJNhYAQ2aZCPoTr6pUyMSkOASypIggIAoKAICAICAKCgCAQFAFoZC0T43dPzwvaQCoIAjGKgBDZGL0xNcOq0cbG9BBlcIKAICAICAKCgCAgCAgCcYWApZV1ecbF1cBlsIKAgYAQWQOMWEqqcDu1A5K9sbF0Z6I3ltLK/bRo91e0vmhR9C4iPUcMgbKqElq8+7+0pmhBxPqUjgSBeECgsvoQbSz+ibaWrImH4TabMe4oXU8LCmZSYfmuZjMnmUjTIWBpZbFXdvrp45tuJHJlQaD+CEj4nfpjF92WCTQeF5C9sZGBuaK6jCrch4J2lpqYTskJKaoeiKWH/wsmKQlplJKY5lUt2DV1u03Fy2nuzg/ppz1fU5Wnkrq17k+3jHjaqz/JiA0E8PE+Z8cHtGTPLKrkZ6pjq1y6Y9RLsTE4GYUgEGUEDlYW08MLr6CDVcXqSmO7nEPn9pW45tGCvdJdof42zOG/EfkHVqjLnNXrOjoh56JoXVL6bYkI1Hxzzm6JU5c5xzcCQmRj9f7B1CM4h4rV0cfcuF5YcS9rEJYGHdeRnc+kC/rdTjtLN9Jji68JWh8VBrcbS1cO/rNX3RdX3kcb9i/2ytcZA7KOpOKKvbTz4AadJccYRgCaEBDYrSWrY3iUMjRBILoIYAFHk1hcaX7BDAKxSk5Mje6FW1jv+w/tpm+3v6M0sGVVB1rY7GW6jYUAzIu3FD5OJObFjQW5XCfCCAiRjTCgke6ue1b/SHfZIvs7tcdVtKF4Cc3d8SEdqNznhUHnVj3pqC5n0dD2J6iy7LQudMWgP9Gyvd/Sj7s/96qPjF5tD6cjOp1K/TJH+Sw/vcfVtL10HS3mD79NbIanJZk1uMd3m8gfKe9SoiuRXPxfKJpf3V6OTYPA55tfJHxQuiiB75e7aQYhVxUEmhiBtMTWthHAsiSBf4+JRBaBzax9BZFNTpAFgsgiK70JAoJAc0JAiGys3s3a2LHaq1ysDjNextUncxjh53Amqk8tvYnKq0ttQz+7z03UL2uklZea2IoOa3+M+umY3oM+2/wvq0wnLh7wO8pK7ahPvY492w4h/IzufAb9fs5ZivwkMAm6dNAfaFD2GCazF1CrpAyas/MD+mDDP7zax1IGzGmr2MStV9uhsTSsRh3Lb0f+i/BcYF/sW2sfbNRry8UEgVhB4PAOJ/DvrA9p84HlimSdnHs5JSbIp0Sk78/Q9sfR/WPep3T+G/H0T7eqPcmRvkY89Cd/e6J7l6xvzNpvzuherXn0vqVw5Xg9EzclWGnkJZB7No652YPVEWmR6CIgf32ii6/0HmMIdE7vSUcyscRKtymV7nLz1JY+oduFNG/XJ7SvfIctH9rUUKTaXWlp8I7odJoisWiXntxWNYeJcazL22sepNYp2XTd0EdjfahRG1+rpDaq7/5ZR0TtGtKxIBDrCCSxD4Hrhz1Oe8u2q99h+r2I9XHH2/ig5QaJhQzIPqrFEln52xNvT27zHK8ir67E+zE7tqAbr2fp0onao4cSVJ38otWwtpvt9ni+7pk9MM9RTU4jiIB4LY4gmNJVfCAwutPpXgNdvvd/Xnk6A9qGcTmT9Kl1XFv0o5UOlDC92o7p8jOvqrH+Ibi6cB7tKtvsNe6WmpFWS2hb6vxl3oIAEGjfqhtblNQs7ggi0UUgPbFl4ix/e6L7XEnvwREAgd1StGaWx5UwCwTWJLHBWqOuy0X3M6n1oI/NhavzgrWR8vARECIbPmbSIs4R6NK6N3Vt3dc2i+X7/kfVnmpbnnkyrP04r31gaBOKYJ8tpF1aV8rNGOTVJNEVu4YRCLPx6abnvMbckjNkP2BLvvsyd0Gg8RFIaIGm2/K3p/GfM7liHQJOAltXUr+UJrUgs0Jo64ehv1ZCZP0hI/nNGoFRHU+2zQ9eONcGiAcKM+CBWUfZ2qwq/IEOVR205TlPKqrLaeW+OSp7RIcTncXqPMEVu6/h2+seEq/KjruGfc4igoAgIAg0FgIt8XeO/O1prKdLruNEwNTAOssaeg4NLX6EzDYUybr28kVWh4WkWhACIJXwFmwKnPgEkqEdjrcVw/lRMK0syG5F7f7b4R19E1l4wQ1F3AE0xqG293hCj+n0Rf7LtHTP7FC6rlcdt8dN+PEl/vJ91/WvSfdV35kHXMPBxcV/hRpLqrC/Oox75hyXr2fGV56znZxHBoFwny3zqmjr7z2IlXsYaIzmXOIl7QtXX3kNnQ/6DOe9doWw2OnvWWnoWJuifbT/9jTFnOSasY8AtLAwAw7HfLi+swKZBWGub3tpV4dA7No01o1RUoJAxBFom9qB+maOpHX7F1p9L9/7HcGcyV88xErWrjpl0e4vaVSnU5zZ1rkmx53Te1EX/glXEIJh8e6vaF3RQiooy6fWyVkEZ0OncWifdhwiKJDAOdXX296ibSVrqfDQLiqpLCSEyoB5c4+Mw5QHYnhPdkrxoT307vrHaFXhXFvRLo6t++WWf1t5bZIy6eiuZ1vnoSY2ciiiuTs/op/2fEMdW3UneAOGlFQU0ldbX+XYu0tp18FN6j50Te9DE7pfrGL1mv2vLpyvxre+aJHavwt8MReEQ0I6kNQXl0B9Osswt0D7intlDLV5ydbtK6rLGJuPVaxa3Lc95VvVPevSug91a91PYZGV2klX93mct+tTWlTwJWvSN6p4n9mpnRmT3pTD7fdX7KYfC76g+458m9qw865QBB/d32ybTlWeSr/VM1M6KCdqZgXgvJDfD6ckuZLphJwLvUz18WGPPXEYP2Irl1buV3U6tspVz2xum0EcHus4grMhU0oqi9TzZObpdG/Gua/hjXxH6XpefPpeF9uOx3Q5x3LAZisI46ShzxYwwJ76H/gZWMnjxNivGfKQGsE29hw+a+ubKh423uVurfvzM3+Uwh3bFkxZuudr9fvCzHOmx3Y5m3+fZKoQYzv5fXNKG/5dc3SXnzuzmVxX87v3g8J8Db+Hh7U7li4fPMWrnpkRy/c20u+LOW+dbuhzoftxHhFr9uttb9MK3uZSdKiAnUO1VZ7y+2WNItzfULZBxNK9ifbfHid+ci4IaASgIfUwudTnjXEEYQZxdnncE8TLcf0RFyJbf+ykZZwjMLLjSTYiC83pisI5NLzDeJ8zW8LxYJ0CggkC5osUlFeVqg8+tPFnVuzsT5/j4+LLLa/QV0wc+ZedzuaP+yJFbDfuX0I3DHuCMv2E//ls8/OKxGptArTP+MiBCfX6/YvVDzpF6IxTelxh9Y/EUz/dwsR3py0PJ6VV++mL/JesfPQXKpEtqyqhhXsApe0AAEAASURBVEygfmACaxI8ra1GGUIQmWGRQOoQ4uOllffRORwe6Ziu5xLy3ls/jbCAYAqIL35AkH/FnpW7txlgFlvphuBidRJCYtm+79R98lUVcThdOS4vIgvi+vrqPyvyarYDRvm8oIEfzPvnva/3Io2oDwuBF1f8zvZMg8QeYNJTWLjLtjBR5akyLxEwDfP4z/Nf5D3k/tvA7B7ewE0Bkf6OYyUj9q4piIsJgpSW1NrKxof+K6vuJxBNp+AZwA8EZPbyQVMIC1FaDlYW0/ydn1JRRYHOso5Hdj7TRmTzD6yib5mUm8+ZrtyPF7Z6JQ/Vp2EfG/JsgYwv2DWD3w/2jn6ozjs6Ftb8/S7YXrqW41SvpfncDr8LstM6W2Oez4sBppM5q6A2gX35A7JGKyKLhQ0QIafg2TGJLEjGvIIZNI/HiAURLYE8vqNOrN7baL0vGhd9bMhzofvwdYSzwddW/ZHKqkusYvyOXsELIOpn7/d0ycD71D22KjgSsXZvovG3xzFlORUEvBAAiYWG1KugkTLgSIq1wUJm64l3Yj3bSbMoI3D0pH55uMTYPvaPQ+SJRAYBaDG+2/Gu0jDoHvGxPsKHCXARr3x/tPEpXc06gmRmpXViDedgK08nFjPx1Y6eJva7zQqloMv1EWTzv1tf06eUkdKOdhxcT99sn27lOROHqg/yx/hB1oYc4yyi2VvfoC+2vGwR4HE5k+ky1pic2uNKjqU7nAnNPNIfnxuKl1D7tG4251cpHCsVGluQQU0gcBFog0/M/QUTsFHqB9f2Rxidg/rL/Em0bN+3igybZYijC2f277EGOJDGb03hAhrecQK9sfoBWsmLDf6kmrWGIENHdTnLq0pDcTE7xCKDFmi1QLJNObz98UojCi06BAsJuA8XD7iXzuh1rYppbNaHBhWEvbSqSN2Pyf3vYcL6G+qdeXgNEa1dWMD88JEKrbNT8zyDnXIt2vOV6vaU3CvUtU7qcRkhfBQ0MxuLl1qXRAxjk0haBT4S0ICOZW0lPvy3lKyy1UC/dx3xbzqmm33+qARNKrx9r9+/SGmLkHdU57Po14dPJTxjWrYwuXxm2W3W4gm8ik/sexud2/cWGtruOEWa9pRvU9WLK/aoOL49OZ6xjuEM/I/PuUCRLizSHKjcp7umnDb9be8Inldo+PEewFrCQ3Wm7SDiwbTdVseOREOeLSzO/GneBYp4mqQEl8hkwo539Psd/3Fcse60wl1GJfzc4JnTAiuRoXyOxTQsKDjl90e9o6whkD+C36u95duVFhzneM8vGfg7fv5usDR6xRV76a8LLlb3Er97TMHvD39WKbF8b6P1vpjYNOS5MPupsSSoW2zAQgSsYyrdh8xqtjQWRGAZguc6KSHZVoaTWLw30fjb4zVxyfBCYM7GGSpv7tvrA5tWeLWM/wyYE5PL9WJTz4S3D/R67MF/vNzU44jH64e2OS8eZyZjFgSCIIAP+cOyx9pqwbQR2kOnLPWhjdV1tPmwPtfHJbtnqSS0SPjYC1W2l65TmsU2ydl0bp+b6c5RL9OtI56lwY6xQjtXyeTCFGjPZjGR1ZKZ0pHNkK8imAlC+maOoBO7X6KL1RHaUFOOYi0W6jhDDoE4IV//jPFBFs1+zDS0iJP63+2lmYZGAAsE+IDBh/P/HfEa/fnoT+msXr82myvC8cjCK9VHPcgGiA4I1H1HTieQMlNAtmCGaUokcDH7C5aGZk0vYrRL7crk7e90JhNYU2um+4AJ7fsbHlcaz86teqp7PajdGKXlx2LBVYMfUGakuj6OH254wvacggx9y9pPSK+2h9PJPS63tJYwlYfWfTwTuPoKnJ2d3edGNmU92tYFiGxGSntbnnmC/cTQmELap+XQeX1vtZkG4768vubPylIAdcawpvbC/ndS94yBhDjN3dr0oysG/4lGGs7ZQFSfW3YHQUNoChaAfC1gmHV0Gu9BpOIBN/TZwrN/Nj/7WLxwOpTD1gK859Din5R7Gf2Gn6M7Rr1EwxxWI/hd43Q815XN0SfzwomvxS6YHms5yBpzWJZAYGXxm6HTVBuT/LTle3xm7+t4ceR31KftcN004DGW72203xcA09DnIhC4MO3GAihM+rHwg9/VPTOGeDUBmcX2EqfE6r2Jxt8e59zlXBAwEYA21DwPNY0YsWw4NwVmwfoH5yqPy0LtR9eDmbHsmdVohHcUIhseXlK7mSEwspPdezE0sj/t/cZrlpqs9m47TGm4zAow+QQhMwXkZF1tnNnhHSaYRSGlQX5vG/k8je16DnXgfaQIFzRpwN2UkdzOag8N2Z6yLdY5EntZc2WaTeJjFnFwTUEoIVMKK3aZp1FJQ2ODn1OZVDsF5O3mYf+k47qdr/b9gnhhDyU+apyCj/LbRr6gCAsWB0Befsaay36Zo2xVt5Sstp03Ji7Ys/be+qnq+jm8j/GG4U8wufT+yNQDnMlmu/qeXcT32NRWok5KYhr9YuDvdXV1BJmDiaeW7ayF1tpFaNdgjuoUaGnx4dsQOY+1pMm8z1oLnkHsk/QnO3lftTYlH8v7qZ0eumF2qd8dzPv0nr/06gpkGablqYnpVhk0UcDNKR3Sujuz/J6DnEVCIvFswUQfv4tOyr3Ua0hYALhx2JPKoqIXa6Kh6QZBbc171LXg3m9jM2OnYCEBC0hYTDFlJuN+oKJGcw2TfjxPcDr3i4F/oI7puWZVK40FI1irnJBzkZUXKBHL97Yx3pdIPBeB8D2i02l0Jy/mYeHnzF6/ouuHPa5+FzqdGGJ/OzTqpsTyvTHHKWlBIJoIhOs5GOQVpLVH1kBXbtaACT2zB+Zhb6v+wbnK4zLUAakNZ/wgs+GOKZz+m2tdIbLN9c7KvEJCABoQaCFMgXMlU/aUbbU+ErGv1tQO6XqLHG1+Yo0H++RVJqX+9tzqts4jtKjXDnnYa29Tq6Q2yqTXrA8nTqZksrYSH/5anB+wyMd+XvNjB/vwGkuce3qhdb5x+JM+P54PdxDuHDYLvYz3R6YaZql63E6nVVhIMKUxcAF5/GTj0xx39xl1aWiurhs61dKGm+PRaTxbmpCChPkz1e7QKofaOkjoDnaIpAVOX7Qc4I9W7BV2ChY06rOoYvYDbbi5bxJl325/x6xiS8NpEQTmyfjwNgVmrz/sqilHPhYj0pWpuVmrJo1nH85rTPmxYCabkddhgDJTi2jW9ZU23xNf5aHmRfLZcr4feH9vGv6U1/sBbfVAdvRkivOZ12WwPMEimPnOw4T5w41PKvNq/fsOJu/9DMdYur3z6ByjsxznsX5vG+N9ieRz4cQY79JF/e/iRSW74zMsNpzR81pbdWwj0fc4Hu6NbfByIghECYFw98WClIK8huOUCaQ2XEKrvBnD3FkkZASEyIYMlVRsjgjg435YB7uGcgM7UjLNFrU2FvuSDue6MHfsxFpEU3QdnYf9sRCYeZqOaXR5oCP2qKUm1WmfzLrOPXxO02IQAThwAjmHVndMl5+ZzVU6/8BK1tLW7ZkK5MTHq3EDM0A0zA9qaBudGkh9CewPNKU1z8mp0dPlTmdbh9jU1pRo41LNZn5vr/2bta8ZmuOrhzzo9z7qsWGfmtakwkPxX+ZP9vuD/aGmFBzcbJ06tYvvb/g7TV/7sKV10xWP6Hy6MksFMayvnMAfy4nseVgL9t7CE7VTYL64cHeN2ToItJOkIrQTNLpaevO7EkiO6zaR4PFYC/anY79wU0skny2nR2bcV3/3yvm7wLl31cQFmlznVgHg/8aaB1Q1mIxjL3Uo4iRPvtrE+r1tjPclks+FE+NAHvCxX99p7r+nbJvVRazfG2ugkhAEoohAOM6doIUFKa3vcNA2LO2sK/H++l6rJbaz2xy2RARkzi0egZEdT7FpsPCBvIQ/8uBABrJ4z3/VcUD2kdbHODSzM/NfUPn4p6BsM3sQXc97GfsSVvs31X7Y+3IcZTWqRwIeX03x5ewD5olOE0Voa+DdFD8gTE0pCbwgAKdFwaRVYuhky6ml9TCxdEq0cAFhe2Xl7y0P1fB+e9mgPJtm3DkWfa6dGOlz5/3V+Tg6zWah8dGC8DxYEMDePy0LCj5Tz/HRvJgBc1B8vOMD2GmmrOuHesTCzGjWCJna1P9ueY1+ycTdFHj51ibTTi0u6q3kfX6m6H3cZp6Zhhk5tPKmAzJ4qo4FidSzFY6WuMZRWt3sYQESSE7pcaUKb2Rq8lEfFiCT+v8f+ztxBWpulWFBL5jE+r1trPclUs9FMLzNcmzNgPUCPI1rgZmzlli/N3qcchQEooVAOOa7ILHhaGH9jRlklh1LzQ5lT67aL8ta2Uhc1994mlN+8L9IzWm2MhdBwAcCPdlDb3ZqF8trKqrA+yuI7PaSdbS7rGYfqmlSPMJBZFUbdsoCIgtHKiDDCfzf4e1P8HHF+meZGin0osPr+Otxb9l2dv70unIYo70Cw2lTUxIAaFWrPf5GbOSH+GGNFqaWV/UQpG0kcUEoEjMcSSmHOKp2V1FCYp2JtzErWxKmxVrgfEjHDNV5oR6htTs190r6eNM/bU1gVgjT3zk7PlDaeaWtZ8dNDZVx3SepeK9am7ymaD7Hvl1jM43W5s2If+vLq7czxFMoJA4hYUwiq71CN3Q+kWzfkGfL6zkOMLBQ8DKbwxpi0oB76B9LrrctJGEfPZx5hSrsXTNo1Vi/t439vgCwhjwXQQF3VHBqbLFvXkus3xs9TjkKAtFCIMHlGodvtGACLWoP3gMbrF6o5SCmTKKnhKQNrtHKRuzaoY4xHusF/4sUj7OSMQsCYSAATQQ0rKbA6y1IhtbGQttlejhul9aFemUMNZsQPIdin6SON9u/Nk6jrVIDT0LVmkAz9/76x+mRhVfQfI79CBIL88FfD31MOZGC+XJLlMbABaEy3q119hQMY/MDUzs9CtbGXzkWXi7odweb/XqvT+L+/49DuDy08HK2Fljur4uQ8+Foy7n3G1pZLXh/ttY63PKljUW9okMFuro6audDtkzHidOcNpQ2ji6idhqJZyscIlufiYC0Oq1E4AE30iba8XBvG+t9icRzEe69xsKsKeYWlHi4N+bYJS0IRBoBaDyD9QkS2xBzYn/9o0/+PT/bX7nOD2WMum5LPwqRbelPgMxfIQANq1PgwEmTUsSzhMmWKU7yC63cAnZAo2NtIu5pU8jug1vo74t/TXN2fqAcTkGL9auhj9JVhz3AcUmHNcWQYuKa0cIFXmQRAsMUhEz5bvt7ZpbPtElc4LgLmtyGCGJG3jriOa9QTbrPMg618sKKuwn7pBsqExxhnJbv+45jkW5S3c6tdfIET8PO90Rf10m49zv2AOt65tFJZIOZI5tto5mO1rMV6TEjHvbKfXO8un1n3aNUUlnklV/fjHi5t9F+X5rquXBuUTAdxcXLvanvsyftBIFACIRqVhwNEmuNy1MdkjdjFePWaiQJfwgIkfWHjOS3KAQ6p/ckhEox5cstr1haI9OsWNeB4yened876x5WxTABBvltbMHH6PNMVPQ+WKzMXz/sHyp+bGOPJZauF21czuWwNM7n55ON/6SN+5cGhKE9eyPWAjPx+bs+1acBjyCiiwq+9FmnU3oPuvKwPyuPyd3bDPSqA6dAr6y632eIHq/KATK6tO5Ng9uNtdWYxVpZxDPVXlLx3vhz5tWRw0qZ4jR5NMt02mnWmsWLNJESXgGvV1fRfrbqNSgfjeCQ7PXVf1Ixe/H7CeF2tJTy74131j2iTxt8jKd7G633pSmfC6djODP8VzzdmwY/iNKBIOBAAGbFjiyvU2hjvTIjmAET41C0siROn0JCve4vWUjVpZIg0HwR8EVWMVuEiPEVlqJ1ciYhfI8vQTgYf56HfdWPVB7IjUkIju16nnLyE6j/+n7AB+oz1sqijQs8uSI0kBnKCc53Xl39R5sHbCcu0Oaa8gUvnsAUMZh8uOEJ+iz/easazOBfWH4Pk5QDVl6fzOEq/ihijjodZyFEj9Ppj9UwjMSJ3X9hqw0naV9seZkqeG8uxJ9ZMcqcnr8RjzbY3J2mxLleRN3usCjYHnKMQ0s4dXUbHKP9bJnXakgasWOxvxiLb9cd/hid3/dWW3fQ1M4LcSHF1tDHSazf28Z4X5ryuShi6yBT4D1fS6zfGz1OOQoC0UAgFJPdqGpj9aRC1Mrq6nL0j4AQWf/YSEkLQwCmwKaWQk8fewGdmldd5s9scnjHE3WVRj2u27/Qdr3+2aNt575OPJ7A3k51G1+egHVZrB+jiYuee3ZaZ7p4wO/4GaojUyWVhUr7aYaZ0fVxdBJZ1J+x6V8BtaVwJgbz9QFZR1pdwSx5ddE8WrH3f1YeEnr/9y0jnyWnWS7C5jRU4MSpb+YIqxs4f9JxZXtmDCHsyfQnuRmDbEUgv0v3fmPLc544iaxzv2eKw6u3s76zP/O8vkS2MZ4tc5z1Sa/cN5e+3vaWanpmr18p51tHdTmL982PsXX30YYnydy3bSsM4yTW721jvC9N+Vw4LUF6G/4cYv3e+HrM4vlvj6/5SF7sIhCSpjQCww/FI3EopDsCQ4n7LoTIxv0tlAlECgGEJ0HoFKf42j+r6yBeqNN0EueD2bFSqOIMm6E9wfpq7zR+dJLQgoP5tmYlFYW2c5zA2QdMCbWYJAt76LSYhAx5pZXFukgdodUwnYjYCgOcuA3i7By/rRnb95gCR1r+xKlVdvYbSVyc4zDPB/DCAcKcmALS+d76aWaWlcbz5gyj8v3O95n8/kGZ6FoVaxPr9y+mt9bWhLkZ0v5YZzF7p/7KKw8Z2Cd9du8bbWXmuG0FYZ44tbK6OUKABBJYQGBcpszf6d+0GqaxcEykBUS5g8M8GXtyTYGJva95In4vFgRMKa8qNU9DTkfy2XKS6UC/C8hhCu185vUE9pXvtJ6Zw9odS8dzHGAtE/vdbnv+sJjw1pq/slfjal3F6+i8jvk+68rxcm+j+b5E8rnQuIZyxO9wHb8Z9Y/sfKYtlnk83Jto/e0JBT+p03wRCGXPqdvjsf9hiCIcjUWaoziFmOhaiGxM3AYZRKwgMLLTybahwDurr9AhuhIcQB3e7nh9qo5D+GPR6RjKVsFx4jSn9BUbVjdxfugecpihZnKMT1M+2fQMlVWVWFmII/vYomuscyTw8VrMpqbfbnuHHvrxMqssNam1lUYCYYhAXiFzd3xID7NH5OV7v1Pnof4DZ0ZmDFnEYPUnOlyQLg+Ei/PDO5q4YI+pKdqMVueB2Dn3jv7ITsBmb31DV7GOCHtyao8rrXOdgBfZRxddTe+um0rzdn6iTD7/vSqPnl12O2HhIbfNINbIemvboQXCPfYlTtLn1Mz4ahNKXr+sUWo8Zl2YWB/eIXDoKYSDObnHFWYz2nRgGX215VVbnj7Bs6bDHMFy4pw+dmKOelmsFU/k/Z9a4Anaue8Y5rPPMI4HOUySKbh2fSSS75xpGo6xVLgP+R2S0zGY87lEw8rqQ2pRBE6+4PDnQvZqbQoW737e+3ozi82PV9Dnm1+w5Zknzus4n3/UjZd7G833JZLPhYk/0nuMcDrOMsSPrfZUqexOrXrwAtYNtirxcG+i8bfHBoKcCAJxgkAo5DtOphK1YSZFrWfpWBCIQwTgoOk/CdNY01jzARlIG6unN6LTSfTj7s/1KYclmWClQ0k4PcgWle9Sex3TkzK8mjvNQXWIE12xGzus2lj8kz6l7aVradria5mMH0bQQpn7Z61KnHh04VVUXl1KXdP7WNmJvJcOH7/acQi0Q1OZBCMGIzS6COEDjXQ4YsYARbvSqv1UyPOFWa5TNuxfYsvazdo1EN+UxDRbPk42GXPGOcK/QFOEmLWQSOKSX7JS9an/AT5YCAApgMCc98J+d9KDP/7CtudzxuZ/MYIempBzsaqj22Mf6Q/s5XfnwY06Sx1B2ubtAon9xJafxPtxJ/W/26+5+/sbHlf3aGh7+wKLdsCEzmDSjPjJkRJ4MIYWWcvoTqcxmUnRp36Po1gr++OumbShuO5e40McmtpRnU6x2m0qXsbhpP5unY/LuYhy2gywznUCzyxMnRHXVgtCIc1ms1rcHzz/sEiA59bMlI4WMUZdxNqFSeY+rnPT8KcIi1ihSCSfrS0Ob9J7y7aphSi8c05ZX7zYlpXP77cpILqvr/kzIRwUxF8M4SM6nUrfbJvOz98Gq/nsbW9Sl/Te5FzYQ4XNjvBNBQc3+xxjLN9ba6KciNb7Esnnwhwv0j/s/Ij2s+b1wv53sg+HLFWM33f/Wf8YYdEMAodelwy8z+fvy1i+N3jvovG3R4Ei/7RoBPiLYHzdxp+mhwLaX/5cGN/0I4nvESTG9/Cb7+iPntQvD7Mb2+cMHEQaCQGsVoNQ7Dq4SV1xYt/bmLBlBrw6PrpBRKCZgCbqPHaioglUoIbYtzZ354dKA6WJM+rD1Hh1rQklVtZhLrmw4HO199CpAcU4QaJKKvbxfsS+1K1NP0V8TK0nCCrqlVeXUFpia/VxA3NDTVBxTWg/sXr/q6GP2Eyly1mba5JnkFnMExqxyQPuCbgHEv1qAUGAuRvInFMDDdKBPcjQogLLpXu/VpremfkvWJoF9FPJ111XtJCpIJsYs5lx65Rs/mgDLtNrtZB1pscHKvfR1gOrFVFun5ZDPdse1mBcftr7LZvufklf5rNDJh6LKdDswByukok2SDlMgNcW/chzsmtv1+9fxKRtqcpHiIwMngM88Q5qN4byi1cwsdpjduuVRpuL+v8fwZGTKdA8anNCaO2XstOlrUzmgTXuHzwo65jIeAauGfKQ9QFs9lPfNIjx4t3/tbScFzHRhrY5mGDuQ9sfx3gtsj2PCOWzoOAzWlv4oxr3F/kv0SF3merupO6X0um9fum3a3hoRexkrZVCRWgki3gfMd4FfOBfNihPLSYAIy14tqGlxeIMNOqpvEUgFMF7h8WGhrxzBWztADNXPPPm7wLMYR1jg8URpHHvQFS+2fY2Ld9n3w9dULZZhdDBPcfvhLfW/lXhqudQXLlX/S6Bt2ktpZX7laXA2qIF6neAzsdxOVsFbC2twQdtVrMzrhV8zRnsNMpdq/FDPfzuwPMObPG7Ut/3WL638Cgc7fclEs+F3raSmtCKYKq879AOQK4EZvPf73hf/Z5Zw/fvk41Pk17cgEOnywZPIV9ey9E4lu+Nfu8i9benBi35NxACczbWWPHMfXv9lED14r3st3ffND4YcUwg95TH/vbkpsaYayjjcZHn5cYaT2PMORrXECIbDVQj0KcQ2QiAWM8uoEnCRz/CqZyYa/fK6qtLfBQUH9pD0NTB+dMQ/jAPRT5Y/zhf5yvbh6tuhw8t7AcEeWvFJr5vrPmLl8ZO193GWld8iI7rPpmJdAb1bjtcfcCCuGoByRqcPVbFkoWpNOYIsgzSjLJ+maPo8sF/ZGLVTjdRxz6s3YIGa0cptDU1RDErpRNrBP+P5+m9R9PW2DiBlu27He96kVhUgVZ2VeFcxnCv0gA9ufQGNR+TiOiuQL5Xcl0sFIA8/Wv5XbWapDoSq+vuLd+mNHPQkCPkRENxeW7ZHUwqFnqRWFwPTpowLpiGwgERnOZAG+5LoBVcXTiPsW5vEVJo3KAZA4mp0ax5z6dzei8moA/bnCvp/jWRBUmraelRIZgwJnzkapNckLRLmcR1Ss/VTSNyBNEC8cQCQv/MI+i4nIkh94tn8QjW4OI92l66ziJUIEa4h3v4ByQTVgXn9r2Zju4aeO8t9hxnsbYV7w/amYLFmquH/I1xH6aeOU1ksYAyvvvFanEG90F/TJtt/aWx0NTQZ+vtNX+jH3Z95PN3AUgpPApXuyspjZ8TaFn1QptzTLDQWMYm2MlstQDzdFPgqRq/V47sXBfzGNi+seYBC3OzPt53bCWAwyzEW3119RRF/kwSq+vjvcTCDSw6TE15rN7bxnhfIvFcaHzTkzOUhQKsDaClL6ooUEVYtMICTc1CZakyq5/Az/HFA++ldmlddHOfx1i9N3qwkfrbo/uTo38EWgqRvf1uNrN3ua70jwR+67k2T/vbE7MD1YlU2e333Hw/99UrUH9CZAOhU1MWS1r24KNtQTVuffc09T1620mPt6BZx8ZUYZL3wcYnOLTOkSGTNXxIfLf9XRVuxPyQa6oZYR/lztKNal8rCBPClDjDAUEbA00KTEwzUzsGHCr22cI0GRoXmBwmJsTnroRI4xIQtHoWwnwahA548xoDtU7KVOQAxN2fph/zgqa3FztAgnZ7D3/sFpTlKyKC/dogd1iYCeRFuJ7DVc22laylx5f8WqWh7XSaNYfaN+YBQoTxQ/MOYg+SiXFDwxWOwGQdCyRwSAZz9L5tR1BHg8CvKVygFkzwwTww+yi/2IZ6zXh4tkKdSzTqxdK9bcz3JRrPBRYkdvLiIkJowZlZGi924v2u7+/mWLo3zmevufztcc4rls6nfnWzGs60iTObNSfAflOPK2FWIOzhgCk3a8CEQHUiVbalaM2sYJ6Je2QNbNb3JBJYCkCRQDEKfQiRjQKo0qUgIAhEBYF31z3K5rWfqj3Vd49+Xe1xi8qFpFNBQBAQBASBiCIgRLYOzsYksvlFq2sMqOou75USIusFiVdGjScUr2zJEAQEAUFAEBAEgiMA09OFBV+oikdxqA84ahERBAQBQUAQEARiCYFQY7c2hqfgzYWr84JhA1IdrI6UE3tsEREEBAFBQBAQBOqJwIxNz6k9ltifO6bzWfXsRZoJAoKAICAICALRRSAkcuhKxN7VqEqCyzUu2AUaM6ZtsLHEcnl8bnSLZURlbIKAICAINEME4Jn7G/YQXVJRqBwvYW/1Nt7LC0+2kGO6nkttHXGMmyEMMiVBQBAQBASBeEXAUz2FXAnjAw0f+1ahlQ1FgxuoH39l0MYG2xuLtuxBeba/PiS/DgEhsnVYSEoQEAQEAUHABwJwuPLhxicJTmEgCJlkxmqFQyrEkhURBAQBQUAQEARiFQGQU96bGnx4NVrZ2cErhl+DnfyHpPGNFpEOf8Sx3UJMi2P7/sjoBAFBQBBocgQQ+sXN3rx9CWKb/pJD2uj4ob7qSJ4gIAgIAoKAIBALCIRiXgyNaSj7WMOdT6h9sjPyKeH23VLrC5FtqXde5i0ICAKCQIgItEnJpuEcH9cpiBt67dBHODxQf2eRnAsCgoAgIAgIArGHAMyLQxBoTkMlniF0R+grVG1sz+yBeaH0KXWIxLRYngJBQBAQBASBoAhc2P8uGsFkdsW+OZSSkKbiDw9pf6yKWxu0sVQQBAQBQUAQEARiAAGY7HIM19mh7FOtJbPUUGIZSsxYDY1oYzUSoR2FyIaGk9QSBAQBQaBFI4CwOoOyx6ifFg2ETF4QEAQEAUEgvhEIwemTniDILO+rvR8EM1xCC6dRHlfCLCbNurugx3CvEbTDZl5BiGwzv8EyPUFAEBAEBAFBQBAQBAQBQUAQqEEAWlk29Z0SqqkvWmntLNKByKYVh5YdRoWi9UV/Wlwe9wSdlmNoCAiRDQ0nqSUICAKCgCAgCAgCgoAgIAgIAs0AAZBRJrOKoIY6HU18oaFFGziOQrxXMy5sHXkNXQuLvqDx7cEEG2mR0BEQIhs6VlJTEBAEBAFBQBAQBAQBQUAQEASaAQIgs7x/dVwd+QxvUmjH5HY8H8Nr6KgNEhtIy+uoLqcGAuK12ABDkoKAICAICAKCgCAgCAgCgoAg0DIQyM0aMCGUkDzRQkNIbMOQFSLbMPyktSAgCAgCgoAgIAgIAoKAICAIxCkCILMglI09fCGxDUdciGzDMZQeBAFBQBAQBAQBQUAQEAQEAUEgThGAaW9jklk4dhJz4oY/LEJkG46h9CAICAKCgCAgCAgCgoAgIAgIAnGMAIhltD0Hw4wZ14Dn5DiGKmaGLs6eYuZWyEAEAUFAEBAEBAFBQBAQBASBxkfg1ndPz5s28bO8xr9y415Rh8dxU8J4XNn0OIxziItodn0dQNX0EORfDs3DTqaU52PUhOdj3SKB3LORFqKrEQl85HslEosI3PruacoF2m0nPR6Lw5MxCQKCgCAgCAgCgoAgIAjEOQJzNs6gORtmGLNwTWluhFaR13rEdTVAaZKkNnUWE2T/8AuR9Y9Nk5YIkW1S+OXigoBPBA5U7KO1RT9Sh1bdqUfGYJ91kFlWVUKrC+dRenJbGpA12m+9UAsqqw/R1tI1lJyQSt3bDAi1WVzXK63cT2uKFlDb5HbUN2tkXM+lOQw+1Ge/OcxV5iAItEQEmhuhjVfy6u/ZE8dQvpERIusblybPFSLb5LdABiAIWAisL1pEc3Z+RMv3fccmQNU0KPtouuqwB6xyndhasobm7PiAluyZRZXuQ9SxVS7dMeolXVyv48HKYnp44RV0sKpYtR/b5Rw6t+/N9eorHhptKl5Oc3d+SD/t+ZqqPJXUrXV/umXE0/Ew9GY5xlCf/eYw+Z2lGyn/wAraXb6VCst3UkpCGnVO76V+urXuS21TOzSHacocBAG/CGwpXEdbi9bGvYZ2c+HqPI7vapnu+p1wHBYIobXfNNkja8dDzgQBQUAQUAhUu6uYvH7ApOoj2l22JSAqCwpmKgK7tWR1wHr1KQQp1iQW7ecXzKCzel1HyYmp9ekuJtu4PW6at/NjtViw8+CGmBxjSxpUOM9+c8CluGIvfbb5efqR32N/kuBKpNN6XEXjciaTi7+QRQSB5ohAbnY/3pvZz5pajcmx535WrjApjH2T4+ZMYPVNAUHPL1p9vxDaGkSEyOonQ46CgCAgCBgIQKM6Y9NzRo7/5OebX2Rz4gPsICKBPOT2X7EeJWmJrW2toCXCR3VzEg8T2Y83PUOJPC/26MgYKhcBzWmKcTWXcJ79uJqYj8EWH9pDjy/5DR2o3EfZqV3otJ5XU6+2Q6m8qpTWFM6nz/NfVJYBsMSYsflfamvB5YP+SKlJ6T56kyxBoHkgMLb3GdZEthauJWhqiWKb0LYEEmvdFE6A0PKcqaXvn5XwO+ZTIWlBQBAQBGoRSEtqTfce+Rb9eewMOin3soC4/Hbkv2jK0R/SRf3vClivPoWHdziBemYMUU2xR/bk3MspMaF5rUFiPveOfoPyxnxAZ/e5sT4wSZsIIhDOsx/By9q6gpn+puJltrxonPx7VZ4isa0S29CvD59GIzuexIS2M3Vt3YfGdZ9ENwx7gvemp1mXXrd/EX219VXrXBKCQHNGAIT2wlE309g+dcS2ltB64OU4Vube0kisxr2WzMbMfdDjasyjENnGRFuuJQgIAnGFQOvkTGVG2D/riIDjbpXURmlJg9UL2ImfwqSEFLp+2ON016h/0++OfJuO7Xaen5rxnQ3HWDDZHJB1ZHxPpJmMPtRnP1rTfXvNgzSTtaHRlO0l6yi/ZKW6RKvkDMpK7eh1uW5t+tGE7hfb8r/b/i6VVBTa8uREEGjOCIDQIoqGN6E9Pa+pCW1LJbH6eQOZ5VA+s/R5SzsKkW1pd1zmKwgIAmEjAG1NKJLGhDZa0r5VNwJhbu7SEuYYT/cw1Gc/knOCx+9dZZsj2aXPvtbuX2jl7yvf4Xcv/LFd7YtH1Z4q2la61morCUGgpSDgTWg9vHcWJsdNQ2hbOonVzx1i3gILfd6Sjs3LPq0l3TmZqyAgCDQaAqHuSQ21XqMNPA4vlOiSP0uxdNsa+5lGqKlPQ9yb3lCcPLzv1ZRFu7+iU3tcaWapNEytMzgMFPbRaoEDuIHZR+lTOQoCLQoBEFr81IXsAaElYkJLjRWDtr4klv0wzFY3y1M9RR1j6B83JYzHcKBlxTEcqTUzbnF7ZuWLIZynROoKAoJAi0Qg1I/5BHb2JNIwBBJcgmHDEIxs61Cf/Uhd9e11D1Fjea7um2mPTwznTr6ILObm3JfeOikzUlOWfgSBuEXAF6FtLA/H4ZI9RWCZvOZmD54dw4DrseUhDi6IbTjzRF1uNzvG5xhR+OWLIaJwSmeCgCAQ6wjA+6iH/daHI/CkG4pEOywHxo5QNcEkUD2UNVRCGUN9rwHPz6FIJOYRynUC1QEO/rDwl++rv0jMpcpdGfZz7WsszrxQn31nO32OuYX6vn2R/zIt3TNbN633MVQsurcZSFkpnazr5LTpb6XNBMIR7WfvxqbkZgw2TyUtCLRoBHyZHDOhjZpDqHDMaEFgXR73hNysARPiieBhrPBIjDA7ioSH+oS5EsPW5obadSzWE41sLN4VGZMg0AwQwIf8t9umU6Wnwudskl0pdHzOBarsG65X5an0WQ+ZNXUvZIdKNSRn18FN9NPeb73qt0/tSiM7nWzLx963r7e9RdtK1lLhoV1UUllICGGTmzGIemQcpkJtDMoeY2sTzZOf9nwTcP9fr4yh1C+rTlMEIrCq8AcVzxYao8PaHUuXD/a2iAJZWFO0gH7geKwr931PfbmPa4Y8pKayjT3Aztr6Jm0sXqrm3611fxrEZpFHdj6D2qV1DTrdah7DnB0f0Hr22ArsgSmcULXjcCVd2Lsr9hD2bFvjWTloZw2osPnAClrM5p/rihZSQVk+tU7OIjjYOq3H1TyPLkF7BkbYfzlv16dK61dauV856erYKlc9D7ltBtHQ9sepuQXqbGPxT+p+4F52bNWd4LUaAgdA8Gi7Yf9ShRNi/XZN76OcBQ1uN9bW5Wq+l6sK59L6IsaU94N2Tu/F92QMHdHpVJW2VfZxUlFdxmP4mBC7GM/2nvKt6rnG/ejWusZBUVZqHUnz0UVUsurzviEEzrvrH1N4mIPaVbqRvtzybyurDWtBj+56tnWuE/XFAgtP1x0+lWMYf0LY335Ul7N0l7bjlpJVtrBa6UltqUOrHFsdOREEBAFS5sZOk+NIa2jDMSkGAQSBjed7o8PrhDpv7JeFNjeeSHtD7o8Q2YagJ20FAUHALwLVrCGamf8CwTGKL0EombH8UQrC+9+tr9Gh6oO+qqm8NsnZXPccSkmsCYOx5cAq+jL/FdvHJSqCiJhE9rPNzysSqzVe0C7hI/RgVTGTssXqB+0Q0uaUHlcgGXVZtu87RcZ8XQgxY105LkVk8XE/r2CG+sjeX7Hbql7pLrfSSJRUFtGCXTOYwH5C+w7tsMqw1xDE7cstr9BXTAbM2Kzb2VENfuZzO4QXyU7rbLVzJoD1O+setcw9Qbh6tT2cMCYQMPws2TNLkS8z5i0WHY7ucjaN6Hiis8uwz/3No5TnDmK7cf8SNY9MH15n9cVAsF5ZdT/tKF2vs6zj5gPLCT8QPEOXD5pCbVM7WOVIlFWV0MKCLxjnj2wLERW19wNlH2z4B5VXl1rtQLDQ70sr76Nz+txEx3Q9l5D33vpptGj3l1Y9JLBAgJ+53P+vhj5K3dsMsJWbJyCur6/+syKvZj7Gks9kHz/o/+e9r1eLFWadaKbr+7499dMtvMi002topVX76Yv8l6x8vLtOIttQLLCQc3qva6xr+ErM54UPU47sfKZ5KmlBQBBwINCUJsd6KNBk9sgekKfP4/0IQstkNrT9szVa2dnxPudQxi9ENhSUpI4gIAiEjQC0UfdwbNDZ294khKswZViH8TSp/92s+UpW2VPGfEhri36kF1fcQ2ysaVVF/MZbhj9NHdNzrTwkRnc+nQ7vMI6eWnoTE6yNqmxC90toQk5dmIzZW99gLeTrVrtxOZPphJwLqQ1r8UBiX1v9JwIRgoDstU/rRqM6nWLVj1bi4gH3UpW7gpbVapRBrk/ImURjmfRpQllcsZf+uuBiGxa+xgNS9Jf5k3wuFni49VtrH/QiTGY/cF7zWf7zhDH5Eji0eXbZ7aTJ2nFdJ9JZvX+tNOOYw9trH1IkFm1BwpwCzWDDiayH3t/wd0XwnP3r8/0Ve+gLvocX9LtdZ9mOIOMv8LOFBQzI6E6nK7y7cmgVaP2w4AKtNwTat8eX/IYuY613T9bYa3nox8us9jpPH/F8f7TxKX3q8/jhhieV9vi9dY/RhuIlPusgEws676//O904/EmfdRYVfEnT1z2s7jme2bN736hIL8LIfMvj2MDPtu7nnXWPUGpiOg3jdyXa0pD37cTcX6gFmXJeLID1hBZo3I/rNlGfknNfamNgASsOOIHSkpHSnk7k3zUigoAgEBwBEFotczbM4CQ8HJ/Gpq+uKfVxChWqVhKa2GiSWGg89bycx2hqQkFmOdTOOGhdndc1z1uSVlaIrHnnJS0ICAIRRSAjpZ3SCu0p22YzG4RpryaxuKCKH5o9mk7veQ19uvlZawwZKdleJFYXpia2YkJYY448IAttf6mLWOtVziT2Des8M6Ujm59eZTls6Zs5Qn2MmuQDGrXGILLQnGoS245NoScNuIc1nEOssSLRlj+Wz+x9nfKUClNhf8QnhTE4u/cNiqzgY3t10TyrH5jh4gda0mO7nc/xWUezKW4mfc4aLnMf4pLds+j8PrdSalK61RYJYPv66gcsEpud2pnO7PUry7wbpsUTmTjCnLms6oDVFqa0PXg+ifzfEDbTbahsL13H2uN1vACRzZrzyxQZrHQfopmbX6SVhXOs7qGBhNYzmcdlCp6F19f82SKhY7r8nM7ve6tVBXFCrxj8J0XKtZYUBP+5ZXdw7N5XLM0stJsQmCYv3vNfqz00vXiOcC9g4nxYu2P4vmXTnJ0f0iebnrbqYWHhkYVXqnOY/J7U/VJl/o13AeTt2+3vWHVBpmEOnuPQysIU+v0NjysS27lVT0V2cV0IrtsvcxT986dblbZdd/bhhicUZtEMa9TQ9+2oWg0n5mcSWWj//ZHGxsICBF1blcDx1aUD/8BmyK01vHIUBASBIAiYZBZVI0Fog1ySomVOjHitIImeAAPIL1qtSqER1mbBAaqHXwRvy66E8UEbthCtbGheNYKiJRUEAUFAEPCPALSlpkD7hX2XTjm223kcKzXDygZJ2Hqg5o+ClVmb2MkaQOwLhJzZ67ra3JrD3vJtNhPPrrxv0Ol1dFh7u5aqsGKXrY9onHy97W02K52qus7hfao3DH/Ci8Tq6x7f7QKlzTwh5yKd5fMIU0uYU5+Ue6lXefu0HLpx2JPKE2uvtkN5P2cuTWbtq6nZAsHyFRNzU/EyGyGCBtyJIRYTjut6vu26MO8FUTyn702EBYNICMx9bxv5vDIv78B7Uru27ssLAHcroq/7h4Z4D2uQnQJzVzxHEJA+c8FD1wVBAQmG9lKLIsv5L+pTtciBhY5TeUHEKSCVNw/7J2sPz1d7dWGNAO2/JmhmfRDO20a+oPZjQqOKxZ6f9f6NIqFmvS2899UpM3k82nT5Ip6/JrG6HkzvfzHw9/pUHUHKsQc0mtIU71tjYLH/0G42v//Mgg73Ce+RiCAgCISPgDY3HtvnDMrN7lfbgdLQhuwUKhQPviCQ4Y8ucAtoYJmgcteBNaFmLxgr2gTS3pr1Q01D4xuNOYZ6/VirJ0Q21u6IjEcQaIYIQOPYiT/2tcDh0hrWbDkFWr4RHex7Kn/Y5fsjHPtCISA5IKqmZLLGywwbAs2nU9qwthdmvVqwpzRagj2en2x8muNjPqMu0aftcLpu6FRl5hzsmoH2fZptnfUw55uGP+Wl0U5k0uaMfwntllM2HVhmyzK9u5oFcLZkylbWJEZSoE2/dsjDSpts9gsNY7+sUWaWcuZlZpRXldIPuz62sqCxTDcWSqwCTqA/mHeb8mPBTN5Tu8HMIifO0BTDDNhp/o5GhzsWS6BhvYz332IBwClOh2POe7KnbKtFSDukdfe7hxZOiNqm2Pf37jhon4Pz2g09b+z3rbGwwMJTda0TujGdf6acmjUUK2kvCLR0BEBoLxx1M4HQ1klwQhsqIYyKFrQhnoAb0rYOIFsqlDlq82Jbw2Z4IqbFzfCmypQEgVhE4Eje1/pJLZHD+H4s+JycnlyRbxJQnMOME5oQ8+Mf4TAW1jrLgeddp4CswIET9i5C6zWmy8+cVdghzkrWMCar/aoo1OaDXhUbmAHN8ztrH+bxfqF6gkbuEtaaOU1g/V0m1HpYBDAF5sn+zEmd3mx9OdoqOLjZ7M4vPjA5NgWLFFgUgFYyEoJ9kk6zZ92vcx6VrJU1BSbU0NRq6c1OqgIJ9mPimdEetPlDgFawB2hzoQQm8VgAQRkEWlCnZlRfI9PhMKo1OyvSnrd1HX3Ewooph3j/synY5wvtOQSWCH+ZP9kstqWLec+wKc57aZZFIt3Y71tjYIFFkHm1i2iwLDin782RgEr6EAQEAUZgS+E66p7VnzWza1W6DhQQ2tPVqXMPrYqpWlfRZyoamkrsyw1HE+scmCaUkd47i33AwcYFzHg8s/mn2YoQ2WZ7a2VigkBsITCy48k0Y9Nz/Cle8zG+Yt8c3rd4wKYhO1R1kAnuTNvA4dBoye7/2kJjwDQZjprgDMqpwdWNYWrrNLeFlgueevGjzZJ1/WgcsXfwlZW/txwJ9cscyRq5PC+yHujaia7Qfk07FwAC9Wmab6OevidmGyc5KzpUYBZb6fTktlYaCaXlZpuqxhB4vjYF5sCmrKx14KTz4OgrkMDMF1pT7cEYdX05sUrge6I1dYH6a5XYJlCxrcxcqEGBx2F6v4fN5U1xzt0sg8bWFGhMoy2N+b41BhZLeBEEz1NGcjveF3s/wZJBRBAQBMJHAKQVMnfjp+qoz9WJ+Y+rlnBhjdDdzMhXNParhrBXNsHlGmdC3BzToX0hNceZy5wEAUGgUREASRjU7mil4cKFQQRAUBFWRwvMiPUeQJ2HI+J+mjEe53NYGgi8sfrT1qkKtf/sLduuPBjDmY/WtsGRjC+SYrZraBohaszQOaXsNRfa5ITE0D+KXbWxc4ONxTSTDlY3FNLbgffXmgLnQ76kuGKfLbsreyoOVYtsa1iPkyRXjddr3VSHWdLnzpAuocwbGmaTyCJerVOgVa2uUcg6i+znYRB6r/vnaAtzWi0w59YxgnVeLB2j/b41BhbLOUwW5Dze7+1crIklrGUsgkAsIaBJauik1fU1SOu0Cz+bHWweIGXaEsZf3VBMbv219ZcfynX9tdX5bo/na52O1BEaXu1YKlJ9xmM/QmTj8a7JmAWBOEXgyE5nWEQWU4B5sSayIHjf1XpuhUMdhO2BNhYCL66I/wknPweYOK3e94PK92VWrApq/0H7T1kLjNifWus4KPtoGs/hbnpnDqM/zptoheAx20UrjTm8y86eJrOn4kiLFxFq4AWGd5hAcJSkzVmxZ3ZT8XIv51Tr9y+yXWlQ9lG282iewNt1IHFqkfHsBBOnuXIobYL1GYnyveXbrW608yorI0YSjfW+NQYWMF/uxg7ZhrQ/NkbQlWEIArGFQNiktdo1BTMIhbTG0kxBQvlPzfhYGpOMpQ4BIbJ1WEhKEBAEoozAwHZjVBgV7KOEgKAWHMynTuk9VDxSxAOFOSb2KhZx/EZoYrXM2/mp8oSLvbEgpfBeG2jP4+6DW+illfdZJsTQtF3Y/66IedLV4wp0hJfgnhlDaEFBnedTaIW7txmoPNwGatvUZYhpe2rPqzjMzfPWUD7mMDO/HPI3a+9tSUUhfbXlVasc3nudHqqtwiZIOM2y8XwFEyeRDWaOHKy/SJWbCxWIbYqFH6cX6Uhdqz79NOb7Fm0sDlYWq3BNCFslIggIAjV7WoFDyJrWKJDWYPtBo3WfEsjNe1ET7m9I/+ijIe39teXfhQH3yTYVZv7GG418IbLRQFX6FAQEAZ8IYJ/ZKN4r+8326VY59sSe0etaK34kwslgv+CRHFvSJLJwloQ4pgtqw2Ec1elMqw9nooT3zz6/4m72YrtTFWWndqHrhz2u4rM660b7/Ny+tyhtshni5pON/6QcNsGFVjiWBTE8ERP1nXWPqGFi4eEfS66nkR1PUucwBT9QsVelYap92cA85fwoVubUkRc79KIJxqSfh0Djc5pyZzmcWQVqG82y9uyNOL9kpboETKjn8yIP3pVgAqdmezmOM0I0RUsa+32LNhbFHLIIgmdaRBBoaQjEq6YVpC4a9womvOzwaQprZetFZuGAqgf3EY2xtQSiGgw3IbLBEJJyQUAQiCgCo9l7sUlkoWHtxd5kdx7cyA5Vkq0QFz0yBlOX9D6cXxM6BHtnP970NBWUbaYE/g8xPf3JooIvbaTl2K7nBSWxwfbe+LtWsHzsF0XIlceX/FppeVAfGuVXV/+Rbhn+NLV1eLYN1l9jlzvD6yBm6JdbXlHDcPF9QKzasUyojmGMY80hDkI+bSz+yYJsTeF8Za7udGRlVeCE05Q4l7XnsSDQ7pvyBd8DvAOB5oL6H254ghBLNppEtrHft2hj0SYpkwZmHUVd03ubkEtaEGiWCIC4NqWmNVRQm1L7iL23TGYpXDILEhuNfbvhYBZq3XitJ0Q2Xu+cjFsQiFMEoOVA7Fdo9yAIFfLSyt+pNLS1cAql5SjWyn648Ql9SnN3fqjSg9qNtdWzKtQm1u1faMvqnz3adu7rxOOp8absq6yheTDTvXjA7+gF1hJrwgxN4Sur7qdfH/4YOUPnNPR6kWqPPaZPLb1JdYdQSSDkJbzPFPlpHHcVoY0QjiZWJTdjkC2ObIW7nJbu/YZGdzrN75CdRHZExxP91m3MAid5w/MzY9O/6Ow+N/LHle+9wkv3fK3es6M6nxXVoUbrfXN6btaTiDYWCIV09ZC/6svJURBo1ghMX/i4fX7ae3AUzIPtF4qvMxBSjmU7uzakDUcf8O8RGPtqYU4cLU1sfCEX3dEKkY0uvtK7ICAI+EAATpo0kTWLj8+50DxVWqRPOfas9jSsC4/yETtWl+GIfbemYC8nOcwEQcYQwkeLGW+06NBuykrtqItYf1ptpZHwR3o9vPxqink+gMn0KT2upM/zX7SqAIP31k+ji3jvrj9xXsvth3A7PfZqJ02++3WO0zeJf3XVFPa6XLOvdFL/u5XGNZNxwU+0RDvl0v0Hmod9Ft73BSGfvtryb9bO79Ld0Xzea+2PyCLmL0I7acH+ZuzFdop5D5z3x1Y3wPNgq8cneoFD5zv7RegmhE0q45BVWr7f+T4VVRTQ5P73eHnvXr9/Mb219kFVtSEOi0J59iP1vpl7XzHwUt6ragq8FSOUULSxwO+GrSWr1UINHMyJCAItAgG3a0K8OWJy3hcmmuMjHa/VvEZt37PNvKZKI75tsGtHw1tysGs2dnlCY19QrhciArUrYnqvQoitpJogEBcIwCOuMw7m4OyxvCetp2386fzhPrT98f/f3rkHR1XdcfwsKA9TIb4olBgkAj5nfP1RddoS1BH9w8GphWmhVbHWduzAoJ2q7dgCnbaj9QH10T+sfWhnakdE2lJF2lpDFUlREBkhQiKPEEBAIASCQUK253vCWe7ebLKbzW72kc+ZCffm3nPP43Pvhv3e3+/8fnHHTh1whjkvSWTcoSF33VesGP609VCsHeWRnffenbHftSNrXZNd7/nm9pfMr1Z9K/7c8ejJ/uCRtvZoyv53vz1y7LDfdVu1GSzXlE0zsmwGi9YIVzW8EDwUt5+sTV9ZOXmD5bNQTtXgOQUKCpZwHzq341Bd3MuG52t+apbvWGSDclWZGpsDuK5xtYtivP1Qrdnz6TajADlB4R5svzv7PlK1vyacG9Yf1zYs3o+E7pOsxdeV3xa8xCj6cjBAVfDkur1vxdIlyW16krV2hovYBXPIKldwZyX8AqaruUhEB0t4LkoBc3357cEqbn/9vrfNY+/dYRbWPW5WfvyKW1f+pw/nmGc++IHRyxl5P4wrTe6R0KHh4wfC9yPRs5+pz9vAk0rihqHnyqfaqd75d/PI6tuM7lE2WciK/dC704wYzl9zl3nNWr0pEChWArHvmPY7Z76L2JREWXu+1mK9XcwrAQEssgmgcAgCEMgugUH2C6sEqiL4+jJ+5BS/G7eVe/GaT/4TOyZrWrJ8oEqbEVwbuaO51n4p/Y4pP/VCo7QanQX9eWz1dJfHdoRdmxssWw+uD/5qdjVvNi2tzda9Nv5wyPSxAAAMsUlEQVSLtw/G4yvLbVrieIgV3ypyAZ085ofmoVXTYqmFdHzJ1met1TdqJoz8Rgc30a025U2w7D681Ynywda1N1i22aA+waIAPxLv4Xqq81HTmmBVU2+ZhMvO42uT/fFNTe8b/XRVBvY/xYwdermLXFx2anprSxWcKFgaW3bZtcUHjV5qhMvmprVxh2RFCxe5q6/atTRu7LKKK4p1cJ31lqYPzF8/+nXscj2PIz83Lva73wnmmNWx5tYDZr8do9zHw2XTgXhee1oa7H1vSRgQa0tgLa/aUd5eWX6Vs9aXK4ffZFNJ/cOtJ/fHtFWu4pU28JZ+gkUu67KkJ/u8BK8J76fy7Gfq86Y11kMGnOmWG2gcssY/bl846RmW90TJyaXmwtOvdkPMFou3dy5y/XoOK+xyhuvKb81b938/TrYQSIdAQ2NtOpfl5JpUogf3peBHqazXzVa05Jw8AJ102r+T4xzOMYErp4xVlInKgy17zUUjvpjj0dA9BDJPQGl2Vu35p2tYVqOJo+5I2IkiDkvwepfKKWPusxaZjqImeLHcAfWlPmg5U7CoXYe3WKF6yAzqX2Kmnveg2dfycexLs66XBW3Y4HJz18WPuiA6G/avdH3/27qntkVbY120Rj8zPn+qLHcbG99tr1f/vLPsxiraHa0flMvkUStgJHbk8lnbuMqEraBqb5MVZjoua/WO5jqbc3e5Fbm/C/V91LWh+ZScPNTss5GZ39vzulla/3sTtPgds+Ots21KPGtfc5b197/bXzTrbLvBogBaijwr65vWvSqti6IVr1D+3cC8g9ck2hfv3Z/W28jSS2xKpVHdivpas6/arYGWtTQ4D7kabzju7qt5SCyvtvmH37Q5h2WdCxbdX7040DpePQOKQKyfi8/4krtferHgy7p9b7m0SLX7V7kXJf+q/6Px1sZry75pbjjn276q224+sNYocrZeOoStlBsb33FiUVZUCeS1e5e5semeaMy+HLUWelmynRuxdTsusWsxlUv5TRvFW14Ckm6+KEBTw8ENTigroNaA/oPcXM63Kazqm9bHXL59/fBWz9CUsfebiqGXhE+l9Huqz77WtGfq86aBtdiXL8EXFBKz8mzQ50z5l0eUtL9k0n3NBgsJVz1Dvqif8TbvdD6lOvJjYwuBnhJoaKwzDTbYk33N+lz1i3VVPW0vm9fPe/jpLfc8MGNOsj5m3T8jMv/hp6qS1Svk83Irtv+1VyabQ/lp509PVqfQzyNk8/QOXjl5jP27Ym4fOvh0hGye3iOG1TMCEqj6Ei9hedPouzsVPRJicpOVIKwYcon58sivJe1YYme0rStxqPZ9kaCUC/P0C39hrbMXOCuLRJLEks6NsdbEWy/4WSyQ1CK7flU5YBOJOYmimv0rnOBdtv0vbnxhV2L1q6A8NfurnVVRgYMWb3raitTEb8FlKZaAkPu0LEMSTp31LTEsy7Hcff+3a3Gc+PPz1RdyuQEfazvqgjP9eePPnZj354NbWTM/sMLw6hGTXPojpUAaU3q5S/MSrJfKvoRanR3fVcMnpRwM6m8fPWEF5esJ5yGRrbWrEoKDrRX8hY2/7GCV9ONSmqNa+2JhfNnXY1GUZZm8wlryJUr0gsC7/OplgKIwf2J/JJhksb/53JkJ09rIivvWzoUdRKz6lVX2Q3uPm47sdeu6n177fTeGoIj142t/bqqdpVVBi55dd9/xyNwnRKyvq7FJJMsV31v1ZZ28Ytj1jlO7Jb3jdQqodudFj/QoZ3Kqz77Wfmfq86Z5Vwy91AUT29msaOXtcysdMMxalu834bW+2WChsFn6XPuiNGB6EUKBQDESWLD6yfZptUXmVi+o25Lvc7z3gZmVdozndDVOCbx5Dz01t6s6hX7u3h/NeCPZHBQxudgFvRjobzYlTwnMenniG/b/8crJl880Z59mhS0FAkVGQBa1bVZAXV8+Pc6FMjxNRZKVJfEC61ZY0Y3cq1oj+LF1A9ZaO4lDpVIZeNIpcc03Hz3gLJyjrIjJZhCjuE4L4BetBX3uw584Ya2gR4q6fLi1ybp4HnDu17JKynIqK6Ss5XJjVqqkBusS6wXcdy+e16371RtY9EzoJcAn1vVagltzkBVVlr5CC+wjN2UJc7nL63/zEps2Ru7QEshBl+Te4Ko+Mvl50/OkecnrYLhNg5PMIppJFnLrXmfXHuu51/rizqJC9xZX+oFANgis2LzErNgkTxBj5t+ytCD0gII5RSP9koo4+2K66uzScROywS3XbR63xs5ONg4J2Vym/kk2vkydL4gHN1OTLbR2Zi28YY59Iz1bIlZilgIBCECgtwi8VPuoeWf3Ers2dYi559LfppzvVi8Nnnz/buciPXXcg+aSs4ryu0Rv3Qb6gQAEIJAVAieEbGTu/Ftem5OVTrLQ6LbGjW/Yl5CVyZouRiGXqogVm/LS8/qExjsRRSLZE8H5Xifg/7Aoqlwsslyvj4IOIQCBvkZg/d63nYjVvC8769qURazqnzmozJwUac8t+/mS0TpEgQAEIACBPCJwQsTKGls4ItYhjB6bmwpK62I8O5UUNam0lQ91uiNiJeLzYcy9MQaEbG9Q7lEfEfcwVm9+tUetcDEEIACBVAks2nQieq+C7HSnLN/5slszKnfd4aHcvd1ph7oQgAAEIJAdAt6l2K5JKDjBo1yuch1OhYzErCy4qdTN1zpyp9YcNJdUxliMluiu5t29byhdtcS5rBBwb8psfi9ZZBesfiIrfdAoBCAAAU9A65GD0X0V4OjVLc/YlEW7fJWEWwVkUs7NxZt/485PqpiRsB4HIQABCEAgdwRkjXVFuWMLzRrrsaVolVV1uSHXN26IFqJ1VmPWmuBUXKk9mr62jfS1CRfqfGctnBjV2K+quNFcNfrGQp0G44YABAqAwBNrvmcU/TdYFNX5XBtRdkTJGBfVWWtnW22gJEVGVtTf9XuXx6IBTyy/w1xz9rTg5exDAAIQgECOCcS7FBdGgKfOkHXH1TbYhqy5bdHoMp9jVRbe4Plc7cvyGus70n92OuK1r1ljxQshG3tq8ntn1oIbKk2/qHOPQMzm971idBAodAL1B2vMH9b/2EUp7s5clIP35oqZ5tzSy7pzGXUhAAEIQCDLBOTVF4u30haZMH/ya1VZ7jLrzacrZrM+sBx00BdFrDAjZHPwsKXbZVDMqg0EbbokuQ4CEEhG4EjrYbNy96suT63y23ZVlEd0QtlU85UvTE6aJqWrdjgHAQhAAAKZJSDxqjgrxSZiPaVUoxj7+sW4LeZ0Q8nuF0I2GaE8PO/zy2poErNui7ux48A/EIBAZgm0RduMLLT7Wna4dbKNR3bbN6ARl6t02CnlZtjgUaZ04DBybWYWO61BAAIQ6BGBDgJWa2K/unRCjxrN04v7spjtyyJWjyNCNk8/lMmG5XPMBut5UVtWOtYo9ywFAhCAAAQgAAEIQKD4CXiLq89y4X9vn3lh5YpN5271RTfjvupOHHw+ELJBGgW4n0jQFuA0GDIEIAABCEAAAhCAQKYIWAusiUaWFWxk4jQ49CUxi4htf0AQsml8UPLxkvb1s6bSRKLj3fiidp8CAQhAAAIQgAAEIFD8BCRcVax4NW3WjbgIgjm5+aTxTzELWrkSG5t+KF+iLadxezJ6CUI2ozhpDAIQgAAEIAABCEAAAhDIJQGJWfUfiZjZuRxHpvpGwCYmiZBNzIWjEIAABCAAAQhAAAIQgECBE5Co7ReJjE8nN2sup+7Fq8aABTbxnUDIJubCUQhAAAIQgAAEIAABCECgiAhs219T2Wb6VfopSeD6/Vxv26LRZRpDP9NWpS3iVRQoEIAABCAAAQhAAAIQgAAEIAABCEAAAhCAAAQgAAEIQAACEIAABCAAAQhAAAIQgAAEIAABCEAAAhCAAAQgAAEIQAACEIAABCAAAQhAAAIQgAAEIAABCEAAAhCAAAQgAAEIQAACEIAABCAAAQhAAAIQgAAEIAABCEAAAhCAAAQgAAEIQAACEIAABCAAAQhAAAIQgAAEIAABCEAAAhCAAAQgAAEIQAACEIAABCAAAQhAAAIQgAAEIAABCEAAAhCAAAQgAAEIQAACEIAABCAAAQhAAAIQgAAEIAABCEAAAhCAAAQgAAEIQAACEIAABCAAAQhAAAIQgAAEIAABCEAAAhCAAAQgAAEIQAACEIAABCAAAQhAAAIQgAAEIAABCEAAAhCAAAQgAAEIQAACEIAABCAAAQhAAAIQgAAEIAABCEAAAhCAAAQgAAEIQAACEIAABCAAAQhAAAIQgAAEIAABCEAAAhCAAAQgAAEIQAACEIAABCAAAQhAAAIQgAAEIACBoibwf2JKbOIwSPwLAAAAAElFTkSuQmCC;" vertex="1" parent="1">
          <mxGeometry x="854.34" y="560" width="378.41" height="184" as="geometry" />
        </mxCell>
        <mxCell id="trXp6Y1SY67JESG5djMZ-33" value="" style="shape=image;verticalLabelPosition=bottom;labelBackgroundColor=default;verticalAlign=top;aspect=fixed;imageAspect=0;image=data:image/svg+xml,PHN2ZyB4bWxuczp4bGluaz0iaHR0cDovL3d3dy53My5vcmcvMTk5OS94bGluayIgeG1sbnM9Imh0dHA6Ly93d3cudzMub3JnLzIwMDAvc3ZnIiBoZWlnaHQ9IjIwMCIgd2lkdGg9IjIwMCIgdmVyc2lvbj0iMS4xIiB2aWV3Qm94PSIwIDAgMTAyNCAxMDI0IiBjbGFzcz0iaWNvbiI+PHBhdGggZD0iTTQzMi42OTQ0NDU2NiA3NC4wNTkxNDM5MmMtMjAuMDQ1MjMyMTggMy4yNzY2MjQ0MS00NS40ODcyNTgxMiAxMS4zNzE4MTQwNi02NS43MjUyMzMxNSAyMS4yMDE2ODcyOC01MC4zMDU4MjMzNCAyNC40NzgzMTE3My04OC44NTQzNDUwMSA2Ni4zMDM0NTk3NC0xMDkuNDc3ODA1NzQgMTE5LjMwNzY3OTAzbC00LjA0NzU5Mzg0IDEwLjIxNTM1ODkxLTE2LjM4MzEyMjA5IDQuODE4NTY1MjRDMTIwLjY0NDE1MDU4IDI2My4xMzk2NDk5MyA1Mi42MDYwMDcyIDM4Ni42ODc2NjU2MiA4Ni4xNDMyMjI3MyA1MDMuODc1MTc1MzFjNi4zNjA1MDYwMiAyMi41NTA4ODUyNSAyMS4zOTQ0MzAxNSA1Mi42MTg3MzM1NyAzNS42NTczODI5NyA3MS43MDAyNTM0N2wxMi4xNDI3ODUzNiAxNS45OTc2MzY0NC00LjQzMzA3OTUyIDE3LjM0NjgzNjI1Yy01LjU4OTUzNjU1IDIxLjk3MjY1ODY3LTcuNTE2OTYxMTMgNTUuODk1MzU3OTktNC40MzMwODE0NiA3OC42Mzg5ODYwOCAxMi4xNDI3ODU0IDkwLjIwMzU0Mjk5IDc3LjQ4MjUzMDk3IDE2NC40MDk0NTE0MSAxNjQuOTg3Njc5OTcgMTg3LjM0NTgyMjM5IDIzLjcwNzM0MjMgNi4zNjA1MDYwMiA2MS40ODQ4OTQ1NSA4LjQ4MDY3NTMyIDg1LjU3NzcyMDU3IDUuMDExMzA4MDRsMTUuODA0ODkzNi0yLjMxMjkxMjEgMTQuMDcwMjExODggMTMuMjk5MjQwNWMxNy43MzIzMjAwNCAxNi43Njg2MDc3OSAzMi43NjYyNDQyIDI3LjE3NjcwOTU0IDU1LjcwMjYxNTE0IDM3Ljk3MDI5NTA4IDgxLjE0NDY0MTA3IDM4LjkzNDAwNzM2IDE3OC40Nzk2NjEzOCAyNC40NzgzMTE3MyAyNDUuNTU0MDkyNDktMzYuNDI4MzU0MzEgMjIuNTUwODg1MjUtMjAuNjIzNDYwNjkgNDQuOTA5MDI5NTgtNTMuMDA0MjE5MjIgNTUuMzE3MTI5NDktODAuMzczNjY5N2w1LjU4OTUzNjU3LTE0LjI2Mjk1NDY5IDE1LjYxMjE1MjY2LTQuNDMzMDc5NTZjMjAuMjM3OTc1MDItNS41ODk1MzY1NSA1NC41NDYxNjAwMi0yMi4zNTgxNDI0MiA3MS41MDc1MDg3Mi0zNS4yNzE4OTkxNiA1MC4xMTMwODA0OS0zNy45NzAyOTUwOCA4MS4xNDQ2NDEwNy05My42NzI5MTAyNCA4Ny44OTA2MzI3Ni0xNTguMDQ4OTQzNTQgNS43ODIyNzkzOC01NS4zMTcxMzEzNy0xMi45MTM3NTQ4My0xMTYuMDMxMDU0NTctNDkuNTM0ODUyMDMtMTYwLjc0NzM0MTMybC02LjM2MDUwNTk2LTcuNzA5NzAzOTggMy44NTQ4NTI5MS0xMy40OTE5ODMzNGMxMi41MjgyNjkxNy00NS4yOTQ1MTUzIDguMjg3OTMyNDctOTguNjg0MjE4MjktMTEuNTY0NTU2ODctMTQzLjc4NTk5MDczQzg0My42MjE2OTk5MyAxOTMuNTU5NTY1NzQgNzY0LjU5NzIyODE4IDE0MS41MTkwNTg3OCA2NzcuMDkyMDgxMTMgMTQxLjUxOTA1ODc4Yy0xMi41MjgyNjkxNyAwLTI4LjMzMzE2NDY2IDAuOTYzNzEyMjktMzQuODg2NDEzNSAxLjkyNzQyNjQ4bC0xMi4zMzU1MjgyNSAyLjEyMDE2OTMtMTQuMDcwMjA5OTctMTMuMjk5MjQwNTJDNTg2LjMxMDMwOTYxIDEwNC4xMjY5OTIyIDU1MS4yMzExNTMyOCA4NS42MjM3MDA4MSA1MTAuMTc2OTc2NiA3Ni43NTc1Mzk4NCA0OTMuNjAxMTExNyA3My4wOTU0Mjk3MiA0NDguODg0ODI0OTEgNzEuNTUzNDg4OTUgNDMyLjY5NDQ0NTY2IDc0LjA1OTE0MzkyeiBtNzMuMjQyMTkyMzUgNjAuNzEzOTIzMThjMjMuMTI5MTEzOCA2LjM2MDUwNjAyIDY1LjcyNTIzMTI1IDI5LjY4MjM2MjYzIDYxLjQ4NDg5NDU2IDMzLjcyOTk1ODQtMC45NjM3MTIyOSAwLjk2MzcxMjI5LTQxLjI0NjkxOTUyIDI0LjI4NTU2ODg5LTg5LjQzMjU3MzUzIDUyLjA0MDUwNTA0LTQ4LjE4NTY1NDAzIDI3Ljk0NzY3OS05MC43ODE3NzE0OSA1My41ODI0NDc3NS05NC40NDM4ODE1OSA1Ny4wNTE4MTUwMWwtNi43NDU5OTE2OSA2LjU1MzI0ODg3LTAuNTc4MjI2NTkgMTI5LjEzNzU1MjI0Yy0wLjE5Mjc0Mjg1IDcxLjEyMjAyNDk2LTAuNzcwOTcxMzQgMTI5LjEzNzU1MjI1LTEuMTU2NDU3MDUgMTI5LjEzNzU1MjI0LTAuNTc4MjI4NSAwLTE3LjM0NjgzNjI5LTkuNjM3MTMwNDEtMzcuNzc3NTUyMjMtMjEuMzk0NDMwMTRsLTM2LjgxMzg0LTIxLjM5NDQzMDE3IDAuNTc4MjI4NTMtMTE3Ljk1ODQ4MTAzYzAuNzcwOTcxMzQtMTE2LjIyMzc5NzQxIDAuNzcwOTcxMzQtMTE3Ljk1ODQ4MTA1IDUuMDExMzA4MDQtMTMyLjIyMTQzMzg0IDkuODI5ODczMjUtMzEuODAyNTMxOSAzMC42NDYwNzQ5MS02My40MTIzMjEwMSA1NC45MzE2NDU3MS04Mi44NzkzMjQ2OSAxNi43Njg2MDc3OS0xMy42ODQ3MjYxOCA0Ny4yMjE5Mzk4My0yOC4zMzMxNjQ2NiA2OC4yMzA4ODYyMi0zMi45NTg5ODcwMiAyMC40MzA3MTc4Ni00LjQzMzA3OTUzIDU4LjAxNTUyNzI1LTMuODU0ODUyOTMgNzYuNzExNTU5NjIgMS4xNTY0NTUwOXogbTIxMi4wMTY4NzY5NiA2OS4xOTQ1OTg1YzE4LjExNzgwNTcxIDQuODE4NTY1MTkgNDguNzYzODgyNTUgMjEuMDA4OTQ0NDkgNjMuNzk3ODA2NjUgMzMuNzI5OTU4NCAyNC40NzgzMTE3MyAyMC40MzA3MTc4NiA0NC4zMzA4MDEwOSA1MS44NDc3NjQxNSA1My4wMDQyMTkyMiA4NC4yMjg1MjI2NSAzLjI3NjYyNDQxIDExLjU2NDU1NjkgNC4yNDAzMzY3MSAyMS4yMDE2ODczMyA0LjQzMzA3OTU3IDQwLjY2ODY5MSAwLjE5Mjc0Mjg1IDEzLjg3NzQ2OTAyLTAuMzg1NDg1NjcgMjUuODI3NTA5Ny0wLjk2MzcxNDE5IDI2LjQwNTczODE5LTAuNzcwOTcxMzQgMC43NzA5NzEzNC00Mi43ODg4NjAyOS0yMi43NDM2MjgwOS05My40ODAxNjc0LTUyLjA0MDUwNTA3LTg0LjAzNTc3OTgtNDguNTcxMTM5NzItOTMuMDk0NjgzNjItNTMuMzg5NzA0OS0xMDEuMTg5ODczMjYtNTMuNTgyNDQ3Ny04LjA5NTE4OTY0IDAtMTcuMzQ2ODM2MjkgNC44MTg1NjUxOS0xMTMuNzE4MTQyNDEgNjAuNTIxMTgyMjItNTcuNjMwMDQxNiAzMy4zNDQ0NzI2OS0xMDYuNzc5NDA3OTEgNjEuNjc3NjM3NC0xMDkuMjg1MDYyOTIgNjMuMjE5NTc4MmwtNC4yNDAzMzg1OSAyLjg5MTEzODczIDAuMzg1NDg1NjYtNDMuOTQ1MzE3MzEgMC41NzgyMjg1My00My43NTI1NzI2MSA4NC44MDY3NTExNi00OS4xNDkzNjYzYzEwNy4xNjQ4OTM1OC02Mi4wNjMxMjExMyAxMTYuMDMxMDU0NTctNjYuNDk2MjAyNTggMTQxLjg1ODU2NDI1LTcxLjg5Mjk5NjMgMTMuMTA2NDk3NjctMi42OTgzOTU4OSA2MC41MjExODAzNy0wLjk2MzcxMjI5IDc0LjAxMzE2MzczIDIuNjk4Mzk1OXpNMjQ3Ljg1NDI3NjMyIDUxMi43NDEzMzYyN2MyLjUwNTY1MzA2IDMuNDY5MzY3MjcgNDMuNzUyNTc0NTEgMjguMzMzMTY0NjYgMTExLjc5MDcxNzg5IDY3LjY1MjY1NzcgNTkuMTcxOTgyNCAzNC4zMDgxODUwMSAxMDcuOTM1ODY0OTQgNjMuMDI2ODM1MzQgMTA4LjEyODYwNTg2IDYzLjc5NzgwNDggMC41NzgyMjg1IDEuMTU2NDU1MTMtNjYuODgxNjg4MjYgNDEuMDU0MTc2NjctNzEuNzAwMjUxNTYgNDIuNDAzMzc2NTQtMi4xMjAxNjkzIDAuNTc4MjI4NS0xNzUuNzgxMjY1NDctOTkuMDY5NzAzOTgtMTkwLjYyMjQ0Njc5LTEwOS4yODUwNjI5QzE1NC4xODEzNjYxIDU0MS44NDU0NzAzOCAxMjcuMDA0NjU2NTcgNDc2LjY5ODQ2NTc2IDEzNy42MDU1MDExNyA0MTUuMjEzNTczMTNjOS4yNTE2NDQ3NS01My4wMDQyMTkyMiA0My45NDUzMTU0LTk4LjY4NDIxODI5IDkyLjMyMzcxMjI3LTEyMS42MjA1OTExN2wxMS45NTAwNDI1OS01LjU4OTUzNDYzIDAuOTYzNzEyMjYgMTA5LjY3MDU0NjY1YzAuOTYzNzEyMjkgMTA3LjM1NzYzNjQyIDAuOTYzNzEyMjkgMTA5Ljg2MzI5MTM5IDUuMDExMzA4MDMgMTE1LjA2NzM0MjI5eiBtNDY3LjU5MzU4NTU4LTEyNi4yNDY0MTM0OWMxMDkuMDkyMzIwMDUgNjMuMDI2ODM1MzQgMTA1LjQzMDIwOTk0IDYwLjcxMzkyMzIxIDEyMy45MzM1MDEzMyA3OS42MDI3MDAyNyA3Ny42NzUyNzM3OSA3OS42MDI3MDAyNiA1NS4xMjQzODg1MyAyMTAuODYwNDIxODMtNDQuNzE2Mjg2NzYgMjYxLjE2NjI0MzIzLTYuNTUzMjQ4ODYgMy4yNzY2MjQ0MS0xMi45MTM3NTQ4MyA1Ljk3NTAyMDM1LTEzLjg3NzQ2OTAxIDUuOTc1MDIwMzQtMS4zNDkxOTc5NiAwLTIuMTIwMTY5My0zNy41ODQ4MDk0MS0yLjUwNTY1MzA5LTEwOC43MDY4MzQzNy0wLjU3ODIyODUtMTA2Ljc3OTQwNzkxLTAuNTc4MjI4NS0xMDguODk5NTc3MjItNC42MjU4MjQyNy0xMTQuMjk2MzcwOTYtMi41MDU2NTMwNi0zLjQ2OTM2NzI3LTQyLjIxMDYzMTc5LTI3LjU2MjE5MzMtMTEyLjE3NjIwMTYzLTY4LjAzODE0MzM4LTU5LjU1NzQ2ODA1LTM0LjMwODE4NTAxLTEwOC4xMjg2MDc3OC02My4yMTk1NzgxNy0xMDcuNzQzMTIyMTEtNjQuMTgzMjkwNDUgMC41NzgyMjg1LTIuMTIwMTY5MyA2OS4wMDE4NTU2Ny00MS42MzI0MDUxNyA3Mi4wODU3MzkxNy00MS44MjUxNDgwMiAxLjM0OTE5Nzk2IDAgNDEuNjMyNDA1MTcgMjIuNzQzNjI4MDkgODkuNjI1MzE2MzcgNTAuMzA1ODIzMzR6IG0tMTU3LjQ3MDcxNjk0IDQyLjQwMzM3NDY0bDQ3LjIyMTkzOTgzIDI3LjM2OTQ1MjM2djExMC4yNDg3NzUxN2wtNDUuODcyNzQxODkgMjYuNDA1NzM4MjFjLTI1LjA1NjU0MDIzIDE0LjQ1NTY5NTY1LTQ2LjY0MzcxMzIzIDI2LjU5ODQ4MTAzLTQ3LjYwNzQyNTUgMjYuOTgzOTY2NzItMS4xNTY0NTUxMyAwLjM4NTQ4NTY3LTIzLjEyOTExMzgtMTEuNTY0NTU2OS00OC43NjM4ODI1My0yNi40MDU3MzgyM2wtNDYuNjQzNzEzMjMtMjYuOTgzOTY2N3YtMTEwLjI0ODc3NTE3bDQ2LjgzNjQ1NjA3LTI3LjE3NjcwOTU2YzI1LjYzNDc2ODc3LTE1LjAzMzkyNDE1IDQ2LjgzNjQ1NjA1LTI3LjE3NjcwOTU0IDQ3LjAyOTE5ODg5LTI3LjM2OTQ1MDQ2IDAuMzg1NDg1NjcgMCAyMS43Nzk5MTU4MyAxMi4zMzU1MjgyNSA0Ny44MDAxNjgzNiAyNy4xNzY3MDc2NnogbTEyNS42NjgxODUwMSA3Mi44NTY3MDg1NWwzNi4yMzU2MTE0NCAyMC44MTYyMDM1NyAwLjU3ODIyODUyIDEwOC43MDY4MzQzNmMwLjE5Mjc0Mjg1IDY5Ljc3MjgyNzAxLTAuMTkyNzQyODUgMTEzLjUyNTM5OTU4LTEuNTQxOTQwNzggMTIyLjAwNjA3NDk0LTIuODkxMTM4NzMgMTguNTAzMjkxMzgtMTAuMjE1MzU4OTQgMzkuODk3NzIxNTUtMTkuODUyNDg5MzUgNTcuMDUxODE1MDEtMTAuNzkzNTg1NTUgMTkuMDgxNTE4MDMtMzkuNzA0OTc4NzIgNDguNTcxMTM5NzItNTguMjA4MjcwMTUgNTkuMTcxOTgyMzUtNDIuOTgxNjAzMTQgMjQuNjcxMDU0NTYtODkuNDMyNTczNTUgMzAuMDY3ODQ4My0xMzMuOTU2MTE3NDYgMTUuNjEyMTUyNjYtMTUuNDE5NDA5ODEtNS4wMTEzMDgwMy0zNC42OTM2NzA2OC0xNC40NTU2OTU2NS00Ni4wNjU0ODQ3LTIyLjc0MzYzLTYuOTM4NzM0NTItNS4yMDQwNTA4OC03LjkwMjQ0Njc5LTYuNTUzMjQ4ODYtNS43ODIyNzk0LTguNjczNDE2MjQgMS41NDE5NDA4LTEuMzQ5MTk3OTYgNDIuMjEwNjMxNzktMjUuMjQ5MjgzMDYgOTAuMzk2Mjg1ODItNTMuMDA0MjE5MjJzODkuMjM5ODMwNzEtNTEuODQ3NzY0MTUgOTEuMzU5OTk5OTgtNTMuNTgyNDQ3NzVjOC44NjYxNjA5Ni03LjkwMjQ0Njc5IDguODY2MTYwOTYtOC40ODA2NzUzMiA4Ljg2NjE2MDk1LTE0MS4wODc1OTQ4MiAwLTY4LjgwOTExMjgyIDAuMzg1NDg1NjctMTI1LjI4MjY5OTMzIDAuNzcwOTY5NDktMTI1LjI4MjY5OTMgMC41NzgyMjg1IDAgMTcuMTU0MDkzNDUgOS40NDQzODc1NyAzNy4xOTkzMjU2NCAyMS4wMDg5NDQ0NHpNNjA1LjE5OTA4NDc5IDY1Ni43MjAwNjk4MnY0My4xNzQzNDU5OEw1MzcuMzUzNjg0MjcgNzM5LjAyMTE2NjAzYy0zNy4zOTIwNjY1NiAyMS41ODcxNzMtODAuNTY2NDEyNTggNDYuNDUwOTcwMzktOTUuOTg1ODIyMzkgNTUuMzE3MTMxMzUtMTcuMzQ2ODM2MjkgMTAuMDIyNjE2MTEtMzQuODg2NDEzNSAxOC41MDMyOTEzOC00Ni4yNTgyMjc1NSAyMi4xNjUzOTk2LTE3LjM0NjgzNjI5IDUuNzgyMjc5MzgtMTkuODUyNDg5MzggNi4xNjc3NjMxOC00OC4xODU2NTQwMyA2LjE2Nzc2MzE5LTM1LjI3MTg5OTE4IDAuMTkyNzQyODUtNDUuMjk0NTE1My0yLjEyMDE2OTMtNzQuMjA1OTA2NTUtMTYuMTkwMzc5MjgtNDguMzc4Mzk2ODYtMjMuNzA3MzQyMy04MC45NTE4OTgyMi02OC4yMzA4ODYyMy04OS42MjUzMTYzNy0xMjIuMTk4ODE3NzUtMi4zMTI5MTIxNC0xMy44Nzc0NjkwMi0xLjkyNzQyNjQ2LTQ3Ljk5MjkxMTE5IDAuMzg1NDg1NjgtNTAuNDk4NTY0MjYgMC43NzA5NzEzNC0wLjU3ODIyODUgNDAuMDkwNDY0MzkgMjEuMzk0NDMwMTUgODcuNjk3ODg5OSA0OC45NTY2MjM0NyAxMDMuODg4MjY5MTYgNTkuOTQyOTUzNzQgOTYuNzU2NzkzNzIgNTYuMjgwODQzNjYgMTA3LjE2NDg5MzU4IDU2LjI4MDg0MzY4IDkuMjUxNjQ0NzUgMC0xLjE1NjQ1NTEzIDUuNTg5NTM2NTUgMTUzLjQyMzEyMzA2LTgzLjY1MDI5NDE1IDM5LjcwNDk3ODcyLTIyLjkzNjM3MDk1IDcyLjQ3MTIyMjkxLTQxLjYzMjQwNTE3IDcyLjg1NjcwODYtNDEuNjMyNDA1MTcgMC4zODU0ODU2NyAwIDAuNTc4MjI4NSAxOS40NjcwMDM2OSAwLjU3ODIyNjU5IDQyLjk4MTYwMzEyeiIvPjwvc3ZnPg==;imageBackground=none;fontFamily=Times New Roman;" vertex="1" parent="1">
          <mxGeometry x="783.25" y="797" width="37" height="37" as="geometry" />
        </mxCell>
        <mxCell id="trXp6Y1SY67JESG5djMZ-34" value="" style="group" vertex="1" connectable="0" parent="1">
          <mxGeometry x="740.75" y="593" width="122" height="122" as="geometry" />
        </mxCell>
        <mxCell id="trXp6Y1SY67JESG5djMZ-35" value="" style="shape=image;verticalLabelPosition=bottom;labelBackgroundColor=default;verticalAlign=top;aspect=fixed;imageAspect=0;image=data:image/svg+xml,PHN2ZyB4bWxuczp4bGluaz0iaHR0cDovL3d3dy53My5vcmcvMTk5OS94bGluayIgeG1sbnM9Imh0dHA6Ly93d3cudzMub3JnLzIwMDAvc3ZnIiBoZWlnaHQ9IjIwMCIgd2lkdGg9IjIwMCIgdmVyc2lvbj0iMS4xIiB2aWV3Qm94PSIwIDAgMTAyNCAxMDI0IiBjbGFzcz0iaWNvbiI+PHBhdGggZmlsbD0iI0U5RUFFQiIgZD0iTTEyMCA0OTZjMCAxMzcuMiA3My4yIDI2NCAxOTIgMzMyLjYgMTE4LjggNjguNiAyNjUuMiA2OC42IDM4NCAwQzgxNC44IDc2MCA4ODggNjMzLjIgODg4IDQ5NmMwLTEzNy4yLTczLjItMjY0LTE5Mi0zMzIuNi0xMTguOC02OC42LTI2NS4yLTY4LjYtMzg0IDBDMTkzLjIgMjMyLjEgMTIwIDM1OC44IDEyMCA0OTZ6IG0wIDAiLz48cGF0aCBmaWxsPSIjMkE1MDgyIiBkPSJNNDg4IDBoMzJ2MjI0aC0zMlYwek0yMzguOCA2MS45bDI3LjctMTYgMTE2LjMgMjAxLjUtMjcuNyAxNkwyMzguOCA2MS45ek01OS45IDI1NS4ybDE2LTI3LjcgMjAxLjUgMTE2LjMtMTYgMjcuN0w1OS45IDI1NS4yek04IDQ4MC4xaDIyNHYzMkg4di0zMnogbTU1LjMgMjU1LjhsMjAxLjUtMTE2LjMgMTYgMjcuN0w3OS4zIDc2My42bC0xNi0yNy43eiBtNjc5LjMtOTQuN2wxNi0yNy43IDIwMS41IDExNi4zLTE2IDI3LjctMjAxLjUtMTE2LjN6TTc5MiA0ODAuMWgyMjR2MzJINzkydi0zMnogbS01Mi45LTE0Mi40bDIwMS41LTExNi4zIDE2IDI3LjdMNzU1IDM2NS40bC0xNS45LTI3Ljd6TTYzMSAyNDMuOUw3NDcuMyA0Mi40bDI3LjcgMTYtMTE2LjMgMjAxLjUtMjcuNy0xNnogbTAgMCIvPjxwYXRoIGZpbGw9IiNCQ0MwQzQiIGQ9Ik00MDguNSAxODkuNmwzMC45LTguMyAxMS4xIDQxLjYtMzAuOSA4LjMtMTEuMS00MS42ek0yNzAuNyAyODFsMjIuNi0yMi42IDMwLjQgMzAuNC0yMi42IDIyLjYtMzAuNC0zMC40eiBtLTczLjggMTQ3LjdsOC4zLTMwLjkgNDEuNiAxMS4xLTguMyAzMC45LTQxLjYtMTEuMXogbTEuOCAxMzQuMmw0MS42LTExLjEgOC4zIDMwLjktNDEuNiAxMS4xLTguMy0zMC45eiBtNzYuOSAxNDYuMmwzMC40LTMwLjQgMjIuNiAyMi42LTMwLjQgMzAuNC0yMi42LTIyLjZ6IG00MjAuNi0xMi44bDIyLjYtMjIuNiAzMC40IDMwLjQtMjIuNiAyMi42LTMwLjQtMzAuNHogbTgwLjItMTIyLjhsOC4zLTMxIDQxLjggMTEuMi04LjMgMzEtNDEuOC0xMS4yeiBtLTUuMS0xNzEuMmw0MS42LTExLjEgOC4zIDMwLjktNDEuNiAxMS4xLTguMy0zMC45eiBtLTgwLjEtMTE4LjZsMzAuNC0zMC40IDIyLjYgMjIuNi0zMC40IDMwLjQtMjIuNi0yMi42ek01NjIuNSAyMjFsMTEuMS00MS42IDMwLjkgOC4zLTExLjEgNDEuNi0zMC45LTguM3ogbTAgMCIvPjxwYXRoIGZpbGw9IiNBM0Q0RkYiIGQ9Ik01MjMuMSAyNzIuM2MtOTUuNi00LjYtMTg0LjIgNTAtMjIzLjEgMTM3LjUtMzguOCA4Ny41LTE5LjkgMTg5LjggNDcuNyAyNTcuNyAyOCAyNy40IDQzLjkgNjQuOCA0NC4yIDEwMy45VjgwMEg2MzJ2LTI4LjdjLTAuMi0zOC4yIDE1LjEtNzQuOSA0Mi4zLTEwMS44IDQ0LjYtNDMuNCA2OS44LTEwMi45IDY5LjktMTY1LjEtMC44LTEyMy43LTk3LjYtMjI1LjQtMjIxLjEtMjMyLjF6IG0wIDAiLz48cGF0aCBmaWxsPSIjMkE1MDgyIiBkPSJNNjQ4IDgwMGgtMzJ2LTI4LjdjMC00Mi41IDE2LjktODMuMyA0Ny4yLTExMy4yIDQxLjUtNDAuMyA2NC45LTk1LjggNjQuOS0xNTMuNy0wLjktMTE1LTkwLjktMjA5LjYtMjA1LjctMjE2LjEtODktNC4zLTE3MS41IDQ2LjUtMjA3LjcgMTI4LTM2LjMgODEuNC0xOC42IDE3Ni43IDQ0LjMgMjM5LjggMzEuMSAzMC4zIDQ4LjcgNzEuOCA0OS4xIDExNS4yVjgwMGgtMzIuNHYtMjguN2MtMC40LTM0LjktMTQuNy02OC4zLTM5LjctOTIuNy03Mi4yLTcyLjYtOTIuNC0xODItNTAuOC0yNzUuNSA0MS42LTkzLjUgMTM2LjQtMTUxLjkgMjM4LjYtMTQ2LjkgMTMxLjggNy42IDIzNS4xIDExNi4xIDIzNi4yIDI0OC4xIDAgNjYuNS0yNi45IDEzMC4yLTc0LjcgMTc2LjUtMjQgMjMuOS0zNy41IDU2LjQtMzcuNCA5MC4zbDAuMSAyOC45eiBtMCAwIi8+PHBhdGggZmlsbD0iIzJBNTA4MiIgZD0iTTM3MiA0MzguNGwtMjkuNS0xMi44YzIzLTUyLjYgNzAuMS05MC42IDEyNi4zLTEwMmw2LjMgMzEuM2MtNDUuOCA5LjQtODQuMyA0MC41LTEwMy4xIDgzLjV6TTM2MCA0OTZoLTMyYzAtMTEuOCAxLjEtMjMuNiAzLjUtMzUuMmwzMS4zIDYuNGMtMS45IDkuNS0yLjggMTkuMi0yLjggMjguOHogbTE4Mi42IDUyOGgtNjEuM2wtMzItMzJINDI0di0zMmgzOC42bDMyIDMyaDM0LjdsMzItMzJINjAwdjMyaC0yNS40bC0zMiAzMnpNMzc2IDgzMmgyNzJ2MzJIMzc2di0zMnogbTAgNjRoMjcydjMySDM3NnYtMzJ6IG0xOTItMTkyaC0zMnYtOTUuOGgtNDhWNzA0aC0zMnYtOTUuOGgtMTQuN2MtMTIuMyAwLjItMjQuMy00LjUtMzMuMS0xMy4ycy0xMy43LTIwLjUtMTMuNy0zMi45YzAuMi0yNS44IDIxLjMtNDYuNiA0Ny4xLTQ2LjQgMjUuOCAwLjIgNDYuNiAyMS4yIDQ2LjQgNDcuMXYxMy41aDQ4di0xMy44YzAtMjUuOCAyMC45LTQ2LjcgNDYuNy00Ni43IDE2LjktMC43IDMyLjggOCA0MS41IDIyLjUgOC43IDE0LjUgOC43IDMyLjcgMCA0Ny4ycy0yNC42IDIzLjItNDEuNSAyMi41SDU2OHY5NnogbTAtMTI4aDE0LjdjNS4zIDAuNCAxMC4zLTIuMiAxMy4xLTYuNyAyLjgtNC41IDIuOC0xMC4yIDAtMTQuN3MtNy44LTcuMS0xMy4xLTYuN2MtOC4xIDAtMTQuNyA2LjYtMTQuNyAxNC43VjU3NnogbS0xMjYuNy0yOC41Yy04LjEgMC0xNC43IDYuNi0xNC43IDE0LjcgMC4xIDMuOCAxLjcgNy41IDQuNCAxMC4xczYuNSA0LjEgMTAuMyA0SDQ1NnYtMTMuOGMwLjEtNC0xLjQtNy44LTQuMi0xMC42LTIuOC0yLjgtNi42LTQuNC0xMC41LTQuNHogbTAgMCIvPjwvc3ZnPg==;" vertex="1" parent="trXp6Y1SY67JESG5djMZ-34">
          <mxGeometry x="35.75" width="50.5" height="50.5" as="geometry" />
        </mxCell>
        <mxCell id="trXp6Y1SY67JESG5djMZ-36" value="&lt;span style=&quot;forced-color-adjust: none; font-style: normal; font-variant-ligatures: normal; font-variant-caps: normal; letter-spacing: normal; orphans: 2; text-indent: 0px; text-transform: none; widows: 2; word-spacing: 0px; -webkit-text-stroke-width: 0px; white-space: normal; background-color: rgb(251, 251, 251); text-decoration-thickness: initial; text-decoration-style: initial; text-decoration-color: initial;&quot;&gt;&lt;font style=&quot;forced-color-adjust: none; font-size: 19px;&quot;&gt;&lt;font style=&quot;forced-color-adjust: none;&quot;&gt;Intention&lt;/font&gt;&lt;/font&gt;&lt;/span&gt;&lt;div&gt;&lt;span style=&quot;forced-color-adjust: none; font-style: normal; font-variant-ligatures: normal; font-variant-caps: normal; letter-spacing: normal; orphans: 2; text-indent: 0px; text-transform: none; widows: 2; word-spacing: 0px; -webkit-text-stroke-width: 0px; white-space: normal; background-color: rgb(251, 251, 251); text-decoration-thickness: initial; text-decoration-style: initial; text-decoration-color: initial;&quot;&gt;&lt;font style=&quot;forced-color-adjust: none; font-size: 19px;&quot;&gt;&lt;font style=&quot;forced-color-adjust: none;&quot;&gt;Definitions&lt;/font&gt;&lt;/font&gt;&lt;/span&gt;&lt;/div&gt;" style="text;whiteSpace=wrap;html=1;fontColor=default;fontFamily=Comic Sans MS;align=center;" vertex="1" parent="trXp6Y1SY67JESG5djMZ-34">
          <mxGeometry y="60" width="122" height="62" as="geometry" />
        </mxCell>
        <mxCell id="trXp6Y1SY67JESG5djMZ-37" value="&lt;span style=&quot;font-size: 19px;&quot;&gt;Dialogue History&lt;/span&gt;" style="text;whiteSpace=wrap;html=1;fontColor=default;fontFamily=Comic Sans MS;align=center;" vertex="1" parent="1">
          <mxGeometry x="939.25" y="742.5" width="182" height="48" as="geometry" />
        </mxCell>
        <mxCell id="trXp6Y1SY67JESG5djMZ-38" value="" style="endArrow=classic;html=1;rounded=0;exitX=0.5;exitY=1;exitDx=0;exitDy=0;entryX=0.5;entryY=0;entryDx=0;entryDy=0;strokeColor=#97D077;" edge="1" parent="1">
          <mxGeometry width="50" height="50" relative="1" as="geometry">
            <mxPoint x="801.75" y="710" as="sourcePoint" />
            <mxPoint x="801.75" y="792.0000000000002" as="targetPoint" />
          </mxGeometry>
        </mxCell>
        <mxCell id="trXp6Y1SY67JESG5djMZ-39" style="edgeStyle=orthogonalEdgeStyle;rounded=0;orthogonalLoop=1;jettySize=auto;html=1;entryX=1;entryY=0.5;entryDx=0;entryDy=0;strokeColor=#97D077;" edge="1" parent="1">
          <mxGeometry relative="1" as="geometry">
            <mxPoint x="1030.12" y="777" as="sourcePoint" />
            <mxPoint x="818.75" y="814" as="targetPoint" />
            <Array as="points">
              <mxPoint x="1030.12" y="814" />
            </Array>
          </mxGeometry>
        </mxCell>
        <mxCell id="trXp6Y1SY67JESG5djMZ-40" value="" style="shape=image;verticalLabelPosition=bottom;labelBackgroundColor=default;verticalAlign=top;aspect=fixed;imageAspect=0;image=data:image/svg+xml,PHN2ZyB4bWxuczp4bGluaz0iaHR0cDovL3d3dy53My5vcmcvMTk5OS94bGluayIgeG1sbnM9Imh0dHA6Ly93d3cudzMub3JnLzIwMDAvc3ZnIiBoZWlnaHQ9IjIwMCIgd2lkdGg9IjIwMCIgdmVyc2lvbj0iMS4xIiB2aWV3Qm94PSIwIDAgMTAyNCAxMDI0IiBjbGFzcz0iaWNvbiI+PHBhdGggZmlsbD0iIzAwMDAwMCIgZD0iTTgzOC4zNDg4IDUyOS44MTc2YzE2LjU4ODgtNjIuODIyNCAzMi4yNTYtMTIyLjE2MzIgMzIuMDUxMi0xNjkuOTg0Qzg2OS44ODggMTkyLjUxMiA3MjkuMTkwNCA1MS4yIDU2My4xNDg4IDUxLjJsLTMuOTQyNCAwLjA1MTJjLTE2OS44MzA0IDIuMzA0LTMxOS42OTI4IDE0Ni45OTUyLTMyMi41NiAzMTAuNDc2OGExMjkuMjggMTI5LjI4IDAgMCAwLTAuNTYzMiAxOC4zMjk2bDAuMTAyNCA1Ljc4NTZDMTYzLjA3MiA0NzUuOTU1MiAxNTMuNiA1MDkuNTQyNCAxNTMuNiA1MjguODk2YzAgMzEuNTkwNCAxNi45OTg0IDU4LjIxNDQgNDYuNTQwOCA3My4wMTEyIDkuNTIzMiA0LjgxMjggMjQuNDczNiA3LjM3MjggNTkuMDg0OCAxMC4xMzc2bDcuMTY4IDAuNTYzMkwyNjYuMjQgNzA0YzAuNjE0NCA0My40MTc2IDM1LjAyMDggNzguMzM2IDc3LjI2MDggNzguMzM2aDczLjIxNmwtMC4yMDQ4IDE2MS41MzZjMCA5LjYyNTYgNC40NTQ0IDE4LjU4NTYgMTIuMDgzMiAyNC4wNjRhMjYuODggMjYuODggMCAwIDAgMjUuODA0OCAyLjg2NzJsMzQwLjc4NzItMTQxLjUxNjhhMjkuMTg0IDI5LjE4NCAwIDAgMCAxNi42OTEyLTMzLjYzODRjLTAuMTUzNi0wLjYxNDQtMTQuMzM2LTYzLjc5NTItMS41MzYtMTQ0LjM4NCA2LjA0MTYtMzcuNjgzMiAxNy4yMDMyLTgwLjI4MTYgMjguMDU3Ni0xMjEuMzk1MnogbS01My4zNTA0LTE1LjM2Yy0xMS4yMTI4IDQyLjU5ODQtMjIuNzg0IDg2LjU3OTItMjkuMjg2NCAxMjcuMjgzMmE1MDIuNTc5MiA1MDIuNTc5MiAwIDAgMC0xLjk0NTYgMTQyLjQ4OTZsLTI4MS44NTYgMTE3LjA0MzIgMC4yMDQ4LTE0Ny44NjU2YTI5LjY0NDggMjkuNjQ0OCAwIDAgMC04LjA4OTYtMjAuNDggMjcuMTM2IDI3LjEzNiAwIDAgMC0xOS42MDk2LTguNDQ4SDM0Mi44ODY0YTIxLjY1NzYgMjEuNjU3NiAwIDAgMS0yMS4yNDgtMjAuODM4NGwwLjIwNDgtMTE3LjkxMzZhMjguNDE2IDI4LjQxNiAwIDAgMC0yNS43NTM2LTI4Ljg3NjhsLTMyLjYxNDQtMi41MDg4Yy0yNy44NTI4LTIuMjAxNi0zNy4zNzYtMy45NDI0LTM5LjQyNC00LjYwOC0xNS4wNTI4LTcuNTI2NC0xNS4wNTI4LTE3LjIwMzItMTUuMDUyOC0yMC40OCAwLjA1MTItMS4wMjQgMy4wNzItMjQuODMyIDcyLjQ5OTItMTA5Ljg3NTJsMi41Ni0zLjEyMzJjNy42OC05LjQ3MiA3LjUyNjQtMTkuMiA3LjM3MjgtMzYuODY0LTAuMDUxMi0zLjA3Mi0wLjEwMjQtNi4wOTI4LTAuMDUxMi04LjI5NDRhMjkuMDMwNCAyOS4wMzA0IDAgMCAwIDAuNTYzMi01LjczNDRjMC43NjgtMTMyLjE5ODQgMTI4LjUxMi0yNTQuMzYxNiAyNjcuOTgwOC0yNTYuMjU2aDMuMjI1NmMxMzYuMDg5NiAwIDI1MS4zOTIgMTE0Ljg5MjggMjUxLjkwNCAyNTAuODggMC4xMDI0IDM5LjkzNi0xNS4yNTc2IDk4LjIwMTYtMzAuMDU0NCAxNTQuNDcwNHogbS0yMjYuNDA2NC0zNTQuMzA0Yy05My43NDcyIDAtMTczLjAwNDggNTAuMDczNi0xNzMuMDA0OCAxMDkuMzYzMiAwIDY2LjYxMTIgOTUuMTgwOCA2Ni42MTEyIDE3OS4yIDY2LjYxMTIgODMuOTY4IDAgMTc5LjIgMCAxNzkuMi02Ni41NiAwLTYwLjM2NDgtODMuMi0xMDkuNDY1Ni0xODUuMzQ0LTEwOS40NjU2eiBtNS4zMjQ4IDExOC4xNjk2Yy05OC4zMDQgMC0xMjIuODgtNS4xMi0xMjcuMTI5Ni04LjgwNjQgMC0yMy4zNDcyIDUzLjQwMTYtNTEuNTU4NCAxMTkuNzA1Ni01MS41NTg0IDc3LjA1NiAwIDEzNC42NTYgMjcuMjM4NCAxMzYuMjk0NCA1Mi4xMjE2LTUuODM2OCAzLjA3Mi0zMC40NjQgOC4yNDMyLTEyOC44MTkyIDguMjQzMnoiLz48cGF0aCBmaWxsPSIjMDAwMDAwIiBkPSJNNzYwLjMyIDY2LjU2YTMzLjI4IDMzLjI4IDAgMSAxIDAtNjYuNTZoNzYuOEExODYuODggMTg2Ljg4IDAgMCAxIDEwMjQgMTg2Ljg4djY1MC4yNEExODYuODggMTg2Ljg4IDAgMCAxIDgzNy4xMiAxMDI0aC03Ni44YTMzLjI4IDMzLjI4IDAgMSAxIDAtNjYuNTZoNzYuOGExMjAuMzIgMTIwLjMyIDAgMCAwIDEyMC4zMi0xMjAuMzJWMTg2Ljg4YTEyMC4zMiAxMjAuMzIgMCAwIDAtMTIwLjMyLTEyMC4zMmgtNzYuOHogbS00OTYuNjQgODkwLjg4YTMzLjI4IDMzLjI4IDAgMSAxIDAgNjYuNTZoLTc2LjhBMTg2Ljg4IDE4Ni44OCAwIDAgMSAwIDgzNy4xMlYxODYuODhBMTg2Ljg4IDE4Ni44OCAwIDAgMSAxODYuODggMGg3Ni44YTMzLjI4IDMzLjI4IDAgMSAxIDAgNjYuNTZoLTc2LjhBMTIwLjMyIDEyMC4zMiAwIDAgMCA2Ni41NiAxODYuODh2NjUwLjI0YTEyMC4zMiAxMjAuMzIgMCAwIDAgMTIwLjMyIDEyMC4zMmg3Ni44eiIvPjwvc3ZnPg==;" vertex="1" parent="1">
          <mxGeometry x="776.75" y="875" width="50" height="50" as="geometry" />
        </mxCell>
        <mxCell id="trXp6Y1SY67JESG5djMZ-41" value="" style="endArrow=classic;html=1;rounded=0;exitX=0.5;exitY=1;exitDx=0;exitDy=0;strokeColor=#97D077;" edge="1" parent="1">
          <mxGeometry width="50" height="50" relative="1" as="geometry">
            <mxPoint x="800.84" y="838" as="sourcePoint" />
            <mxPoint x="800.84" y="872" as="targetPoint" />
          </mxGeometry>
        </mxCell>
        <mxCell id="trXp6Y1SY67JESG5djMZ-42" value="&lt;span style=&quot;color: rgb(0, 0, 0); font-family: &amp;quot;Comic Sans MS&amp;quot;; font-size: 19px; font-style: normal; font-variant-ligatures: normal; font-variant-caps: normal; font-weight: 400; letter-spacing: normal; orphans: 2; text-indent: 0px; text-transform: none; widows: 2; word-spacing: 0px; -webkit-text-stroke-width: 0px; white-space: normal; background-color: rgb(251, 251, 251); text-decoration-thickness: initial; text-decoration-style: initial; text-decoration-color: initial; float: none; display: inline !important;&quot;&gt;Intention&lt;/span&gt;" style="text;whiteSpace=wrap;html=1;align=center;" vertex="1" parent="1">
          <mxGeometry x="745.7481818181816" y="911.0036363636361" width="112" height="45" as="geometry" />
        </mxCell>
        <mxCell id="trXp6Y1SY67JESG5djMZ-43" value="&lt;span style=&quot;font-style: normal; font-variant-ligatures: normal; font-variant-caps: normal; font-weight: 400; letter-spacing: normal; orphans: 2; text-align: center; text-indent: 0px; text-transform: none; widows: 2; word-spacing: 0px; -webkit-text-stroke-width: 0px; white-space: normal; background-color: rgb(251, 251, 251); text-decoration-thickness: initial; text-decoration-style: initial; text-decoration-color: initial; float: none; display: inline !important;&quot;&gt;To find out specific facts about the seeker&#39;s anxiety triggers and understand the context of their stress outside of the job, thereby gathering more information to better address the seeker&#39;s concerns.&lt;/span&gt;" style="text;whiteSpace=wrap;html=1;fontFamily=Comic Sans MS;fontSize=17;fontColor=#000000;strokeColor=#65ba2e;" vertex="1" parent="1">
          <mxGeometry x="859.75" y="842" width="341" height="114.41" as="geometry" />
        </mxCell>
        <mxCell id="trXp6Y1SY67JESG5djMZ-44" value="" style="endArrow=none;html=1;rounded=0;entryX=0;entryY=0;entryDx=0;entryDy=0;exitX=1;exitY=0;exitDx=0;exitDy=0;dashed=1;strokeColor=#7ec553;" edge="1" parent="1" source="trXp6Y1SY67JESG5djMZ-40" target="trXp6Y1SY67JESG5djMZ-43">
          <mxGeometry width="50" height="50" relative="1" as="geometry">
            <mxPoint x="813.75" y="661" as="sourcePoint" />
            <mxPoint x="863.75" y="611" as="targetPoint" />
          </mxGeometry>
        </mxCell>
        <mxCell id="trXp6Y1SY67JESG5djMZ-45" value="" style="endArrow=none;html=1;rounded=0;entryX=1;entryY=1;entryDx=0;entryDy=0;dashed=1;strokeColor=#97D077;" edge="1" parent="1" target="trXp6Y1SY67JESG5djMZ-42">
          <mxGeometry width="50" height="50" relative="1" as="geometry">
            <mxPoint x="810.75" y="939" as="sourcePoint" />
            <mxPoint x="848.75" y="1003" as="targetPoint" />
          </mxGeometry>
        </mxCell>
        <mxCell id="trXp6Y1SY67JESG5djMZ-46" value="" style="group" vertex="1" connectable="0" parent="1">
          <mxGeometry x="884.75" y="512" width="210" height="40" as="geometry" />
        </mxCell>
        <mxCell id="trXp6Y1SY67JESG5djMZ-47" value="&lt;p style=&quot;margin: 0px; font-variant-numeric: normal; font-variant-east-asian: normal; font-variant-alternates: normal; font-size-adjust: none; font-kerning: auto; font-optical-sizing: auto; font-feature-settings: normal; font-variation-settings: normal; font-variant-position: normal; font-stretch: normal; line-height: normal; text-align: start; font-size: 20px;&quot; class=&quot;p1&quot;&gt;&lt;br&gt;&lt;/p&gt;" style="whiteSpace=wrap;html=1;fontFamily=Times New Roman;fontSize=20;shadow=0;strokeColor=none;" vertex="1" parent="trXp6Y1SY67JESG5djMZ-46">
          <mxGeometry width="210" height="40" as="geometry" />
        </mxCell>
        <mxCell id="trXp6Y1SY67JESG5djMZ-48" value="&lt;p style=&quot;margin: 0px; font-variant-numeric: normal; font-variant-east-asian: normal; font-variant-alternates: normal; font-size-adjust: none; font-kerning: auto; font-optical-sizing: auto; font-feature-settings: normal; font-variation-settings: normal; font-variant-position: normal; font-stretch: normal; line-height: normal; text-align: start;&quot; class=&quot;p1&quot;&gt;&lt;font style=&quot;font-size: 20px;&quot; face=&quot;Comic Sans MS&quot; color=&quot;#0e0e0e&quot;&gt;Intention G&lt;/font&gt;&lt;span style=&quot;background-color: initial; text-align: center;&quot;&gt;&lt;font face=&quot;Comic Sans MS&quot; color=&quot;#0e0e0e&quot;&gt;eneration&lt;/font&gt;&lt;/span&gt;&lt;/p&gt;" style="whiteSpace=wrap;html=1;fontFamily=Times New Roman;fillColor=#81b365;strokeColor=none;fontSize=20;shadow=1;sketch=1;curveFitting=1;jiggle=2;" vertex="1" parent="trXp6Y1SY67JESG5djMZ-46">
          <mxGeometry width="210" height="40" as="geometry" />
        </mxCell>
      </root>
    </mxGraphModel>
  </diagram>
</mxfile>
